<svg xmlns="http://www.w3.org/2000/svg" xmlns:xlink="http://www.w3.org/1999/xlink" xmlns:s="https://github.com/nturley/netlistsvg" width="997" height="885.5">
  <style>svg {
    stroke:#000;
    fill:none;
  }
  text {
    fill:#000;
    stroke:none;
    font-size:10px;
    font-weight: bold;
    font-family: "Courier New", monospace;
  }
  .nodelabel {
    text-anchor: middle;
  }
  .inputPortLabel {
    text-anchor: end;
  }
  .splitjoinBody {
    fill:#000;
  }</style>
  <g s:type="and" transform="translate(286,224.5)" s:width="30" s:height="25" id="cell_$and$/tmp/tmp5jmj_zu6.v:1024$270">
    <s:alias val="$and"/>
    <s:alias val="$logic_and"/>
    <s:alias val="$_AND_"/>
    <path d="M0,0 L0,25 L15,25 A15 12.5 0 0 0 15,0 Z" class="cell_$and$/tmp/tmp5jmj_zu6.v:1024$270"/>
    <g s:x="0" s:y="5" s:pid="A"/>
    <g s:x="0" s:y="20" s:pid="B"/>
    <g s:x="30" s:y="12.5" s:pid="Y"/>
  </g>
  <g s:type="and" transform="translate(188,605)" s:width="30" s:height="25" id="cell_$and$/tmp/tmp5jmj_zu6.v:1025$273">
    <s:alias val="$and"/>
    <s:alias val="$logic_and"/>
    <s:alias val="$_AND_"/>
    <path d="M0,0 L0,25 L15,25 A15 12.5 0 0 0 15,0 Z" class="cell_$and$/tmp/tmp5jmj_zu6.v:1025$273"/>
    <g s:x="0" s:y="5" s:pid="A"/>
    <g s:x="0" s:y="20" s:pid="B"/>
    <g s:x="30" s:y="12.5" s:pid="Y"/>
  </g>
  <g s:type="and" transform="translate(458.3333333333333,612.5)" s:width="30" s:height="25" id="cell_$and$/tmp/tmp5jmj_zu6.v:1028$277">
    <s:alias val="$and"/>
    <s:alias val="$logic_and"/>
    <s:alias val="$_AND_"/>
    <path d="M0,0 L0,25 L15,25 A15 12.5 0 0 0 15,0 Z" class="cell_$and$/tmp/tmp5jmj_zu6.v:1028$277"/>
    <g s:x="0" s:y="5" s:pid="A"/>
    <g s:x="0" s:y="20" s:pid="B"/>
    <g s:x="30" s:y="12.5" s:pid="Y"/>
  </g>
  <g s:type="and" transform="translate(848,848.5)" s:width="30" s:height="25" id="cell_$and$/tmp/tmp5jmj_zu6.v:1030$281">
    <s:alias val="$and"/>
    <s:alias val="$logic_and"/>
    <s:alias val="$_AND_"/>
    <path d="M0,0 L0,25 L15,25 A15 12.5 0 0 0 15,0 Z" class="cell_$and$/tmp/tmp5jmj_zu6.v:1030$281"/>
    <g s:x="0" s:y="5" s:pid="A"/>
    <g s:x="0" s:y="20" s:pid="B"/>
    <g s:x="30" s:y="12.5" s:pid="Y"/>
  </g>
  <g s:type="and" transform="translate(848,718.5)" s:width="30" s:height="25" id="cell_$and$/tmp/tmp5jmj_zu6.v:1031$282">
    <s:alias val="$and"/>
    <s:alias val="$logic_and"/>
    <s:alias val="$_AND_"/>
    <path d="M0,0 L0,25 L15,25 A15 12.5 0 0 0 15,0 Z" class="cell_$and$/tmp/tmp5jmj_zu6.v:1031$282"/>
    <g s:x="0" s:y="5" s:pid="A"/>
    <g s:x="0" s:y="20" s:pid="B"/>
    <g s:x="30" s:y="12.5" s:pid="Y"/>
  </g>
  <g s:type="and" transform="translate(848,783.5)" s:width="30" s:height="25" id="cell_$and$/tmp/tmp5jmj_zu6.v:1032$283">
    <s:alias val="$and"/>
    <s:alias val="$logic_and"/>
    <s:alias val="$_AND_"/>
    <path d="M0,0 L0,25 L15,25 A15 12.5 0 0 0 15,0 Z" class="cell_$and$/tmp/tmp5jmj_zu6.v:1032$283"/>
    <g s:x="0" s:y="5" s:pid="A"/>
    <g s:x="0" s:y="20" s:pid="B"/>
    <g s:x="30" s:y="12.5" s:pid="Y"/>
  </g>
  <g s:type="and" transform="translate(286,59.5)" s:width="30" s:height="25" id="cell_$and$/tmp/tmp5jmj_zu6.v:1052$286">
    <s:alias val="$and"/>
    <s:alias val="$logic_and"/>
    <s:alias val="$_AND_"/>
    <path d="M0,0 L0,25 L15,25 A15 12.5 0 0 0 15,0 Z" class="cell_$and$/tmp/tmp5jmj_zu6.v:1052$286"/>
    <g s:x="0" s:y="5" s:pid="A"/>
    <g s:x="0" s:y="20" s:pid="B"/>
    <g s:x="30" s:y="12.5" s:pid="Y"/>
  </g>
  <g s:type="and" transform="translate(361,67)" s:width="30" s:height="25" id="cell_$and$/tmp/tmp5jmj_zu6.v:1052$288">
    <s:alias val="$and"/>
    <s:alias val="$logic_and"/>
    <s:alias val="$_AND_"/>
    <path d="M0,0 L0,25 L15,25 A15 12.5 0 0 0 15,0 Z" class="cell_$and$/tmp/tmp5jmj_zu6.v:1052$288"/>
    <g s:x="0" s:y="5" s:pid="A"/>
    <g s:x="0" s:y="20" s:pid="B"/>
    <g s:x="30" s:y="12.5" s:pid="Y"/>
  </g>
  <g s:type="and" transform="translate(361,129.5)" s:width="30" s:height="25" id="cell_$and$/tmp/tmp5jmj_zu6.v:1052$289">
    <s:alias val="$and"/>
    <s:alias val="$logic_and"/>
    <s:alias val="$_AND_"/>
    <path d="M0,0 L0,25 L15,25 A15 12.5 0 0 0 15,0 Z" class="cell_$and$/tmp/tmp5jmj_zu6.v:1052$289"/>
    <g s:x="0" s:y="5" s:pid="A"/>
    <g s:x="0" s:y="20" s:pid="B"/>
    <g s:x="30" s:y="12.5" s:pid="Y"/>
  </g>
  <g s:type="and" transform="translate(848,19.5)" s:width="30" s:height="25" id="cell_$and$/tmp/tmp5jmj_zu6.v:1054$290">
    <s:alias val="$and"/>
    <s:alias val="$logic_and"/>
    <s:alias val="$_AND_"/>
    <path d="M0,0 L0,25 L15,25 A15 12.5 0 0 0 15,0 Z" class="cell_$and$/tmp/tmp5jmj_zu6.v:1054$290"/>
    <g s:x="0" s:y="5" s:pid="A"/>
    <g s:x="0" s:y="20" s:pid="B"/>
    <g s:x="30" s:y="12.5" s:pid="Y"/>
  </g>
  <g s:type="and" transform="translate(848,84.5)" s:width="30" s:height="25" id="cell_$and$/tmp/tmp5jmj_zu6.v:1056$291">
    <s:alias val="$and"/>
    <s:alias val="$logic_and"/>
    <s:alias val="$_AND_"/>
    <path d="M0,0 L0,25 L15,25 A15 12.5 0 0 0 15,0 Z" class="cell_$and$/tmp/tmp5jmj_zu6.v:1056$291"/>
    <g s:x="0" s:y="5" s:pid="A"/>
    <g s:x="0" s:y="20" s:pid="B"/>
    <g s:x="30" s:y="12.5" s:pid="Y"/>
  </g>
  <g s:type="not" transform="translate(190,219.5)" s:width="30" s:height="20" id="cell_$not$/tmp/tmp5jmj_zu6.v:1024$269">
    <s:alias val="$_NOT_"/>
    <s:alias val="$not"/>
    <s:alias val="$logic_not"/>
    <path d="M0,0 L0,20 L20,10 Z" class="cell_$not$/tmp/tmp5jmj_zu6.v:1024$269"/>
    <circle cx="23" cy="10" r="3" class="cell_$not$/tmp/tmp5jmj_zu6.v:1024$269"/>
    <g s:x="0" s:y="10" s:pid="A"/>
    <g s:x="25" s:y="10" s:pid="Y"/>
  </g>
  <g s:type="not" transform="translate(110,600)" s:width="30" s:height="20" id="cell_$not$/tmp/tmp5jmj_zu6.v:1025$271">
    <s:alias val="$_NOT_"/>
    <s:alias val="$not"/>
    <s:alias val="$logic_not"/>
    <path d="M0,0 L0,20 L20,10 Z" class="cell_$not$/tmp/tmp5jmj_zu6.v:1025$271"/>
    <circle cx="23" cy="10" r="3" class="cell_$not$/tmp/tmp5jmj_zu6.v:1025$271"/>
    <g s:x="0" s:y="10" s:pid="A"/>
    <g s:x="25" s:y="10" s:pid="Y"/>
  </g>
  <g s:type="not" transform="translate(110,655)" s:width="30" s:height="20" id="cell_$not$/tmp/tmp5jmj_zu6.v:1025$272">
    <s:alias val="$_NOT_"/>
    <s:alias val="$not"/>
    <s:alias val="$logic_not"/>
    <path d="M0,0 L0,20 L20,10 Z" class="cell_$not$/tmp/tmp5jmj_zu6.v:1025$272"/>
    <circle cx="23" cy="10" r="3" class="cell_$not$/tmp/tmp5jmj_zu6.v:1025$272"/>
    <g s:x="0" s:y="10" s:pid="A"/>
    <g s:x="25" s:y="10" s:pid="Y"/>
  </g>
  <g s:type="not" transform="translate(286,119.5)" s:width="30" s:height="20" id="cell_$not$/tmp/tmp5jmj_zu6.v:1052$287">
    <s:alias val="$_NOT_"/>
    <s:alias val="$not"/>
    <s:alias val="$logic_not"/>
    <path d="M0,0 L0,20 L20,10 Z" class="cell_$not$/tmp/tmp5jmj_zu6.v:1052$287"/>
    <circle cx="23" cy="10" r="3" class="cell_$not$/tmp/tmp5jmj_zu6.v:1052$287"/>
    <g s:x="0" s:y="10" s:pid="A"/>
    <g s:x="25" s:y="10" s:pid="Y"/>
  </g>
  <g s:type="or" transform="translate(107,129.5)" s:width="30" s:height="25" id="cell_$or$/tmp/tmp5jmj_zu6.v:1029$279">
    <s:alias val="$or"/>
    <s:alias val="$logic_or"/>
    <s:alias val="$_OR_"/>
    <path d="M0,25 L0,25 L15,25 A15 12.5 0 0 0 15,0 L0,0" class="cell_$or$/tmp/tmp5jmj_zu6.v:1029$279"/>
    <path d="M0,0 A30 25 0 0 1 0,25" class="cell_$or$/tmp/tmp5jmj_zu6.v:1029$279"/>
    <g s:x="3" s:y="5" s:pid="A"/>
    <g s:x="3" s:y="20" s:pid="B"/>
    <g s:x="30" s:y="12.5" s:pid="Y"/>
  </g>
  <g s:type="or" transform="translate(188,137)" s:width="30" s:height="25" id="cell_$or$/tmp/tmp5jmj_zu6.v:1029$280">
    <s:alias val="$or"/>
    <s:alias val="$logic_or"/>
    <s:alias val="$_OR_"/>
    <path d="M0,25 L0,25 L15,25 A15 12.5 0 0 0 15,0 L0,0" class="cell_$or$/tmp/tmp5jmj_zu6.v:1029$280"/>
    <path d="M0,0 A30 25 0 0 1 0,25" class="cell_$or$/tmp/tmp5jmj_zu6.v:1029$280"/>
    <g s:x="3" s:y="5" s:pid="A"/>
    <g s:x="3" s:y="20" s:pid="B"/>
    <g s:x="30" s:y="12.5" s:pid="Y"/>
  </g>
  <g s:type="generic" transform="translate(571,39)" s:width="30" s:height="40" id="cell_$procdff$1458">
    <text x="15" y="-4" class="nodelabel cell_$procdff$1458" s:attribute="ref">$adff</text>
    <rect width="30" height="60" s:generic="body" class="cell_$procdff$1458"/>
    <g transform="translate(0,10)" s:x="0" s:y="10" s:pid="in0" id="port_$procdff$1458~ARST">
      <text x="-3" y="-4" class="inputPortLabel cell_$procdff$1458">ARST</text>
    </g>
    <g transform="translate(0,30)" s:x="0" s:y="10" s:pid="in0" id="port_$procdff$1458~CLK">
      <text x="-3" y="-4" class="inputPortLabel cell_$procdff$1458">CLK</text>
    </g>
    <g transform="translate(0,50)" s:x="0" s:y="10" s:pid="in0" id="port_$procdff$1458~D">
      <text x="-3" y="-4" class="inputPortLabel cell_$procdff$1458">D</text>
    </g>
    <g transform="translate(30,10)" s:x="30" s:y="10" s:pid="out0" id="port_$procdff$1458~Q">
      <text x="5" y="-4" style="fill:#000; stroke:none" class="cell_$procdff$1458">Q</text>
    </g>
  </g>
  <g s:type="mux" transform="translate(461.6666666666667,199.5)" s:width="20" s:height="40" id="cell_$ternary$/tmp/tmp5jmj_zu6.v:1026$274">
    <s:alias val="$pmux"/>
    <s:alias val="$mux"/>
    <s:alias val="$_MUX_"/>
    <path d="M0,0 L20,10 L20,30 L0,40 Z" class="cell_$ternary$/tmp/tmp5jmj_zu6.v:1026$274"/>
    <g s:x="0" s:y="10" s:pid="A"/>
    <g s:x="0" s:y="30" s:pid="B"/>
    <g s:x="10" s:y="35" s:pid="S"/>
    <g s:x="20" s:y="20" s:pid="Y"/>
  </g>
  <g s:type="mux" transform="translate(582,209.5)" s:width="20" s:height="40" id="cell_$ternary$/tmp/tmp5jmj_zu6.v:1026$275">
    <s:alias val="$pmux"/>
    <s:alias val="$mux"/>
    <s:alias val="$_MUX_"/>
    <path d="M0,0 L20,10 L20,30 L0,40 Z" class="cell_$ternary$/tmp/tmp5jmj_zu6.v:1026$275"/>
    <g s:x="0" s:y="10" s:pid="A"/>
    <g s:x="0" s:y="30" s:pid="B"/>
    <g s:x="10" s:y="35" s:pid="S"/>
    <g s:x="20" s:y="20" s:pid="Y"/>
  </g>
  <g s:type="mux" transform="translate(582,506.5)" s:width="20" s:height="40" id="cell_$ternary$/tmp/tmp5jmj_zu6.v:1027$276">
    <s:alias val="$pmux"/>
    <s:alias val="$mux"/>
    <s:alias val="$_MUX_"/>
    <path d="M0,0 L20,10 L20,30 L0,40 Z" class="cell_$ternary$/tmp/tmp5jmj_zu6.v:1027$276"/>
    <g s:x="0" s:y="10" s:pid="A"/>
    <g s:x="0" s:y="30" s:pid="B"/>
    <g s:x="10" s:y="35" s:pid="S"/>
    <g s:x="20" s:y="20" s:pid="Y"/>
  </g>
  <g s:type="mux" transform="translate(582,615)" s:width="20" s:height="40" id="cell_$ternary$/tmp/tmp5jmj_zu6.v:1028$278">
    <s:alias val="$pmux"/>
    <s:alias val="$mux"/>
    <s:alias val="$_MUX_"/>
    <path d="M0,0 L20,10 L20,30 L0,40 Z" class="cell_$ternary$/tmp/tmp5jmj_zu6.v:1028$278"/>
    <g s:x="0" s:y="10" s:pid="A"/>
    <g s:x="0" s:y="30" s:pid="B"/>
    <g s:x="10" s:y="35" s:pid="S"/>
    <g s:x="20" s:y="20" s:pid="Y"/>
  </g>
  <g s:type="generic" transform="translate(740,219)" s:width="30" s:height="40" id="cell_u_sram">
    <text x="15" y="-4" class="nodelabel cell_u_sram" s:attribute="ref">$paramod$35c372d3fe8f6c26b6ced4e47de643d3f41a08a7\npu_local_mem_wrap</text>
    <rect width="30" height="120" s:generic="body" class="cell_u_sram"/>
    <g transform="translate(0,10)" s:x="0" s:y="10" s:pid="in0" id="port_u_sram~addr">
      <text x="-3" y="-4" class="inputPortLabel cell_u_sram">addr</text>
    </g>
    <g transform="translate(0,30)" s:x="0" s:y="10" s:pid="in0" id="port_u_sram~clk">
      <text x="-3" y="-4" class="inputPortLabel cell_u_sram">clk</text>
    </g>
    <g transform="translate(0,50)" s:x="0" s:y="10" s:pid="in0" id="port_u_sram~req">
      <text x="-3" y="-4" class="inputPortLabel cell_u_sram">req</text>
    </g>
    <g transform="translate(0,70)" s:x="0" s:y="10" s:pid="in0" id="port_u_sram~rst_n">
      <text x="-3" y="-4" class="inputPortLabel cell_u_sram">rst_n</text>
    </g>
    <g transform="translate(0,90)" s:x="0" s:y="10" s:pid="in0" id="port_u_sram~wdata">
      <text x="-3" y="-4" class="inputPortLabel cell_u_sram">wdata</text>
    </g>
    <g transform="translate(0,110)" s:x="0" s:y="10" s:pid="in0" id="port_u_sram~we">
      <text x="-3" y="-4" class="inputPortLabel cell_u_sram">we</text>
    </g>
    <g transform="translate(30,10)" s:x="30" s:y="10" s:pid="out0" id="port_u_sram~gnt">
      <text x="5" y="-4" style="fill:#000; stroke:none" class="cell_u_sram">gnt</text>
    </g>
    <g transform="translate(30,30)" s:x="30" s:y="10" s:pid="out0" id="port_u_sram~rdata">
      <text x="5" y="-4" style="fill:#000; stroke:none" class="cell_u_sram">rdata</text>
    </g>
    <g transform="translate(30,50)" s:x="30" s:y="10" s:pid="out0" id="port_u_sram~rvalid">
      <text x="5" y="-4" style="fill:#000; stroke:none" class="cell_u_sram">rvalid</text>
    </g>
  </g>
  <g s:type="inputExt" transform="translate(446,314.5)" s:width="30" s:height="20" id="cell_clk">
    <text x="15" y="-4" class="nodelabel cell_clk" s:attribute="ref">clk</text>
    <s:alias val="$_inputExt_"/>
    <path d="M0,0 L0,20 L15,20 L30,10 L15,0 Z" class="cell_clk"/>
    <g s:x="28" s:y="10" s:pid="Y"/>
  </g>
  <g s:type="inputExt" transform="translate(446,444.5)" s:width="30" s:height="20" id="cell_rst_n">
    <text x="15" y="-4" class="nodelabel cell_rst_n" s:attribute="ref">rst_n</text>
    <s:alias val="$_inputExt_"/>
    <path d="M0,0 L0,20 L15,20 L30,10 L15,0 Z" class="cell_rst_n"/>
    <g s:x="28" s:y="10" s:pid="Y"/>
  </g>
  <g s:type="inputExt" transform="translate(351,199.5)" s:width="30" s:height="20" id="cell_host_addr">
    <text x="15" y="-4" class="nodelabel cell_host_addr" s:attribute="ref">host_addr</text>
    <s:alias val="$_inputExt_"/>
    <path d="M0,0 L0,20 L15,20 L30,10 L15,0 Z" class="cell_host_addr"/>
    <g s:x="28" s:y="10" s:pid="Y"/>
  </g>
  <g s:type="inputExt" transform="translate(446,506.5)" s:width="30" s:height="20" id="cell_host_wdata">
    <text x="15" y="-4" class="nodelabel cell_host_wdata" s:attribute="ref">host_wdata</text>
    <s:alias val="$_inputExt_"/>
    <path d="M0,0 L0,20 L15,20 L30,10 L15,0 Z" class="cell_host_wdata"/>
    <g s:x="28" s:y="10" s:pid="Y"/>
  </g>
  <g s:type="inputExt" transform="translate(184,284.5)" s:width="30" s:height="20" id="cell_host_we">
    <text x="15" y="-4" class="nodelabel cell_host_we" s:attribute="ref">host_we</text>
    <s:alias val="$_inputExt_"/>
    <path d="M0,0 L0,20 L15,20 L30,10 L15,0 Z" class="cell_host_we"/>
    <g s:x="28" s:y="10" s:pid="Y"/>
  </g>
  <g s:type="inputExt" transform="translate(101,199.5)" s:width="30" s:height="20" id="cell_host_req">
    <text x="15" y="-4" class="nodelabel cell_host_req" s:attribute="ref">host_req</text>
    <s:alias val="$_inputExt_"/>
    <path d="M0,0 L0,20 L15,20 L30,10 L15,0 Z" class="cell_host_req"/>
    <g s:x="28" s:y="10" s:pid="Y"/>
  </g>
  <g s:type="outputExt" transform="translate(913,786)" s:width="30" s:height="20" id="cell_host_gnt">
    <text x="15" y="-4" class="nodelabel cell_host_gnt" s:attribute="ref">host_gnt</text>
    <s:alias val="$_outputExt_"/>
    <path d="M30,0 L30,20 L15,20 L0,10 L15,0 Z" class="cell_host_gnt"/>
    <g s:x="0" s:y="10" s:pid="A"/>
  </g>
  <g s:type="outputExt" transform="translate(913,304.5)" s:width="30" s:height="20" id="cell_host_rdata">
    <text x="15" y="-4" class="nodelabel cell_host_rdata" s:attribute="ref">host_rdata</text>
    <s:alias val="$_outputExt_"/>
    <path d="M30,0 L30,20 L15,20 L0,10 L15,0 Z" class="cell_host_rdata"/>
    <g s:x="0" s:y="10" s:pid="A"/>
  </g>
  <g s:type="outputExt" transform="translate(913,22)" s:width="30" s:height="20" id="cell_host_rvalid">
    <text x="15" y="-4" class="nodelabel cell_host_rvalid" s:attribute="ref">host_rvalid</text>
    <s:alias val="$_outputExt_"/>
    <path d="M30,0 L30,20 L15,20 L0,10 L15,0 Z" class="cell_host_rvalid"/>
    <g s:x="0" s:y="10" s:pid="A"/>
  </g>
  <g s:type="inputExt" transform="translate(351,264.5)" s:width="30" s:height="20" id="cell_be_rd_addr">
    <text x="15" y="-4" class="nodelabel cell_be_rd_addr" s:attribute="ref">be_rd_addr</text>
    <s:alias val="$_inputExt_"/>
    <path d="M0,0 L0,20 L15,20 L30,10 L15,0 Z" class="cell_be_rd_addr"/>
    <g s:x="28" s:y="10" s:pid="Y"/>
  </g>
  <g s:type="inputExt" transform="translate(12,304.5)" s:width="30" s:height="20" id="cell_be_rd_req">
    <text x="15" y="-4" class="nodelabel cell_be_rd_req" s:attribute="ref">be_rd_req</text>
    <s:alias val="$_inputExt_"/>
    <path d="M0,0 L0,20 L15,20 L30,10 L15,0 Z" class="cell_be_rd_req"/>
    <g s:x="28" s:y="10" s:pid="Y"/>
  </g>
  <g s:type="outputExt" transform="translate(913,721)" s:width="30" s:height="20" id="cell_be_rd_gnt">
    <text x="15" y="-4" class="nodelabel cell_be_rd_gnt" s:attribute="ref">be_rd_gnt</text>
    <s:alias val="$_outputExt_"/>
    <path d="M30,0 L30,20 L15,20 L0,10 L15,0 Z" class="cell_be_rd_gnt"/>
    <g s:x="0" s:y="10" s:pid="A"/>
  </g>
  <g s:type="outputExt" transform="translate(913,239.5)" s:width="30" s:height="20" id="cell_be_rd_rdata">
    <text x="15" y="-4" class="nodelabel cell_be_rd_rdata" s:attribute="ref">be_rd_rdata</text>
    <s:alias val="$_outputExt_"/>
    <path d="M30,0 L30,20 L15,20 L0,10 L15,0 Z" class="cell_be_rd_rdata"/>
    <g s:x="0" s:y="10" s:pid="A"/>
  </g>
  <g s:type="outputExt" transform="translate(913,87)" s:width="30" s:height="20" id="cell_be_rd_rvalid">
    <text x="15" y="-4" class="nodelabel cell_be_rd_rvalid" s:attribute="ref">be_rd_rvalid</text>
    <s:alias val="$_outputExt_"/>
    <path d="M30,0 L30,20 L15,20 L0,10 L15,0 Z" class="cell_be_rd_rvalid"/>
    <g s:x="0" s:y="10" s:pid="A"/>
  </g>
  <g s:type="inputExt" transform="translate(446,379.5)" s:width="30" s:height="20" id="cell_be_wr_addr">
    <text x="15" y="-4" class="nodelabel cell_be_wr_addr" s:attribute="ref">be_wr_addr</text>
    <s:alias val="$_inputExt_"/>
    <path d="M0,0 L0,20 L15,20 L30,10 L15,0 Z" class="cell_be_wr_addr"/>
    <g s:x="28" s:y="10" s:pid="Y"/>
  </g>
  <g s:type="inputExt" transform="translate(446,571.5)" s:width="30" s:height="20" id="cell_be_wr_data">
    <text x="15" y="-4" class="nodelabel cell_be_wr_data" s:attribute="ref">be_wr_data</text>
    <s:alias val="$_inputExt_"/>
    <path d="M0,0 L0,20 L15,20 L30,10 L15,0 Z" class="cell_be_wr_data"/>
    <g s:x="28" s:y="10" s:pid="Y"/>
  </g>
  <g s:type="inputExt" transform="translate(12,600)" s:width="30" s:height="20" id="cell_be_wr_req">
    <text x="15" y="-4" class="nodelabel cell_be_wr_req" s:attribute="ref">be_wr_req</text>
    <s:alias val="$_inputExt_"/>
    <path d="M0,0 L0,20 L15,20 L30,10 L15,0 Z" class="cell_be_wr_req"/>
    <g s:x="28" s:y="10" s:pid="Y"/>
  </g>
  <g s:type="outputExt" transform="translate(913,851)" s:width="30" s:height="20" id="cell_be_wr_gnt">
    <text x="15" y="-4" class="nodelabel cell_be_wr_gnt" s:attribute="ref">be_wr_gnt</text>
    <s:alias val="$_outputExt_"/>
    <path d="M30,0 L30,20 L15,20 L0,10 L15,0 Z" class="cell_be_wr_gnt"/>
    <g s:x="0" s:y="10" s:pid="A"/>
  </g>
  <g s:type="constant" transform="translate(446,682.5)" s:width="30" s:height="20" id="cell_1">
    <text x="15" y="-4" class="nodelabel cell_1" s:attribute="ref">1</text>
    <s:alias val="$_constant_"/>
    <rect width="30" height="20" class="cell_1"/>
    <g s:x="30" s:y="10" s:pid="Y"/>
  </g>
  <g s:type="join" transform="translate(467,69)" s:width="4" s:height="40" id="cell_$join$,86,87,">
    <rect width="5" height="40" class="splitjoinBody" s:generic="body"/>
    <s:alias val="$_join_"/>
    <g s:x="5" s:y="20" s:pid="out"/>
    <g transform="translate(0,10)" s:x="0" s:y="10" s:pid="in0">
      <text x="-3" y="-4" class="inputPortLabel">0</text>
    </g>
    <g transform="translate(0,30)" s:x="0" s:y="10" s:pid="in0">
      <text x="-3" y="-4" class="inputPortLabel">1</text>
    </g>
  </g>
  <g s:type="split" transform="translate(759,29)" s:width="5" s:height="40" id="cell_$split$,89,90,">
    <rect width="5" height="40" class="splitjoinBody" s:generic="body"/>
    <s:alias val="$_split_"/>
    <g s:x="0" s:y="20" s:pid="in"/>
    <g transform="translate(4,10)" s:x="4" s:y="10" s:pid="out0">
      <text x="5" y="-4">0</text>
    </g>
    <g transform="translate(4,30)" s:x="4" s:y="10" s:pid="out0">
      <text x="5" y="-4">1</text>
    </g>
  </g>
  <line x1="215" x2="286" y1="229.5" y2="229.5" class="net_76"/>
  <line x1="40" x2="276" y1="314.5" y2="314.5" class="net_50"/>
  <line x1="276" x2="276" y1="314.5" y2="244.5" class="net_50"/>
  <line x1="276" x2="286" y1="244.5" y2="244.5" class="net_50"/>
  <line x1="40" x2="86" y1="314.5" y2="314.5" class="net_50"/>
  <line x1="86" x2="86" y1="314.5" y2="665" class="net_50"/>
  <circle cx="86" cy="314.5" r="2" style="fill:#000" class="net_50"/>
  <line x1="86" x2="110" y1="665" y2="665" class="net_50"/>
  <line x1="40" x2="86" y1="314.5" y2="314.5" class="net_50"/>
  <line x1="86" x2="86" y1="314.5" y2="149.5" class="net_50"/>
  <line x1="86" x2="110" y1="149.5" y2="149.5" class="net_50"/>
  <line x1="135" x2="188" y1="610" y2="610" class="net_78"/>
  <line x1="135" x2="159" y1="665" y2="665" class="net_79"/>
  <line x1="159" x2="159" y1="665" y2="625" class="net_79"/>
  <line x1="159" x2="188" y1="625" y2="625" class="net_79"/>
  <line x1="218" x2="458.3333333333333" y1="617.5" y2="617.5" class="net_80"/>
  <line x1="218" x2="246" y1="617.5" y2="617.5" class="net_80"/>
  <line x1="246" x2="246" y1="617.5" y2="788.5" class="net_80"/>
  <circle cx="246" cy="617.5" r="2" style="fill:#000" class="net_80"/>
  <line x1="246" x2="848" y1="788.5" y2="788.5" class="net_80"/>
  <line x1="218" x2="246" y1="617.5" y2="617.5" class="net_80"/>
  <line x1="246" x2="246" y1="617.5" y2="64.5" class="net_80"/>
  <line x1="246" x2="286" y1="64.5" y2="64.5" class="net_80"/>
  <line x1="212" x2="266" y1="294.5" y2="294.5" class="net_25"/>
  <line x1="266" x2="266" y1="294.5" y2="632.5" class="net_25"/>
  <circle cx="266" cy="294.5" r="2" style="fill:#000" class="net_25"/>
  <line x1="266" x2="458.3333333333333" y1="632.5" y2="632.5" class="net_25"/>
  <line x1="212" x2="266" y1="294.5" y2="294.5" class="net_25"/>
  <line x1="266" x2="266" y1="294.5" y2="129.5" class="net_25"/>
  <line x1="266" x2="286" y1="129.5" y2="129.5" class="net_25"/>
  <line x1="40" x2="76" y1="610" y2="610" class="net_74"/>
  <line x1="76" x2="76" y1="610" y2="712.5" class="net_74"/>
  <line x1="76" x2="236" y1="712.5" y2="712.5" class="net_74"/>
  <line x1="236" x2="236" y1="712.5" y2="853.5" class="net_74"/>
  <circle cx="76" cy="610" r="2" style="fill:#000" class="net_74"/>
  <line x1="236" x2="848" y1="853.5" y2="853.5" class="net_74"/>
  <line x1="40" x2="76" y1="610" y2="610" class="net_74"/>
  <line x1="76" x2="76" y1="610" y2="229.5" class="net_74"/>
  <circle cx="76" cy="229.5" r="2" style="fill:#000" class="net_74"/>
  <line x1="76" x2="190" y1="229.5" y2="229.5" class="net_74"/>
  <line x1="40" x2="110" y1="610" y2="610" class="net_74"/>
  <line x1="40" x2="76" y1="610" y2="610" class="net_74"/>
  <line x1="76" x2="76" y1="610" y2="134.5" class="net_74"/>
  <line x1="76" x2="110" y1="134.5" y2="134.5" class="net_74"/>
  <line x1="40" x2="76" y1="610" y2="610" class="net_74"/>
  <line x1="76" x2="76" y1="610" y2="485.5" class="net_74"/>
  <line x1="76" x2="592" y1="485.5" y2="485.5" class="net_74"/>
  <circle cx="76" cy="485.5" r="2" style="fill:#000" class="net_74"/>
  <line x1="592" x2="592" y1="485.5" y2="244.5" class="net_74"/>
  <line x1="40" x2="76" y1="610" y2="610" class="net_74"/>
  <line x1="76" x2="76" y1="610" y2="712.5" class="net_74"/>
  <line x1="76" x2="236" y1="712.5" y2="712.5" class="net_74"/>
  <line x1="236" x2="236" y1="712.5" y2="485.5" class="net_74"/>
  <line x1="236" x2="421" y1="485.5" y2="485.5" class="net_74"/>
  <line x1="421" x2="421" y1="485.5" y2="601.5" class="net_74"/>
  <line x1="421" x2="592" y1="601.5" y2="601.5" class="net_74"/>
  <circle cx="236" cy="712.5" r="2" style="fill:#000" class="net_74"/>
  <circle cx="236" cy="485.5" r="2" style="fill:#000" class="net_74"/>
  <circle cx="421" cy="485.5" r="2" style="fill:#000" class="net_74"/>
  <line x1="592" x2="592" y1="601.5" y2="541.5" class="net_74"/>
  <line x1="40" x2="76" y1="610" y2="610" class="net_74"/>
  <line x1="76" x2="76" y1="610" y2="712.5" class="net_74"/>
  <line x1="76" x2="592" y1="712.5" y2="712.5" class="net_74"/>
  <line x1="592" x2="592" y1="712.5" y2="650" class="net_74"/>
  <line x1="771" x2="838" y1="229.5" y2="229.5" class="net_82"/>
  <line x1="838" x2="838" y1="229.5" y2="868.5" class="net_82"/>
  <line x1="838" x2="848" y1="868.5" y2="868.5" class="net_82"/>
  <line x1="771" x2="838" y1="229.5" y2="229.5" class="net_82"/>
  <line x1="838" x2="838" y1="229.5" y2="738.5" class="net_82"/>
  <circle cx="838" cy="738.5" r="2" style="fill:#000" class="net_82"/>
  <line x1="838" x2="848" y1="738.5" y2="738.5" class="net_82"/>
  <line x1="771" x2="838" y1="229.5" y2="229.5" class="net_82"/>
  <line x1="838" x2="838" y1="229.5" y2="803.5" class="net_82"/>
  <circle cx="838" cy="803.5" r="2" style="fill:#000" class="net_82"/>
  <line x1="838" x2="848" y1="803.5" y2="803.5" class="net_82"/>
  <line x1="316" x2="326" y1="237" y2="237" class="net_77"/>
  <line x1="326" x2="326" y1="237" y2="723.5" class="net_77"/>
  <circle cx="326" cy="237" r="2" style="fill:#000" class="net_77"/>
  <line x1="326" x2="848" y1="723.5" y2="723.5" class="net_77"/>
  <line x1="316" x2="326" y1="237" y2="237" class="net_77"/>
  <line x1="326" x2="326" y1="237" y2="134.5" class="net_77"/>
  <line x1="326" x2="361" y1="134.5" y2="134.5" class="net_77"/>
  <line x1="316" x2="326" y1="237" y2="237" class="net_77"/>
  <line x1="326" x2="326" y1="237" y2="294.5" class="net_77"/>
  <line x1="326" x2="471.6666666666667" y1="294.5" y2="294.5" class="net_77"/>
  <circle cx="326" cy="294.5" r="2" style="fill:#000" class="net_77"/>
  <line x1="471.6666666666667" x2="471.6666666666667" y1="294.5" y2="234.5" class="net_77"/>
  <line x1="218" x2="256" y1="149.5" y2="149.5" class="net_83"/>
  <line x1="256" x2="256" y1="149.5" y2="79.5" class="net_83"/>
  <circle cx="256" cy="149.5" r="2" style="fill:#000" class="net_83"/>
  <line x1="256" x2="286" y1="79.5" y2="79.5" class="net_83"/>
  <line x1="218" x2="361" y1="149.5" y2="149.5" class="net_83"/>
  <line x1="218" x2="336" y1="149.5" y2="149.5" class="net_83"/>
  <line x1="336" x2="336" y1="149.5" y2="474.5" class="net_83"/>
  <line x1="336" x2="669" y1="474.5" y2="474.5" class="net_83"/>
  <line x1="669" x2="669" y1="474.5" y2="269.5" class="net_83"/>
  <circle cx="336" cy="149.5" r="2" style="fill:#000" class="net_83"/>
  <line x1="669" x2="740" y1="269.5" y2="269.5" class="net_83"/>
  <line x1="316" x2="361" y1="72" y2="72" class="net_84"/>
  <line x1="311" x2="326" y1="129.5" y2="129.5" class="net_85"/>
  <line x1="326" x2="326" y1="129.5" y2="87" class="net_85"/>
  <line x1="326" x2="361" y1="87" y2="87" class="net_85"/>
  <line x1="771" x2="828" y1="269.5" y2="269.5" class="net_88"/>
  <line x1="828" x2="828" y1="269.5" y2="24.5" class="net_88"/>
  <line x1="828" x2="848" y1="24.5" y2="24.5" class="net_88"/>
  <line x1="771" x2="828" y1="269.5" y2="269.5" class="net_88"/>
  <line x1="828" x2="828" y1="269.5" y2="89.5" class="net_88"/>
  <circle cx="828" cy="89.5" r="2" style="fill:#000" class="net_88"/>
  <line x1="828" x2="848" y1="89.5" y2="89.5" class="net_88"/>
  <line x1="764" x2="848" y1="39.5" y2="39.5" class="net_89"/>
  <line x1="764" x2="818" y1="59.5" y2="59.5" class="net_90"/>
  <line x1="818" x2="818" y1="59.5" y2="104.5" class="net_90"/>
  <line x1="818" x2="848" y1="104.5" y2="104.5" class="net_90"/>
  <line x1="137" x2="191" y1="142" y2="142" class="net_91"/>
  <line x1="129" x2="159" y1="209.5" y2="209.5" class="net_26"/>
  <line x1="159" x2="159" y1="209.5" y2="157" class="net_26"/>
  <line x1="159" x2="191" y1="157" y2="157" class="net_26"/>
  <line x1="474" x2="516" y1="454.5" y2="454.5" class="net_3"/>
  <line x1="516" x2="516" y1="454.5" y2="49.5" class="net_3"/>
  <circle cx="516" cy="454.5" r="2" style="fill:#000" class="net_3"/>
  <line x1="516" x2="571" y1="49.5" y2="49.5" class="net_3"/>
  <line x1="474" x2="516" y1="454.5" y2="454.5" class="net_3"/>
  <line x1="516" x2="516" y1="454.5" y2="495.5" class="net_3"/>
  <line x1="516" x2="679" y1="495.5" y2="495.5" class="net_3"/>
  <line x1="679" x2="679" y1="495.5" y2="289.5" class="net_3"/>
  <line x1="679" x2="740" y1="289.5" y2="289.5" class="net_3"/>
  <line x1="474" x2="526" y1="324.5" y2="324.5" class="net_2"/>
  <line x1="526" x2="526" y1="324.5" y2="69.5" class="net_2"/>
  <circle cx="526" cy="324.5" r="2" style="fill:#000" class="net_2"/>
  <line x1="526" x2="571" y1="69.5" y2="69.5" class="net_2"/>
  <line x1="474" x2="659" y1="324.5" y2="324.5" class="net_2"/>
  <line x1="659" x2="659" y1="324.5" y2="249.5" class="net_2"/>
  <line x1="659" x2="740" y1="249.5" y2="249.5" class="net_2"/>
  <line x1="473" x2="571" y1="89.5" y2="89.5" class="net_86,87"/>
  <line x1="379" x2="461.6666666666667" y1="209.5" y2="209.5" class="net_4,5,6,7,8,9,10,11,12,13,14,15,16"/>
  <line x1="379" x2="421" y1="274.5" y2="274.5" class="net_37,38,39,40,41,42,43,44,45,46,47,48,49"/>
  <line x1="421" x2="421" y1="274.5" y2="229.5" class="net_37,38,39,40,41,42,43,44,45,46,47,48,49"/>
  <line x1="421" x2="461.6666666666667" y1="229.5" y2="229.5" class="net_37,38,39,40,41,42,43,44,45,46,47,48,49"/>
  <line x1="481.6666666666667" x2="582" y1="219.5" y2="219.5" class="net_92,93,94,95,96,97,98,99,100,101,102,103,104"/>
  <line x1="474" x2="536" y1="389.5" y2="389.5" class="net_53,54,55,56,57,58,59,60,61,62,63,64,65"/>
  <line x1="536" x2="536" y1="389.5" y2="239.5" class="net_53,54,55,56,57,58,59,60,61,62,63,64,65"/>
  <line x1="536" x2="582" y1="239.5" y2="239.5" class="net_53,54,55,56,57,58,59,60,61,62,63,64,65"/>
  <line x1="474" x2="582" y1="516.5" y2="516.5" class="net_17,18,19,20,21,22,23,24"/>
  <line x1="474" x2="516" y1="581.5" y2="581.5" class="net_66,67,68,69,70,71,72,73"/>
  <line x1="516" x2="516" y1="581.5" y2="536.5" class="net_66,67,68,69,70,71,72,73"/>
  <line x1="516" x2="582" y1="536.5" y2="536.5" class="net_66,67,68,69,70,71,72,73"/>
  <line x1="488.3333333333333" x2="582" y1="625" y2="625" class="net_81"/>
  <line x1="476" x2="516" y1="692.5" y2="692.5" class="net_127"/>
  <line x1="516" x2="516" y1="692.5" y2="645" class="net_127"/>
  <line x1="516" x2="582" y1="645" y2="645" class="net_127"/>
  <line x1="602" x2="740" y1="229.5" y2="229.5" class="net_105,106,107,108,109,110,111,112,113,114,115,116,117"/>
  <line x1="602" x2="689" y1="526.5" y2="526.5" class="net_118,119,120,121,122,123,124,125"/>
  <line x1="689" x2="689" y1="526.5" y2="309.5" class="net_118,119,120,121,122,123,124,125"/>
  <line x1="689" x2="740" y1="309.5" y2="309.5" class="net_118,119,120,121,122,123,124,125"/>
  <line x1="602" x2="699" y1="635" y2="635" class="net_126"/>
  <line x1="699" x2="699" y1="635" y2="329.5" class="net_126"/>
  <line x1="699" x2="740" y1="329.5" y2="329.5" class="net_126"/>
  <line x1="878" x2="913" y1="796" y2="796" class="net_27"/>
  <line x1="771" x2="888" y1="249.5" y2="249.5" class="net_28,29,30,31,32,33,34,35"/>
  <line x1="888" x2="888" y1="249.5" y2="314.5" class="net_28,29,30,31,32,33,34,35"/>
  <circle cx="888" cy="249.5" r="2" style="fill:#000" class="net_28,29,30,31,32,33,34,35"/>
  <line x1="888" x2="913" y1="314.5" y2="314.5" class="net_28,29,30,31,32,33,34,35"/>
  <line x1="771" x2="913" y1="249.5" y2="249.5" class="net_28,29,30,31,32,33,34,35"/>
  <line x1="878" x2="913" y1="32" y2="32" class="net_36"/>
  <line x1="878" x2="913" y1="731" y2="731" class="net_51"/>
  <line x1="878" x2="913" y1="97" y2="97" class="net_52"/>
  <line x1="878" x2="913" y1="861" y2="861" class="net_75"/>
  <line x1="391" x2="467" y1="79.5" y2="79.5" class="net_86"/>
  <line x1="391" x2="421" y1="142" y2="142" class="net_87"/>
  <line x1="421" x2="421" y1="142" y2="99.5" class="net_87"/>
  <line x1="421" x2="467" y1="99.5" y2="99.5" class="net_87"/>
  <line x1="602" x2="759" y1="49.5" y2="49.5" class="net_89,90"/>
</svg>
