<svg xmlns="http://www.w3.org/2000/svg" xmlns:xlink="http://www.w3.org/1999/xlink" xmlns:s="https://github.com/nturley/netlistsvg" width="704" height="546.5">
  <style>svg {
    stroke:#000;
    fill:none;
  }
  text {
    fill:#000;
    stroke:none;
    font-size:10px;
    font-weight: bold;
    font-family: "Courier New", monospace;
  }
  .nodelabel {
    text-anchor: middle;
  }
  .inputPortLabel {
    text-anchor: end;
  }
  .splitjoinBody {
    fill:#000;
  }</style>
  <g s:type="lt" transform="translate(175,233.5)" s:width="25" s:height="25" id="cell_$lt$/tmp/tmppxxo8qql.v:1813$358">
    <s:alias val="$lt"/>
    <circle r="12.5" cx="12.5" cy="12.5" class="cell_$lt$/tmp/tmppxxo8qql.v:1813$358"/>
    <line x1="7.5" x2="17.5" y1="12.5" y2="7.5" class="cell_$lt$/tmp/tmppxxo8qql.v:1813$358"/>
    <line x1="7.5" x2="17.5" y1="12.5" y2="17.5" class="cell_$lt$/tmp/tmppxxo8qql.v:1813$358"/>
    <g s:x="3" s:y="5" s:pid="A"/>
    <g s:x="3" s:y="20" s:pid="B"/>
    <g s:x="25" s:y="12.5" s:pid="Y"/>
  </g>
  <g s:type="lt" transform="translate(243.66666666666666,64)" s:width="25" s:height="25" id="cell_$lt$/tmp/tmppxxo8qql.v:1814$361">
    <s:alias val="$lt"/>
    <circle r="12.5" cx="12.5" cy="12.5" class="cell_$lt$/tmp/tmppxxo8qql.v:1814$361"/>
    <line x1="7.5" x2="17.5" y1="12.5" y2="7.5" class="cell_$lt$/tmp/tmppxxo8qql.v:1814$361"/>
    <line x1="7.5" x2="17.5" y1="12.5" y2="17.5" class="cell_$lt$/tmp/tmppxxo8qql.v:1814$361"/>
    <g s:x="3" s:y="5" s:pid="A"/>
    <g s:x="3" s:y="20" s:pid="B"/>
    <g s:x="25" s:y="12.5" s:pid="Y"/>
  </g>
  <g s:type="mux" transform="translate(384.3333333333333,228.5)" s:width="20" s:height="40" id="cell_$procmux$1391">
    <s:alias val="$pmux"/>
    <s:alias val="$mux"/>
    <s:alias val="$_MUX_"/>
    <path d="M0,0 L20,10 L20,30 L0,40 Z" class="cell_$procmux$1391"/>
    <g s:x="0" s:y="10" s:pid="A"/>
    <g s:x="0" s:y="30" s:pid="B"/>
    <g s:x="10" s:y="35" s:pid="S"/>
    <g s:x="20" s:y="20" s:pid="Y"/>
  </g>
  <g s:type="eq" transform="translate(243.66666666666666,279.5)" s:width="25" s:height="25" id="cell_$procmux$1392_CMP0">
    <s:alias val="$eq"/>
    <circle r="12.5" cx="12.5" cy="12.5" class="cell_$procmux$1392_CMP0"/>
    <line x1="7.5" x2="17.5" y1="10" y2="10" class="cell_$procmux$1392_CMP0"/>
    <line x1="7.5" x2="17.5" y1="15" y2="15" class="cell_$procmux$1392_CMP0"/>
    <g s:x="3" s:y="5" s:pid="A"/>
    <g s:x="3" s:y="20" s:pid="B"/>
    <g s:x="25" s:y="12.5" s:pid="Y"/>
  </g>
  <g s:type="not" transform="translate(242,339.5)" s:width="30" s:height="20" id="cell_$procmux$1393_CMP0">
    <s:alias val="$_NOT_"/>
    <s:alias val="$not"/>
    <s:alias val="$logic_not"/>
    <path d="M0,0 L0,20 L20,10 Z" class="cell_$procmux$1393_CMP0"/>
    <circle cx="23" cy="10" r="3" class="cell_$procmux$1393_CMP0"/>
    <g s:x="0" s:y="10" s:pid="A"/>
    <g s:x="25" s:y="10" s:pid="Y"/>
  </g>
  <g s:type="mux" transform="translate(245.33333333333334,124)" s:width="20" s:height="40" id="cell_$ternary$/tmp/tmppxxo8qql.v:1813$360">
    <s:alias val="$pmux"/>
    <s:alias val="$mux"/>
    <s:alias val="$_MUX_"/>
    <path d="M0,0 L20,10 L20,30 L0,40 Z" class="cell_$ternary$/tmp/tmppxxo8qql.v:1813$360"/>
    <g s:x="0" s:y="10" s:pid="A"/>
    <g s:x="0" s:y="30" s:pid="B"/>
    <g s:x="10" s:y="35" s:pid="S"/>
    <g s:x="20" s:y="20" s:pid="Y"/>
  </g>
  <g s:type="mux" transform="translate(318,12)" s:width="20" s:height="40" id="cell_$ternary$/tmp/tmppxxo8qql.v:1814$362">
    <s:alias val="$pmux"/>
    <s:alias val="$mux"/>
    <s:alias val="$_MUX_"/>
    <path d="M0,0 L20,10 L20,30 L0,40 Z" class="cell_$ternary$/tmp/tmppxxo8qql.v:1814$362"/>
    <g s:x="0" s:y="10" s:pid="A"/>
    <g s:x="0" s:y="30" s:pid="B"/>
    <g s:x="10" s:y="35" s:pid="S"/>
    <g s:x="20" s:y="20" s:pid="Y"/>
  </g>
  <g s:type="generic" transform="translate(517,344)" s:width="30" s:height="40" id="cell_u_reg">
    <text x="15" y="-4" class="nodelabel cell_u_reg" s:attribute="ref">$paramod\pipeline_reg\DATA_W=s32'00000000000000000000000000100000</text>
    <rect width="30" height="100" s:generic="body" class="cell_u_reg"/>
    <g transform="translate(0,10)" s:x="0" s:y="10" s:pid="in0" id="port_u_reg~clk">
      <text x="-3" y="-4" class="inputPortLabel cell_u_reg">clk</text>
    </g>
    <g transform="translate(0,30)" s:x="0" s:y="10" s:pid="in0" id="port_u_reg~in_data">
      <text x="-3" y="-4" class="inputPortLabel cell_u_reg">in_data</text>
    </g>
    <g transform="translate(0,50)" s:x="0" s:y="10" s:pid="in0" id="port_u_reg~in_valid">
      <text x="-3" y="-4" class="inputPortLabel cell_u_reg">in_valid</text>
    </g>
    <g transform="translate(0,70)" s:x="0" s:y="10" s:pid="in0" id="port_u_reg~out_ready">
      <text x="-3" y="-4" class="inputPortLabel cell_u_reg">out_ready</text>
    </g>
    <g transform="translate(0,90)" s:x="0" s:y="10" s:pid="in0" id="port_u_reg~rst_n">
      <text x="-3" y="-4" class="inputPortLabel cell_u_reg">rst_n</text>
    </g>
    <g transform="translate(30,10)" s:x="30" s:y="10" s:pid="out0" id="port_u_reg~in_ready">
      <text x="5" y="-4" style="fill:#000; stroke:none" class="cell_u_reg">in_ready</text>
    </g>
    <g transform="translate(30,30)" s:x="30" s:y="10" s:pid="out0" id="port_u_reg~out_data">
      <text x="5" y="-4" style="fill:#000; stroke:none" class="cell_u_reg">out_data</text>
    </g>
    <g transform="translate(30,50)" s:x="30" s:y="10" s:pid="out0" id="port_u_reg~out_valid">
      <text x="5" y="-4" style="fill:#000; stroke:none" class="cell_u_reg">out_valid</text>
    </g>
  </g>
  <g s:type="inputExt" transform="translate(373,173.5)" s:width="30" s:height="20" id="cell_clk">
    <text x="15" y="-4" class="nodelabel cell_clk" s:attribute="ref">clk</text>
    <s:alias val="$_inputExt_"/>
    <path d="M0,0 L0,20 L15,20 L30,10 L15,0 Z" class="cell_clk"/>
    <g s:x="28" s:y="10" s:pid="Y"/>
  </g>
  <g s:type="inputExt" transform="translate(373,514.5)" s:width="30" s:height="20" id="cell_rst_n">
    <text x="15" y="-4" class="nodelabel cell_rst_n" s:attribute="ref">rst_n</text>
    <s:alias val="$_inputExt_"/>
    <path d="M0,0 L0,20 L15,20 L30,10 L15,0 Z" class="cell_rst_n"/>
    <g s:x="28" s:y="10" s:pid="Y"/>
  </g>
  <g s:type="inputExt" transform="translate(159,339.5)" s:width="30" s:height="20" id="cell_act_mode">
    <text x="15" y="-4" class="nodelabel cell_act_mode" s:attribute="ref">act_mode</text>
    <s:alias val="$_inputExt_"/>
    <path d="M0,0 L0,20 L15,20 L30,10 L15,0 Z" class="cell_act_mode"/>
    <g s:x="28" s:y="10" s:pid="Y"/>
  </g>
  <g s:type="inputExt" transform="translate(12,258.5)" s:width="30" s:height="20" id="cell_in_data">
    <text x="15" y="-4" class="nodelabel cell_in_data" s:attribute="ref">in_data</text>
    <s:alias val="$_inputExt_"/>
    <path d="M0,0 L0,20 L15,20 L30,10 L15,0 Z" class="cell_in_data"/>
    <g s:x="28" s:y="10" s:pid="Y"/>
  </g>
  <g s:type="inputExt" transform="translate(373,384.5)" s:width="30" s:height="20" id="cell_in_valid">
    <text x="15" y="-4" class="nodelabel cell_in_valid" s:attribute="ref">in_valid</text>
    <s:alias val="$_inputExt_"/>
    <path d="M0,0 L0,20 L15,20 L30,10 L15,0 Z" class="cell_in_valid"/>
    <g s:x="28" s:y="10" s:pid="Y"/>
  </g>
  <g s:type="outputExt" transform="translate(638,254.5)" s:width="30" s:height="20" id="cell_in_ready">
    <text x="15" y="-4" class="nodelabel cell_in_ready" s:attribute="ref">in_ready</text>
    <s:alias val="$_outputExt_"/>
    <path d="M30,0 L30,20 L15,20 L0,10 L15,0 Z" class="cell_in_ready"/>
    <g s:x="0" s:y="10" s:pid="A"/>
  </g>
  <g s:type="outputExt" transform="translate(638,319.5)" s:width="30" s:height="20" id="cell_out_data">
    <text x="15" y="-4" class="nodelabel cell_out_data" s:attribute="ref">out_data</text>
    <s:alias val="$_outputExt_"/>
    <path d="M30,0 L30,20 L15,20 L0,10 L15,0 Z" class="cell_out_data"/>
    <g s:x="0" s:y="10" s:pid="A"/>
  </g>
  <g s:type="outputExt" transform="translate(638,384.5)" s:width="30" s:height="20" id="cell_out_valid">
    <text x="15" y="-4" class="nodelabel cell_out_valid" s:attribute="ref">out_valid</text>
    <s:alias val="$_outputExt_"/>
    <path d="M30,0 L30,20 L15,20 L0,10 L15,0 Z" class="cell_out_valid"/>
    <g s:x="0" s:y="10" s:pid="A"/>
  </g>
  <g s:type="inputExt" transform="translate(373,449.5)" s:width="30" s:height="20" id="cell_out_ready">
    <text x="15" y="-4" class="nodelabel cell_out_ready" s:attribute="ref">out_ready</text>
    <s:alias val="$_inputExt_"/>
    <path d="M0,0 L0,20 L15,20 L30,10 L15,0 Z" class="cell_out_ready"/>
    <g s:x="28" s:y="10" s:pid="Y"/>
  </g>
  <g s:type="constant" transform="translate(89,74)" s:width="30" s:height="20" id="cell_00000000000000000000000000000000">
    <text x="15" y="-4" class="nodelabel cell_00000000000000000000000000000000" s:attribute="ref">0x0</text>
    <s:alias val="$_constant_"/>
    <rect width="30" height="20" class="cell_00000000000000000000000000000000"/>
    <g s:x="30" s:y="10" s:pid="Y"/>
  </g>
  <g s:type="constant" transform="translate(159,404.5)" s:width="30" s:height="20" id="cell_10">
    <text x="15" y="-4" class="nodelabel cell_10" s:attribute="ref">10</text>
    <s:alias val="$_constant_"/>
    <rect width="30" height="20" class="cell_10"/>
    <g s:x="30" s:y="10" s:pid="Y"/>
  </g>
  <g s:type="join" transform="translate(332,238)" s:width="4" s:height="40" id="cell_$join$,108,109,110,111,112,113,114,115,116,117,118,119,120,121,122,123,124,125,126,127,128,129,130,131,132,133,134,135,136,137,138,139,6,7,8,9,10,11,12,13,14,15,16,17,18,19,20,21,22,23,24,25,26,27,28,29,30,31,32,33,34,35,36,37,">
    <rect width="5" height="40" class="splitjoinBody" s:generic="body"/>
    <s:alias val="$_join_"/>
    <g s:x="5" s:y="20" s:pid="out"/>
    <g transform="translate(0,10)" s:x="0" s:y="10" s:pid="in0">
      <text x="-3" y="-4" class="inputPortLabel">0:31</text>
    </g>
    <g transform="translate(0,30)" s:x="0" s:y="10" s:pid="in0">
      <text x="-3" y="-4" class="inputPortLabel">32:63</text>
    </g>
  </g>
  <g s:type="join" transform="translate(324.3333333333333,319)" s:width="4" s:height="40" id="cell_$join$,140,141,">
    <rect width="5" height="40" class="splitjoinBody" s:generic="body"/>
    <s:alias val="$_join_"/>
    <g s:x="5" s:y="20" s:pid="out"/>
    <g transform="translate(0,10)" s:x="0" s:y="10" s:pid="in0">
      <text x="-3" y="-4" class="inputPortLabel">0</text>
    </g>
    <g transform="translate(0,30)" s:x="0" s:y="10" s:pid="in0">
      <text x="-3" y="-4" class="inputPortLabel">1</text>
    </g>
  </g>
  <g s:type="join" transform="translate(184,133.5)" s:width="4" s:height="40" id="cell_$join$,9,10,11,12,13,14,15,16,17,18,19,20,21,22,23,24,25,26,27,28,29,30,31,32,33,34,35,36,37,37,37,37,">
    <rect width="5" height="80" class="splitjoinBody" s:generic="body"/>
    <s:alias val="$_join_"/>
    <g s:x="5" s:y="20" s:pid="out"/>
    <g transform="translate(0,10)" s:x="0" s:y="10" s:pid="in0">
      <text x="-3" y="-4" class="inputPortLabel">0:28</text>
    </g>
    <g transform="translate(0,30)" s:x="0" s:y="10" s:pid="in0">
      <text x="-3" y="-4" class="inputPortLabel">29</text>
    </g>
    <g transform="translate(0,50)" s:x="0" s:y="10" s:pid="in0">
      <text x="-3" y="-4" class="inputPortLabel">30</text>
    </g>
    <g transform="translate(0,70)" s:x="0" s:y="10" s:pid="in0">
      <text x="-3" y="-4" class="inputPortLabel">31</text>
    </g>
  </g>
  <g s:type="split" transform="translate(89,193)" s:width="5" s:height="40" id="cell_$split$,6,7,8,9,10,11,12,13,14,15,16,17,18,19,20,21,22,23,24,25,26,27,28,29,30,31,32,33,34,35,36,37,">
    <rect width="5" height="40" class="splitjoinBody" s:generic="body"/>
    <s:alias val="$_split_"/>
    <g s:x="0" s:y="20" s:pid="in"/>
    <g transform="translate(4,10)" s:x="4" s:y="10" s:pid="out0">
      <text x="5" y="-4">3:31</text>
    </g>
    <g transform="translate(4,30)" s:x="4" s:y="10" s:pid="out0">
      <text x="5" y="-4">31</text>
    </g>
  </g>
  <line x1="40" x2="149" y1="268.5" y2="268.5" class="net_6,7,8,9,10,11,12,13,14,15,16,17,18,19,20,21,22,23,24,25,26,27,28,29,30,31,32,33,34,35,36,37"/>
  <line x1="149" x2="149" y1="268.5" y2="238.5" class="net_6,7,8,9,10,11,12,13,14,15,16,17,18,19,20,21,22,23,24,25,26,27,28,29,30,31,32,33,34,35,36,37"/>
  <circle cx="149" cy="268.5" r="2" style="fill:#000" class="net_6,7,8,9,10,11,12,13,14,15,16,17,18,19,20,21,22,23,24,25,26,27,28,29,30,31,32,33,34,35,36,37"/>
  <line x1="149" x2="178" y1="238.5" y2="238.5" class="net_6,7,8,9,10,11,12,13,14,15,16,17,18,19,20,21,22,23,24,25,26,27,28,29,30,31,32,33,34,35,36,37"/>
  <line x1="40" x2="64" y1="268.5" y2="268.5" class="net_6,7,8,9,10,11,12,13,14,15,16,17,18,19,20,21,22,23,24,25,26,27,28,29,30,31,32,33,34,35,36,37"/>
  <line x1="64" x2="64" y1="268.5" y2="53" class="net_6,7,8,9,10,11,12,13,14,15,16,17,18,19,20,21,22,23,24,25,26,27,28,29,30,31,32,33,34,35,36,37"/>
  <line x1="64" x2="217" y1="53" y2="53" class="net_6,7,8,9,10,11,12,13,14,15,16,17,18,19,20,21,22,23,24,25,26,27,28,29,30,31,32,33,34,35,36,37"/>
  <line x1="217" x2="217" y1="53" y2="69" class="net_6,7,8,9,10,11,12,13,14,15,16,17,18,19,20,21,22,23,24,25,26,27,28,29,30,31,32,33,34,35,36,37"/>
  <circle cx="64" cy="268.5" r="2" style="fill:#000" class="net_6,7,8,9,10,11,12,13,14,15,16,17,18,19,20,21,22,23,24,25,26,27,28,29,30,31,32,33,34,35,36,37"/>
  <line x1="217" x2="246.66666666666666" y1="69" y2="69" class="net_6,7,8,9,10,11,12,13,14,15,16,17,18,19,20,21,22,23,24,25,26,27,28,29,30,31,32,33,34,35,36,37"/>
  <line x1="40" x2="64" y1="268.5" y2="268.5" class="net_6,7,8,9,10,11,12,13,14,15,16,17,18,19,20,21,22,23,24,25,26,27,28,29,30,31,32,33,34,35,36,37"/>
  <line x1="64" x2="64" y1="268.5" y2="122.5" class="net_6,7,8,9,10,11,12,13,14,15,16,17,18,19,20,21,22,23,24,25,26,27,28,29,30,31,32,33,34,35,36,37"/>
  <line x1="64" x2="217" y1="122.5" y2="122.5" class="net_6,7,8,9,10,11,12,13,14,15,16,17,18,19,20,21,22,23,24,25,26,27,28,29,30,31,32,33,34,35,36,37"/>
  <line x1="217" x2="217" y1="122.5" y2="134" class="net_6,7,8,9,10,11,12,13,14,15,16,17,18,19,20,21,22,23,24,25,26,27,28,29,30,31,32,33,34,35,36,37"/>
  <circle cx="64" cy="122.5" r="2" style="fill:#000" class="net_6,7,8,9,10,11,12,13,14,15,16,17,18,19,20,21,22,23,24,25,26,27,28,29,30,31,32,33,34,35,36,37"/>
  <line x1="217" x2="245.33333333333334" y1="134" y2="134" class="net_6,7,8,9,10,11,12,13,14,15,16,17,18,19,20,21,22,23,24,25,26,27,28,29,30,31,32,33,34,35,36,37"/>
  <line x1="40" x2="64" y1="268.5" y2="268.5" class="net_6,7,8,9,10,11,12,13,14,15,16,17,18,19,20,21,22,23,24,25,26,27,28,29,30,31,32,33,34,35,36,37"/>
  <line x1="64" x2="64" y1="268.5" y2="53" class="net_6,7,8,9,10,11,12,13,14,15,16,17,18,19,20,21,22,23,24,25,26,27,28,29,30,31,32,33,34,35,36,37"/>
  <line x1="64" x2="129" y1="53" y2="53" class="net_6,7,8,9,10,11,12,13,14,15,16,17,18,19,20,21,22,23,24,25,26,27,28,29,30,31,32,33,34,35,36,37"/>
  <line x1="129" x2="129" y1="53" y2="31" class="net_6,7,8,9,10,11,12,13,14,15,16,17,18,19,20,21,22,23,24,25,26,27,28,29,30,31,32,33,34,35,36,37"/>
  <line x1="129" x2="282" y1="31" y2="31" class="net_6,7,8,9,10,11,12,13,14,15,16,17,18,19,20,21,22,23,24,25,26,27,28,29,30,31,32,33,34,35,36,37"/>
  <line x1="282" x2="282" y1="31" y2="22" class="net_6,7,8,9,10,11,12,13,14,15,16,17,18,19,20,21,22,23,24,25,26,27,28,29,30,31,32,33,34,35,36,37"/>
  <circle cx="129" cy="53" r="2" style="fill:#000" class="net_6,7,8,9,10,11,12,13,14,15,16,17,18,19,20,21,22,23,24,25,26,27,28,29,30,31,32,33,34,35,36,37"/>
  <line x1="282" x2="318" y1="22" y2="22" class="net_6,7,8,9,10,11,12,13,14,15,16,17,18,19,20,21,22,23,24,25,26,27,28,29,30,31,32,33,34,35,36,37"/>
  <line x1="40" x2="332" y1="268.5" y2="268.5" class="net_6,7,8,9,10,11,12,13,14,15,16,17,18,19,20,21,22,23,24,25,26,27,28,29,30,31,32,33,34,35,36,37"/>
  <line x1="40" x2="64" y1="268.5" y2="268.5" class="net_6,7,8,9,10,11,12,13,14,15,16,17,18,19,20,21,22,23,24,25,26,27,28,29,30,31,32,33,34,35,36,37"/>
  <line x1="64" x2="64" y1="268.5" y2="213.5" class="net_6,7,8,9,10,11,12,13,14,15,16,17,18,19,20,21,22,23,24,25,26,27,28,29,30,31,32,33,34,35,36,37"/>
  <circle cx="64" cy="213.5" r="2" style="fill:#000" class="net_6,7,8,9,10,11,12,13,14,15,16,17,18,19,20,21,22,23,24,25,26,27,28,29,30,31,32,33,34,35,36,37"/>
  <line x1="64" x2="89" y1="213.5" y2="213.5" class="net_6,7,8,9,10,11,12,13,14,15,16,17,18,19,20,21,22,23,24,25,26,27,28,29,30,31,32,33,34,35,36,37"/>
  <line x1="119" x2="139" y1="84" y2="84" class="net_174,175,176,177,178,179,180,181,182,183,184,185,186,187,188,189,190,191,192,193,194,195,196,197,198,199,200,201,202,203,204,205"/>
  <line x1="139" x2="139" y1="84" y2="253.5" class="net_174,175,176,177,178,179,180,181,182,183,184,185,186,187,188,189,190,191,192,193,194,195,196,197,198,199,200,201,202,203,204,205"/>
  <circle cx="139" cy="84" r="2" style="fill:#000" class="net_174,175,176,177,178,179,180,181,182,183,184,185,186,187,188,189,190,191,192,193,194,195,196,197,198,199,200,201,202,203,204,205"/>
  <line x1="139" x2="178" y1="253.5" y2="253.5" class="net_174,175,176,177,178,179,180,181,182,183,184,185,186,187,188,189,190,191,192,193,194,195,196,197,198,199,200,201,202,203,204,205"/>
  <line x1="119" x2="246.66666666666666" y1="84" y2="84" class="net_174,175,176,177,178,179,180,181,182,183,184,185,186,187,188,189,190,191,192,193,194,195,196,197,198,199,200,201,202,203,204,205"/>
  <line x1="119" x2="139" y1="84" y2="84" class="net_174,175,176,177,178,179,180,181,182,183,184,185,186,187,188,189,190,191,192,193,194,195,196,197,198,199,200,201,202,203,204,205"/>
  <line x1="139" x2="139" y1="84" y2="42" class="net_174,175,176,177,178,179,180,181,182,183,184,185,186,187,188,189,190,191,192,193,194,195,196,197,198,199,200,201,202,203,204,205"/>
  <line x1="139" x2="318" y1="42" y2="42" class="net_174,175,176,177,178,179,180,181,182,183,184,185,186,187,188,189,190,191,192,193,194,195,196,197,198,199,200,201,202,203,204,205"/>
  <line x1="338" x2="348" y1="32" y2="32" class="net_76,77,78,79,80,81,82,83,84,85,86,87,88,89,90,91,92,93,94,95,96,97,98,99,100,101,102,103,104,105,106,107"/>
  <line x1="348" x2="348" y1="32" y2="238.5" class="net_76,77,78,79,80,81,82,83,84,85,86,87,88,89,90,91,92,93,94,95,96,97,98,99,100,101,102,103,104,105,106,107"/>
  <line x1="348" x2="384.3333333333333" y1="238.5" y2="238.5" class="net_76,77,78,79,80,81,82,83,84,85,86,87,88,89,90,91,92,93,94,95,96,97,98,99,100,101,102,103,104,105,106,107"/>
  <line x1="338" x2="384.3333333333333" y1="258.5" y2="258.5" class="net_108,109,110,111,112,113,114,115,116,117,118,119,120,121,122,123,124,125,126,127,128,129,130,131,132,133,134,135,136,137,138,139,6,7,8,9,10,11,12,13,14,15,16,17,18,19,20,21,22,23,24,25,26,27,28,29,30,31,32,33,34,35,36,37"/>
  <line x1="330.3333333333333" x2="394.3333333333333" y1="339.5" y2="339.5" class="net_140,141"/>
  <line x1="394.3333333333333" x2="394.3333333333333" y1="339.5" y2="263.5" class="net_140,141"/>
  <line x1="187" x2="217" y1="349.5" y2="349.5" class="net_4,5"/>
  <line x1="217" x2="217" y1="349.5" y2="284.5" class="net_4,5"/>
  <circle cx="217" cy="349.5" r="2" style="fill:#000" class="net_4,5"/>
  <line x1="217" x2="246.66666666666666" y1="284.5" y2="284.5" class="net_4,5"/>
  <line x1="187" x2="242" y1="349.5" y2="349.5" class="net_4,5"/>
  <line x1="189" x2="227" y1="414.5" y2="414.5" class="net_238,239"/>
  <line x1="227" x2="227" y1="414.5" y2="299.5" class="net_238,239"/>
  <line x1="227" x2="246.66666666666666" y1="299.5" y2="299.5" class="net_238,239"/>
  <line x1="190" x2="245.33333333333334" y1="154" y2="154" class="net_9,10,11,12,13,14,15,16,17,18,19,20,21,22,23,24,25,26,27,28,29,30,31,32,33,34,35,36,37,37,37,37"/>
  <line x1="200" x2="255.33333333333334" y1="246" y2="246" class="net_74"/>
  <line x1="255.33333333333334" x2="255.33333333333334" y1="246" y2="159" class="net_74"/>
  <line x1="268.66666666666663" x2="328" y1="76.5" y2="76.5" class="net_75"/>
  <line x1="328" x2="328" y1="76.5" y2="47" class="net_75"/>
  <line x1="401" x2="447" y1="183.5" y2="183.5" class="net_2"/>
  <line x1="447" x2="447" y1="183.5" y2="354.5" class="net_2"/>
  <line x1="447" x2="517" y1="354.5" y2="354.5" class="net_2"/>
  <line x1="404.3333333333333" x2="437" y1="248.5" y2="248.5" class="net_142,143,144,145,146,147,148,149,150,151,152,153,154,155,156,157,158,159,160,161,162,163,164,165,166,167,168,169,170,171,172,173"/>
  <line x1="437" x2="437" y1="248.5" y2="374.5" class="net_142,143,144,145,146,147,148,149,150,151,152,153,154,155,156,157,158,159,160,161,162,163,164,165,166,167,168,169,170,171,172,173"/>
  <line x1="437" x2="517" y1="374.5" y2="374.5" class="net_142,143,144,145,146,147,148,149,150,151,152,153,154,155,156,157,158,159,160,161,162,163,164,165,166,167,168,169,170,171,172,173"/>
  <line x1="401" x2="517" y1="394.5" y2="394.5" class="net_38"/>
  <line x1="401" x2="437" y1="459.5" y2="459.5" class="net_73"/>
  <line x1="437" x2="437" y1="459.5" y2="414.5" class="net_73"/>
  <line x1="437" x2="517" y1="414.5" y2="414.5" class="net_73"/>
  <line x1="401" x2="447" y1="524.5" y2="524.5" class="net_3"/>
  <line x1="447" x2="447" y1="524.5" y2="434.5" class="net_3"/>
  <line x1="447" x2="517" y1="434.5" y2="434.5" class="net_3"/>
  <line x1="548" x2="613" y1="354.5" y2="354.5" class="net_39"/>
  <line x1="613" x2="613" y1="354.5" y2="264.5" class="net_39"/>
  <line x1="613" x2="638" y1="264.5" y2="264.5" class="net_39"/>
  <line x1="548" x2="623" y1="374.5" y2="374.5" class="net_40,41,42,43,44,45,46,47,48,49,50,51,52,53,54,55,56,57,58,59,60,61,62,63,64,65,66,67,68,69,70,71"/>
  <line x1="623" x2="623" y1="374.5" y2="329.5" class="net_40,41,42,43,44,45,46,47,48,49,50,51,52,53,54,55,56,57,58,59,60,61,62,63,64,65,66,67,68,69,70,71"/>
  <line x1="623" x2="638" y1="329.5" y2="329.5" class="net_40,41,42,43,44,45,46,47,48,49,50,51,52,53,54,55,56,57,58,59,60,61,62,63,64,65,66,67,68,69,70,71"/>
  <line x1="548" x2="638" y1="394.5" y2="394.5" class="net_72"/>
  <line x1="265.33333333333337" x2="282" y1="144" y2="144" class="net_108,109,110,111,112,113,114,115,116,117,118,119,120,121,122,123,124,125,126,127,128,129,130,131,132,133,134,135,136,137,138,139"/>
  <line x1="282" x2="282" y1="144" y2="248.5" class="net_108,109,110,111,112,113,114,115,116,117,118,119,120,121,122,123,124,125,126,127,128,129,130,131,132,133,134,135,136,137,138,139"/>
  <line x1="282" x2="332" y1="248.5" y2="248.5" class="net_108,109,110,111,112,113,114,115,116,117,118,119,120,121,122,123,124,125,126,127,128,129,130,131,132,133,134,135,136,137,138,139"/>
  <line x1="268.66666666666663" x2="282" y1="292" y2="292" class="net_140"/>
  <line x1="282" x2="282" y1="292" y2="329.5" class="net_140"/>
  <line x1="282" x2="324.3333333333333" y1="329.5" y2="329.5" class="net_140"/>
  <line x1="267" x2="324.3333333333333" y1="349.5" y2="349.5" class="net_141"/>
  <line x1="94" x2="129" y1="203.5" y2="203.5" class="net_9,10,11,12,13,14,15,16,17,18,19,20,21,22,23,24,25,26,27,28,29,30,31,32,33,34,35,36,37"/>
  <line x1="129" x2="129" y1="203.5" y2="144" class="net_9,10,11,12,13,14,15,16,17,18,19,20,21,22,23,24,25,26,27,28,29,30,31,32,33,34,35,36,37"/>
  <line x1="129" x2="184" y1="144" y2="144" class="net_9,10,11,12,13,14,15,16,17,18,19,20,21,22,23,24,25,26,27,28,29,30,31,32,33,34,35,36,37"/>
  <line x1="94" x2="149" y1="223.5" y2="223.5" class="net_37"/>
  <line x1="149" x2="149" y1="223.5" y2="164" class="net_37"/>
  <circle cx="149" cy="223.5" r="2" style="fill:#000" class="net_37"/>
  <line x1="149" x2="184" y1="164" y2="164" class="net_37"/>
  <line x1="94" x2="149" y1="223.5" y2="223.5" class="net_37"/>
  <line x1="149" x2="149" y1="223.5" y2="184" class="net_37"/>
  <circle cx="149" cy="184" r="2" style="fill:#000" class="net_37"/>
  <line x1="149" x2="184" y1="184" y2="184" class="net_37"/>
  <line x1="94" x2="184.5" y1="223.5" y2="223.5" class="net_37"/>
  <line x1="184.5" x2="184.5" y1="223.5" y2="204.5" class="net_37"/>
</svg>
