<svg xmlns="http://www.w3.org/2000/svg" xmlns:xlink="http://www.w3.org/1999/xlink" xmlns:s="https://github.com/nturley/netlistsvg" width="1263" height="1308">
  <style>svg {
    stroke:#000;
    fill:none;
  }
  text {
    fill:#000;
    stroke:none;
    font-size:10px;
    font-weight: bold;
    font-family: "Courier New", monospace;
  }
  .nodelabel {
    text-anchor: middle;
  }
  .inputPortLabel {
    text-anchor: end;
  }
  .splitjoinBody {
    fill:#000;
  }</style>
  <g s:type="add" transform="translate(779.6666666666666,786)" s:width="25" s:height="25" id="cell_$add$/tmp/tmppxxo8qql.v:704$200">
    <s:alias val="$add"/>
    <circle r="12.5" cx="12.5" cy="12.5" class="cell_$add$/tmp/tmppxxo8qql.v:704$200"/>
    <line x1="7.5" x2="17.5" y1="12.5" y2="12.5" class="cell_$add$/tmp/tmppxxo8qql.v:704$200"/>
    <line x1="12.5" x2="12.5" y1="7.5" y2="17.5" class="cell_$add$/tmp/tmppxxo8qql.v:704$200"/>
    <g s:x="3" s:y="5" s:pid="A"/>
    <g s:x="3" s:y="20" s:pid="B"/>
    <g s:x="25" s:y="12.5" s:pid="Y"/>
  </g>
  <g s:type="add" transform="translate(979.3333333333334,1036)" s:width="25" s:height="25" id="cell_$add$/tmp/tmppxxo8qql.v:710$201">
    <s:alias val="$add"/>
    <circle r="12.5" cx="12.5" cy="12.5" class="cell_$add$/tmp/tmppxxo8qql.v:710$201"/>
    <line x1="7.5" x2="17.5" y1="12.5" y2="12.5" class="cell_$add$/tmp/tmppxxo8qql.v:710$201"/>
    <line x1="12.5" x2="12.5" y1="7.5" y2="17.5" class="cell_$add$/tmp/tmppxxo8qql.v:710$201"/>
    <g s:x="3" s:y="5" s:pid="A"/>
    <g s:x="3" s:y="20" s:pid="B"/>
    <g s:x="25" s:y="12.5" s:pid="Y"/>
  </g>
  <g s:type="and" transform="translate(849,1093.5)" s:width="30" s:height="25" id="cell_$and$/tmp/tmppxxo8qql.v:714$204">
    <s:alias val="$and"/>
    <s:alias val="$logic_and"/>
    <s:alias val="$_AND_"/>
    <path d="M0,0 L0,25 L15,25 A15 12.5 0 0 0 15,0 Z" class="cell_$and$/tmp/tmppxxo8qql.v:714$204"/>
    <g s:x="0" s:y="5" s:pid="A"/>
    <g s:x="0" s:y="20" s:pid="B"/>
    <g s:x="30" s:y="12.5" s:pid="Y"/>
  </g>
  <g s:type="and" transform="translate(977.6666666666666,1101)" s:width="30" s:height="25" id="cell_$and$/tmp/tmppxxo8qql.v:715$206">
    <s:alias val="$and"/>
    <s:alias val="$logic_and"/>
    <s:alias val="$_AND_"/>
    <path d="M0,0 L0,25 L15,25 A15 12.5 0 0 0 15,0 Z" class="cell_$and$/tmp/tmppxxo8qql.v:715$206"/>
    <g s:x="0" s:y="5" s:pid="A"/>
    <g s:x="0" s:y="20" s:pid="B"/>
    <g s:x="30" s:y="12.5" s:pid="Y"/>
  </g>
  <g s:type="eq" transform="translate(388.66666666666663,266.5)" s:width="25" s:height="25" id="cell_$eq$/tmp/tmppxxo8qql.v:690$193">
    <s:alias val="$eq"/>
    <circle r="12.5" cx="12.5" cy="12.5" class="cell_$eq$/tmp/tmppxxo8qql.v:690$193"/>
    <line x1="7.5" x2="17.5" y1="10" y2="10" class="cell_$eq$/tmp/tmppxxo8qql.v:690$193"/>
    <line x1="7.5" x2="17.5" y1="15" y2="15" class="cell_$eq$/tmp/tmppxxo8qql.v:690$193"/>
    <g s:x="3" s:y="5" s:pid="A"/>
    <g s:x="3" s:y="20" s:pid="B"/>
    <g s:x="25" s:y="12.5" s:pid="Y"/>
  </g>
  <g s:type="not" transform="translate(846,936)" s:width="30" s:height="20" id="cell_$eq$/tmp/tmppxxo8qql.v:701$196">
    <s:alias val="$_NOT_"/>
    <s:alias val="$not"/>
    <s:alias val="$logic_not"/>
    <path d="M0,0 L0,20 L20,10 Z" class="cell_$eq$/tmp/tmppxxo8qql.v:701$196"/>
    <circle cx="23" cy="10" r="3" class="cell_$eq$/tmp/tmppxxo8qql.v:701$196"/>
    <g s:x="0" s:y="10" s:pid="A"/>
    <g s:x="25" s:y="10" s:pid="Y"/>
  </g>
  <g s:type="eq" transform="translate(779.6666666666666,846)" s:width="25" s:height="25" id="cell_$eq$/tmp/tmppxxo8qql.v:703$198">
    <s:alias val="$eq"/>
    <circle r="12.5" cx="12.5" cy="12.5" class="cell_$eq$/tmp/tmppxxo8qql.v:703$198"/>
    <line x1="7.5" x2="17.5" y1="10" y2="10" class="cell_$eq$/tmp/tmppxxo8qql.v:703$198"/>
    <line x1="7.5" x2="17.5" y1="15" y2="15" class="cell_$eq$/tmp/tmppxxo8qql.v:703$198"/>
    <g s:x="3" s:y="5" s:pid="A"/>
    <g s:x="3" s:y="20" s:pid="B"/>
    <g s:x="25" s:y="12.5" s:pid="Y"/>
  </g>
  <g s:type="eq" transform="translate(979.3333333333334,29.5)" s:width="25" s:height="25" id="cell_$eq$/tmp/tmppxxo8qql.v:711$202">
    <s:alias val="$eq"/>
    <circle r="12.5" cx="12.5" cy="12.5" class="cell_$eq$/tmp/tmppxxo8qql.v:711$202"/>
    <line x1="7.5" x2="17.5" y1="10" y2="10" class="cell_$eq$/tmp/tmppxxo8qql.v:711$202"/>
    <line x1="7.5" x2="17.5" y1="15" y2="15" class="cell_$eq$/tmp/tmppxxo8qql.v:711$202"/>
    <g s:x="3" s:y="5" s:pid="A"/>
    <g s:x="3" s:y="20" s:pid="B"/>
    <g s:x="25" s:y="12.5" s:pid="Y"/>
  </g>
  <g s:type="eq" transform="translate(779.6666666666666,1086)" s:width="25" s:height="25" id="cell_$eq$/tmp/tmppxxo8qql.v:714$203">
    <s:alias val="$eq"/>
    <circle r="12.5" cx="12.5" cy="12.5" class="cell_$eq$/tmp/tmppxxo8qql.v:714$203"/>
    <line x1="7.5" x2="17.5" y1="10" y2="10" class="cell_$eq$/tmp/tmppxxo8qql.v:714$203"/>
    <line x1="7.5" x2="17.5" y1="15" y2="15" class="cell_$eq$/tmp/tmppxxo8qql.v:714$203"/>
    <g s:x="3" s:y="5" s:pid="A"/>
    <g s:x="3" s:y="20" s:pid="B"/>
    <g s:x="25" s:y="12.5" s:pid="Y"/>
  </g>
  <g s:type="eq" transform="translate(853,1248.5)" s:width="25" s:height="25" id="cell_$eq$/tmp/tmppxxo8qql.v:715$205">
    <s:alias val="$eq"/>
    <circle r="12.5" cx="12.5" cy="12.5" class="cell_$eq$/tmp/tmppxxo8qql.v:715$205"/>
    <line x1="7.5" x2="17.5" y1="10" y2="10" class="cell_$eq$/tmp/tmppxxo8qql.v:715$205"/>
    <line x1="7.5" x2="17.5" y1="15" y2="15" class="cell_$eq$/tmp/tmppxxo8qql.v:715$205"/>
    <g s:x="3" s:y="5" s:pid="A"/>
    <g s:x="3" s:y="20" s:pid="B"/>
    <g s:x="25" s:y="12.5" s:pid="Y"/>
  </g>
  <g s:type="and" transform="translate(977.6666666666666,941)" s:width="30" s:height="25" id="cell_$logic_and$/tmp/tmppxxo8qql.v:701$197">
    <s:alias val="$and"/>
    <s:alias val="$logic_and"/>
    <s:alias val="$_AND_"/>
    <path d="M0,0 L0,25 L15,25 A15 12.5 0 0 0 15,0 Z" class="cell_$logic_and$/tmp/tmppxxo8qql.v:701$197"/>
    <g s:x="0" s:y="5" s:pid="A"/>
    <g s:x="0" s:y="20" s:pid="B"/>
    <g s:x="30" s:y="12.5" s:pid="Y"/>
  </g>
  <g s:type="and" transform="translate(849,853.5)" s:width="30" s:height="25" id="cell_$logic_and$/tmp/tmppxxo8qql.v:703$199">
    <s:alias val="$and"/>
    <s:alias val="$logic_and"/>
    <s:alias val="$_AND_"/>
    <path d="M0,0 L0,25 L15,25 A15 12.5 0 0 0 15,0 Z" class="cell_$logic_and$/tmp/tmppxxo8qql.v:703$199"/>
    <g s:x="0" s:y="5" s:pid="A"/>
    <g s:x="0" s:y="20" s:pid="B"/>
    <g s:x="30" s:y="12.5" s:pid="Y"/>
  </g>
  <g s:type="generic" transform="translate(926,1273)" s:width="30" s:height="40" id="cell_$ne$/tmp/tmppxxo8qql.v:669$189">
    <text x="15" y="-4" class="nodelabel cell_$ne$/tmp/tmppxxo8qql.v:669$189" s:attribute="ref">$reduce_bool</text>
    <rect width="30" height="20" s:generic="body" class="cell_$ne$/tmp/tmppxxo8qql.v:669$189"/>
    <g transform="translate(0,10)" s:x="0" s:y="10" s:pid="in0" id="port_$ne$/tmp/tmppxxo8qql.v:669$189~A">
      <text x="-3" y="-4" class="inputPortLabel cell_$ne$/tmp/tmppxxo8qql.v:669$189">A</text>
    </g>
    <g transform="translate(30,10)" s:x="30" s:y="10" s:pid="out0" id="port_$ne$/tmp/tmppxxo8qql.v:669$189~Y">
      <text x="5" y="-4" style="fill:#000; stroke:none" class="cell_$ne$/tmp/tmppxxo8qql.v:669$189">Y</text>
    </g>
  </g>
  <g s:type="generic" transform="translate(274,506)" s:width="30" s:height="40" id="cell_$procdff$1421">
    <text x="15" y="-4" class="nodelabel cell_$procdff$1421" s:attribute="ref">$adff</text>
    <rect width="30" height="60" s:generic="body" class="cell_$procdff$1421"/>
    <g transform="translate(0,10)" s:x="0" s:y="10" s:pid="in0" id="port_$procdff$1421~ARST">
      <text x="-3" y="-4" class="inputPortLabel cell_$procdff$1421">ARST</text>
    </g>
    <g transform="translate(0,30)" s:x="0" s:y="10" s:pid="in0" id="port_$procdff$1421~CLK">
      <text x="-3" y="-4" class="inputPortLabel cell_$procdff$1421">CLK</text>
    </g>
    <g transform="translate(0,50)" s:x="0" s:y="10" s:pid="in0" id="port_$procdff$1421~D">
      <text x="-3" y="-4" class="inputPortLabel cell_$procdff$1421">D</text>
    </g>
    <g transform="translate(30,10)" s:x="30" s:y="10" s:pid="out0" id="port_$procdff$1421~Q">
      <text x="5" y="-4" style="fill:#000; stroke:none" class="cell_$procdff$1421">Q</text>
    </g>
  </g>
  <g s:type="generic" transform="translate(502,461)" s:width="30" s:height="40" id="cell_$procdff$1426">
    <text x="15" y="-4" class="nodelabel cell_$procdff$1426" s:attribute="ref">$adff</text>
    <rect width="30" height="60" s:generic="body" class="cell_$procdff$1426"/>
    <g transform="translate(0,10)" s:x="0" s:y="10" s:pid="in0" id="port_$procdff$1426~ARST">
      <text x="-3" y="-4" class="inputPortLabel cell_$procdff$1426">ARST</text>
    </g>
    <g transform="translate(0,30)" s:x="0" s:y="10" s:pid="in0" id="port_$procdff$1426~CLK">
      <text x="-3" y="-4" class="inputPortLabel cell_$procdff$1426">CLK</text>
    </g>
    <g transform="translate(0,50)" s:x="0" s:y="10" s:pid="in0" id="port_$procdff$1426~D">
      <text x="-3" y="-4" class="inputPortLabel cell_$procdff$1426">D</text>
    </g>
    <g transform="translate(30,10)" s:x="30" s:y="10" s:pid="out0" id="port_$procdff$1426~Q">
      <text x="5" y="-4" style="fill:#000; stroke:none" class="cell_$procdff$1426">Q</text>
    </g>
  </g>
  <g s:type="mux" transform="translate(981,730)" s:width="20" s:height="40" id="cell_$procmux$1384">
    <s:alias val="$pmux"/>
    <s:alias val="$mux"/>
    <s:alias val="$_MUX_"/>
    <path d="M0,0 L20,10 L20,30 L0,40 Z" class="cell_$procmux$1384"/>
    <g s:x="0" s:y="10" s:pid="A"/>
    <g s:x="0" s:y="30" s:pid="B"/>
    <g s:x="10" s:y="35" s:pid="S"/>
    <g s:x="20" s:y="20" s:pid="Y"/>
  </g>
  <g s:type="mux" transform="translate(1141,740)" s:width="20" s:height="40" id="cell_$procmux$1387">
    <s:alias val="$pmux"/>
    <s:alias val="$mux"/>
    <s:alias val="$_MUX_"/>
    <path d="M0,0 L20,10 L20,30 L0,40 Z" class="cell_$procmux$1387"/>
    <g s:x="0" s:y="10" s:pid="A"/>
    <g s:x="0" s:y="30" s:pid="B"/>
    <g s:x="10" s:y="35" s:pid="S"/>
    <g s:x="20" s:y="20" s:pid="Y"/>
  </g>
  <g s:type="mux" transform="translate(513,211.5)" s:width="20" s:height="40" id="cell_$procmux$1392">
    <s:alias val="$pmux"/>
    <s:alias val="$mux"/>
    <s:alias val="$_MUX_"/>
    <path d="M0,0 L20,10 L20,30 L0,40 Z" class="cell_$procmux$1392"/>
    <g s:x="0" s:y="10" s:pid="A"/>
    <g s:x="0" s:y="30" s:pid="B"/>
    <g s:x="10" s:y="35" s:pid="S"/>
    <g s:x="20" s:y="20" s:pid="Y"/>
  </g>
  <g s:type="mux" transform="translate(631.6666666666667,201.5)" s:width="20" s:height="40" id="cell_$procmux$1394">
    <s:alias val="$pmux"/>
    <s:alias val="$mux"/>
    <s:alias val="$_MUX_"/>
    <path d="M0,0 L20,10 L20,30 L0,40 Z" class="cell_$procmux$1394"/>
    <g s:x="0" s:y="10" s:pid="A"/>
    <g s:x="0" s:y="30" s:pid="B"/>
    <g s:x="10" s:y="35" s:pid="S"/>
    <g s:x="20" s:y="20" s:pid="Y"/>
  </g>
  <g s:type="mux" transform="translate(699.3333333333334,191.5)" s:width="20" s:height="40" id="cell_$procmux$1396">
    <s:alias val="$pmux"/>
    <s:alias val="$mux"/>
    <s:alias val="$_MUX_"/>
    <path d="M0,0 L20,10 L20,30 L0,40 Z" class="cell_$procmux$1396"/>
    <g s:x="0" s:y="10" s:pid="A"/>
    <g s:x="0" s:y="30" s:pid="B"/>
    <g s:x="10" s:y="35" s:pid="S"/>
    <g s:x="20" s:y="20" s:pid="Y"/>
  </g>
  <g s:type="eq" transform="translate(630,364)" s:width="25" s:height="25" id="cell_$procmux$1397_CMP0">
    <s:alias val="$eq"/>
    <circle r="12.5" cx="12.5" cy="12.5" class="cell_$procmux$1397_CMP0"/>
    <line x1="7.5" x2="17.5" y1="10" y2="10" class="cell_$procmux$1397_CMP0"/>
    <line x1="7.5" x2="17.5" y1="15" y2="15" class="cell_$procmux$1397_CMP0"/>
    <g s:x="3" s:y="5" s:pid="A"/>
    <g s:x="3" s:y="20" s:pid="B"/>
    <g s:x="25" s:y="12.5" s:pid="Y"/>
  </g>
  <g s:type="mux" transform="translate(781.3333333333334,170.5)" s:width="20" s:height="40" id="cell_$procmux$1400">
    <s:alias val="$pmux"/>
    <s:alias val="$mux"/>
    <s:alias val="$_MUX_"/>
    <path d="M0,0 L20,10 L20,30 L0,40 Z" class="cell_$procmux$1400"/>
    <g s:x="0" s:y="10" s:pid="A"/>
    <g s:x="0" s:y="30" s:pid="B"/>
    <g s:x="10" s:y="35" s:pid="S"/>
    <g s:x="20" s:y="20" s:pid="Y"/>
  </g>
  <g s:type="mux" transform="translate(854.6666666666666,160.5)" s:width="20" s:height="40" id="cell_$procmux$1402">
    <s:alias val="$pmux"/>
    <s:alias val="$mux"/>
    <s:alias val="$_MUX_"/>
    <path d="M0,0 L20,10 L20,30 L0,40 Z" class="cell_$procmux$1402"/>
    <g s:x="0" s:y="10" s:pid="A"/>
    <g s:x="0" s:y="30" s:pid="B"/>
    <g s:x="10" s:y="35" s:pid="S"/>
    <g s:x="20" s:y="20" s:pid="Y"/>
  </g>
  <g s:type="eq" transform="translate(779.6666666666666,333)" s:width="25" s:height="25" id="cell_$procmux$1403_CMP0">
    <s:alias val="$eq"/>
    <circle r="12.5" cx="12.5" cy="12.5" class="cell_$procmux$1403_CMP0"/>
    <line x1="7.5" x2="17.5" y1="10" y2="10" class="cell_$procmux$1403_CMP0"/>
    <line x1="7.5" x2="17.5" y1="15" y2="15" class="cell_$procmux$1403_CMP0"/>
    <g s:x="3" s:y="5" s:pid="A"/>
    <g s:x="3" s:y="20" s:pid="B"/>
    <g s:x="25" s:y="12.5" s:pid="Y"/>
  </g>
  <g s:type="mux" transform="translate(781.3333333333334,410)" s:width="20" s:height="40" id="cell_$procmux$1408">
    <s:alias val="$pmux"/>
    <s:alias val="$mux"/>
    <s:alias val="$_MUX_"/>
    <path d="M0,0 L20,10 L20,30 L0,40 Z" class="cell_$procmux$1408"/>
    <g s:x="0" s:y="10" s:pid="A"/>
    <g s:x="0" s:y="30" s:pid="B"/>
    <g s:x="10" s:y="35" s:pid="S"/>
    <g s:x="20" s:y="20" s:pid="Y"/>
  </g>
  <g s:type="mux" transform="translate(854.6666666666666,389)" s:width="20" s:height="40" id="cell_$procmux$1410">
    <s:alias val="$pmux"/>
    <s:alias val="$mux"/>
    <s:alias val="$_MUX_"/>
    <path d="M0,0 L20,10 L20,30 L0,40 Z" class="cell_$procmux$1410"/>
    <g s:x="0" s:y="10" s:pid="A"/>
    <g s:x="0" s:y="30" s:pid="B"/>
    <g s:x="10" s:y="35" s:pid="S"/>
    <g s:x="20" s:y="20" s:pid="Y"/>
  </g>
  <g s:type="not" transform="translate(778,492.5)" s:width="30" s:height="20" id="cell_$procmux$1411_CMP0">
    <s:alias val="$_NOT_"/>
    <s:alias val="$not"/>
    <s:alias val="$logic_not"/>
    <path d="M0,0 L0,20 L20,10 Z" class="cell_$procmux$1411_CMP0"/>
    <circle cx="23" cy="10" r="3" class="cell_$procmux$1411_CMP0"/>
    <g s:x="0" s:y="10" s:pid="A"/>
    <g s:x="25" s:y="10" s:pid="Y"/>
  </g>
  <g s:type="mux" transform="translate(1141,139.5)" s:width="20" s:height="40" id="cell_$procmux$1413">
    <s:alias val="$pmux"/>
    <s:alias val="$mux"/>
    <s:alias val="$_MUX_"/>
    <path d="M0,0 L20,10 L20,30 L0,40 Z" class="cell_$procmux$1413"/>
    <g s:x="0" s:y="10" s:pid="A"/>
    <g s:x="0" s:y="30" s:pid="B"/>
    <g s:x="10" s:y="35" s:pid="S"/>
    <g s:x="20" s:y="20" s:pid="Y"/>
  </g>
  <g s:type="eq" transform="translate(853,466.5)" s:width="25" s:height="25" id="cell_$procmux$1414_CMP0">
    <s:alias val="$eq"/>
    <circle r="12.5" cx="12.5" cy="12.5" class="cell_$procmux$1414_CMP0"/>
    <line x1="7.5" x2="17.5" y1="10" y2="10" class="cell_$procmux$1414_CMP0"/>
    <line x1="7.5" x2="17.5" y1="15" y2="15" class="cell_$procmux$1414_CMP0"/>
    <g s:x="3" s:y="5" s:pid="A"/>
    <g s:x="3" s:y="20" s:pid="B"/>
    <g s:x="25" s:y="12.5" s:pid="Y"/>
  </g>
  <g s:type="eq" transform="translate(853,650)" s:width="25" s:height="25" id="cell_$procmux$1415_CMP0">
    <s:alias val="$eq"/>
    <circle r="12.5" cx="12.5" cy="12.5" class="cell_$procmux$1415_CMP0"/>
    <line x1="7.5" x2="17.5" y1="10" y2="10" class="cell_$procmux$1415_CMP0"/>
    <line x1="7.5" x2="17.5" y1="15" y2="15" class="cell_$procmux$1415_CMP0"/>
    <g s:x="3" s:y="5" s:pid="A"/>
    <g s:x="3" s:y="20" s:pid="B"/>
    <g s:x="25" s:y="12.5" s:pid="Y"/>
  </g>
  <g s:type="not" transform="translate(846,710)" s:width="30" s:height="20" id="cell_$procmux$1416_CMP0">
    <s:alias val="$_NOT_"/>
    <s:alias val="$not"/>
    <s:alias val="$logic_not"/>
    <path d="M0,0 L0,20 L20,10 Z" class="cell_$procmux$1416_CMP0"/>
    <circle cx="23" cy="10" r="3" class="cell_$procmux$1416_CMP0"/>
    <g s:x="0" s:y="10" s:pid="A"/>
    <g s:x="25" s:y="10" s:pid="Y"/>
  </g>
  <g s:type="inputExt" transform="translate(179,526.5)" s:width="30" s:height="20" id="cell_clk">
    <text x="15" y="-4" class="nodelabel cell_clk" s:attribute="ref">clk</text>
    <s:alias val="$_inputExt_"/>
    <path d="M0,0 L0,20 L15,20 L30,10 L15,0 Z" class="cell_clk"/>
    <g s:x="28" s:y="10" s:pid="Y"/>
  </g>
  <g s:type="inputExt" transform="translate(179,461.5)" s:width="30" s:height="20" id="cell_rst_n">
    <text x="15" y="-4" class="nodelabel cell_rst_n" s:attribute="ref">rst_n</text>
    <s:alias val="$_inputExt_"/>
    <path d="M0,0 L0,20 L15,20 L30,10 L15,0 Z" class="cell_rst_n"/>
    <g s:x="28" s:y="10" s:pid="Y"/>
  </g>
  <g s:type="inputExt" transform="translate(690,761)" s:width="30" s:height="20" id="cell_doorbell">
    <text x="15" y="-4" class="nodelabel cell_doorbell" s:attribute="ref">doorbell</text>
    <s:alias val="$_inputExt_"/>
    <path d="M0,0 L0,20 L15,20 L30,10 L15,0 Z" class="cell_doorbell"/>
    <g s:x="28" s:y="10" s:pid="Y"/>
  </g>
  <g s:type="outputExt" transform="translate(1141,1038.5)" s:width="30" s:height="20" id="cell_cmd_rd_addr">
    <text x="15" y="-4" class="nodelabel cell_cmd_rd_addr" s:attribute="ref">cmd_rd_addr</text>
    <s:alias val="$_outputExt_"/>
    <path d="M30,0 L30,20 L15,20 L0,10 L15,0 Z" class="cell_cmd_rd_addr"/>
    <g s:x="0" s:y="10" s:pid="A"/>
  </g>
  <g s:type="outputExt" transform="translate(1141,32)" s:width="30" s:height="20" id="cell_cmd_rd_req">
    <text x="15" y="-4" class="nodelabel cell_cmd_rd_req" s:attribute="ref">cmd_rd_req</text>
    <s:alias val="$_outputExt_"/>
    <path d="M30,0 L30,20 L15,20 L0,10 L15,0 Z" class="cell_cmd_rd_req"/>
    <g s:x="0" s:y="10" s:pid="A"/>
  </g>
  <g s:type="inputExt" transform="translate(12,22)" s:width="30" s:height="20" id="cell_cmd_rd_data">
    <text x="15" y="-4" class="nodelabel cell_cmd_rd_data" s:attribute="ref">cmd_rd_data</text>
    <s:alias val="$_inputExt_"/>
    <path d="M0,0 L0,20 L15,20 L30,10 L15,0 Z" class="cell_cmd_rd_data"/>
    <g s:x="28" s:y="10" s:pid="Y"/>
  </g>
  <g s:type="inputExt" transform="translate(502,569)" s:width="30" s:height="20" id="cell_cmd_rd_valid">
    <text x="15" y="-4" class="nodelabel cell_cmd_rd_valid" s:attribute="ref">cmd_rd_valid</text>
    <s:alias val="$_inputExt_"/>
    <path d="M0,0 L0,20 L15,20 L30,10 L15,0 Z" class="cell_cmd_rd_valid"/>
    <g s:x="28" s:y="10" s:pid="Y"/>
  </g>
  <g s:type="outputExt" transform="translate(113,22)" s:width="30" s:height="20" id="cell_desc_word">
    <text x="15" y="-4" class="nodelabel cell_desc_word" s:attribute="ref">desc_word</text>
    <s:alias val="$_outputExt_"/>
    <path d="M30,0 L30,20 L15,20 L0,10 L15,0 Z" class="cell_desc_word"/>
    <g s:x="0" s:y="10" s:pid="A"/>
  </g>
  <g s:type="outputExt" transform="translate(1141,84.5)" s:width="30" s:height="20" id="cell_desc_word_idx">
    <text x="15" y="-4" class="nodelabel cell_desc_word_idx" s:attribute="ref">desc_word_idx</text>
    <s:alias val="$_outputExt_"/>
    <path d="M30,0 L30,20 L15,20 L0,10 L15,0 Z" class="cell_desc_word_idx"/>
    <g s:x="0" s:y="10" s:pid="A"/>
  </g>
  <g s:type="outputExt" transform="translate(1141,973.5)" s:width="30" s:height="20" id="cell_desc_word_valid">
    <text x="15" y="-4" class="nodelabel cell_desc_word_valid" s:attribute="ref">desc_word_valid</text>
    <s:alias val="$_outputExt_"/>
    <path d="M30,0 L30,20 L15,20 L0,10 L15,0 Z" class="cell_desc_word_valid"/>
    <g s:x="0" s:y="10" s:pid="A"/>
  </g>
  <g s:type="outputExt" transform="translate(1141,1103.5)" s:width="30" s:height="20" id="cell_desc_done">
    <text x="15" y="-4" class="nodelabel cell_desc_done" s:attribute="ref">desc_done</text>
    <s:alias val="$_outputExt_"/>
    <path d="M30,0 L30,20 L15,20 L0,10 L15,0 Z" class="cell_desc_done"/>
    <g s:x="0" s:y="10" s:pid="A"/>
  </g>
  <g s:type="outputExt" transform="translate(1141,1273.5)" s:width="30" s:height="20" id="cell_busy">
    <text x="15" y="-4" class="nodelabel cell_busy" s:attribute="ref">busy</text>
    <s:alias val="$_outputExt_"/>
    <path d="M30,0 L30,20 L15,20 L0,10 L15,0 Z" class="cell_busy"/>
    <g s:x="0" s:y="10" s:pid="A"/>
  </g>
  <g s:type="constant" transform="translate(690,812)" s:width="30" s:height="20" id="cell_00000000000000000000000000000001">
    <text x="15" y="-4" class="nodelabel cell_00000000000000000000000000000001" s:attribute="ref">0x1</text>
    <s:alias val="$_constant_"/>
    <rect width="30" height="20" class="cell_00000000000000000000000000000001"/>
    <g s:x="30" s:y="10" s:pid="Y"/>
  </g>
  <g s:type="constant" transform="translate(843,1031)" s:width="30" s:height="20" id="cell_00000001000000000000">
    <text x="15" y="-4" class="nodelabel cell_00000001000000000000" s:attribute="ref">0x1000</text>
    <s:alias val="$_constant_"/>
    <rect width="30" height="20" class="cell_00000001000000000000"/>
    <g s:x="30" s:y="10" s:pid="Y"/>
  </g>
  <g s:type="constant" transform="translate(387,336.5)" s:width="30" s:height="20" id="cell_00">
    <text x="15" y="-4" class="nodelabel cell_00" s:attribute="ref">00</text>
    <s:alias val="$_constant_"/>
    <rect width="30" height="20" class="cell_00"/>
    <g s:x="30" s:y="10" s:pid="Y"/>
  </g>
  <g s:type="constant" transform="translate(778,1205)" s:width="30" s:height="20" id="cell_00000000000000">
    <text x="15" y="-4" class="nodelabel cell_00000000000000" s:attribute="ref">0x0</text>
    <s:alias val="$_constant_"/>
    <rect width="30" height="20" class="cell_00000000000000"/>
    <g s:x="30" s:y="10" s:pid="Y"/>
  </g>
  <g s:type="constant" transform="translate(274,1258.5)" s:width="30" s:height="20" id="cell_1111">
    <text x="15" y="-4" class="nodelabel cell_1111" s:attribute="ref">0xf</text>
    <s:alias val="$_constant_"/>
    <rect width="30" height="20" class="cell_1111"/>
    <g s:x="30" s:y="10" s:pid="Y"/>
  </g>
  <g s:type="constant" transform="translate(502,634)" s:width="30" s:height="20" id="cell_10">
    <text x="15" y="-4" class="nodelabel cell_10" s:attribute="ref">10</text>
    <s:alias val="$_constant_"/>
    <rect width="30" height="20" class="cell_10"/>
    <g s:x="30" s:y="10" s:pid="Y"/>
  </g>
  <g s:type="constant" transform="translate(387,211.5)" s:width="30" s:height="20" id="cell_01">
    <text x="15" y="-4" class="nodelabel cell_01" s:attribute="ref">01</text>
    <s:alias val="$_constant_"/>
    <rect width="30" height="20" class="cell_01"/>
    <g s:x="30" s:y="10" s:pid="Y"/>
  </g>
  <g s:type="constant" transform="translate(926,886)" s:width="30" s:height="20" id="cell_0000">
    <text x="15" y="-4" class="nodelabel cell_0000" s:attribute="ref">0x0</text>
    <s:alias val="$_constant_"/>
    <rect width="30" height="20" class="cell_0000"/>
    <g s:x="30" s:y="10" s:pid="Y"/>
  </g>
  <g s:type="join" transform="translate(862,1153.5)" s:width="4" s:height="40" id="cell_$join$,189,190,59,60,61,62,191,192,193,194,195,196,197,198,199,200,201,202,203,204,">
    <rect width="5" height="60" class="splitjoinBody" s:generic="body"/>
    <s:alias val="$_join_"/>
    <g s:x="5" s:y="20" s:pid="out"/>
    <g transform="translate(0,10)" s:x="0" s:y="10" s:pid="in0">
      <text x="-3" y="-4" class="inputPortLabel">0:1</text>
    </g>
    <g transform="translate(0,30)" s:x="0" s:y="10" s:pid="in0">
      <text x="-3" y="-4" class="inputPortLabel">2:5</text>
    </g>
    <g transform="translate(0,50)" s:x="0" s:y="10" s:pid="in0">
      <text x="-3" y="-4" class="inputPortLabel">6:19</text>
    </g>
  </g>
  <g s:type="join" transform="translate(974.25,170)" s:width="4" s:height="40" id="cell_$join$,127,128,209,210,132,133,">
    <rect width="5" height="60" class="splitjoinBody" s:generic="body"/>
    <s:alias val="$_join_"/>
    <g s:x="5" s:y="20" s:pid="out"/>
    <g transform="translate(0,10)" s:x="0" s:y="10" s:pid="in0">
      <text x="-3" y="-4" class="inputPortLabel">0:1</text>
    </g>
    <g transform="translate(0,30)" s:x="0" s:y="10" s:pid="in0">
      <text x="-3" y="-4" class="inputPortLabel">2:3</text>
    </g>
    <g transform="translate(0,50)" s:x="0" s:y="10" s:pid="in0">
      <text x="-3" y="-4" class="inputPortLabel">4:5</text>
    </g>
  </g>
  <g s:type="join" transform="translate(974.25,468.5)" s:width="4" s:height="40" id="cell_$join$,134,135,136,">
    <rect width="5" height="60" class="splitjoinBody" s:generic="body"/>
    <s:alias val="$_join_"/>
    <g s:x="5" s:y="20" s:pid="out"/>
    <g transform="translate(0,10)" s:x="0" s:y="10" s:pid="in0">
      <text x="-3" y="-4" class="inputPortLabel">0</text>
    </g>
    <g transform="translate(0,30)" s:x="0" s:y="10" s:pid="in0">
      <text x="-3" y="-4" class="inputPortLabel">1</text>
    </g>
    <g transform="translate(0,50)" s:x="0" s:y="10" s:pid="in0">
      <text x="-3" y="-4" class="inputPortLabel">2</text>
    </g>
  </g>
  <g s:type="split" transform="translate(855,751)" s:width="5" s:height="40" id="cell_$split$,66,67,68,69,70,71,72,73,74,75,76,77,78,79,80,81,82,83,84,85,86,87,88,89,90,91,92,93,94,95,96,97,">
    <rect width="5" height="20" class="splitjoinBody" s:generic="body"/>
    <s:alias val="$_split_"/>
    <g s:x="0" s:y="20" s:pid="in"/>
    <g transform="translate(4,10)" s:x="4" s:y="10" s:pid="out0">
      <text x="5" y="-4">0:3</text>
    </g>
  </g>
  <line x1="305" x2="362" y1="516.5" y2="516.5" class="net_59,60,61,62"/>
  <line x1="362" x2="362" y1="516.5" y2="740" class="net_59,60,61,62"/>
  <line x1="362" x2="665" y1="740" y2="740" class="net_59,60,61,62"/>
  <line x1="665" x2="665" y1="740" y2="791" class="net_59,60,61,62"/>
  <circle cx="362" cy="516.5" r="2" style="fill:#000" class="net_59,60,61,62"/>
  <circle cx="665" cy="740" r="2" style="fill:#000" class="net_59,60,61,62"/>
  <line x1="665" x2="782.6666666666666" y1="791" y2="791" class="net_59,60,61,62"/>
  <line x1="305" x2="362" y1="516.5" y2="516.5" class="net_59,60,61,62"/>
  <line x1="362" x2="362" y1="516.5" y2="271.5" class="net_59,60,61,62"/>
  <circle cx="362" cy="271.5" r="2" style="fill:#000" class="net_59,60,61,62"/>
  <line x1="362" x2="391.66666666666663" y1="271.5" y2="271.5" class="net_59,60,61,62"/>
  <line x1="305" x2="362" y1="516.5" y2="516.5" class="net_59,60,61,62"/>
  <line x1="362" x2="362" y1="516.5" y2="740" class="net_59,60,61,62"/>
  <line x1="362" x2="427" y1="740" y2="740" class="net_59,60,61,62"/>
  <line x1="427" x2="427" y1="740" y2="1184" class="net_59,60,61,62"/>
  <line x1="427" x2="748" y1="1184" y2="1184" class="net_59,60,61,62"/>
  <line x1="748" x2="748" y1="1184" y2="1253.5" class="net_59,60,61,62"/>
  <circle cx="748" cy="1184" r="2" style="fill:#000" class="net_59,60,61,62"/>
  <line x1="748" x2="856" y1="1253.5" y2="1253.5" class="net_59,60,61,62"/>
  <line x1="305" x2="362" y1="516.5" y2="516.5" class="net_59,60,61,62"/>
  <line x1="362" x2="362" y1="516.5" y2="740" class="net_59,60,61,62"/>
  <line x1="362" x2="981" y1="740" y2="740" class="net_59,60,61,62"/>
  <line x1="305" x2="362" y1="516.5" y2="516.5" class="net_59,60,61,62"/>
  <line x1="362" x2="362" y1="516.5" y2="94.5" class="net_59,60,61,62"/>
  <line x1="362" x2="1141" y1="94.5" y2="94.5" class="net_59,60,61,62"/>
  <line x1="305" x2="362" y1="516.5" y2="516.5" class="net_59,60,61,62"/>
  <line x1="362" x2="362" y1="516.5" y2="740" class="net_59,60,61,62"/>
  <line x1="362" x2="427" y1="740" y2="740" class="net_59,60,61,62"/>
  <line x1="427" x2="427" y1="740" y2="1184" class="net_59,60,61,62"/>
  <circle cx="427" cy="740" r="2" style="fill:#000" class="net_59,60,61,62"/>
  <line x1="427" x2="862" y1="1184" y2="1184" class="net_59,60,61,62"/>
  <line x1="720" x2="748" y1="822" y2="822" class="net_137,138,139,140,141,142,143,144,145,146,147,148,149,150,151,152,153,154,155,156,157,158,159,160,161,162,163,164,165,166,167,168"/>
  <line x1="748" x2="748" y1="822" y2="806" class="net_137,138,139,140,141,142,143,144,145,146,147,148,149,150,151,152,153,154,155,156,157,158,159,160,161,162,163,164,165,166,167,168"/>
  <line x1="748" x2="782.6666666666666" y1="806" y2="806" class="net_137,138,139,140,141,142,143,144,145,146,147,148,149,150,151,152,153,154,155,156,157,158,159,160,161,162,163,164,165,166,167,168"/>
  <line x1="873" x2="982.3333333333334" y1="1041" y2="1041" class="net_169,170,171,172,173,174,175,176,177,178,179,180,181,182,183,184,185,186,187,188"/>
  <line x1="868" x2="899" y1="1174" y2="1174" class="net_189,190,59,60,61,62,191,192,193,194,195,196,197,198,199,200,201,202,203,204"/>
  <line x1="899" x2="899" y1="1174" y2="1056" class="net_189,190,59,60,61,62,191,192,193,194,195,196,197,198,199,200,201,202,203,204"/>
  <line x1="899" x2="982.3333333333334" y1="1056" y2="1056" class="net_189,190,59,60,61,62,191,192,193,194,195,196,197,198,199,200,201,202,203,204"/>
  <line x1="804.6666666666666" x2="849" y1="1098.5" y2="1098.5" class="net_98"/>
  <line x1="530" x2="590" y1="579" y2="579" class="net_58"/>
  <line x1="590" x2="590" y1="579" y2="1121" class="net_58"/>
  <line x1="590" x2="818" y1="1121" y2="1121" class="net_58"/>
  <line x1="818" x2="818" y1="1121" y2="1113.5" class="net_58"/>
  <circle cx="590" cy="579" r="2" style="fill:#000" class="net_58"/>
  <line x1="818" x2="849" y1="1113.5" y2="1113.5" class="net_58"/>
  <line x1="530" x2="590" y1="579" y2="579" class="net_58"/>
  <line x1="590" x2="590" y1="579" y2="881" class="net_58"/>
  <line x1="590" x2="818" y1="881" y2="881" class="net_58"/>
  <line x1="818" x2="818" y1="881" y2="873.5" class="net_58"/>
  <circle cx="590" cy="881" r="2" style="fill:#000" class="net_58"/>
  <line x1="818" x2="849" y1="873.5" y2="873.5" class="net_58"/>
  <line x1="530" x2="590" y1="579" y2="579" class="net_58"/>
  <line x1="590" x2="590" y1="579" y2="251.5" class="net_58"/>
  <line x1="590" x2="641.6666666666667" y1="251.5" y2="251.5" class="net_58"/>
  <line x1="641.6666666666667" x2="641.6666666666667" y1="251.5" y2="236.5" class="net_58"/>
  <line x1="530" x2="590" y1="579" y2="579" class="net_58"/>
  <line x1="590" x2="590" y1="579" y2="300" class="net_58"/>
  <line x1="590" x2="791.3333333333334" y1="300" y2="300" class="net_58"/>
  <circle cx="590" cy="300" r="2" style="fill:#000" class="net_58"/>
  <line x1="791.3333333333334" x2="791.3333333333334" y1="300" y2="205.5" class="net_58"/>
  <line x1="879" x2="977.6666666666666" y1="1106" y2="1106" class="net_63"/>
  <line x1="879" x2="889" y1="1106" y2="1106" class="net_63"/>
  <line x1="889" x2="889" y1="1106" y2="983.5" class="net_63"/>
  <circle cx="889" cy="1106" r="2" style="fill:#000" class="net_63"/>
  <line x1="889" x2="1141" y1="983.5" y2="983.5" class="net_63"/>
  <line x1="878" x2="909" y1="1261" y2="1261" class="net_99"/>
  <line x1="909" x2="909" y1="1261" y2="1121" class="net_99"/>
  <line x1="909" x2="977.6666666666666" y1="1121" y2="1121" class="net_99"/>
  <line x1="304" x2="372" y1="1268.5" y2="1268.5" class="net_205,206,207,208"/>
  <line x1="372" x2="372" y1="1268.5" y2="286.5" class="net_205,206,207,208"/>
  <circle cx="372" cy="1268.5" r="2" style="fill:#000" class="net_205,206,207,208"/>
  <line x1="372" x2="391.66666666666663" y1="286.5" y2="286.5" class="net_205,206,207,208"/>
  <line x1="304" x2="856" y1="1268.5" y2="1268.5" class="net_205,206,207,208"/>
  <line x1="533" x2="620" y1="471.5" y2="471.5" class="net_101,102"/>
  <line x1="620" x2="620" y1="471.5" y2="946" class="net_101,102"/>
  <circle cx="620" cy="471.5" r="2" style="fill:#000" class="net_101,102"/>
  <circle cx="620" cy="946" r="2" style="fill:#000" class="net_101,102"/>
  <line x1="620" x2="846" y1="946" y2="946" class="net_101,102"/>
  <line x1="533" x2="620" y1="471.5" y2="471.5" class="net_101,102"/>
  <line x1="620" x2="620" y1="471.5" y2="851" class="net_101,102"/>
  <circle cx="620" cy="851" r="2" style="fill:#000" class="net_101,102"/>
  <line x1="620" x2="782.6666666666666" y1="851" y2="851" class="net_101,102"/>
  <line x1="533" x2="620" y1="471.5" y2="471.5" class="net_101,102"/>
  <line x1="620" x2="620" y1="471.5" y2="34.5" class="net_101,102"/>
  <line x1="620" x2="982.3333333333334" y1="34.5" y2="34.5" class="net_101,102"/>
  <line x1="533" x2="620" y1="471.5" y2="471.5" class="net_101,102"/>
  <line x1="620" x2="620" y1="471.5" y2="946" class="net_101,102"/>
  <line x1="620" x2="748" y1="946" y2="946" class="net_101,102"/>
  <line x1="748" x2="748" y1="946" y2="1091" class="net_101,102"/>
  <circle cx="748" cy="946" r="2" style="fill:#000" class="net_101,102"/>
  <line x1="748" x2="782.6666666666666" y1="1091" y2="1091" class="net_101,102"/>
  <line x1="533" x2="620" y1="471.5" y2="471.5" class="net_101,102"/>
  <line x1="620" x2="620" y1="471.5" y2="1283.5" class="net_101,102"/>
  <line x1="620" x2="926" y1="1283.5" y2="1283.5" class="net_101,102"/>
  <line x1="533" x2="620" y1="471.5" y2="471.5" class="net_101,102"/>
  <line x1="620" x2="620" y1="471.5" y2="369" class="net_101,102"/>
  <circle cx="620" cy="369" r="2" style="fill:#000" class="net_101,102"/>
  <line x1="620" x2="633" y1="369" y2="369" class="net_101,102"/>
  <line x1="533" x2="620" y1="471.5" y2="471.5" class="net_101,102"/>
  <line x1="620" x2="620" y1="471.5" y2="180.5" class="net_101,102"/>
  <circle cx="620" cy="180.5" r="2" style="fill:#000" class="net_101,102"/>
  <line x1="620" x2="781.3333333333334" y1="180.5" y2="180.5" class="net_101,102"/>
  <line x1="533" x2="620" y1="471.5" y2="471.5" class="net_101,102"/>
  <line x1="620" x2="620" y1="471.5" y2="338" class="net_101,102"/>
  <circle cx="620" cy="338" r="2" style="fill:#000" class="net_101,102"/>
  <line x1="620" x2="782.6666666666666" y1="338" y2="338" class="net_101,102"/>
  <line x1="533" x2="620" y1="471.5" y2="471.5" class="net_101,102"/>
  <line x1="620" x2="620" y1="471.5" y2="420" class="net_101,102"/>
  <circle cx="620" cy="420" r="2" style="fill:#000" class="net_101,102"/>
  <line x1="620" x2="781.3333333333334" y1="420" y2="420" class="net_101,102"/>
  <line x1="533" x2="768" y1="471.5" y2="471.5" class="net_101,102"/>
  <line x1="768" x2="768" y1="471.5" y2="502.5" class="net_101,102"/>
  <circle cx="768" cy="471.5" r="2" style="fill:#000" class="net_101,102"/>
  <line x1="768" x2="778" y1="502.5" y2="502.5" class="net_101,102"/>
  <line x1="533" x2="856" y1="471.5" y2="471.5" class="net_101,102"/>
  <line x1="533" x2="620" y1="471.5" y2="471.5" class="net_101,102"/>
  <line x1="620" x2="620" y1="471.5" y2="655" class="net_101,102"/>
  <circle cx="620" cy="655" r="2" style="fill:#000" class="net_101,102"/>
  <line x1="620" x2="856" y1="655" y2="655" class="net_101,102"/>
  <line x1="533" x2="620" y1="471.5" y2="471.5" class="net_101,102"/>
  <line x1="620" x2="620" y1="471.5" y2="720" class="net_101,102"/>
  <circle cx="620" cy="720" r="2" style="fill:#000" class="net_101,102"/>
  <line x1="620" x2="846" y1="720" y2="720" class="net_101,102"/>
  <line x1="532" x2="610" y1="644" y2="644" class="net_209,210"/>
  <line x1="610" x2="610" y1="644" y2="866" class="net_209,210"/>
  <circle cx="610" cy="644" r="2" style="fill:#000" class="net_209,210"/>
  <circle cx="610" cy="866" r="2" style="fill:#000" class="net_209,210"/>
  <line x1="610" x2="782.6666666666666" y1="866" y2="866" class="net_209,210"/>
  <line x1="532" x2="610" y1="644" y2="644" class="net_209,210"/>
  <line x1="610" x2="610" y1="644" y2="1106" class="net_209,210"/>
  <line x1="610" x2="782.6666666666666" y1="1106" y2="1106" class="net_209,210"/>
  <line x1="532" x2="610" y1="644" y2="644" class="net_209,210"/>
  <line x1="610" x2="610" y1="644" y2="384" class="net_209,210"/>
  <circle cx="610" cy="384" r="2" style="fill:#000" class="net_209,210"/>
  <line x1="610" x2="633" y1="384" y2="384" class="net_209,210"/>
  <line x1="532" x2="610" y1="644" y2="644" class="net_209,210"/>
  <line x1="610" x2="610" y1="644" y2="353" class="net_209,210"/>
  <circle cx="610" cy="353" r="2" style="fill:#000" class="net_209,210"/>
  <line x1="610" x2="782.6666666666666" y1="353" y2="353" class="net_209,210"/>
  <line x1="532" x2="828" y1="644" y2="644" class="net_209,210"/>
  <line x1="828" x2="828" y1="644" y2="486.5" class="net_209,210"/>
  <line x1="828" x2="856" y1="486.5" y2="486.5" class="net_209,210"/>
  <line x1="532" x2="610" y1="644" y2="644" class="net_209,210"/>
  <line x1="610" x2="610" y1="644" y2="322" class="net_209,210"/>
  <line x1="610" x2="889" y1="322" y2="322" class="net_209,210"/>
  <line x1="889" x2="889" y1="322" y2="200.5" class="net_209,210"/>
  <line x1="889" x2="974.25" y1="200.5" y2="200.5" class="net_209,210"/>
  <line x1="417" x2="447" y1="221.5" y2="221.5" class="net_211,212"/>
  <line x1="447" x2="447" y1="221.5" y2="49.5" class="net_211,212"/>
  <circle cx="447" cy="221.5" r="2" style="fill:#000" class="net_211,212"/>
  <line x1="447" x2="982.3333333333334" y1="49.5" y2="49.5" class="net_211,212"/>
  <line x1="417" x2="513" y1="221.5" y2="221.5" class="net_211,212"/>
  <line x1="417" x2="447" y1="221.5" y2="221.5" class="net_211,212"/>
  <line x1="447" x2="447" y1="221.5" y2="440" class="net_211,212"/>
  <circle cx="447" cy="440" r="2" style="fill:#000" class="net_211,212"/>
  <line x1="447" x2="781.3333333333334" y1="440" y2="440" class="net_211,212"/>
  <line x1="417" x2="447" y1="221.5" y2="221.5" class="net_211,212"/>
  <line x1="447" x2="447" y1="221.5" y2="670" class="net_211,212"/>
  <line x1="447" x2="856" y1="670" y2="670" class="net_211,212"/>
  <line x1="871" x2="977.6666666666666" y1="946" y2="946" class="net_103"/>
  <line x1="718" x2="758" y1="771" y2="771" class="net_4"/>
  <line x1="758" x2="758" y1="771" y2="966" class="net_4"/>
  <line x1="758" x2="889" y1="966" y2="966" class="net_4"/>
  <line x1="889" x2="889" y1="966" y2="961" class="net_4"/>
  <circle cx="758" cy="771" r="2" style="fill:#000" class="net_4"/>
  <line x1="889" x2="977.6666666666666" y1="961" y2="961" class="net_4"/>
  <line x1="718" x2="758" y1="771" y2="771" class="net_4"/>
  <line x1="758" x2="758" y1="771" y2="482.5" class="net_4"/>
  <line x1="758" x2="791.3333333333334" y1="482.5" y2="482.5" class="net_4"/>
  <line x1="791.3333333333334" x2="791.3333333333334" y1="482.5" y2="445" class="net_4"/>
  <line x1="804.6666666666666" x2="849" y1="858.5" y2="858.5" class="net_104"/>
  <line x1="207" x2="239" y1="471.5" y2="471.5" class="net_3"/>
  <line x1="239" x2="239" y1="471.5" y2="516.5" class="net_3"/>
  <circle cx="239" cy="471.5" r="2" style="fill:#000" class="net_3"/>
  <line x1="239" x2="274" y1="516.5" y2="516.5" class="net_3"/>
  <line x1="207" x2="502" y1="471.5" y2="471.5" class="net_3"/>
  <line x1="207" x2="274" y1="536.5" y2="536.5" class="net_2"/>
  <line x1="207" x2="219" y1="536.5" y2="536.5" class="net_2"/>
  <line x1="219" x2="219" y1="536.5" y2="579" class="net_2"/>
  <line x1="219" x2="467" y1="579" y2="579" class="net_2"/>
  <line x1="467" x2="467" y1="579" y2="491.5" class="net_2"/>
  <circle cx="219" cy="536.5" r="2" style="fill:#000" class="net_2"/>
  <line x1="467" x2="502" y1="491.5" y2="491.5" class="net_2"/>
  <line x1="1161" x2="1251" y1="760" y2="760" class="net_107,108,109,110"/>
  <line x1="1251" x2="1251" y1="760" y2="12" class="net_107,108,109,110"/>
  <line x1="1251" x2="229" y1="12" y2="12" class="net_107,108,109,110"/>
  <line x1="229" x2="229" y1="12" y2="556.5" class="net_107,108,109,110"/>
  <line x1="229" x2="274" y1="556.5" y2="556.5" class="net_107,108,109,110"/>
  <line x1="1161" x2="1241" y1="159.5" y2="159.5" class="net_111,112"/>
  <line x1="1241" x2="1241" y1="159.5" y2="64.5" class="net_111,112"/>
  <line x1="1241" x2="457" y1="64.5" y2="64.5" class="net_111,112"/>
  <line x1="457" x2="457" y1="64.5" y2="511.5" class="net_111,112"/>
  <line x1="457" x2="502" y1="511.5" y2="511.5" class="net_111,112"/>
  <line x1="860" x2="889" y1="761.5" y2="761.5" class="net_66,67,68,69"/>
  <line x1="889" x2="889" y1="761.5" y2="760" class="net_66,67,68,69"/>
  <line x1="889" x2="981" y1="760" y2="760" class="net_66,67,68,69"/>
  <line x1="879" x2="991" y1="866" y2="866" class="net_106"/>
  <line x1="991" x2="991" y1="866" y2="765" class="net_106"/>
  <line x1="1001" x2="1141" y1="750" y2="750" class="net_113,114,115,116"/>
  <line x1="956" x2="1116" y1="896" y2="896" class="net_219,220,221,222"/>
  <line x1="1116" x2="1116" y1="896" y2="770" class="net_219,220,221,222"/>
  <line x1="1116" x2="1141" y1="770" y2="770" class="net_219,220,221,222"/>
  <line x1="1007.6666666666666" x2="1151" y1="953.5" y2="953.5" class="net_105"/>
  <line x1="1151" x2="1151" y1="953.5" y2="775" class="net_105"/>
  <line x1="417" x2="437" y1="346.5" y2="346.5" class="net_189,190"/>
  <line x1="437" x2="437" y1="346.5" y2="241.5" class="net_189,190"/>
  <circle cx="437" cy="346.5" r="2" style="fill:#000" class="net_189,190"/>
  <circle cx="437" cy="241.5" r="2" style="fill:#000" class="net_189,190"/>
  <line x1="437" x2="513" y1="241.5" y2="241.5" class="net_189,190"/>
  <line x1="417" x2="437" y1="346.5" y2="346.5" class="net_189,190"/>
  <line x1="437" x2="437" y1="346.5" y2="149.5" class="net_189,190"/>
  <line x1="437" x2="1141" y1="149.5" y2="149.5" class="net_189,190"/>
  <line x1="417" x2="437" y1="346.5" y2="346.5" class="net_189,190"/>
  <line x1="437" x2="437" y1="346.5" y2="1164" class="net_189,190"/>
  <line x1="437" x2="862" y1="1164" y2="1164" class="net_189,190"/>
  <line x1="413.66666666666663" x2="523" y1="279" y2="279" class="net_100"/>
  <line x1="523" x2="523" y1="279" y2="246.5" class="net_100"/>
  <line x1="600" x2="600" y1="289" y2="211.5" class="net_x,x"/>
  <circle cx="600" cy="289" r="2" style="fill:#000" class="net_x,x"/>
  <line x1="600" x2="631.6666666666667" y1="211.5" y2="211.5" class="net_x,x"/>
  <line x1="600" x2="665" y1="289" y2="201.5" class="net_x,x"/>
  <line x1="665" x2="699.3333333333334" y1="201.5" y2="201.5" class="net_x,x"/>
  <line x1="600" x2="600" y1="289" y2="311" class="net_x,x"/>
  <line x1="600" x2="818" y1="311" y2="311" class="net_x,x"/>
  <line x1="818" x2="818" y1="311" y2="170.5" class="net_x,x"/>
  <circle cx="600" cy="311" r="2" style="fill:#000" class="net_x,x"/>
  <line x1="818" x2="854.6666666666666" y1="170.5" y2="170.5" class="net_x,x"/>
  <line x1="600" x2="600" y1="289" y2="399" class="net_x,x"/>
  <line x1="600" x2="854.6666666666666" y1="399" y2="399" class="net_x,x"/>
  <line x1="533" x2="631.6666666666667" y1="231.5" y2="231.5" class="net_117,118"/>
  <line x1="651.6666666666667" x2="699.3333333333334" y1="221.5" y2="221.5" class="net_119,120"/>
  <line x1="655" x2="709.3333333333334" y1="376.5" y2="376.5" class="net_121"/>
  <line x1="709.3333333333334" x2="709.3333333333334" y1="376.5" y2="226.5" class="net_121"/>
  <line x1="719.3333333333334" x2="748" y1="211.5" y2="211.5" class="net_122,123"/>
  <line x1="748" x2="748" y1="211.5" y2="200.5" class="net_122,123"/>
  <line x1="748" x2="781.3333333333334" y1="200.5" y2="200.5" class="net_122,123"/>
  <line x1="801.3333333333334" x2="854.6666666666666" y1="190.5" y2="190.5" class="net_124,125"/>
  <line x1="804.6666666666666" x2="864.6666666666666" y1="345.5" y2="345.5" class="net_126"/>
  <line x1="864.6666666666666" x2="864.6666666666666" y1="345.5" y2="195.5" class="net_126"/>
  <line x1="801.3333333333334" x2="818" y1="430" y2="430" class="net_129,130"/>
  <line x1="818" x2="818" y1="430" y2="419" class="net_129,130"/>
  <line x1="818" x2="854.6666666666666" y1="419" y2="419" class="net_129,130"/>
  <line x1="803" x2="818" y1="502.5" y2="502.5" class="net_131"/>
  <line x1="818" x2="818" y1="502.5" y2="439" class="net_131"/>
  <line x1="818" x2="864.6666666666666" y1="439" y2="439" class="net_131"/>
  <line x1="864.6666666666666" x2="864.6666666666666" y1="439" y2="424" class="net_131"/>
  <line x1="980.25" x2="1116" y1="190.5" y2="190.5" class="net_127,128,209,210,132,133"/>
  <line x1="1116" x2="1116" y1="190.5" y2="169.5" class="net_127,128,209,210,132,133"/>
  <line x1="1116" x2="1141" y1="169.5" y2="169.5" class="net_127,128,209,210,132,133"/>
  <line x1="980.25" x2="1151" y1="489" y2="489" class="net_134,135,136"/>
  <line x1="1151" x2="1151" y1="489" y2="174.5" class="net_134,135,136"/>
  <line x1="1004.3333333333334" x2="1141" y1="1048.5" y2="1048.5" class="net_5,6,7,8,9,10,11,12,13,14,15,16,17,18,19,20,21,22,23,24"/>
  <line x1="1004.3333333333334" x2="1141" y1="42" y2="42" class="net_25"/>
  <line x1="40" x2="113" y1="32" y2="32" class="net_26,27,28,29,30,31,32,33,34,35,36,37,38,39,40,41,42,43,44,45,46,47,48,49,50,51,52,53,54,55,56,57"/>
  <line x1="1007.6666666666666" x2="1141" y1="1113.5" y2="1113.5" class="net_64"/>
  <line x1="957" x2="1141" y1="1283.5" y2="1283.5" class="net_65"/>
  <line x1="808" x2="818" y1="1215" y2="1215" class="net_191,192,193,194,195,196,197,198,199,200,201,202,203,204"/>
  <line x1="818" x2="818" y1="1215" y2="1204" class="net_191,192,193,194,195,196,197,198,199,200,201,202,203,204"/>
  <line x1="818" x2="862" y1="1204" y2="1204" class="net_191,192,193,194,195,196,197,198,199,200,201,202,203,204"/>
  <line x1="874.6666666666666" x2="974.25" y1="180.5" y2="180.5" class="net_127,128"/>
  <line x1="874.6666666666666" x2="899" y1="409" y2="409" class="net_132,133"/>
  <line x1="899" x2="899" y1="409" y2="220.5" class="net_132,133"/>
  <line x1="899" x2="974.25" y1="220.5" y2="220.5" class="net_132,133"/>
  <line x1="878" x2="974.25" y1="479" y2="479" class="net_134"/>
  <line x1="878" x2="889" y1="662.5" y2="662.5" class="net_135"/>
  <line x1="889" x2="889" y1="662.5" y2="499" class="net_135"/>
  <line x1="889" x2="974.25" y1="499" y2="499" class="net_135"/>
  <line x1="871" x2="899" y1="720" y2="720" class="net_136"/>
  <line x1="899" x2="899" y1="720" y2="519" class="net_136"/>
  <line x1="899" x2="974.25" y1="519" y2="519" class="net_136"/>
  <line x1="804.6666666666666" x2="855.5" y1="798.5" y2="798.5" class="net_66,67,68,69,70,71,72,73,74,75,76,77,78,79,80,81,82,83,84,85,86,87,88,89,90,91,92,93,94,95,96,97"/>
  <line x1="855.5" x2="855.5" y1="798.5" y2="772" class="net_66,67,68,69,70,71,72,73,74,75,76,77,78,79,80,81,82,83,84,85,86,87,88,89,90,91,92,93,94,95,96,97"/>
</svg>
