<svg xmlns="http://www.w3.org/2000/svg" xmlns:xlink="http://www.w3.org/1999/xlink" xmlns:s="https://github.com/nturley/netlistsvg" width="908" height="1390">
  <style>svg {
    stroke:#000;
    fill:none;
  }
  text {
    fill:#000;
    stroke:none;
    font-size:10px;
    font-weight: bold;
    font-family: "Courier New", monospace;
  }
  .nodelabel {
    text-anchor: middle;
  }
  .inputPortLabel {
    text-anchor: end;
  }
  .splitjoinBody {
    fill:#000;
  }</style>
  <g s:type="add" transform="translate(560.6666666666666,640.5)" s:width="25" s:height="25" id="cell_$add$/tmp/tmp5jmj_zu6.v:3994$1116">
    <s:alias val="$add"/>
    <circle r="12.5" cx="12.5" cy="12.5" class="cell_$add$/tmp/tmp5jmj_zu6.v:3994$1116"/>
    <line x1="7.5" x2="17.5" y1="12.5" y2="12.5" class="cell_$add$/tmp/tmp5jmj_zu6.v:3994$1116"/>
    <line x1="12.5" x2="12.5" y1="7.5" y2="17.5" class="cell_$add$/tmp/tmp5jmj_zu6.v:3994$1116"/>
    <g s:x="3" s:y="5" s:pid="A"/>
    <g s:x="3" s:y="20" s:pid="B"/>
    <g s:x="25" s:y="12.5" s:pid="Y"/>
  </g>
  <g s:type="and" transform="translate(559,1268.5)" s:width="30" s:height="25" id="cell_$and$/tmp/tmp5jmj_zu6.v:3995$1117">
    <s:alias val="$and"/>
    <s:alias val="$logic_and"/>
    <s:alias val="$_AND_"/>
    <path d="M0,0 L0,25 L15,25 A15 12.5 0 0 0 15,0 Z" class="cell_$and$/tmp/tmp5jmj_zu6.v:3995$1117"/>
    <g s:x="0" s:y="5" s:pid="A"/>
    <g s:x="0" s:y="20" s:pid="B"/>
    <g s:x="30" s:y="12.5" s:pid="Y"/>
  </g>
  <g s:type="and" transform="translate(629,1195)" s:width="30" s:height="25" id="cell_$and$/tmp/tmp5jmj_zu6.v:3996$1118">
    <s:alias val="$and"/>
    <s:alias val="$logic_and"/>
    <s:alias val="$_AND_"/>
    <path d="M0,0 L0,25 L15,25 A15 12.5 0 0 0 15,0 Z" class="cell_$and$/tmp/tmp5jmj_zu6.v:3996$1118"/>
    <g s:x="0" s:y="5" s:pid="A"/>
    <g s:x="0" s:y="20" s:pid="B"/>
    <g s:x="30" s:y="12.5" s:pid="Y"/>
  </g>
  <g s:type="generic" transform="translate(326,650)" s:width="30" s:height="40" id="cell_$mul$/tmp/tmp5jmj_zu6.v:3994$1115">
    <text x="15" y="-4" class="nodelabel cell_$mul$/tmp/tmp5jmj_zu6.v:3994$1115" s:attribute="ref">$mul</text>
    <rect width="30" height="40" s:generic="body" class="cell_$mul$/tmp/tmp5jmj_zu6.v:3994$1115"/>
    <g transform="translate(0,10)" s:x="0" s:y="10" s:pid="in0" id="port_$mul$/tmp/tmp5jmj_zu6.v:3994$1115~A">
      <text x="-3" y="-4" class="inputPortLabel cell_$mul$/tmp/tmp5jmj_zu6.v:3994$1115">A</text>
    </g>
    <g transform="translate(0,30)" s:x="0" s:y="10" s:pid="in0" id="port_$mul$/tmp/tmp5jmj_zu6.v:3994$1115~B">
      <text x="-3" y="-4" class="inputPortLabel cell_$mul$/tmp/tmp5jmj_zu6.v:3994$1115">B</text>
    </g>
    <g transform="translate(30,10)" s:x="30" s:y="10" s:pid="out0" id="port_$mul$/tmp/tmp5jmj_zu6.v:3994$1115~Y">
      <text x="5" y="-4" style="fill:#000; stroke:none" class="cell_$mul$/tmp/tmp5jmj_zu6.v:3994$1115">Y</text>
    </g>
  </g>
  <g s:type="not" transform="translate(245,1271)" s:width="30" s:height="20" id="cell_$not$/tmp/tmp5jmj_zu6.v:3997$1119">
    <s:alias val="$_NOT_"/>
    <s:alias val="$not"/>
    <s:alias val="$logic_not"/>
    <path d="M0,0 L0,20 L20,10 Z" class="cell_$not$/tmp/tmp5jmj_zu6.v:3997$1119"/>
    <circle cx="23" cy="10" r="3" class="cell_$not$/tmp/tmp5jmj_zu6.v:3997$1119"/>
    <g s:x="0" s:y="10" s:pid="A"/>
    <g s:x="25" s:y="10" s:pid="Y"/>
  </g>
  <g s:type="or" transform="translate(379.6666666666667,1276)" s:width="30" s:height="25" id="cell_$or$/tmp/tmp5jmj_zu6.v:3997$1120">
    <s:alias val="$or"/>
    <s:alias val="$logic_or"/>
    <s:alias val="$_OR_"/>
    <path d="M0,25 L0,25 L15,25 A15 12.5 0 0 0 15,0 L0,0" class="cell_$or$/tmp/tmp5jmj_zu6.v:3997$1120"/>
    <path d="M0,0 A30 25 0 0 1 0,25" class="cell_$or$/tmp/tmp5jmj_zu6.v:3997$1120"/>
    <g s:x="3" s:y="5" s:pid="A"/>
    <g s:x="3" s:y="20" s:pid="B"/>
    <g s:x="30" s:y="12.5" s:pid="Y"/>
  </g>
  <g s:type="generic" transform="translate(123,1270.5)" s:width="30" s:height="40" id="cell_$procdff$1396">
    <text x="15" y="-4" class="nodelabel cell_$procdff$1396" s:attribute="ref">$adff</text>
    <rect width="30" height="60" s:generic="body" class="cell_$procdff$1396"/>
    <g transform="translate(0,10)" s:x="0" s:y="10" s:pid="in0" id="port_$procdff$1396~ARST">
      <text x="-3" y="-4" class="inputPortLabel cell_$procdff$1396">ARST</text>
    </g>
    <g transform="translate(0,30)" s:x="0" s:y="10" s:pid="in0" id="port_$procdff$1396~CLK">
      <text x="-3" y="-4" class="inputPortLabel cell_$procdff$1396">CLK</text>
    </g>
    <g transform="translate(0,50)" s:x="0" s:y="10" s:pid="in0" id="port_$procdff$1396~D">
      <text x="-3" y="-4" class="inputPortLabel cell_$procdff$1396">D</text>
    </g>
    <g transform="translate(30,10)" s:x="30" s:y="10" s:pid="out0" id="port_$procdff$1396~Q">
      <text x="5" y="-4" style="fill:#000; stroke:none" class="cell_$procdff$1396">Q</text>
    </g>
  </g>
  <g s:type="generic" transform="translate(719,22)" s:width="30" s:height="40" id="cell_$procdff$1401">
    <text x="15" y="-4" class="nodelabel cell_$procdff$1401" s:attribute="ref">$adff</text>
    <rect width="30" height="60" s:generic="body" class="cell_$procdff$1401"/>
    <g transform="translate(0,10)" s:x="0" s:y="10" s:pid="in0" id="port_$procdff$1401~ARST">
      <text x="-3" y="-4" class="inputPortLabel cell_$procdff$1401">ARST</text>
    </g>
    <g transform="translate(0,30)" s:x="0" s:y="10" s:pid="in0" id="port_$procdff$1401~CLK">
      <text x="-3" y="-4" class="inputPortLabel cell_$procdff$1401">CLK</text>
    </g>
    <g transform="translate(0,50)" s:x="0" s:y="10" s:pid="in0" id="port_$procdff$1401~D">
      <text x="-3" y="-4" class="inputPortLabel cell_$procdff$1401">D</text>
    </g>
    <g transform="translate(30,10)" s:x="30" s:y="10" s:pid="out0" id="port_$procdff$1401~Q">
      <text x="5" y="-4" style="fill:#000; stroke:none" class="cell_$procdff$1401">Q</text>
    </g>
  </g>
  <g s:type="mux" transform="translate(635.6666666666666,623)" s:width="20" s:height="40" id="cell_$procmux$1385">
    <s:alias val="$pmux"/>
    <s:alias val="$mux"/>
    <s:alias val="$_MUX_"/>
    <path d="M0,0 L20,10 L20,30 L0,40 Z" class="cell_$procmux$1385"/>
    <g s:x="0" s:y="10" s:pid="A"/>
    <g s:x="0" s:y="30" s:pid="B"/>
    <g s:x="10" s:y="35" s:pid="S"/>
    <g s:x="20" s:y="20" s:pid="Y"/>
  </g>
  <g s:type="mux" transform="translate(730,1120)" s:width="20" s:height="40" id="cell_$procmux$1387">
    <s:alias val="$pmux"/>
    <s:alias val="$mux"/>
    <s:alias val="$_MUX_"/>
    <path d="M0,0 L20,10 L20,30 L0,40 Z" class="cell_$procmux$1387"/>
    <g s:x="0" s:y="10" s:pid="A"/>
    <g s:x="0" s:y="30" s:pid="B"/>
    <g s:x="10" s:y="35" s:pid="S"/>
    <g s:x="20" s:y="20" s:pid="Y"/>
  </g>
  <g s:type="mux" transform="translate(832,1231)" s:width="20" s:height="40" id="cell_$procmux$1390">
    <s:alias val="$pmux"/>
    <s:alias val="$mux"/>
    <s:alias val="$_MUX_"/>
    <path d="M0,0 L20,10 L20,30 L0,40 Z" class="cell_$procmux$1390"/>
    <g s:x="0" s:y="10" s:pid="A"/>
    <g s:x="0" s:y="30" s:pid="B"/>
    <g s:x="10" s:y="35" s:pid="S"/>
    <g s:x="20" s:y="20" s:pid="Y"/>
  </g>
  <g s:type="inputExt" transform="translate(12,1291)" s:width="30" s:height="20" id="cell_clk">
    <text x="15" y="-4" class="nodelabel cell_clk" s:attribute="ref">clk</text>
    <s:alias val="$_inputExt_"/>
    <path d="M0,0 L0,20 L15,20 L30,10 L15,0 Z" class="cell_clk"/>
    <g s:x="28" s:y="10" s:pid="Y"/>
  </g>
  <g s:type="inputExt" transform="translate(12,1161)" s:width="30" s:height="20" id="cell_rst_n">
    <text x="15" y="-4" class="nodelabel cell_rst_n" s:attribute="ref">rst_n</text>
    <s:alias val="$_inputExt_"/>
    <path d="M0,0 L0,20 L15,20 L30,10 L15,0 Z" class="cell_rst_n"/>
    <g s:x="28" s:y="10" s:pid="Y"/>
  </g>
  <g s:type="inputExt" transform="translate(12,628)" s:width="30" s:height="20" id="cell_act_in">
    <text x="15" y="-4" class="nodelabel cell_act_in" s:attribute="ref">act_in</text>
    <s:alias val="$_inputExt_"/>
    <path d="M0,0 L0,20 L15,20 L30,10 L15,0 Z" class="cell_act_in"/>
    <g s:x="28" s:y="10" s:pid="Y"/>
  </g>
  <g s:type="inputExt" transform="translate(12,1226)" s:width="30" s:height="20" id="cell_wt_in">
    <text x="15" y="-4" class="nodelabel cell_wt_in" s:attribute="ref">wt_in</text>
    <s:alias val="$_inputExt_"/>
    <path d="M0,0 L0,20 L15,20 L30,10 L15,0 Z" class="cell_wt_in"/>
    <g s:x="28" s:y="10" s:pid="Y"/>
  </g>
  <g s:type="inputExt" transform="translate(326,585)" s:width="30" s:height="20" id="cell_acc_in">
    <text x="15" y="-4" class="nodelabel cell_acc_in" s:attribute="ref">acc_in</text>
    <s:alias val="$_inputExt_"/>
    <path d="M0,0 L0,20 L15,20 L30,10 L15,0 Z" class="cell_acc_in"/>
    <g s:x="28" s:y="10" s:pid="Y"/>
  </g>
  <g s:type="outputExt" transform="translate(832,22.5)" s:width="30" s:height="20" id="cell_acc_out">
    <text x="15" y="-4" class="nodelabel cell_acc_out" s:attribute="ref">acc_out</text>
    <s:alias val="$_outputExt_"/>
    <path d="M30,0 L30,20 L15,20 L0,10 L15,0 Z" class="cell_acc_out"/>
    <g s:x="0" s:y="10" s:pid="A"/>
  </g>
  <g s:type="inputExt" transform="translate(326,1221)" s:width="30" s:height="20" id="cell_valid_in">
    <text x="15" y="-4" class="nodelabel cell_valid_in" s:attribute="ref">valid_in</text>
    <s:alias val="$_inputExt_"/>
    <path d="M0,0 L0,20 L15,20 L30,10 L15,0 Z" class="cell_valid_in"/>
    <g s:x="28" s:y="10" s:pid="Y"/>
  </g>
  <g s:type="outputExt" transform="translate(832,1347)" s:width="30" s:height="20" id="cell_ready_out">
    <text x="15" y="-4" class="nodelabel cell_ready_out" s:attribute="ref">ready_out</text>
    <s:alias val="$_outputExt_"/>
    <path d="M30,0 L30,20 L15,20 L0,10 L15,0 Z" class="cell_ready_out"/>
    <g s:x="0" s:y="10" s:pid="A"/>
  </g>
  <g s:type="outputExt" transform="translate(832,1099)" s:width="30" s:height="20" id="cell_valid_out">
    <text x="15" y="-4" class="nodelabel cell_valid_out" s:attribute="ref">valid_out</text>
    <s:alias val="$_outputExt_"/>
    <path d="M30,0 L30,20 L15,20 L0,10 L15,0 Z" class="cell_valid_out"/>
    <g s:x="0" s:y="10" s:pid="A"/>
  </g>
  <g s:type="inputExt" transform="translate(236,1336)" s:width="30" s:height="20" id="cell_ready_in">
    <text x="15" y="-4" class="nodelabel cell_ready_in" s:attribute="ref">ready_in</text>
    <s:alias val="$_inputExt_"/>
    <path d="M0,0 L0,20 L15,20 L30,10 L15,0 Z" class="cell_ready_in"/>
    <g s:x="28" s:y="10" s:pid="Y"/>
  </g>
  <g s:type="constant" transform="translate(629,1140)" s:width="30" s:height="20" id="cell_0">
    <text x="15" y="-4" class="nodelabel cell_0" s:attribute="ref">0</text>
    <s:alias val="$_constant_"/>
    <rect width="30" height="20" class="cell_0"/>
    <g s:x="30" s:y="10" s:pid="Y"/>
  </g>
  <g s:type="constant" transform="translate(719,1251)" s:width="30" s:height="20" id="cell_1">
    <text x="15" y="-4" class="nodelabel cell_1" s:attribute="ref">1</text>
    <s:alias val="$_constant_"/>
    <rect width="30" height="20" class="cell_1"/>
    <g s:x="30" s:y="10" s:pid="Y"/>
  </g>
  <g s:type="join" transform="translate(238.2,85.5)" s:width="4" s:height="40" id="cell_$join$,4,5,6,7,8,9,10,11,11,11,11,11,11,11,11,11,11,11,11,11,11,11,11,11,11,11,11,11,11,11,11,11,">
    <rect width="5" height="500" class="splitjoinBody" s:generic="body"/>
    <s:alias val="$_join_"/>
    <g s:x="5" s:y="20" s:pid="out"/>
    <g transform="translate(0,10)" s:x="0" s:y="10" s:pid="in0">
      <text x="-3" y="-4" class="inputPortLabel">0:7</text>
    </g>
    <g transform="translate(0,30)" s:x="0" s:y="10" s:pid="in0">
      <text x="-3" y="-4" class="inputPortLabel">8</text>
    </g>
    <g transform="translate(0,50)" s:x="0" s:y="10" s:pid="in0">
      <text x="-3" y="-4" class="inputPortLabel">9</text>
    </g>
    <g transform="translate(0,70)" s:x="0" s:y="10" s:pid="in0">
      <text x="-3" y="-4" class="inputPortLabel">10</text>
    </g>
    <g transform="translate(0,90)" s:x="0" s:y="10" s:pid="in0">
      <text x="-3" y="-4" class="inputPortLabel">11</text>
    </g>
    <g transform="translate(0,110)" s:x="0" s:y="10" s:pid="in0">
      <text x="-3" y="-4" class="inputPortLabel">12</text>
    </g>
    <g transform="translate(0,130)" s:x="0" s:y="10" s:pid="in0">
      <text x="-3" y="-4" class="inputPortLabel">13</text>
    </g>
    <g transform="translate(0,150)" s:x="0" s:y="10" s:pid="in0">
      <text x="-3" y="-4" class="inputPortLabel">14</text>
    </g>
    <g transform="translate(0,170)" s:x="0" s:y="10" s:pid="in0">
      <text x="-3" y="-4" class="inputPortLabel">15</text>
    </g>
    <g transform="translate(0,190)" s:x="0" s:y="10" s:pid="in0">
      <text x="-3" y="-4" class="inputPortLabel">16</text>
    </g>
    <g transform="translate(0,210)" s:x="0" s:y="10" s:pid="in0">
      <text x="-3" y="-4" class="inputPortLabel">17</text>
    </g>
    <g transform="translate(0,230)" s:x="0" s:y="10" s:pid="in0">
      <text x="-3" y="-4" class="inputPortLabel">18</text>
    </g>
    <g transform="translate(0,250)" s:x="0" s:y="10" s:pid="in0">
      <text x="-3" y="-4" class="inputPortLabel">19</text>
    </g>
    <g transform="translate(0,270)" s:x="0" s:y="10" s:pid="in0">
      <text x="-3" y="-4" class="inputPortLabel">20</text>
    </g>
    <g transform="translate(0,290)" s:x="0" s:y="10" s:pid="in0">
      <text x="-3" y="-4" class="inputPortLabel">21</text>
    </g>
    <g transform="translate(0,310)" s:x="0" s:y="10" s:pid="in0">
      <text x="-3" y="-4" class="inputPortLabel">22</text>
    </g>
    <g transform="translate(0,330)" s:x="0" s:y="10" s:pid="in0">
      <text x="-3" y="-4" class="inputPortLabel">23</text>
    </g>
    <g transform="translate(0,350)" s:x="0" s:y="10" s:pid="in0">
      <text x="-3" y="-4" class="inputPortLabel">24</text>
    </g>
    <g transform="translate(0,370)" s:x="0" s:y="10" s:pid="in0">
      <text x="-3" y="-4" class="inputPortLabel">25</text>
    </g>
    <g transform="translate(0,390)" s:x="0" s:y="10" s:pid="in0">
      <text x="-3" y="-4" class="inputPortLabel">26</text>
    </g>
    <g transform="translate(0,410)" s:x="0" s:y="10" s:pid="in0">
      <text x="-3" y="-4" class="inputPortLabel">27</text>
    </g>
    <g transform="translate(0,430)" s:x="0" s:y="10" s:pid="in0">
      <text x="-3" y="-4" class="inputPortLabel">28</text>
    </g>
    <g transform="translate(0,450)" s:x="0" s:y="10" s:pid="in0">
      <text x="-3" y="-4" class="inputPortLabel">29</text>
    </g>
    <g transform="translate(0,470)" s:x="0" s:y="10" s:pid="in0">
      <text x="-3" y="-4" class="inputPortLabel">30</text>
    </g>
    <g transform="translate(0,490)" s:x="0" s:y="10" s:pid="in0">
      <text x="-3" y="-4" class="inputPortLabel">31</text>
    </g>
  </g>
  <g s:type="join" transform="translate(238.2,660)" s:width="4" s:height="40" id="cell_$join$,12,13,14,15,16,17,18,19,19,19,19,19,19,19,19,19,19,19,19,19,19,19,19,19,19,19,19,19,19,19,19,19,">
    <rect width="5" height="500" class="splitjoinBody" s:generic="body"/>
    <s:alias val="$_join_"/>
    <g s:x="5" s:y="20" s:pid="out"/>
    <g transform="translate(0,10)" s:x="0" s:y="10" s:pid="in0">
      <text x="-3" y="-4" class="inputPortLabel">0:7</text>
    </g>
    <g transform="translate(0,30)" s:x="0" s:y="10" s:pid="in0">
      <text x="-3" y="-4" class="inputPortLabel">8</text>
    </g>
    <g transform="translate(0,50)" s:x="0" s:y="10" s:pid="in0">
      <text x="-3" y="-4" class="inputPortLabel">9</text>
    </g>
    <g transform="translate(0,70)" s:x="0" s:y="10" s:pid="in0">
      <text x="-3" y="-4" class="inputPortLabel">10</text>
    </g>
    <g transform="translate(0,90)" s:x="0" s:y="10" s:pid="in0">
      <text x="-3" y="-4" class="inputPortLabel">11</text>
    </g>
    <g transform="translate(0,110)" s:x="0" s:y="10" s:pid="in0">
      <text x="-3" y="-4" class="inputPortLabel">12</text>
    </g>
    <g transform="translate(0,130)" s:x="0" s:y="10" s:pid="in0">
      <text x="-3" y="-4" class="inputPortLabel">13</text>
    </g>
    <g transform="translate(0,150)" s:x="0" s:y="10" s:pid="in0">
      <text x="-3" y="-4" class="inputPortLabel">14</text>
    </g>
    <g transform="translate(0,170)" s:x="0" s:y="10" s:pid="in0">
      <text x="-3" y="-4" class="inputPortLabel">15</text>
    </g>
    <g transform="translate(0,190)" s:x="0" s:y="10" s:pid="in0">
      <text x="-3" y="-4" class="inputPortLabel">16</text>
    </g>
    <g transform="translate(0,210)" s:x="0" s:y="10" s:pid="in0">
      <text x="-3" y="-4" class="inputPortLabel">17</text>
    </g>
    <g transform="translate(0,230)" s:x="0" s:y="10" s:pid="in0">
      <text x="-3" y="-4" class="inputPortLabel">18</text>
    </g>
    <g transform="translate(0,250)" s:x="0" s:y="10" s:pid="in0">
      <text x="-3" y="-4" class="inputPortLabel">19</text>
    </g>
    <g transform="translate(0,270)" s:x="0" s:y="10" s:pid="in0">
      <text x="-3" y="-4" class="inputPortLabel">20</text>
    </g>
    <g transform="translate(0,290)" s:x="0" s:y="10" s:pid="in0">
      <text x="-3" y="-4" class="inputPortLabel">21</text>
    </g>
    <g transform="translate(0,310)" s:x="0" s:y="10" s:pid="in0">
      <text x="-3" y="-4" class="inputPortLabel">22</text>
    </g>
    <g transform="translate(0,330)" s:x="0" s:y="10" s:pid="in0">
      <text x="-3" y="-4" class="inputPortLabel">23</text>
    </g>
    <g transform="translate(0,350)" s:x="0" s:y="10" s:pid="in0">
      <text x="-3" y="-4" class="inputPortLabel">24</text>
    </g>
    <g transform="translate(0,370)" s:x="0" s:y="10" s:pid="in0">
      <text x="-3" y="-4" class="inputPortLabel">25</text>
    </g>
    <g transform="translate(0,390)" s:x="0" s:y="10" s:pid="in0">
      <text x="-3" y="-4" class="inputPortLabel">26</text>
    </g>
    <g transform="translate(0,410)" s:x="0" s:y="10" s:pid="in0">
      <text x="-3" y="-4" class="inputPortLabel">27</text>
    </g>
    <g transform="translate(0,430)" s:x="0" s:y="10" s:pid="in0">
      <text x="-3" y="-4" class="inputPortLabel">28</text>
    </g>
    <g transform="translate(0,450)" s:x="0" s:y="10" s:pid="in0">
      <text x="-3" y="-4" class="inputPortLabel">29</text>
    </g>
    <g transform="translate(0,470)" s:x="0" s:y="10" s:pid="in0">
      <text x="-3" y="-4" class="inputPortLabel">30</text>
    </g>
    <g transform="translate(0,490)" s:x="0" s:y="10" s:pid="in0">
      <text x="-3" y="-4" class="inputPortLabel">31</text>
    </g>
  </g>
  <g s:type="split" transform="translate(148,605)" s:width="5" s:height="40" id="cell_$split$,4,5,6,7,8,9,10,11,">
    <rect width="5" height="20" class="splitjoinBody" s:generic="body"/>
    <s:alias val="$_split_"/>
    <g s:x="0" s:y="20" s:pid="in"/>
    <g transform="translate(4,10)" s:x="4" s:y="10" s:pid="out0">
      <text x="5" y="-4">7</text>
    </g>
  </g>
  <g s:type="split" transform="translate(148,1179.5)" s:width="5" s:height="40" id="cell_$split$,12,13,14,15,16,17,18,19,">
    <rect width="5" height="20" class="splitjoinBody" s:generic="body"/>
    <s:alias val="$_split_"/>
    <g s:x="0" s:y="20" s:pid="in"/>
    <g transform="translate(4,10)" s:x="4" s:y="10" s:pid="out0">
      <text x="5" y="-4">7</text>
    </g>
  </g>
  <line x1="354" x2="534" y1="595" y2="595" class="net_20,21,22,23,24,25,26,27,28,29,30,31,32,33,34,35,36,37,38,39,40,41,42,43,44,45,46,47,48,49,50,51"/>
  <line x1="534" x2="534" y1="595" y2="645.5" class="net_20,21,22,23,24,25,26,27,28,29,30,31,32,33,34,35,36,37,38,39,40,41,42,43,44,45,46,47,48,49,50,51"/>
  <line x1="534" x2="563.6666666666666" y1="645.5" y2="645.5" class="net_20,21,22,23,24,25,26,27,28,29,30,31,32,33,34,35,36,37,38,39,40,41,42,43,44,45,46,47,48,49,50,51"/>
  <line x1="357" x2="563.6666666666666" y1="660.5" y2="660.5" class="net_88,89,90,91,92,93,94,95,96,97,98,99,100,101,102,103,104,105,106,107,108,109,110,111,112,113,114,115,116,117,118,119"/>
  <line x1="354" x2="534" y1="1231" y2="1231" class="net_84"/>
  <line x1="534" x2="534" y1="1231" y2="1273.5" class="net_84"/>
  <line x1="534" x2="559" y1="1273.5" y2="1273.5" class="net_84"/>
  <line x1="409.6666666666667" x2="559" y1="1288.5" y2="1288.5" class="net_85"/>
  <line x1="409.6666666666667" x2="534" y1="1288.5" y2="1288.5" class="net_85"/>
  <line x1="534" x2="534" y1="1288.5" y2="1357" class="net_85"/>
  <circle cx="534" cy="1288.5" r="2" style="fill:#000" class="net_85"/>
  <line x1="534" x2="832" y1="1357" y2="1357" class="net_85"/>
  <line x1="154" x2="211" y1="1281" y2="1281" class="net_86"/>
  <line x1="211" x2="211" y1="1281" y2="1200" class="net_86"/>
  <circle cx="211" cy="1281" r="2" style="fill:#000" class="net_86"/>
  <line x1="211" x2="629" y1="1200" y2="1200" class="net_86"/>
  <line x1="154" x2="245" y1="1281" y2="1281" class="net_86"/>
  <line x1="154" x2="211" y1="1281" y2="1281" class="net_86"/>
  <line x1="211" x2="211" y1="1281" y2="1200" class="net_86"/>
  <line x1="211" x2="599" y1="1200" y2="1200" class="net_86"/>
  <line x1="599" x2="599" y1="1200" y2="1109" class="net_86"/>
  <line x1="599" x2="669" y1="1109" y2="1109" class="net_86"/>
  <line x1="669" x2="669" y1="1109" y2="1130" class="net_86"/>
  <circle cx="669" cy="1109" r="2" style="fill:#000" class="net_86"/>
  <line x1="669" x2="730" y1="1130" y2="1130" class="net_86"/>
  <line x1="154" x2="211" y1="1281" y2="1281" class="net_86"/>
  <line x1="211" x2="211" y1="1281" y2="1200" class="net_86"/>
  <line x1="211" x2="599" y1="1200" y2="1200" class="net_86"/>
  <line x1="599" x2="599" y1="1200" y2="1109" class="net_86"/>
  <circle cx="599" cy="1200" r="2" style="fill:#000" class="net_86"/>
  <line x1="599" x2="832" y1="1109" y2="1109" class="net_86"/>
  <line x1="264" x2="619" y1="1346" y2="1346" class="net_87"/>
  <line x1="619" x2="619" y1="1346" y2="1215" class="net_87"/>
  <line x1="619" x2="629" y1="1215" y2="1215" class="net_87"/>
  <line x1="264" x2="294" y1="1346" y2="1346" class="net_87"/>
  <line x1="294" x2="294" y1="1346" y2="1296" class="net_87"/>
  <circle cx="294" cy="1346" r="2" style="fill:#000" class="net_87"/>
  <line x1="294" x2="382.6666666666667" y1="1296" y2="1296" class="net_87"/>
  <line x1="244.2" x2="294" y1="106" y2="106" class="net_4,5,6,7,8,9,10,11,11,11,11,11,11,11,11,11,11,11,11,11,11,11,11,11,11,11,11,11,11,11,11,11"/>
  <line x1="294" x2="294" y1="106" y2="660.5" class="net_4,5,6,7,8,9,10,11,11,11,11,11,11,11,11,11,11,11,11,11,11,11,11,11,11,11,11,11,11,11,11,11"/>
  <line x1="294" x2="326" y1="660.5" y2="660.5" class="net_4,5,6,7,8,9,10,11,11,11,11,11,11,11,11,11,11,11,11,11,11,11,11,11,11,11,11,11,11,11,11,11"/>
  <line x1="244.2" x2="326" y1="680.5" y2="680.5" class="net_12,13,14,15,16,17,18,19,19,19,19,19,19,19,19,19,19,19,19,19,19,19,19,19,19,19,19,19,19,19,19,19"/>
  <line x1="270" x2="382.6666666666667" y1="1281" y2="1281" class="net_154"/>
  <line x1="40" x2="58" y1="1171" y2="1171" class="net_3"/>
  <line x1="58" x2="58" y1="1171" y2="1281" class="net_3"/>
  <circle cx="58" cy="1171" r="2" style="fill:#000" class="net_3"/>
  <line x1="58" x2="123" y1="1281" y2="1281" class="net_3"/>
  <line x1="40" x2="58" y1="1171" y2="1171" class="net_3"/>
  <line x1="58" x2="58" y1="1171" y2="30.5" class="net_3"/>
  <line x1="58" x2="669" y1="30.5" y2="30.5" class="net_3"/>
  <line x1="669" x2="669" y1="30.5" y2="32.5" class="net_3"/>
  <line x1="669" x2="719" y1="32.5" y2="32.5" class="net_3"/>
  <line x1="40" x2="123" y1="1301" y2="1301" class="net_2"/>
  <line x1="40" x2="78" y1="1301" y2="1301" class="net_2"/>
  <line x1="78" x2="78" y1="1301" y2="52.5" class="net_2"/>
  <circle cx="78" cy="1301" r="2" style="fill:#000" class="net_2"/>
  <line x1="78" x2="719" y1="52.5" y2="52.5" class="net_2"/>
  <line x1="852" x2="896" y1="1251" y2="1251" class="net_155"/>
  <line x1="896" x2="896" y1="1251" y2="1377" class="net_155"/>
  <line x1="896" x2="88" y1="1377" y2="1377" class="net_155"/>
  <line x1="88" x2="88" y1="1377" y2="1321" class="net_155"/>
  <line x1="88" x2="123" y1="1321" y2="1321" class="net_155"/>
  <line x1="655.6666666666666" x2="669" y1="643" y2="643" class="net_156,157,158,159,160,161,162,163,164,165,166,167,168,169,170,171,172,173,174,175,176,177,178,179,180,181,182,183,184,185,186,187"/>
  <line x1="669" x2="669" y1="643" y2="72.5" class="net_156,157,158,159,160,161,162,163,164,165,166,167,168,169,170,171,172,173,174,175,176,177,178,179,180,181,182,183,184,185,186,187"/>
  <line x1="669" x2="719" y1="72.5" y2="72.5" class="net_156,157,158,159,160,161,162,163,164,165,166,167,168,169,170,171,172,173,174,175,176,177,178,179,180,181,182,183,184,185,186,187"/>
  <line x1="750" x2="807" y1="32.5" y2="32.5" class="net_52,53,54,55,56,57,58,59,60,61,62,63,64,65,66,67,68,69,70,71,72,73,74,75,76,77,78,79,80,81,82,83"/>
  <line x1="807" x2="807" y1="32.5" y2="613" class="net_52,53,54,55,56,57,58,59,60,61,62,63,64,65,66,67,68,69,70,71,72,73,74,75,76,77,78,79,80,81,82,83"/>
  <line x1="807" x2="619" y1="613" y2="613" class="net_52,53,54,55,56,57,58,59,60,61,62,63,64,65,66,67,68,69,70,71,72,73,74,75,76,77,78,79,80,81,82,83"/>
  <line x1="619" x2="619" y1="613" y2="633" class="net_52,53,54,55,56,57,58,59,60,61,62,63,64,65,66,67,68,69,70,71,72,73,74,75,76,77,78,79,80,81,82,83"/>
  <circle cx="807" cy="32.5" r="2" style="fill:#000" class="net_52,53,54,55,56,57,58,59,60,61,62,63,64,65,66,67,68,69,70,71,72,73,74,75,76,77,78,79,80,81,82,83"/>
  <line x1="619" x2="635.6666666666666" y1="633" y2="633" class="net_52,53,54,55,56,57,58,59,60,61,62,63,64,65,66,67,68,69,70,71,72,73,74,75,76,77,78,79,80,81,82,83"/>
  <line x1="750" x2="832" y1="32.5" y2="32.5" class="net_52,53,54,55,56,57,58,59,60,61,62,63,64,65,66,67,68,69,70,71,72,73,74,75,76,77,78,79,80,81,82,83"/>
  <line x1="585.6666666666666" x2="635.6666666666666" y1="653" y2="653" class="net_120,121,122,123,124,125,126,127,128,129,130,131,132,133,134,135,136,137,138,139,140,141,142,143,144,145,146,147,148,149,150,151"/>
  <line x1="589" x2="609" y1="1281" y2="1281" class="net_152"/>
  <line x1="609" x2="609" y1="1281" y2="1120" class="net_152"/>
  <line x1="609" x2="645.6666666666666" y1="1120" y2="1120" class="net_152"/>
  <circle cx="609" cy="1281" r="2" style="fill:#000" class="net_152"/>
  <line x1="645.6666666666666" x2="645.6666666666666" y1="1120" y2="658" class="net_152"/>
  <line x1="589" x2="842" y1="1281" y2="1281" class="net_152"/>
  <line x1="842" x2="842" y1="1281" y2="1266" class="net_152"/>
  <line x1="659" x2="730" y1="1150" y2="1150" class="net_189"/>
  <line x1="659" x2="740" y1="1207.5" y2="1207.5" class="net_153"/>
  <line x1="740" x2="740" y1="1207.5" y2="1155" class="net_153"/>
  <line x1="750" x2="807" y1="1140" y2="1140" class="net_188"/>
  <line x1="807" x2="807" y1="1140" y2="1241" class="net_188"/>
  <line x1="807" x2="832" y1="1241" y2="1241" class="net_188"/>
  <line x1="749" x2="832" y1="1261" y2="1261" class="net_190"/>
  <line x1="40" x2="68" y1="638" y2="638" class="net_4,5,6,7,8,9,10,11"/>
  <line x1="68" x2="68" y1="638" y2="41.5" class="net_4,5,6,7,8,9,10,11"/>
  <line x1="68" x2="238.7" y1="41.5" y2="41.5" class="net_4,5,6,7,8,9,10,11"/>
  <circle cx="68" cy="638" r="2" style="fill:#000" class="net_4,5,6,7,8,9,10,11"/>
  <line x1="238.7" x2="238.7" y1="41.5" y2="95.5" class="net_4,5,6,7,8,9,10,11"/>
  <line x1="40" x2="148.5" y1="638" y2="638" class="net_4,5,6,7,8,9,10,11"/>
  <line x1="148.5" x2="148.5" y1="638" y2="626" class="net_4,5,6,7,8,9,10,11"/>
  <line x1="153" x2="211" y1="615.5" y2="615.5" class="net_11"/>
  <line x1="211" x2="211" y1="615.5" y2="73.5" class="net_11"/>
  <line x1="211" x2="238.7" y1="73.5" y2="73.5" class="net_11"/>
  <circle cx="211" cy="615.5" r="2" style="fill:#000" class="net_11"/>
  <circle cx="211" cy="73.5" r="2" style="fill:#000" class="net_11"/>
  <line x1="238.7" x2="238.7" y1="73.5" y2="115.5" class="net_11"/>
  <line x1="153" x2="211" y1="615.5" y2="615.5" class="net_11"/>
  <line x1="211" x2="211" y1="615.5" y2="63.5" class="net_11"/>
  <line x1="211" x2="238.7" y1="63.5" y2="63.5" class="net_11"/>
  <line x1="238.7" x2="238.7" y1="63.5" y2="135.5" class="net_11"/>
  <line x1="153" x2="211" y1="615.5" y2="615.5" class="net_11"/>
  <line x1="211" x2="211" y1="615.5" y2="156" class="net_11"/>
  <circle cx="211" cy="156" r="2" style="fill:#000" class="net_11"/>
  <line x1="211" x2="238.2" y1="156" y2="156" class="net_11"/>
  <line x1="153" x2="211" y1="615.5" y2="615.5" class="net_11"/>
  <line x1="211" x2="211" y1="615.5" y2="176" class="net_11"/>
  <circle cx="211" cy="176" r="2" style="fill:#000" class="net_11"/>
  <line x1="211" x2="238.2" y1="176" y2="176" class="net_11"/>
  <line x1="153" x2="211" y1="615.5" y2="615.5" class="net_11"/>
  <line x1="211" x2="211" y1="615.5" y2="196" class="net_11"/>
  <circle cx="211" cy="196" r="2" style="fill:#000" class="net_11"/>
  <line x1="211" x2="238.2" y1="196" y2="196" class="net_11"/>
  <line x1="153" x2="211" y1="615.5" y2="615.5" class="net_11"/>
  <line x1="211" x2="211" y1="615.5" y2="216" class="net_11"/>
  <circle cx="211" cy="216" r="2" style="fill:#000" class="net_11"/>
  <line x1="211" x2="238.2" y1="216" y2="216" class="net_11"/>
  <line x1="153" x2="211" y1="615.5" y2="615.5" class="net_11"/>
  <line x1="211" x2="211" y1="615.5" y2="236" class="net_11"/>
  <circle cx="211" cy="236" r="2" style="fill:#000" class="net_11"/>
  <line x1="211" x2="238.2" y1="236" y2="236" class="net_11"/>
  <line x1="153" x2="211" y1="615.5" y2="615.5" class="net_11"/>
  <line x1="211" x2="211" y1="615.5" y2="256" class="net_11"/>
  <circle cx="211" cy="256" r="2" style="fill:#000" class="net_11"/>
  <line x1="211" x2="238.2" y1="256" y2="256" class="net_11"/>
  <line x1="153" x2="211" y1="615.5" y2="615.5" class="net_11"/>
  <line x1="211" x2="211" y1="615.5" y2="276" class="net_11"/>
  <circle cx="211" cy="276" r="2" style="fill:#000" class="net_11"/>
  <line x1="211" x2="238.2" y1="276" y2="276" class="net_11"/>
  <line x1="153" x2="211" y1="615.5" y2="615.5" class="net_11"/>
  <line x1="211" x2="211" y1="615.5" y2="296" class="net_11"/>
  <circle cx="211" cy="296" r="2" style="fill:#000" class="net_11"/>
  <line x1="211" x2="238.2" y1="296" y2="296" class="net_11"/>
  <line x1="153" x2="211" y1="615.5" y2="615.5" class="net_11"/>
  <line x1="211" x2="211" y1="615.5" y2="316" class="net_11"/>
  <circle cx="211" cy="316" r="2" style="fill:#000" class="net_11"/>
  <line x1="211" x2="238.2" y1="316" y2="316" class="net_11"/>
  <line x1="153" x2="211" y1="615.5" y2="615.5" class="net_11"/>
  <line x1="211" x2="211" y1="615.5" y2="336" class="net_11"/>
  <circle cx="211" cy="336" r="2" style="fill:#000" class="net_11"/>
  <line x1="211" x2="238.2" y1="336" y2="336" class="net_11"/>
  <line x1="153" x2="211" y1="615.5" y2="615.5" class="net_11"/>
  <line x1="211" x2="211" y1="615.5" y2="356" class="net_11"/>
  <circle cx="211" cy="356" r="2" style="fill:#000" class="net_11"/>
  <line x1="211" x2="238.2" y1="356" y2="356" class="net_11"/>
  <line x1="153" x2="211" y1="615.5" y2="615.5" class="net_11"/>
  <line x1="211" x2="211" y1="615.5" y2="376" class="net_11"/>
  <circle cx="211" cy="376" r="2" style="fill:#000" class="net_11"/>
  <line x1="211" x2="238.2" y1="376" y2="376" class="net_11"/>
  <line x1="153" x2="211" y1="615.5" y2="615.5" class="net_11"/>
  <line x1="211" x2="211" y1="615.5" y2="396" class="net_11"/>
  <circle cx="211" cy="396" r="2" style="fill:#000" class="net_11"/>
  <line x1="211" x2="238.2" y1="396" y2="396" class="net_11"/>
  <line x1="153" x2="211" y1="615.5" y2="615.5" class="net_11"/>
  <line x1="211" x2="211" y1="615.5" y2="416" class="net_11"/>
  <circle cx="211" cy="416" r="2" style="fill:#000" class="net_11"/>
  <line x1="211" x2="238.2" y1="416" y2="416" class="net_11"/>
  <line x1="153" x2="211" y1="615.5" y2="615.5" class="net_11"/>
  <line x1="211" x2="211" y1="615.5" y2="436" class="net_11"/>
  <circle cx="211" cy="436" r="2" style="fill:#000" class="net_11"/>
  <line x1="211" x2="238.2" y1="436" y2="436" class="net_11"/>
  <line x1="153" x2="211" y1="615.5" y2="615.5" class="net_11"/>
  <line x1="211" x2="211" y1="615.5" y2="456" class="net_11"/>
  <circle cx="211" cy="456" r="2" style="fill:#000" class="net_11"/>
  <line x1="211" x2="238.2" y1="456" y2="456" class="net_11"/>
  <line x1="153" x2="211" y1="615.5" y2="615.5" class="net_11"/>
  <line x1="211" x2="211" y1="615.5" y2="476" class="net_11"/>
  <circle cx="211" cy="476" r="2" style="fill:#000" class="net_11"/>
  <line x1="211" x2="238.2" y1="476" y2="476" class="net_11"/>
  <line x1="153" x2="211" y1="615.5" y2="615.5" class="net_11"/>
  <line x1="211" x2="211" y1="615.5" y2="496" class="net_11"/>
  <circle cx="211" cy="496" r="2" style="fill:#000" class="net_11"/>
  <line x1="211" x2="238.2" y1="496" y2="496" class="net_11"/>
  <line x1="153" x2="211" y1="615.5" y2="615.5" class="net_11"/>
  <line x1="211" x2="211" y1="615.5" y2="516" class="net_11"/>
  <circle cx="211" cy="516" r="2" style="fill:#000" class="net_11"/>
  <line x1="211" x2="238.2" y1="516" y2="516" class="net_11"/>
  <line x1="153" x2="238.7" y1="615.5" y2="615.5" class="net_11"/>
  <line x1="238.7" x2="238.7" y1="615.5" y2="536.5" class="net_11"/>
  <line x1="153" x2="211" y1="615.5" y2="615.5" class="net_11"/>
  <line x1="211" x2="211" y1="615.5" y2="605.5" class="net_11"/>
  <line x1="211" x2="238.7" y1="605.5" y2="605.5" class="net_11"/>
  <circle cx="211" cy="605.5" r="2" style="fill:#000" class="net_11"/>
  <line x1="238.7" x2="238.7" y1="605.5" y2="556.5" class="net_11"/>
  <line x1="153" x2="211" y1="615.5" y2="615.5" class="net_11"/>
  <line x1="211" x2="211" y1="615.5" y2="595.5" class="net_11"/>
  <line x1="211" x2="238.7" y1="595.5" y2="595.5" class="net_11"/>
  <circle cx="211" cy="595.5" r="2" style="fill:#000" class="net_11"/>
  <line x1="238.7" x2="238.7" y1="595.5" y2="576.5" class="net_11"/>
  <line x1="40" x2="88" y1="1236" y2="1236" class="net_12,13,14,15,16,17,18,19"/>
  <line x1="88" x2="88" y1="1236" y2="648" class="net_12,13,14,15,16,17,18,19"/>
  <line x1="88" x2="238.7" y1="648" y2="648" class="net_12,13,14,15,16,17,18,19"/>
  <circle cx="88" cy="1236" r="2" style="fill:#000" class="net_12,13,14,15,16,17,18,19"/>
  <line x1="238.7" x2="238.7" y1="648" y2="670" class="net_12,13,14,15,16,17,18,19"/>
  <line x1="40" x2="148.5" y1="1236" y2="1236" class="net_12,13,14,15,16,17,18,19"/>
  <line x1="148.5" x2="148.5" y1="1236" y2="1200.5" class="net_12,13,14,15,16,17,18,19"/>
  <line x1="153" x2="211" y1="1190" y2="1190" class="net_19"/>
  <line x1="211" x2="211" y1="1190" y2="638" class="net_19"/>
  <line x1="211" x2="238.7" y1="638" y2="638" class="net_19"/>
  <circle cx="211" cy="1190" r="2" style="fill:#000" class="net_19"/>
  <circle cx="211" cy="638" r="2" style="fill:#000" class="net_19"/>
  <line x1="238.7" x2="238.7" y1="638" y2="690" class="net_19"/>
  <line x1="153" x2="211" y1="1190" y2="1190" class="net_19"/>
  <line x1="211" x2="211" y1="1190" y2="628" class="net_19"/>
  <line x1="211" x2="238.7" y1="628" y2="628" class="net_19"/>
  <line x1="238.7" x2="238.7" y1="628" y2="710" class="net_19"/>
  <line x1="153" x2="211" y1="1190" y2="1190" class="net_19"/>
  <line x1="211" x2="211" y1="1190" y2="730.5" class="net_19"/>
  <circle cx="211" cy="730.5" r="2" style="fill:#000" class="net_19"/>
  <line x1="211" x2="238.2" y1="730.5" y2="730.5" class="net_19"/>
  <line x1="153" x2="211" y1="1190" y2="1190" class="net_19"/>
  <line x1="211" x2="211" y1="1190" y2="750.5" class="net_19"/>
  <circle cx="211" cy="750.5" r="2" style="fill:#000" class="net_19"/>
  <line x1="211" x2="238.2" y1="750.5" y2="750.5" class="net_19"/>
  <line x1="153" x2="211" y1="1190" y2="1190" class="net_19"/>
  <line x1="211" x2="211" y1="1190" y2="770.5" class="net_19"/>
  <circle cx="211" cy="770.5" r="2" style="fill:#000" class="net_19"/>
  <line x1="211" x2="238.2" y1="770.5" y2="770.5" class="net_19"/>
  <line x1="153" x2="211" y1="1190" y2="1190" class="net_19"/>
  <line x1="211" x2="211" y1="1190" y2="790.5" class="net_19"/>
  <circle cx="211" cy="790.5" r="2" style="fill:#000" class="net_19"/>
  <line x1="211" x2="238.2" y1="790.5" y2="790.5" class="net_19"/>
  <line x1="153" x2="211" y1="1190" y2="1190" class="net_19"/>
  <line x1="211" x2="211" y1="1190" y2="810.5" class="net_19"/>
  <circle cx="211" cy="810.5" r="2" style="fill:#000" class="net_19"/>
  <line x1="211" x2="238.2" y1="810.5" y2="810.5" class="net_19"/>
  <line x1="153" x2="211" y1="1190" y2="1190" class="net_19"/>
  <line x1="211" x2="211" y1="1190" y2="830.5" class="net_19"/>
  <circle cx="211" cy="830.5" r="2" style="fill:#000" class="net_19"/>
  <line x1="211" x2="238.2" y1="830.5" y2="830.5" class="net_19"/>
  <line x1="153" x2="211" y1="1190" y2="1190" class="net_19"/>
  <line x1="211" x2="211" y1="1190" y2="850.5" class="net_19"/>
  <circle cx="211" cy="850.5" r="2" style="fill:#000" class="net_19"/>
  <line x1="211" x2="238.2" y1="850.5" y2="850.5" class="net_19"/>
  <line x1="153" x2="211" y1="1190" y2="1190" class="net_19"/>
  <line x1="211" x2="211" y1="1190" y2="870.5" class="net_19"/>
  <circle cx="211" cy="870.5" r="2" style="fill:#000" class="net_19"/>
  <line x1="211" x2="238.2" y1="870.5" y2="870.5" class="net_19"/>
  <line x1="153" x2="211" y1="1190" y2="1190" class="net_19"/>
  <line x1="211" x2="211" y1="1190" y2="890.5" class="net_19"/>
  <circle cx="211" cy="890.5" r="2" style="fill:#000" class="net_19"/>
  <line x1="211" x2="238.2" y1="890.5" y2="890.5" class="net_19"/>
  <line x1="153" x2="211" y1="1190" y2="1190" class="net_19"/>
  <line x1="211" x2="211" y1="1190" y2="910.5" class="net_19"/>
  <circle cx="211" cy="910.5" r="2" style="fill:#000" class="net_19"/>
  <line x1="211" x2="238.2" y1="910.5" y2="910.5" class="net_19"/>
  <line x1="153" x2="211" y1="1190" y2="1190" class="net_19"/>
  <line x1="211" x2="211" y1="1190" y2="930.5" class="net_19"/>
  <circle cx="211" cy="930.5" r="2" style="fill:#000" class="net_19"/>
  <line x1="211" x2="238.2" y1="930.5" y2="930.5" class="net_19"/>
  <line x1="153" x2="211" y1="1190" y2="1190" class="net_19"/>
  <line x1="211" x2="211" y1="1190" y2="950.5" class="net_19"/>
  <circle cx="211" cy="950.5" r="2" style="fill:#000" class="net_19"/>
  <line x1="211" x2="238.2" y1="950.5" y2="950.5" class="net_19"/>
  <line x1="153" x2="211" y1="1190" y2="1190" class="net_19"/>
  <line x1="211" x2="211" y1="1190" y2="970.5" class="net_19"/>
  <circle cx="211" cy="970.5" r="2" style="fill:#000" class="net_19"/>
  <line x1="211" x2="238.2" y1="970.5" y2="970.5" class="net_19"/>
  <line x1="153" x2="211" y1="1190" y2="1190" class="net_19"/>
  <line x1="211" x2="211" y1="1190" y2="990.5" class="net_19"/>
  <circle cx="211" cy="990.5" r="2" style="fill:#000" class="net_19"/>
  <line x1="211" x2="238.2" y1="990.5" y2="990.5" class="net_19"/>
  <line x1="153" x2="211" y1="1190" y2="1190" class="net_19"/>
  <line x1="211" x2="211" y1="1190" y2="1010.5" class="net_19"/>
  <circle cx="211" cy="1010.5" r="2" style="fill:#000" class="net_19"/>
  <line x1="211" x2="238.2" y1="1010.5" y2="1010.5" class="net_19"/>
  <line x1="153" x2="211" y1="1190" y2="1190" class="net_19"/>
  <line x1="211" x2="211" y1="1190" y2="1030.5" class="net_19"/>
  <circle cx="211" cy="1030.5" r="2" style="fill:#000" class="net_19"/>
  <line x1="211" x2="238.2" y1="1030.5" y2="1030.5" class="net_19"/>
  <line x1="153" x2="211" y1="1190" y2="1190" class="net_19"/>
  <line x1="211" x2="211" y1="1190" y2="1050.5" class="net_19"/>
  <circle cx="211" cy="1050.5" r="2" style="fill:#000" class="net_19"/>
  <line x1="211" x2="238.2" y1="1050.5" y2="1050.5" class="net_19"/>
  <line x1="153" x2="211" y1="1190" y2="1190" class="net_19"/>
  <line x1="211" x2="211" y1="1190" y2="1070.5" class="net_19"/>
  <circle cx="211" cy="1070.5" r="2" style="fill:#000" class="net_19"/>
  <line x1="211" x2="238.2" y1="1070.5" y2="1070.5" class="net_19"/>
  <line x1="153" x2="211" y1="1190" y2="1190" class="net_19"/>
  <line x1="211" x2="211" y1="1190" y2="1090.5" class="net_19"/>
  <circle cx="211" cy="1090.5" r="2" style="fill:#000" class="net_19"/>
  <line x1="211" x2="238.2" y1="1090.5" y2="1090.5" class="net_19"/>
  <line x1="153" x2="238.7" y1="1190" y2="1190" class="net_19"/>
  <line x1="238.7" x2="238.7" y1="1190" y2="1111" class="net_19"/>
  <line x1="153" x2="211" y1="1190" y2="1190" class="net_19"/>
  <line x1="211" x2="211" y1="1190" y2="1180" class="net_19"/>
  <line x1="211" x2="238.7" y1="1180" y2="1180" class="net_19"/>
  <circle cx="211" cy="1180" r="2" style="fill:#000" class="net_19"/>
  <line x1="238.7" x2="238.7" y1="1180" y2="1131" class="net_19"/>
  <line x1="153" x2="211" y1="1190" y2="1190" class="net_19"/>
  <line x1="211" x2="211" y1="1190" y2="1170" class="net_19"/>
  <line x1="211" x2="238.7" y1="1170" y2="1170" class="net_19"/>
  <circle cx="211" cy="1170" r="2" style="fill:#000" class="net_19"/>
  <line x1="238.7" x2="238.7" y1="1170" y2="1151" class="net_19"/>
</svg>
