<svg xmlns="http://www.w3.org/2000/svg" xmlns:xlink="http://www.w3.org/1999/xlink" xmlns:s="https://github.com/nturley/netlistsvg" width="336" height="444">
  <style>svg {
    stroke:#000;
    fill:none;
  }
  text {
    fill:#000;
    stroke:none;
    font-size:10px;
    font-weight: bold;
    font-family: "Courier New", monospace;
  }
  .nodelabel {
    text-anchor: middle;
  }
  .inputPortLabel {
    text-anchor: end;
  }
  .splitjoinBody {
    fill:#000;
  }</style>
  <g s:type="generic" transform="translate(149,156.5)" s:width="30" s:height="40" id="cell_u_pe">
    <text x="15" y="-4" class="nodelabel cell_u_pe" s:attribute="ref">conv_pe</text>
    <rect width="30" height="140" s:generic="body" class="cell_u_pe"/>
    <g transform="translate(0,10)" s:x="0" s:y="10" s:pid="in0" id="port_u_pe~acc_in">
      <text x="-3" y="-4" class="inputPortLabel cell_u_pe">acc_in</text>
    </g>
    <g transform="translate(0,30)" s:x="0" s:y="10" s:pid="in0" id="port_u_pe~act_in">
      <text x="-3" y="-4" class="inputPortLabel cell_u_pe">act_in</text>
    </g>
    <g transform="translate(0,50)" s:x="0" s:y="10" s:pid="in0" id="port_u_pe~clk">
      <text x="-3" y="-4" class="inputPortLabel cell_u_pe">clk</text>
    </g>
    <g transform="translate(0,70)" s:x="0" s:y="10" s:pid="in0" id="port_u_pe~ready_in">
      <text x="-3" y="-4" class="inputPortLabel cell_u_pe">ready_in</text>
    </g>
    <g transform="translate(0,90)" s:x="0" s:y="10" s:pid="in0" id="port_u_pe~rst_n">
      <text x="-3" y="-4" class="inputPortLabel cell_u_pe">rst_n</text>
    </g>
    <g transform="translate(0,110)" s:x="0" s:y="10" s:pid="in0" id="port_u_pe~valid_in">
      <text x="-3" y="-4" class="inputPortLabel cell_u_pe">valid_in</text>
    </g>
    <g transform="translate(0,130)" s:x="0" s:y="10" s:pid="in0" id="port_u_pe~wt_in">
      <text x="-3" y="-4" class="inputPortLabel cell_u_pe">wt_in</text>
    </g>
    <g transform="translate(30,10)" s:x="30" s:y="10" s:pid="out0" id="port_u_pe~acc_out">
      <text x="5" y="-4" style="fill:#000; stroke:none" class="cell_u_pe">acc_out</text>
    </g>
    <g transform="translate(30,30)" s:x="30" s:y="10" s:pid="out0" id="port_u_pe~ready_out">
      <text x="5" y="-4" style="fill:#000; stroke:none" class="cell_u_pe">ready_out</text>
    </g>
    <g transform="translate(30,50)" s:x="30" s:y="10" s:pid="out0" id="port_u_pe~valid_out">
      <text x="5" y="-4" style="fill:#000; stroke:none" class="cell_u_pe">valid_out</text>
    </g>
  </g>
  <g s:type="inputExt" transform="translate(12,152)" s:width="30" s:height="20" id="cell_clk">
    <text x="15" y="-4" class="nodelabel cell_clk" s:attribute="ref">clk</text>
    <s:alias val="$_inputExt_"/>
    <path d="M0,0 L0,20 L15,20 L30,10 L15,0 Z" class="cell_clk"/>
    <g s:x="28" s:y="10" s:pid="Y"/>
  </g>
  <g s:type="inputExt" transform="translate(12,282)" s:width="30" s:height="20" id="cell_rst_n">
    <text x="15" y="-4" class="nodelabel cell_rst_n" s:attribute="ref">rst_n</text>
    <s:alias val="$_inputExt_"/>
    <path d="M0,0 L0,20 L15,20 L30,10 L15,0 Z" class="cell_rst_n"/>
    <g s:x="28" s:y="10" s:pid="Y"/>
  </g>
  <g s:type="inputExt" transform="translate(12,87)" s:width="30" s:height="20" id="cell_act_in">
    <text x="15" y="-4" class="nodelabel cell_act_in" s:attribute="ref">act_in</text>
    <s:alias val="$_inputExt_"/>
    <path d="M0,0 L0,20 L15,20 L30,10 L15,0 Z" class="cell_act_in"/>
    <g s:x="28" s:y="10" s:pid="Y"/>
  </g>
  <g s:type="inputExt" transform="translate(12,412)" s:width="30" s:height="20" id="cell_wt_in">
    <text x="15" y="-4" class="nodelabel cell_wt_in" s:attribute="ref">wt_in</text>
    <s:alias val="$_inputExt_"/>
    <path d="M0,0 L0,20 L15,20 L30,10 L15,0 Z" class="cell_wt_in"/>
    <g s:x="28" s:y="10" s:pid="Y"/>
  </g>
  <g s:type="inputExt" transform="translate(12,22)" s:width="30" s:height="20" id="cell_acc_in">
    <text x="15" y="-4" class="nodelabel cell_acc_in" s:attribute="ref">acc_in</text>
    <s:alias val="$_inputExt_"/>
    <path d="M0,0 L0,20 L15,20 L30,10 L15,0 Z" class="cell_acc_in"/>
    <g s:x="28" s:y="10" s:pid="Y"/>
  </g>
  <g s:type="outputExt" transform="translate(270,157)" s:width="30" s:height="20" id="cell_acc_out">
    <text x="15" y="-4" class="nodelabel cell_acc_out" s:attribute="ref">acc_out</text>
    <s:alias val="$_outputExt_"/>
    <path d="M30,0 L30,20 L15,20 L0,10 L15,0 Z" class="cell_acc_out"/>
    <g s:x="0" s:y="10" s:pid="A"/>
  </g>
  <g s:type="inputExt" transform="translate(12,347)" s:width="30" s:height="20" id="cell_valid_in">
    <text x="15" y="-4" class="nodelabel cell_valid_in" s:attribute="ref">valid_in</text>
    <s:alias val="$_inputExt_"/>
    <path d="M0,0 L0,20 L15,20 L30,10 L15,0 Z" class="cell_valid_in"/>
    <g s:x="28" s:y="10" s:pid="Y"/>
  </g>
  <g s:type="outputExt" transform="translate(270,222)" s:width="30" s:height="20" id="cell_ready_out">
    <text x="15" y="-4" class="nodelabel cell_ready_out" s:attribute="ref">ready_out</text>
    <s:alias val="$_outputExt_"/>
    <path d="M30,0 L30,20 L15,20 L0,10 L15,0 Z" class="cell_ready_out"/>
    <g s:x="0" s:y="10" s:pid="A"/>
  </g>
  <g s:type="outputExt" transform="translate(270,287)" s:width="30" s:height="20" id="cell_valid_out">
    <text x="15" y="-4" class="nodelabel cell_valid_out" s:attribute="ref">valid_out</text>
    <s:alias val="$_outputExt_"/>
    <path d="M30,0 L30,20 L15,20 L0,10 L15,0 Z" class="cell_valid_out"/>
    <g s:x="0" s:y="10" s:pid="A"/>
  </g>
  <g s:type="inputExt" transform="translate(12,217)" s:width="30" s:height="20" id="cell_ready_in">
    <text x="15" y="-4" class="nodelabel cell_ready_in" s:attribute="ref">ready_in</text>
    <s:alias val="$_inputExt_"/>
    <path d="M0,0 L0,20 L15,20 L30,10 L15,0 Z" class="cell_ready_in"/>
    <g s:x="28" s:y="10" s:pid="Y"/>
  </g>
  <line x1="40" x2="90" y1="32" y2="32" class="net_20,21,22,23,24,25,26,27,28,29,30,31,32,33,34,35,36,37,38,39,40,41,42,43,44,45,46,47,48,49,50,51"/>
  <line x1="90" x2="90" y1="32" y2="167" class="net_20,21,22,23,24,25,26,27,28,29,30,31,32,33,34,35,36,37,38,39,40,41,42,43,44,45,46,47,48,49,50,51"/>
  <line x1="90" x2="149" y1="167" y2="167" class="net_20,21,22,23,24,25,26,27,28,29,30,31,32,33,34,35,36,37,38,39,40,41,42,43,44,45,46,47,48,49,50,51"/>
  <line x1="40" x2="80" y1="97" y2="97" class="net_4,5,6,7,8,9,10,11"/>
  <line x1="80" x2="80" y1="97" y2="187" class="net_4,5,6,7,8,9,10,11"/>
  <line x1="80" x2="149" y1="187" y2="187" class="net_4,5,6,7,8,9,10,11"/>
  <line x1="40" x2="70" y1="162" y2="162" class="net_2"/>
  <line x1="70" x2="70" y1="162" y2="207" class="net_2"/>
  <line x1="70" x2="149" y1="207" y2="207" class="net_2"/>
  <line x1="40" x2="149" y1="227" y2="227" class="net_87"/>
  <line x1="40" x2="70" y1="292" y2="292" class="net_3"/>
  <line x1="70" x2="70" y1="292" y2="247" class="net_3"/>
  <line x1="70" x2="149" y1="247" y2="247" class="net_3"/>
  <line x1="40" x2="80" y1="357" y2="357" class="net_84"/>
  <line x1="80" x2="80" y1="357" y2="267" class="net_84"/>
  <line x1="80" x2="149" y1="267" y2="267" class="net_84"/>
  <line x1="40" x2="90" y1="422" y2="422" class="net_12,13,14,15,16,17,18,19"/>
  <line x1="90" x2="90" y1="422" y2="287" class="net_12,13,14,15,16,17,18,19"/>
  <line x1="90" x2="149" y1="287" y2="287" class="net_12,13,14,15,16,17,18,19"/>
  <line x1="180" x2="270" y1="167" y2="167" class="net_52,53,54,55,56,57,58,59,60,61,62,63,64,65,66,67,68,69,70,71,72,73,74,75,76,77,78,79,80,81,82,83"/>
  <line x1="180" x2="255" y1="187" y2="187" class="net_85"/>
  <line x1="255" x2="255" y1="187" y2="232" class="net_85"/>
  <line x1="255" x2="270" y1="232" y2="232" class="net_85"/>
  <line x1="180" x2="245" y1="207" y2="207" class="net_86"/>
  <line x1="245" x2="245" y1="207" y2="297" class="net_86"/>
  <line x1="245" x2="270" y1="297" y2="297" class="net_86"/>
</svg>
