<svg xmlns="http://www.w3.org/2000/svg" xmlns:xlink="http://www.w3.org/1999/xlink" xmlns:s="https://github.com/nturley/netlistsvg" width="866" height="989.5">
  <style>svg {
    stroke:#000;
    fill:none;
  }
  text {
    fill:#000;
    stroke:none;
    font-size:10px;
    font-weight: bold;
    font-family: "Courier New", monospace;
  }
  .nodelabel {
    text-anchor: middle;
  }
  .inputPortLabel {
    text-anchor: end;
  }
  .splitjoinBody {
    fill:#000;
  }</style>
  <g s:type="and" transform="translate(196,419.5)" s:width="30" s:height="25" id="cell_$and$/tmp/tmp5jmj_zu6.v:1685$342">
    <s:alias val="$and"/>
    <s:alias val="$logic_and"/>
    <s:alias val="$_AND_"/>
    <path d="M0,0 L0,25 L15,25 A15 12.5 0 0 0 15,0 Z" class="cell_$and$/tmp/tmp5jmj_zu6.v:1685$342"/>
    <g s:x="0" s:y="5" s:pid="A"/>
    <g s:x="0" s:y="20" s:pid="B"/>
    <g s:x="30" s:y="12.5" s:pid="Y"/>
  </g>
  <g s:type="and" transform="translate(196,925)" s:width="30" s:height="25" id="cell_$and$/tmp/tmp5jmj_zu6.v:1686$343">
    <s:alias val="$and"/>
    <s:alias val="$logic_and"/>
    <s:alias val="$_AND_"/>
    <path d="M0,0 L0,25 L15,25 A15 12.5 0 0 0 15,0 Z" class="cell_$and$/tmp/tmp5jmj_zu6.v:1686$343"/>
    <g s:x="0" s:y="5" s:pid="A"/>
    <g s:x="0" s:y="20" s:pid="B"/>
    <g s:x="30" s:y="12.5" s:pid="Y"/>
  </g>
  <g s:type="not" transform="translate(101,469.5)" s:width="30" s:height="20" id="cell_$not$/tmp/tmp5jmj_zu6.v:1685$341">
    <s:alias val="$_NOT_"/>
    <s:alias val="$not"/>
    <s:alias val="$logic_not"/>
    <path d="M0,0 L0,20 L20,10 Z" class="cell_$not$/tmp/tmp5jmj_zu6.v:1685$341"/>
    <circle cx="23" cy="10" r="3" class="cell_$not$/tmp/tmp5jmj_zu6.v:1685$341"/>
    <g s:x="0" s:y="10" s:pid="A"/>
    <g s:x="25" s:y="10" s:pid="Y"/>
  </g>
  <g s:type="or" transform="translate(711,627.5)" s:width="30" s:height="25" id="cell_$or$/tmp/tmp5jmj_zu6.v:1727$344">
    <s:alias val="$or"/>
    <s:alias val="$logic_or"/>
    <s:alias val="$_OR_"/>
    <path d="M0,25 L0,25 L15,25 A15 12.5 0 0 0 15,0 L0,0" class="cell_$or$/tmp/tmp5jmj_zu6.v:1727$344"/>
    <path d="M0,0 A30 25 0 0 1 0,25" class="cell_$or$/tmp/tmp5jmj_zu6.v:1727$344"/>
    <g s:x="3" s:y="5" s:pid="A"/>
    <g s:x="3" s:y="20" s:pid="B"/>
    <g s:x="30" s:y="12.5" s:pid="Y"/>
  </g>
  <g s:type="or" transform="translate(711,760)" s:width="30" s:height="25" id="cell_$or$/tmp/tmp5jmj_zu6.v:1728$345">
    <s:alias val="$or"/>
    <s:alias val="$logic_or"/>
    <s:alias val="$_OR_"/>
    <path d="M0,25 L0,25 L15,25 A15 12.5 0 0 0 15,0 L0,0" class="cell_$or$/tmp/tmp5jmj_zu6.v:1728$345"/>
    <path d="M0,0 A30 25 0 0 1 0,25" class="cell_$or$/tmp/tmp5jmj_zu6.v:1728$345"/>
    <g s:x="3" s:y="5" s:pid="A"/>
    <g s:x="3" s:y="20" s:pid="B"/>
    <g s:x="30" s:y="12.5" s:pid="Y"/>
  </g>
  <g s:type="or" transform="translate(711,825)" s:width="30" s:height="25" id="cell_$or$/tmp/tmp5jmj_zu6.v:1732$347">
    <s:alias val="$or"/>
    <s:alias val="$logic_or"/>
    <s:alias val="$_OR_"/>
    <path d="M0,25 L0,25 L15,25 A15 12.5 0 0 0 15,0 L0,0" class="cell_$or$/tmp/tmp5jmj_zu6.v:1732$347"/>
    <path d="M0,0 A30 25 0 0 1 0,25" class="cell_$or$/tmp/tmp5jmj_zu6.v:1732$347"/>
    <g s:x="3" s:y="5" s:pid="A"/>
    <g s:x="3" s:y="20" s:pid="B"/>
    <g s:x="30" s:y="12.5" s:pid="Y"/>
  </g>
  <g s:type="or" transform="translate(711,562.5)" s:width="30" s:height="25" id="cell_$or$/tmp/tmp5jmj_zu6.v:1736$349">
    <s:alias val="$or"/>
    <s:alias val="$logic_or"/>
    <s:alias val="$_OR_"/>
    <path d="M0,25 L0,25 L15,25 A15 12.5 0 0 0 15,0 L0,0" class="cell_$or$/tmp/tmp5jmj_zu6.v:1736$349"/>
    <path d="M0,0 A30 25 0 0 1 0,25" class="cell_$or$/tmp/tmp5jmj_zu6.v:1736$349"/>
    <g s:x="3" s:y="5" s:pid="A"/>
    <g s:x="3" s:y="20" s:pid="B"/>
    <g s:x="30" s:y="12.5" s:pid="Y"/>
  </g>
  <g s:type="mux" transform="translate(714.3333333333334,687.5)" s:width="20" s:height="40" id="cell_$ternary$/tmp/tmp5jmj_zu6.v:1729$346">
    <s:alias val="$pmux"/>
    <s:alias val="$mux"/>
    <s:alias val="$_MUX_"/>
    <path d="M0,0 L20,10 L20,30 L0,40 Z" class="cell_$ternary$/tmp/tmp5jmj_zu6.v:1729$346"/>
    <g s:x="0" s:y="10" s:pid="A"/>
    <g s:x="0" s:y="30" s:pid="B"/>
    <g s:x="10" s:y="35" s:pid="S"/>
    <g s:x="20" s:y="20" s:pid="Y"/>
  </g>
  <g s:type="mux" transform="translate(714.3333333333334,490)" s:width="20" s:height="40" id="cell_$ternary$/tmp/tmp5jmj_zu6.v:1733$348">
    <s:alias val="$pmux"/>
    <s:alias val="$mux"/>
    <s:alias val="$_MUX_"/>
    <path d="M0,0 L20,10 L20,30 L0,40 Z" class="cell_$ternary$/tmp/tmp5jmj_zu6.v:1733$348"/>
    <g s:x="0" s:y="10" s:pid="A"/>
    <g s:x="0" s:y="30" s:pid="B"/>
    <g s:x="10" s:y="35" s:pid="S"/>
    <g s:x="20" s:y="20" s:pid="Y"/>
  </g>
  <g s:type="generic" transform="translate(457,241.5)" s:width="30" s:height="40" id="cell_u_reader">
    <text x="15" y="-4" class="nodelabel cell_u_reader" s:attribute="ref">npu_dma_reader</text>
    <rect width="30" height="200" s:generic="body" class="cell_u_reader"/>
    <g transform="translate(0,10)" s:x="0" s:y="10" s:pid="in0" id="port_u_reader~buf_gnt">
      <text x="-3" y="-4" class="inputPortLabel cell_u_reader">buf_gnt</text>
    </g>
    <g transform="translate(0,30)" s:x="0" s:y="10" s:pid="in0" id="port_u_reader~clk">
      <text x="-3" y="-4" class="inputPortLabel cell_u_reader">clk</text>
    </g>
    <g transform="translate(0,50)" s:x="0" s:y="10" s:pid="in0" id="port_u_reader~ext_addr">
      <text x="-3" y="-4" class="inputPortLabel cell_u_reader">ext_addr</text>
    </g>
    <g transform="translate(0,70)" s:x="0" s:y="10" s:pid="in0" id="port_u_reader~ext_mem_gnt">
      <text x="-3" y="-4" class="inputPortLabel cell_u_reader">ext_mem_gnt</text>
    </g>
    <g transform="translate(0,90)" s:x="0" s:y="10" s:pid="in0" id="port_u_reader~ext_mem_rdata">
      <text x="-3" y="-4" class="inputPortLabel cell_u_reader">ext_mem_rdata</text>
    </g>
    <g transform="translate(0,110)" s:x="0" s:y="10" s:pid="in0" id="port_u_reader~ext_mem_rvalid">
      <text x="-3" y="-4" class="inputPortLabel cell_u_reader">ext_mem_rvalid</text>
    </g>
    <g transform="translate(0,130)" s:x="0" s:y="10" s:pid="in0" id="port_u_reader~len">
      <text x="-3" y="-4" class="inputPortLabel cell_u_reader">len</text>
    </g>
    <g transform="translate(0,150)" s:x="0" s:y="10" s:pid="in0" id="port_u_reader~loc_addr">
      <text x="-3" y="-4" class="inputPortLabel cell_u_reader">loc_addr</text>
    </g>
    <g transform="translate(0,170)" s:x="0" s:y="10" s:pid="in0" id="port_u_reader~rst_n">
      <text x="-3" y="-4" class="inputPortLabel cell_u_reader">rst_n</text>
    </g>
    <g transform="translate(0,190)" s:x="0" s:y="10" s:pid="in0" id="port_u_reader~start">
      <text x="-3" y="-4" class="inputPortLabel cell_u_reader">start</text>
    </g>
    <g transform="translate(30,10)" s:x="30" s:y="10" s:pid="out0" id="port_u_reader~buf_addr">
      <text x="5" y="-4" style="fill:#000; stroke:none" class="cell_u_reader">buf_addr</text>
    </g>
    <g transform="translate(30,30)" s:x="30" s:y="10" s:pid="out0" id="port_u_reader~buf_req">
      <text x="5" y="-4" style="fill:#000; stroke:none" class="cell_u_reader">buf_req</text>
    </g>
    <g transform="translate(30,50)" s:x="30" s:y="10" s:pid="out0" id="port_u_reader~buf_wdata">
      <text x="5" y="-4" style="fill:#000; stroke:none" class="cell_u_reader">buf_wdata</text>
    </g>
    <g transform="translate(30,70)" s:x="30" s:y="10" s:pid="out0" id="port_u_reader~buf_wr">
      <text x="5" y="-4" style="fill:#000; stroke:none" class="cell_u_reader">buf_wr</text>
    </g>
    <g transform="translate(30,90)" s:x="30" s:y="10" s:pid="out0" id="port_u_reader~busy">
      <text x="5" y="-4" style="fill:#000; stroke:none" class="cell_u_reader">busy</text>
    </g>
    <g transform="translate(30,110)" s:x="30" s:y="10" s:pid="out0" id="port_u_reader~done">
      <text x="5" y="-4" style="fill:#000; stroke:none" class="cell_u_reader">done</text>
    </g>
    <g transform="translate(30,130)" s:x="30" s:y="10" s:pid="out0" id="port_u_reader~ext_mem_addr">
      <text x="5" y="-4" style="fill:#000; stroke:none" class="cell_u_reader">ext_mem_addr</text>
    </g>
    <g transform="translate(30,150)" s:x="30" s:y="10" s:pid="out0" id="port_u_reader~ext_mem_req">
      <text x="5" y="-4" style="fill:#000; stroke:none" class="cell_u_reader">ext_mem_req</text>
    </g>
  </g>
  <g s:type="generic" transform="translate(451,489.5)" s:width="30" s:height="40" id="cell_u_writer">
    <text x="15" y="-4" class="nodelabel cell_u_writer" s:attribute="ref">npu_dma_writer</text>
    <rect width="30" height="200" s:generic="body" class="cell_u_writer"/>
    <g transform="translate(0,10)" s:x="0" s:y="10" s:pid="in0" id="port_u_writer~buf_gnt">
      <text x="-3" y="-4" class="inputPortLabel cell_u_writer">buf_gnt</text>
    </g>
    <g transform="translate(0,30)" s:x="0" s:y="10" s:pid="in0" id="port_u_writer~buf_rdata">
      <text x="-3" y="-4" class="inputPortLabel cell_u_writer">buf_rdata</text>
    </g>
    <g transform="translate(0,50)" s:x="0" s:y="10" s:pid="in0" id="port_u_writer~buf_rvalid">
      <text x="-3" y="-4" class="inputPortLabel cell_u_writer">buf_rvalid</text>
    </g>
    <g transform="translate(0,70)" s:x="0" s:y="10" s:pid="in0" id="port_u_writer~clk">
      <text x="-3" y="-4" class="inputPortLabel cell_u_writer">clk</text>
    </g>
    <g transform="translate(0,90)" s:x="0" s:y="10" s:pid="in0" id="port_u_writer~ext_addr">
      <text x="-3" y="-4" class="inputPortLabel cell_u_writer">ext_addr</text>
    </g>
    <g transform="translate(0,110)" s:x="0" s:y="10" s:pid="in0" id="port_u_writer~ext_mem_gnt">
      <text x="-3" y="-4" class="inputPortLabel cell_u_writer">ext_mem_gnt</text>
    </g>
    <g transform="translate(0,130)" s:x="0" s:y="10" s:pid="in0" id="port_u_writer~len">
      <text x="-3" y="-4" class="inputPortLabel cell_u_writer">len</text>
    </g>
    <g transform="translate(0,150)" s:x="0" s:y="10" s:pid="in0" id="port_u_writer~loc_addr">
      <text x="-3" y="-4" class="inputPortLabel cell_u_writer">loc_addr</text>
    </g>
    <g transform="translate(0,170)" s:x="0" s:y="10" s:pid="in0" id="port_u_writer~rst_n">
      <text x="-3" y="-4" class="inputPortLabel cell_u_writer">rst_n</text>
    </g>
    <g transform="translate(0,190)" s:x="0" s:y="10" s:pid="in0" id="port_u_writer~start">
      <text x="-3" y="-4" class="inputPortLabel cell_u_writer">start</text>
    </g>
    <g transform="translate(30,10)" s:x="30" s:y="10" s:pid="out0" id="port_u_writer~buf_addr">
      <text x="5" y="-4" style="fill:#000; stroke:none" class="cell_u_writer">buf_addr</text>
    </g>
    <g transform="translate(30,30)" s:x="30" s:y="10" s:pid="out0" id="port_u_writer~buf_req">
      <text x="5" y="-4" style="fill:#000; stroke:none" class="cell_u_writer">buf_req</text>
    </g>
    <g transform="translate(30,50)" s:x="30" s:y="10" s:pid="out0" id="port_u_writer~busy">
      <text x="5" y="-4" style="fill:#000; stroke:none" class="cell_u_writer">busy</text>
    </g>
    <g transform="translate(30,70)" s:x="30" s:y="10" s:pid="out0" id="port_u_writer~done">
      <text x="5" y="-4" style="fill:#000; stroke:none" class="cell_u_writer">done</text>
    </g>
    <g transform="translate(30,90)" s:x="30" s:y="10" s:pid="out0" id="port_u_writer~ext_mem_addr">
      <text x="5" y="-4" style="fill:#000; stroke:none" class="cell_u_writer">ext_mem_addr</text>
    </g>
    <g transform="translate(30,110)" s:x="30" s:y="10" s:pid="out0" id="port_u_writer~ext_mem_req">
      <text x="5" y="-4" style="fill:#000; stroke:none" class="cell_u_writer">ext_mem_req</text>
    </g>
    <g transform="translate(30,130)" s:x="30" s:y="10" s:pid="out0" id="port_u_writer~ext_mem_wdata">
      <text x="5" y="-4" style="fill:#000; stroke:none" class="cell_u_writer">ext_mem_wdata</text>
    </g>
    <g transform="translate(30,150)" s:x="30" s:y="10" s:pid="out0" id="port_u_writer~ext_mem_wr">
      <text x="5" y="-4" style="fill:#000; stroke:none" class="cell_u_writer">ext_mem_wr</text>
    </g>
  </g>
  <g s:type="inputExt" transform="translate(178,217)" s:width="30" s:height="20" id="cell_clk">
    <text x="15" y="-4" class="nodelabel cell_clk" s:attribute="ref">clk</text>
    <s:alias val="$_inputExt_"/>
    <path d="M0,0 L0,20 L15,20 L30,10 L15,0 Z" class="cell_clk"/>
    <g s:x="28" s:y="10" s:pid="Y"/>
  </g>
  <g s:type="inputExt" transform="translate(178,870)" s:width="30" s:height="20" id="cell_rst_n">
    <text x="15" y="-4" class="nodelabel cell_rst_n" s:attribute="ref">rst_n</text>
    <s:alias val="$_inputExt_"/>
    <path d="M0,0 L0,20 L15,20 L30,10 L15,0 Z" class="cell_rst_n"/>
    <g s:x="28" s:y="10" s:pid="Y"/>
  </g>
  <g s:type="inputExt" transform="translate(178,282)" s:width="30" s:height="20" id="cell_dma_ext_addr">
    <text x="15" y="-4" class="nodelabel cell_dma_ext_addr" s:attribute="ref">dma_ext_addr</text>
    <s:alias val="$_inputExt_"/>
    <path d="M0,0 L0,20 L15,20 L30,10 L15,0 Z" class="cell_dma_ext_addr"/>
    <g s:x="28" s:y="10" s:pid="Y"/>
  </g>
  <g s:type="inputExt" transform="translate(178,740)" s:width="30" s:height="20" id="cell_dma_loc_addr">
    <text x="15" y="-4" class="nodelabel cell_dma_loc_addr" s:attribute="ref">dma_loc_addr</text>
    <s:alias val="$_inputExt_"/>
    <path d="M0,0 L0,20 L15,20 L30,10 L15,0 Z" class="cell_dma_loc_addr"/>
    <g s:x="28" s:y="10" s:pid="Y"/>
  </g>
  <g s:type="inputExt" transform="translate(178,610)" s:width="30" s:height="20" id="cell_dma_len">
    <text x="15" y="-4" class="nodelabel cell_dma_len" s:attribute="ref">dma_len</text>
    <s:alias val="$_inputExt_"/>
    <path d="M0,0 L0,20 L15,20 L30,10 L15,0 Z" class="cell_dma_len"/>
    <g s:x="28" s:y="10" s:pid="Y"/>
  </g>
  <g s:type="inputExt" transform="translate(89,414.5)" s:width="30" s:height="20" id="cell_dma_start">
    <text x="15" y="-4" class="nodelabel cell_dma_start" s:attribute="ref">dma_start</text>
    <s:alias val="$_inputExt_"/>
    <path d="M0,0 L0,20 L15,20 L30,10 L15,0 Z" class="cell_dma_start"/>
    <g s:x="28" s:y="10" s:pid="Y"/>
  </g>
  <g s:type="inputExt" transform="translate(12,469.5)" s:width="30" s:height="20" id="cell_dma_dir">
    <text x="15" y="-4" class="nodelabel cell_dma_dir" s:attribute="ref">dma_dir</text>
    <s:alias val="$_inputExt_"/>
    <path d="M0,0 L0,20 L15,20 L30,10 L15,0 Z" class="cell_dma_dir"/>
    <g s:x="28" s:y="10" s:pid="Y"/>
  </g>
  <g s:type="outputExt" transform="translate(776,630)" s:width="30" s:height="20" id="cell_dma_busy">
    <text x="15" y="-4" class="nodelabel cell_dma_busy" s:attribute="ref">dma_busy</text>
    <s:alias val="$_outputExt_"/>
    <path d="M30,0 L30,20 L15,20 L0,10 L15,0 Z" class="cell_dma_busy"/>
    <g s:x="0" s:y="10" s:pid="A"/>
  </g>
  <g s:type="outputExt" transform="translate(776,762.5)" s:width="30" s:height="20" id="cell_dma_done">
    <text x="15" y="-4" class="nodelabel cell_dma_done" s:attribute="ref">dma_done</text>
    <s:alias val="$_outputExt_"/>
    <path d="M30,0 L30,20 L15,20 L0,10 L15,0 Z" class="cell_dma_done"/>
    <g s:x="0" s:y="10" s:pid="A"/>
  </g>
  <g s:type="outputExt" transform="translate(776,697.5)" s:width="30" s:height="20" id="cell_ext_mem_addr">
    <text x="15" y="-4" class="nodelabel cell_ext_mem_addr" s:attribute="ref">ext_mem_addr</text>
    <s:alias val="$_outputExt_"/>
    <path d="M30,0 L30,20 L15,20 L0,10 L15,0 Z" class="cell_ext_mem_addr"/>
    <g s:x="0" s:y="10" s:pid="A"/>
  </g>
  <g s:type="outputExt" transform="translate(776,892.5)" s:width="30" s:height="20" id="cell_ext_mem_wdata">
    <text x="15" y="-4" class="nodelabel cell_ext_mem_wdata" s:attribute="ref">ext_mem_wdata</text>
    <s:alias val="$_outputExt_"/>
    <path d="M30,0 L30,20 L15,20 L0,10 L15,0 Z" class="cell_ext_mem_wdata"/>
    <g s:x="0" s:y="10" s:pid="A"/>
  </g>
  <g s:type="outputExt" transform="translate(776,957.5)" s:width="30" s:height="20" id="cell_ext_mem_wr">
    <text x="15" y="-4" class="nodelabel cell_ext_mem_wr" s:attribute="ref">ext_mem_wr</text>
    <s:alias val="$_outputExt_"/>
    <path d="M30,0 L30,20 L15,20 L0,10 L15,0 Z" class="cell_ext_mem_wr"/>
    <g s:x="0" s:y="10" s:pid="A"/>
  </g>
  <g s:type="outputExt" transform="translate(776,827.5)" s:width="30" s:height="20" id="cell_ext_mem_req">
    <text x="15" y="-4" class="nodelabel cell_ext_mem_req" s:attribute="ref">ext_mem_req</text>
    <s:alias val="$_outputExt_"/>
    <path d="M30,0 L30,20 L15,20 L0,10 L15,0 Z" class="cell_ext_mem_req"/>
    <g s:x="0" s:y="10" s:pid="A"/>
  </g>
  <g s:type="inputExt" transform="translate(178,489.5)" s:width="30" s:height="20" id="cell_ext_mem_gnt">
    <text x="15" y="-4" class="nodelabel cell_ext_mem_gnt" s:attribute="ref">ext_mem_gnt</text>
    <s:alias val="$_inputExt_"/>
    <path d="M0,0 L0,20 L15,20 L30,10 L15,0 Z" class="cell_ext_mem_gnt"/>
    <g s:x="28" s:y="10" s:pid="Y"/>
  </g>
  <g s:type="inputExt" transform="translate(178,22)" s:width="30" s:height="20" id="cell_ext_mem_rdata">
    <text x="15" y="-4" class="nodelabel cell_ext_mem_rdata" s:attribute="ref">ext_mem_rdata</text>
    <s:alias val="$_inputExt_"/>
    <path d="M0,0 L0,20 L15,20 L30,10 L15,0 Z" class="cell_ext_mem_rdata"/>
    <g s:x="28" s:y="10" s:pid="Y"/>
  </g>
  <g s:type="inputExt" transform="translate(178,152)" s:width="30" s:height="20" id="cell_ext_mem_rvalid">
    <text x="15" y="-4" class="nodelabel cell_ext_mem_rvalid" s:attribute="ref">ext_mem_rvalid</text>
    <s:alias val="$_inputExt_"/>
    <path d="M0,0 L0,20 L15,20 L30,10 L15,0 Z" class="cell_ext_mem_rvalid"/>
    <g s:x="28" s:y="10" s:pid="Y"/>
  </g>
  <g s:type="outputExt" transform="translate(776,500)" s:width="30" s:height="20" id="cell_buf_addr">
    <text x="15" y="-4" class="nodelabel cell_buf_addr" s:attribute="ref">buf_addr</text>
    <s:alias val="$_outputExt_"/>
    <path d="M30,0 L30,20 L15,20 L0,10 L15,0 Z" class="cell_buf_addr"/>
    <g s:x="0" s:y="10" s:pid="A"/>
  </g>
  <g s:type="outputExt" transform="translate(776,282)" s:width="30" s:height="20" id="cell_buf_wdata">
    <text x="15" y="-4" class="nodelabel cell_buf_wdata" s:attribute="ref">buf_wdata</text>
    <s:alias val="$_outputExt_"/>
    <path d="M30,0 L30,20 L15,20 L0,10 L15,0 Z" class="cell_buf_wdata"/>
    <g s:x="0" s:y="10" s:pid="A"/>
  </g>
  <g s:type="outputExt" transform="translate(776,347)" s:width="30" s:height="20" id="cell_buf_wr">
    <text x="15" y="-4" class="nodelabel cell_buf_wr" s:attribute="ref">buf_wr</text>
    <s:alias val="$_outputExt_"/>
    <path d="M30,0 L30,20 L15,20 L0,10 L15,0 Z" class="cell_buf_wr"/>
    <g s:x="0" s:y="10" s:pid="A"/>
  </g>
  <g s:type="outputExt" transform="translate(776,565)" s:width="30" s:height="20" id="cell_buf_req">
    <text x="15" y="-4" class="nodelabel cell_buf_req" s:attribute="ref">buf_req</text>
    <s:alias val="$_outputExt_"/>
    <path d="M30,0 L30,20 L15,20 L0,10 L15,0 Z" class="cell_buf_req"/>
    <g s:x="0" s:y="10" s:pid="A"/>
  </g>
  <g s:type="inputExt" transform="translate(178,87)" s:width="30" s:height="20" id="cell_buf_gnt">
    <text x="15" y="-4" class="nodelabel cell_buf_gnt" s:attribute="ref">buf_gnt</text>
    <s:alias val="$_inputExt_"/>
    <path d="M0,0 L0,20 L15,20 L30,10 L15,0 Z" class="cell_buf_gnt"/>
    <g s:x="28" s:y="10" s:pid="Y"/>
  </g>
  <g s:type="inputExt" transform="translate(178,675)" s:width="30" s:height="20" id="cell_buf_rdata">
    <text x="15" y="-4" class="nodelabel cell_buf_rdata" s:attribute="ref">buf_rdata</text>
    <s:alias val="$_inputExt_"/>
    <path d="M0,0 L0,20 L15,20 L30,10 L15,0 Z" class="cell_buf_rdata"/>
    <g s:x="28" s:y="10" s:pid="Y"/>
  </g>
  <g s:type="inputExt" transform="translate(178,805)" s:width="30" s:height="20" id="cell_buf_rvalid">
    <text x="15" y="-4" class="nodelabel cell_buf_rvalid" s:attribute="ref">buf_rvalid</text>
    <s:alias val="$_inputExt_"/>
    <path d="M0,0 L0,20 L15,20 L30,10 L15,0 Z" class="cell_buf_rvalid"/>
    <g s:x="28" s:y="10" s:pid="Y"/>
  </g>
  <line x1="117" x2="196" y1="424.5" y2="424.5" class="net_72"/>
  <line x1="117" x2="163" y1="424.5" y2="424.5" class="net_72"/>
  <line x1="163" x2="163" y1="424.5" y2="930" class="net_72"/>
  <circle cx="163" cy="424.5" r="2" style="fill:#000" class="net_72"/>
  <line x1="163" x2="196" y1="930" y2="930" class="net_72"/>
  <line x1="126" x2="153" y1="479.5" y2="479.5" class="net_264"/>
  <line x1="153" x2="153" y1="479.5" y2="439.5" class="net_264"/>
  <line x1="153" x2="196" y1="439.5" y2="439.5" class="net_264"/>
  <line x1="40" x2="64" y1="479.5" y2="479.5" class="net_73"/>
  <line x1="64" x2="64" y1="479.5" y2="945" class="net_73"/>
  <circle cx="64" cy="479.5" r="2" style="fill:#000" class="net_73"/>
  <line x1="64" x2="196" y1="945" y2="945" class="net_73"/>
  <line x1="40" x2="101" y1="479.5" y2="479.5" class="net_73"/>
  <line x1="488" x2="671" y1="332" y2="332" class="net_267"/>
  <line x1="671" x2="671" y1="332" y2="632.5" class="net_267"/>
  <circle cx="671" cy="632.5" r="2" style="fill:#000" class="net_267"/>
  <line x1="671" x2="714" y1="632.5" y2="632.5" class="net_267"/>
  <line x1="488" x2="671" y1="332" y2="332" class="net_267"/>
  <line x1="671" x2="671" y1="332" y2="737.5" class="net_267"/>
  <line x1="671" x2="724.3333333333334" y1="737.5" y2="737.5" class="net_267"/>
  <line x1="724.3333333333334" x2="724.3333333333334" y1="737.5" y2="722.5" class="net_267"/>
  <line x1="488" x2="671" y1="332" y2="332" class="net_267"/>
  <line x1="671" x2="671" y1="332" y2="540" class="net_267"/>
  <line x1="671" x2="724.3333333333334" y1="540" y2="540" class="net_267"/>
  <circle cx="671" cy="540" r="2" style="fill:#000" class="net_267"/>
  <line x1="724.3333333333334" x2="724.3333333333334" y1="540" y2="525" class="net_267"/>
  <line x1="482" x2="621" y1="540" y2="540" class="net_268"/>
  <line x1="621" x2="621" y1="540" y2="647.5" class="net_268"/>
  <line x1="621" x2="714" y1="647.5" y2="647.5" class="net_268"/>
  <line x1="488" x2="661" y1="352" y2="352" class="net_269"/>
  <line x1="661" x2="661" y1="352" y2="765" class="net_269"/>
  <line x1="661" x2="714" y1="765" y2="765" class="net_269"/>
  <line x1="482" x2="611" y1="560" y2="560" class="net_270"/>
  <line x1="611" x2="611" y1="560" y2="780" class="net_270"/>
  <line x1="611" x2="714" y1="780" y2="780" class="net_270"/>
  <line x1="488" x2="631" y1="392" y2="392" class="net_271"/>
  <line x1="631" x2="631" y1="392" y2="830" class="net_271"/>
  <line x1="631" x2="714" y1="830" y2="830" class="net_271"/>
  <line x1="482" x2="591" y1="600" y2="600" class="net_272"/>
  <line x1="591" x2="591" y1="600" y2="845" class="net_272"/>
  <line x1="591" x2="714" y1="845" y2="845" class="net_272"/>
  <line x1="488" x2="681" y1="272" y2="272" class="net_273"/>
  <line x1="681" x2="681" y1="272" y2="567.5" class="net_273"/>
  <line x1="681" x2="714" y1="567.5" y2="567.5" class="net_273"/>
  <line x1="482" x2="641" y1="520" y2="520" class="net_274"/>
  <line x1="641" x2="641" y1="520" y2="582.5" class="net_274"/>
  <line x1="641" x2="714" y1="582.5" y2="582.5" class="net_274"/>
  <line x1="482" x2="601" y1="580" y2="580" class="net_275,276,277,278,279,280,281,282,283,284,285,286,287,288,289,290,291,292,293,294,295,296,297,298,299,300,301,302,303,304,305,306"/>
  <line x1="601" x2="601" y1="580" y2="697.5" class="net_275,276,277,278,279,280,281,282,283,284,285,286,287,288,289,290,291,292,293,294,295,296,297,298,299,300,301,302,303,304,305,306"/>
  <line x1="601" x2="714.3333333333334" y1="697.5" y2="697.5" class="net_275,276,277,278,279,280,281,282,283,284,285,286,287,288,289,290,291,292,293,294,295,296,297,298,299,300,301,302,303,304,305,306"/>
  <line x1="488" x2="651" y1="372" y2="372" class="net_307,308,309,310,311,312,313,314,315,316,317,318,319,320,321,322,323,324,325,326,327,328,329,330,331,332,333,334,335,336,337,338"/>
  <line x1="651" x2="651" y1="372" y2="717.5" class="net_307,308,309,310,311,312,313,314,315,316,317,318,319,320,321,322,323,324,325,326,327,328,329,330,331,332,333,334,335,336,337,338"/>
  <line x1="651" x2="714.3333333333334" y1="717.5" y2="717.5" class="net_307,308,309,310,311,312,313,314,315,316,317,318,319,320,321,322,323,324,325,326,327,328,329,330,331,332,333,334,335,336,337,338"/>
  <line x1="482" x2="714.3333333333334" y1="500" y2="500" class="net_339,340,341,342,343,344,345,346,347,348,349,350,351,352,353,354,355,356,357,358"/>
  <line x1="488" x2="701" y1="252" y2="252" class="net_359,360,361,362,363,364,365,366,367,368,369,370,371,372,373,374,375,376,377,378"/>
  <line x1="701" x2="701" y1="252" y2="520" class="net_359,360,361,362,363,364,365,366,367,368,369,370,371,372,373,374,375,376,377,378"/>
  <line x1="701" x2="714.3333333333334" y1="520" y2="520" class="net_359,360,361,362,363,364,365,366,367,368,369,370,371,372,373,374,375,376,377,378"/>
  <line x1="206" x2="352" y1="97" y2="97" class="net_230"/>
  <line x1="352" x2="352" y1="97" y2="252" class="net_230"/>
  <circle cx="352" cy="252" r="2" style="fill:#000" class="net_230"/>
  <line x1="352" x2="457" y1="252" y2="252" class="net_230"/>
  <line x1="206" x2="352" y1="97" y2="97" class="net_230"/>
  <line x1="352" x2="352" y1="97" y2="500" class="net_230"/>
  <line x1="352" x2="451" y1="500" y2="500" class="net_230"/>
  <line x1="206" x2="322" y1="227" y2="227" class="net_2"/>
  <line x1="322" x2="322" y1="227" y2="272" class="net_2"/>
  <circle cx="322" cy="272" r="2" style="fill:#000" class="net_2"/>
  <line x1="322" x2="457" y1="272" y2="272" class="net_2"/>
  <line x1="206" x2="322" y1="227" y2="227" class="net_2"/>
  <line x1="322" x2="322" y1="227" y2="560" class="net_2"/>
  <line x1="322" x2="451" y1="560" y2="560" class="net_2"/>
  <line x1="206" x2="457" y1="292" y2="292" class="net_4,5,6,7,8,9,10,11,12,13,14,15,16,17,18,19,20,21,22,23,24,25,26,27,28,29,30,31,32,33,34,35"/>
  <line x1="206" x2="302" y1="292" y2="292" class="net_4,5,6,7,8,9,10,11,12,13,14,15,16,17,18,19,20,21,22,23,24,25,26,27,28,29,30,31,32,33,34,35"/>
  <line x1="302" x2="302" y1="292" y2="580" class="net_4,5,6,7,8,9,10,11,12,13,14,15,16,17,18,19,20,21,22,23,24,25,26,27,28,29,30,31,32,33,34,35"/>
  <circle cx="302" cy="292" r="2" style="fill:#000" class="net_4,5,6,7,8,9,10,11,12,13,14,15,16,17,18,19,20,21,22,23,24,25,26,27,28,29,30,31,32,33,34,35"/>
  <line x1="302" x2="451" y1="580" y2="580" class="net_4,5,6,7,8,9,10,11,12,13,14,15,16,17,18,19,20,21,22,23,24,25,26,27,28,29,30,31,32,33,34,35"/>
  <line x1="206" x2="272" y1="499.5" y2="499.5" class="net_142"/>
  <line x1="272" x2="272" y1="499.5" y2="312" class="net_142"/>
  <circle cx="272" cy="499.5" r="2" style="fill:#000" class="net_142"/>
  <line x1="272" x2="457" y1="312" y2="312" class="net_142"/>
  <line x1="206" x2="272" y1="499.5" y2="499.5" class="net_142"/>
  <line x1="272" x2="272" y1="499.5" y2="600" class="net_142"/>
  <line x1="272" x2="451" y1="600" y2="600" class="net_142"/>
  <line x1="206" x2="362" y1="32" y2="32" class="net_143,144,145,146,147,148,149,150,151,152,153,154,155,156,157,158,159,160,161,162,163,164,165,166,167,168,169,170,171,172,173,174"/>
  <line x1="362" x2="362" y1="32" y2="332" class="net_143,144,145,146,147,148,149,150,151,152,153,154,155,156,157,158,159,160,161,162,163,164,165,166,167,168,169,170,171,172,173,174"/>
  <line x1="362" x2="457" y1="332" y2="332" class="net_143,144,145,146,147,148,149,150,151,152,153,154,155,156,157,158,159,160,161,162,163,164,165,166,167,168,169,170,171,172,173,174"/>
  <line x1="206" x2="332" y1="162" y2="162" class="net_175"/>
  <line x1="332" x2="332" y1="162" y2="352" class="net_175"/>
  <line x1="332" x2="457" y1="352" y2="352" class="net_175"/>
  <line x1="206" x2="282" y1="620" y2="620" class="net_56,57,58,59,60,61,62,63,64,65,66,67,68,69,70,71"/>
  <line x1="282" x2="282" y1="620" y2="372" class="net_56,57,58,59,60,61,62,63,64,65,66,67,68,69,70,71"/>
  <circle cx="282" cy="620" r="2" style="fill:#000" class="net_56,57,58,59,60,61,62,63,64,65,66,67,68,69,70,71"/>
  <line x1="282" x2="457" y1="372" y2="372" class="net_56,57,58,59,60,61,62,63,64,65,66,67,68,69,70,71"/>
  <line x1="206" x2="451" y1="620" y2="620" class="net_56,57,58,59,60,61,62,63,64,65,66,67,68,69,70,71"/>
  <line x1="206" x2="312" y1="750" y2="750" class="net_36,37,38,39,40,41,42,43,44,45,46,47,48,49,50,51,52,53,54,55"/>
  <line x1="312" x2="312" y1="750" y2="392" class="net_36,37,38,39,40,41,42,43,44,45,46,47,48,49,50,51,52,53,54,55"/>
  <line x1="312" x2="457" y1="392" y2="392" class="net_36,37,38,39,40,41,42,43,44,45,46,47,48,49,50,51,52,53,54,55"/>
  <line x1="206" x2="312" y1="750" y2="750" class="net_36,37,38,39,40,41,42,43,44,45,46,47,48,49,50,51,52,53,54,55"/>
  <line x1="312" x2="312" y1="750" y2="640" class="net_36,37,38,39,40,41,42,43,44,45,46,47,48,49,50,51,52,53,54,55"/>
  <circle cx="312" cy="640" r="2" style="fill:#000" class="net_36,37,38,39,40,41,42,43,44,45,46,47,48,49,50,51,52,53,54,55"/>
  <line x1="312" x2="451" y1="640" y2="640" class="net_36,37,38,39,40,41,42,43,44,45,46,47,48,49,50,51,52,53,54,55"/>
  <line x1="206" x2="342" y1="880" y2="880" class="net_3"/>
  <line x1="342" x2="342" y1="880" y2="412" class="net_3"/>
  <line x1="342" x2="457" y1="412" y2="412" class="net_3"/>
  <line x1="206" x2="342" y1="880" y2="880" class="net_3"/>
  <line x1="342" x2="342" y1="880" y2="660" class="net_3"/>
  <circle cx="342" cy="660" r="2" style="fill:#000" class="net_3"/>
  <line x1="342" x2="451" y1="660" y2="660" class="net_3"/>
  <line x1="226" x2="457" y1="432" y2="432" class="net_265"/>
  <line x1="206" x2="292" y1="685" y2="685" class="net_231,232,233,234,235,236,237,238,239,240,241,242,243,244,245,246,247,248,249,250,251,252,253,254,255,256,257,258,259,260,261,262"/>
  <line x1="292" x2="292" y1="685" y2="520" class="net_231,232,233,234,235,236,237,238,239,240,241,242,243,244,245,246,247,248,249,250,251,252,253,254,255,256,257,258,259,260,261,262"/>
  <line x1="292" x2="451" y1="520" y2="520" class="net_231,232,233,234,235,236,237,238,239,240,241,242,243,244,245,246,247,248,249,250,251,252,253,254,255,256,257,258,259,260,261,262"/>
  <line x1="206" x2="332" y1="815" y2="815" class="net_263"/>
  <line x1="332" x2="332" y1="815" y2="540" class="net_263"/>
  <line x1="332" x2="451" y1="540" y2="540" class="net_263"/>
  <line x1="226" x2="352" y1="937.5" y2="937.5" class="net_266"/>
  <line x1="352" x2="352" y1="937.5" y2="680" class="net_266"/>
  <line x1="352" x2="451" y1="680" y2="680" class="net_266"/>
  <line x1="741" x2="776" y1="640" y2="640" class="net_74"/>
  <line x1="741" x2="776" y1="772.5" y2="772.5" class="net_75"/>
  <line x1="734.3333333333334" x2="776" y1="707.5" y2="707.5" class="net_76,77,78,79,80,81,82,83,84,85,86,87,88,89,90,91,92,93,94,95,96,97,98,99,100,101,102,103,104,105,106,107"/>
  <line x1="482" x2="581" y1="620" y2="620" class="net_108,109,110,111,112,113,114,115,116,117,118,119,120,121,122,123,124,125,126,127,128,129,130,131,132,133,134,135,136,137,138,139"/>
  <line x1="581" x2="581" y1="620" y2="902.5" class="net_108,109,110,111,112,113,114,115,116,117,118,119,120,121,122,123,124,125,126,127,128,129,130,131,132,133,134,135,136,137,138,139"/>
  <line x1="581" x2="776" y1="902.5" y2="902.5" class="net_108,109,110,111,112,113,114,115,116,117,118,119,120,121,122,123,124,125,126,127,128,129,130,131,132,133,134,135,136,137,138,139"/>
  <line x1="482" x2="571" y1="640" y2="640" class="net_140"/>
  <line x1="571" x2="571" y1="640" y2="967.5" class="net_140"/>
  <line x1="571" x2="776" y1="967.5" y2="967.5" class="net_140"/>
  <line x1="741" x2="776" y1="837.5" y2="837.5" class="net_141"/>
  <line x1="734.3333333333334" x2="776" y1="510" y2="510" class="net_176,177,178,179,180,181,182,183,184,185,186,187,188,189,190,191,192,193,194,195"/>
  <line x1="488" x2="776" y1="292" y2="292" class="net_196,197,198,199,200,201,202,203,204,205,206,207,208,209,210,211,212,213,214,215,216,217,218,219,220,221,222,223,224,225,226,227"/>
  <line x1="488" x2="691" y1="312" y2="312" class="net_228"/>
  <line x1="691" x2="691" y1="312" y2="357" class="net_228"/>
  <line x1="691" x2="776" y1="357" y2="357" class="net_228"/>
  <line x1="741" x2="776" y1="575" y2="575" class="net_229"/>
</svg>
