<svg xmlns="http://www.w3.org/2000/svg" xmlns:xlink="http://www.w3.org/1999/xlink" xmlns:s="https://github.com/nturley/netlistsvg" width="404" height="383">
  <style>svg {
    stroke:#000;
    fill:none;
  }
  text {
    fill:#000;
    stroke:none;
    font-size:10px;
    font-weight: bold;
    font-family: "Courier New", monospace;
  }
  .nodelabel {
    text-anchor: middle;
  }
  .inputPortLabel {
    text-anchor: end;
  }
  .splitjoinBody {
    fill:#000;
  }</style>
  <g s:type="and" transform="translate(241,19.5)" s:width="30" s:height="25" id="cell_$and$/tmp/tmp5jmj_zu6.v:348$136">
    <s:alias val="$and"/>
    <s:alias val="$logic_and"/>
    <s:alias val="$_AND_"/>
    <path d="M0,0 L0,25 L15,25 A15 12.5 0 0 0 15,0 Z" class="cell_$and$/tmp/tmp5jmj_zu6.v:348$136"/>
    <g s:x="0" s:y="5" s:pid="A"/>
    <g s:x="0" s:y="20" s:pid="B"/>
    <g s:x="30" s:y="12.5" s:pid="Y"/>
  </g>
  <g s:type="or" transform="translate(127.66666666666666,253.5)" s:width="30" s:height="25" id="cell_$logic_or$/tmp/tmp5jmj_zu6.v:345$135">
    <s:alias val="$or"/>
    <s:alias val="$logic_or"/>
    <s:alias val="$_OR_"/>
    <path d="M0,25 L0,25 L15,25 A15 12.5 0 0 0 15,0 L0,0" class="cell_$logic_or$/tmp/tmp5jmj_zu6.v:345$135"/>
    <path d="M0,0 A30 25 0 0 1 0,25" class="cell_$logic_or$/tmp/tmp5jmj_zu6.v:345$135"/>
    <g s:x="3" s:y="5" s:pid="A"/>
    <g s:x="3" s:y="20" s:pid="B"/>
    <g s:x="30" s:y="12.5" s:pid="Y"/>
  </g>
  <g s:type="generic" transform="translate(120,94.5)" s:width="30" s:height="40" id="cell_$procdff$1393">
    <text x="15" y="-4" class="nodelabel cell_$procdff$1393" s:attribute="ref">$adff</text>
    <rect width="30" height="60" s:generic="body" class="cell_$procdff$1393"/>
    <g transform="translate(0,10)" s:x="0" s:y="10" s:pid="in0" id="port_$procdff$1393~ARST">
      <text x="-3" y="-4" class="inputPortLabel cell_$procdff$1393">ARST</text>
    </g>
    <g transform="translate(0,30)" s:x="0" s:y="10" s:pid="in0" id="port_$procdff$1393~CLK">
      <text x="-3" y="-4" class="inputPortLabel cell_$procdff$1393">CLK</text>
    </g>
    <g transform="translate(0,50)" s:x="0" s:y="10" s:pid="in0" id="port_$procdff$1393~D">
      <text x="-3" y="-4" class="inputPortLabel cell_$procdff$1393">D</text>
    </g>
    <g transform="translate(30,10)" s:x="30" s:y="10" s:pid="out0" id="port_$procdff$1393~Q">
      <text x="5" y="-4" style="fill:#000; stroke:none" class="cell_$procdff$1393">Q</text>
    </g>
  </g>
  <g s:type="mux" transform="translate(244.33333333333334,178.5)" s:width="20" s:height="40" id="cell_$procmux$1384">
    <s:alias val="$pmux"/>
    <s:alias val="$mux"/>
    <s:alias val="$_MUX_"/>
    <path d="M0,0 L20,10 L20,30 L0,40 Z" class="cell_$procmux$1384"/>
    <g s:x="0" s:y="10" s:pid="A"/>
    <g s:x="0" s:y="30" s:pid="B"/>
    <g s:x="10" s:y="35" s:pid="S"/>
    <g s:x="20" s:y="20" s:pid="Y"/>
  </g>
  <g s:type="mux" transform="translate(322,188.5)" s:width="20" s:height="40" id="cell_$procmux$1387">
    <s:alias val="$pmux"/>
    <s:alias val="$mux"/>
    <s:alias val="$_MUX_"/>
    <path d="M0,0 L20,10 L20,30 L0,40 Z" class="cell_$procmux$1387"/>
    <g s:x="0" s:y="10" s:pid="A"/>
    <g s:x="0" s:y="30" s:pid="B"/>
    <g s:x="10" s:y="35" s:pid="S"/>
    <g s:x="20" s:y="20" s:pid="Y"/>
  </g>
  <g s:type="inputExt" transform="translate(12,160)" s:width="30" s:height="20" id="cell_clk">
    <text x="15" y="-4" class="nodelabel cell_clk" s:attribute="ref">clk</text>
    <s:alias val="$_inputExt_"/>
    <path d="M0,0 L0,20 L15,20 L30,10 L15,0 Z" class="cell_clk"/>
    <g s:x="28" s:y="10" s:pid="Y"/>
  </g>
  <g s:type="inputExt" transform="translate(12,95)" s:width="30" s:height="20" id="cell_rst_n">
    <text x="15" y="-4" class="nodelabel cell_rst_n" s:attribute="ref">rst_n</text>
    <s:alias val="$_inputExt_"/>
    <path d="M0,0 L0,20 L15,20 L30,10 L15,0 Z" class="cell_rst_n"/>
    <g s:x="28" s:y="10" s:pid="Y"/>
  </g>
  <g s:type="inputExt" transform="translate(12,248.5)" s:width="30" s:height="20" id="cell_cmd_done">
    <text x="15" y="-4" class="nodelabel cell_cmd_done" s:attribute="ref">cmd_done</text>
    <s:alias val="$_inputExt_"/>
    <path d="M0,0 L0,20 L15,20 L30,10 L15,0 Z" class="cell_cmd_done"/>
    <g s:x="28" s:y="10" s:pid="Y"/>
  </g>
  <g s:type="inputExt" transform="translate(12,313.5)" s:width="30" s:height="20" id="cell_err">
    <text x="15" y="-4" class="nodelabel cell_err" s:attribute="ref">err</text>
    <s:alias val="$_inputExt_"/>
    <path d="M0,0 L0,20 L15,20 L30,10 L15,0 Z" class="cell_err"/>
    <g s:x="28" s:y="10" s:pid="Y"/>
  </g>
  <g s:type="inputExt" transform="translate(120,29.5)" s:width="30" s:height="20" id="cell_irq_enable">
    <text x="15" y="-4" class="nodelabel cell_irq_enable" s:attribute="ref">irq_enable</text>
    <s:alias val="$_inputExt_"/>
    <path d="M0,0 L0,20 L15,20 L30,10 L15,0 Z" class="cell_irq_enable"/>
    <g s:x="28" s:y="10" s:pid="Y"/>
  </g>
  <g s:type="inputExt" transform="translate(233,351)" s:width="30" s:height="20" id="cell_irq_clear">
    <text x="15" y="-4" class="nodelabel cell_irq_clear" s:attribute="ref">irq_clear</text>
    <s:alias val="$_inputExt_"/>
    <path d="M0,0 L0,20 L15,20 L30,10 L15,0 Z" class="cell_irq_clear"/>
    <g s:x="28" s:y="10" s:pid="Y"/>
  </g>
  <g s:type="outputExt" transform="translate(322,95)" s:width="30" s:height="20" id="cell_irq_status">
    <text x="15" y="-4" class="nodelabel cell_irq_status" s:attribute="ref">irq_status</text>
    <s:alias val="$_outputExt_"/>
    <path d="M30,0 L30,20 L15,20 L0,10 L15,0 Z" class="cell_irq_status"/>
    <g s:x="0" s:y="10" s:pid="A"/>
  </g>
  <g s:type="outputExt" transform="translate(322,22)" s:width="30" s:height="20" id="cell_irq_out">
    <text x="15" y="-4" class="nodelabel cell_irq_out" s:attribute="ref">irq_out</text>
    <s:alias val="$_outputExt_"/>
    <path d="M30,0 L30,20 L15,20 L0,10 L15,0 Z" class="cell_irq_out"/>
    <g s:x="0" s:y="10" s:pid="A"/>
  </g>
  <g s:type="constant" transform="translate(120,198.5)" s:width="30" s:height="20" id="cell_1">
    <text x="15" y="-4" class="nodelabel cell_1" s:attribute="ref">1</text>
    <s:alias val="$_constant_"/>
    <rect width="30" height="20" class="cell_1"/>
    <g s:x="30" s:y="10" s:pid="Y"/>
  </g>
  <g s:type="constant" transform="translate(233,286)" s:width="30" s:height="20" id="cell_0">
    <text x="15" y="-4" class="nodelabel cell_0" s:attribute="ref">0</text>
    <s:alias val="$_constant_"/>
    <rect width="30" height="20" class="cell_0"/>
    <g s:x="30" s:y="10" s:pid="Y"/>
  </g>
  <line x1="151" x2="208" y1="105" y2="105" class="net_8"/>
  <line x1="208" x2="208" y1="105" y2="24.5" class="net_8"/>
  <circle cx="208" cy="105" r="2" style="fill:#000" class="net_8"/>
  <line x1="208" x2="241" y1="24.5" y2="24.5" class="net_8"/>
  <line x1="151" x2="208" y1="105" y2="105" class="net_8"/>
  <line x1="208" x2="208" y1="105" y2="188.5" class="net_8"/>
  <line x1="208" x2="244.33333333333334" y1="188.5" y2="188.5" class="net_8"/>
  <line x1="151" x2="322" y1="105" y2="105" class="net_8"/>
  <line x1="148" x2="241" y1="39.5" y2="39.5" class="net_6"/>
  <line x1="40" x2="130.66666666666666" y1="258.5" y2="258.5" class="net_4"/>
  <line x1="40" x2="70" y1="323.5" y2="323.5" class="net_5"/>
  <line x1="70" x2="70" y1="323.5" y2="273.5" class="net_5"/>
  <line x1="70" x2="130.66666666666666" y1="273.5" y2="273.5" class="net_5"/>
  <line x1="40" x2="120" y1="105" y2="105" class="net_3"/>
  <line x1="40" x2="70" y1="170" y2="170" class="net_2"/>
  <line x1="70" x2="70" y1="170" y2="125" class="net_2"/>
  <line x1="70" x2="120" y1="125" y2="125" class="net_2"/>
  <line x1="342" x2="392" y1="208.5" y2="208.5" class="net_11"/>
  <line x1="392" x2="392" y1="208.5" y2="167.5" class="net_11"/>
  <line x1="392" x2="80" y1="167.5" y2="167.5" class="net_11"/>
  <line x1="80" x2="80" y1="167.5" y2="145" class="net_11"/>
  <line x1="80" x2="120" y1="145" y2="145" class="net_11"/>
  <line x1="150" x2="244.33333333333334" y1="208.5" y2="208.5" class="net_13"/>
  <line x1="157.66666666666666" x2="254.33333333333334" y1="266" y2="266" class="net_10"/>
  <line x1="254.33333333333334" x2="254.33333333333334" y1="266" y2="213.5" class="net_10"/>
  <line x1="264.33333333333337" x2="322" y1="198.5" y2="198.5" class="net_12"/>
  <line x1="263" x2="297" y1="296" y2="296" class="net_14"/>
  <line x1="297" x2="297" y1="296" y2="218.5" class="net_14"/>
  <line x1="297" x2="322" y1="218.5" y2="218.5" class="net_14"/>
  <line x1="261" x2="332" y1="361" y2="361" class="net_7"/>
  <line x1="332" x2="332" y1="361" y2="223.5" class="net_7"/>
  <line x1="271" x2="322" y1="32" y2="32" class="net_9"/>
</svg>
