<svg xmlns="http://www.w3.org/2000/svg" xmlns:xlink="http://www.w3.org/1999/xlink" xmlns:s="https://github.com/nturley/netlistsvg" width="627" height="1149">
  <style>svg {
    stroke:#000;
    fill:none;
  }
  text {
    fill:#000;
    stroke:none;
    font-size:10px;
    font-weight: bold;
    font-family: "Courier New", monospace;
  }
  .nodelabel {
    text-anchor: middle;
  }
  .inputPortLabel {
    text-anchor: end;
  }
  .splitjoinBody {
    fill:#000;
  }</style>
  <g s:type="generic" transform="translate(261,336.5)" s:width="30" s:height="40" id="cell_u_router">
    <text x="15" y="-4" class="nodelabel cell_u_router" s:attribute="ref">npu_buffer_router</text>
    <rect width="30" height="300" s:generic="body" class="cell_u_router"/>
    <g transform="translate(0,10)" s:x="0" s:y="10" s:pid="in0" id="port_u_router~be_act_rd_addr">
      <text x="-3" y="-4" class="inputPortLabel cell_u_router">be_act_rd_addr</text>
    </g>
    <g transform="translate(0,30)" s:x="0" s:y="10" s:pid="in0" id="port_u_router~be_act_rd_req">
      <text x="-3" y="-4" class="inputPortLabel cell_u_router">be_act_rd_req</text>
    </g>
    <g transform="translate(0,50)" s:x="0" s:y="10" s:pid="in0" id="port_u_router~be_act_wr_addr">
      <text x="-3" y="-4" class="inputPortLabel cell_u_router">be_act_wr_addr</text>
    </g>
    <g transform="translate(0,70)" s:x="0" s:y="10" s:pid="in0" id="port_u_router~be_act_wr_data">
      <text x="-3" y="-4" class="inputPortLabel cell_u_router">be_act_wr_data</text>
    </g>
    <g transform="translate(0,90)" s:x="0" s:y="10" s:pid="in0" id="port_u_router~be_act_wr_req">
      <text x="-3" y="-4" class="inputPortLabel cell_u_router">be_act_wr_req</text>
    </g>
    <g transform="translate(0,110)" s:x="0" s:y="10" s:pid="in0" id="port_u_router~be_bias_addr">
      <text x="-3" y="-4" class="inputPortLabel cell_u_router">be_bias_addr</text>
    </g>
    <g transform="translate(0,130)" s:x="0" s:y="10" s:pid="in0" id="port_u_router~be_bias_req">
      <text x="-3" y="-4" class="inputPortLabel cell_u_router">be_bias_req</text>
    </g>
    <g transform="translate(0,150)" s:x="0" s:y="10" s:pid="in0" id="port_u_router~be_wt_addr">
      <text x="-3" y="-4" class="inputPortLabel cell_u_router">be_wt_addr</text>
    </g>
    <g transform="translate(0,170)" s:x="0" s:y="10" s:pid="in0" id="port_u_router~be_wt_req">
      <text x="-3" y="-4" class="inputPortLabel cell_u_router">be_wt_req</text>
    </g>
    <g transform="translate(0,190)" s:x="0" s:y="10" s:pid="in0" id="port_u_router~clk">
      <text x="-3" y="-4" class="inputPortLabel cell_u_router">clk</text>
    </g>
    <g transform="translate(0,210)" s:x="0" s:y="10" s:pid="in0" id="port_u_router~host_addr">
      <text x="-3" y="-4" class="inputPortLabel cell_u_router">host_addr</text>
    </g>
    <g transform="translate(0,230)" s:x="0" s:y="10" s:pid="in0" id="port_u_router~host_req">
      <text x="-3" y="-4" class="inputPortLabel cell_u_router">host_req</text>
    </g>
    <g transform="translate(0,250)" s:x="0" s:y="10" s:pid="in0" id="port_u_router~host_wdata">
      <text x="-3" y="-4" class="inputPortLabel cell_u_router">host_wdata</text>
    </g>
    <g transform="translate(0,270)" s:x="0" s:y="10" s:pid="in0" id="port_u_router~host_wr">
      <text x="-3" y="-4" class="inputPortLabel cell_u_router">host_wr</text>
    </g>
    <g transform="translate(0,290)" s:x="0" s:y="10" s:pid="in0" id="port_u_router~rst_n">
      <text x="-3" y="-4" class="inputPortLabel cell_u_router">rst_n</text>
    </g>
    <g transform="translate(30,10)" s:x="30" s:y="10" s:pid="out0" id="port_u_router~be_act_rd_gnt">
      <text x="5" y="-4" style="fill:#000; stroke:none" class="cell_u_router">be_act_rd_gnt</text>
    </g>
    <g transform="translate(30,30)" s:x="30" s:y="10" s:pid="out0" id="port_u_router~be_act_rd_rdata">
      <text x="5" y="-4" style="fill:#000; stroke:none" class="cell_u_router">be_act_rd_rdata</text>
    </g>
    <g transform="translate(30,50)" s:x="30" s:y="10" s:pid="out0" id="port_u_router~be_act_rd_rvalid">
      <text x="5" y="-4" style="fill:#000; stroke:none" class="cell_u_router">be_act_rd_rvalid</text>
    </g>
    <g transform="translate(30,70)" s:x="30" s:y="10" s:pid="out0" id="port_u_router~be_act_wr_gnt">
      <text x="5" y="-4" style="fill:#000; stroke:none" class="cell_u_router">be_act_wr_gnt</text>
    </g>
    <g transform="translate(30,90)" s:x="30" s:y="10" s:pid="out0" id="port_u_router~be_bias_gnt">
      <text x="5" y="-4" style="fill:#000; stroke:none" class="cell_u_router">be_bias_gnt</text>
    </g>
    <g transform="translate(30,110)" s:x="30" s:y="10" s:pid="out0" id="port_u_router~be_bias_rdata">
      <text x="5" y="-4" style="fill:#000; stroke:none" class="cell_u_router">be_bias_rdata</text>
    </g>
    <g transform="translate(30,130)" s:x="30" s:y="10" s:pid="out0" id="port_u_router~be_bias_rvalid">
      <text x="5" y="-4" style="fill:#000; stroke:none" class="cell_u_router">be_bias_rvalid</text>
    </g>
    <g transform="translate(30,150)" s:x="30" s:y="10" s:pid="out0" id="port_u_router~be_wt_gnt">
      <text x="5" y="-4" style="fill:#000; stroke:none" class="cell_u_router">be_wt_gnt</text>
    </g>
    <g transform="translate(30,170)" s:x="30" s:y="10" s:pid="out0" id="port_u_router~be_wt_rdata">
      <text x="5" y="-4" style="fill:#000; stroke:none" class="cell_u_router">be_wt_rdata</text>
    </g>
    <g transform="translate(30,190)" s:x="30" s:y="10" s:pid="out0" id="port_u_router~be_wt_rvalid">
      <text x="5" y="-4" style="fill:#000; stroke:none" class="cell_u_router">be_wt_rvalid</text>
    </g>
    <g transform="translate(30,210)" s:x="30" s:y="10" s:pid="out0" id="port_u_router~host_gnt">
      <text x="5" y="-4" style="fill:#000; stroke:none" class="cell_u_router">host_gnt</text>
    </g>
    <g transform="translate(30,230)" s:x="30" s:y="10" s:pid="out0" id="port_u_router~host_rdata">
      <text x="5" y="-4" style="fill:#000; stroke:none" class="cell_u_router">host_rdata</text>
    </g>
    <g transform="translate(30,250)" s:x="30" s:y="10" s:pid="out0" id="port_u_router~host_rvalid">
      <text x="5" y="-4" style="fill:#000; stroke:none" class="cell_u_router">host_rvalid</text>
    </g>
  </g>
  <g s:type="inputExt" transform="translate(12,607)" s:width="30" s:height="20" id="cell_clk">
    <text x="15" y="-4" class="nodelabel cell_clk" s:attribute="ref">clk</text>
    <s:alias val="$_inputExt_"/>
    <path d="M0,0 L0,20 L15,20 L30,10 L15,0 Z" class="cell_clk"/>
    <g s:x="28" s:y="10" s:pid="Y"/>
  </g>
  <g s:type="inputExt" transform="translate(12,932)" s:width="30" s:height="20" id="cell_rst_n">
    <text x="15" y="-4" class="nodelabel cell_rst_n" s:attribute="ref">rst_n</text>
    <s:alias val="$_inputExt_"/>
    <path d="M0,0 L0,20 L15,20 L30,10 L15,0 Z" class="cell_rst_n"/>
    <g s:x="28" s:y="10" s:pid="Y"/>
  </g>
  <g s:type="inputExt" transform="translate(12,672)" s:width="30" s:height="20" id="cell_host_addr">
    <text x="15" y="-4" class="nodelabel cell_host_addr" s:attribute="ref">host_addr</text>
    <s:alias val="$_inputExt_"/>
    <path d="M0,0 L0,20 L15,20 L30,10 L15,0 Z" class="cell_host_addr"/>
    <g s:x="28" s:y="10" s:pid="Y"/>
  </g>
  <g s:type="inputExt" transform="translate(12,802)" s:width="30" s:height="20" id="cell_host_wdata">
    <text x="15" y="-4" class="nodelabel cell_host_wdata" s:attribute="ref">host_wdata</text>
    <s:alias val="$_inputExt_"/>
    <path d="M0,0 L0,20 L15,20 L30,10 L15,0 Z" class="cell_host_wdata"/>
    <g s:x="28" s:y="10" s:pid="Y"/>
  </g>
  <g s:type="inputExt" transform="translate(12,867)" s:width="30" s:height="20" id="cell_host_wr">
    <text x="15" y="-4" class="nodelabel cell_host_wr" s:attribute="ref">host_wr</text>
    <s:alias val="$_inputExt_"/>
    <path d="M0,0 L0,20 L15,20 L30,10 L15,0 Z" class="cell_host_wr"/>
    <g s:x="28" s:y="10" s:pid="Y"/>
  </g>
  <g s:type="inputExt" transform="translate(12,737)" s:width="30" s:height="20" id="cell_host_req">
    <text x="15" y="-4" class="nodelabel cell_host_req" s:attribute="ref">host_req</text>
    <s:alias val="$_inputExt_"/>
    <path d="M0,0 L0,20 L15,20 L30,10 L15,0 Z" class="cell_host_req"/>
    <g s:x="28" s:y="10" s:pid="Y"/>
  </g>
  <g s:type="outputExt" transform="translate(519,987)" s:width="30" s:height="20" id="cell_host_gnt">
    <text x="15" y="-4" class="nodelabel cell_host_gnt" s:attribute="ref">host_gnt</text>
    <s:alias val="$_outputExt_"/>
    <path d="M30,0 L30,20 L15,20 L0,10 L15,0 Z" class="cell_host_gnt"/>
    <g s:x="0" s:y="10" s:pid="A"/>
  </g>
  <g s:type="outputExt" transform="translate(519,1052)" s:width="30" s:height="20" id="cell_host_rdata">
    <text x="15" y="-4" class="nodelabel cell_host_rdata" s:attribute="ref">host_rdata</text>
    <s:alias val="$_outputExt_"/>
    <path d="M30,0 L30,20 L15,20 L0,10 L15,0 Z" class="cell_host_rdata"/>
    <g s:x="0" s:y="10" s:pid="A"/>
  </g>
  <g s:type="outputExt" transform="translate(519,1117)" s:width="30" s:height="20" id="cell_host_rvalid">
    <text x="15" y="-4" class="nodelabel cell_host_rvalid" s:attribute="ref">host_rvalid</text>
    <s:alias val="$_outputExt_"/>
    <path d="M30,0 L30,20 L15,20 L0,10 L15,0 Z" class="cell_host_rvalid"/>
    <g s:x="0" s:y="10" s:pid="A"/>
  </g>
  <g s:type="inputExt" transform="translate(12,477)" s:width="30" s:height="20" id="cell_be_wt_addr">
    <text x="15" y="-4" class="nodelabel cell_be_wt_addr" s:attribute="ref">be_wt_addr</text>
    <s:alias val="$_inputExt_"/>
    <path d="M0,0 L0,20 L15,20 L30,10 L15,0 Z" class="cell_be_wt_addr"/>
    <g s:x="28" s:y="10" s:pid="Y"/>
  </g>
  <g s:type="inputExt" transform="translate(12,542)" s:width="30" s:height="20" id="cell_be_wt_req">
    <text x="15" y="-4" class="nodelabel cell_be_wt_req" s:attribute="ref">be_wt_req</text>
    <s:alias val="$_inputExt_"/>
    <path d="M0,0 L0,20 L15,20 L30,10 L15,0 Z" class="cell_be_wt_req"/>
    <g s:x="28" s:y="10" s:pid="Y"/>
  </g>
  <g s:type="outputExt" transform="translate(519,792)" s:width="30" s:height="20" id="cell_be_wt_gnt">
    <text x="15" y="-4" class="nodelabel cell_be_wt_gnt" s:attribute="ref">be_wt_gnt</text>
    <s:alias val="$_outputExt_"/>
    <path d="M30,0 L30,20 L15,20 L0,10 L15,0 Z" class="cell_be_wt_gnt"/>
    <g s:x="0" s:y="10" s:pid="A"/>
  </g>
  <g s:type="outputExt" transform="translate(519,857)" s:width="30" s:height="20" id="cell_be_wt_rdata">
    <text x="15" y="-4" class="nodelabel cell_be_wt_rdata" s:attribute="ref">be_wt_rdata</text>
    <s:alias val="$_outputExt_"/>
    <path d="M30,0 L30,20 L15,20 L0,10 L15,0 Z" class="cell_be_wt_rdata"/>
    <g s:x="0" s:y="10" s:pid="A"/>
  </g>
  <g s:type="outputExt" transform="translate(519,922)" s:width="30" s:height="20" id="cell_be_wt_rvalid">
    <text x="15" y="-4" class="nodelabel cell_be_wt_rvalid" s:attribute="ref">be_wt_rvalid</text>
    <s:alias val="$_outputExt_"/>
    <path d="M30,0 L30,20 L15,20 L0,10 L15,0 Z" class="cell_be_wt_rvalid"/>
    <g s:x="0" s:y="10" s:pid="A"/>
  </g>
  <g s:type="inputExt" transform="translate(12,22)" s:width="30" s:height="20" id="cell_be_act_rd_addr">
    <text x="15" y="-4" class="nodelabel cell_be_act_rd_addr" s:attribute="ref">be_act_rd_addr</text>
    <s:alias val="$_inputExt_"/>
    <path d="M0,0 L0,20 L15,20 L30,10 L15,0 Z" class="cell_be_act_rd_addr"/>
    <g s:x="28" s:y="10" s:pid="Y"/>
  </g>
  <g s:type="inputExt" transform="translate(12,87)" s:width="30" s:height="20" id="cell_be_act_rd_req">
    <text x="15" y="-4" class="nodelabel cell_be_act_rd_req" s:attribute="ref">be_act_rd_req</text>
    <s:alias val="$_inputExt_"/>
    <path d="M0,0 L0,20 L15,20 L30,10 L15,0 Z" class="cell_be_act_rd_req"/>
    <g s:x="28" s:y="10" s:pid="Y"/>
  </g>
  <g s:type="outputExt" transform="translate(519,337)" s:width="30" s:height="20" id="cell_be_act_rd_gnt">
    <text x="15" y="-4" class="nodelabel cell_be_act_rd_gnt" s:attribute="ref">be_act_rd_gnt</text>
    <s:alias val="$_outputExt_"/>
    <path d="M30,0 L30,20 L15,20 L0,10 L15,0 Z" class="cell_be_act_rd_gnt"/>
    <g s:x="0" s:y="10" s:pid="A"/>
  </g>
  <g s:type="outputExt" transform="translate(519,402)" s:width="30" s:height="20" id="cell_be_act_rd_rdata">
    <text x="15" y="-4" class="nodelabel cell_be_act_rd_rdata" s:attribute="ref">be_act_rd_rdata</text>
    <s:alias val="$_outputExt_"/>
    <path d="M30,0 L30,20 L15,20 L0,10 L15,0 Z" class="cell_be_act_rd_rdata"/>
    <g s:x="0" s:y="10" s:pid="A"/>
  </g>
  <g s:type="outputExt" transform="translate(519,467)" s:width="30" s:height="20" id="cell_be_act_rd_rvalid">
    <text x="15" y="-4" class="nodelabel cell_be_act_rd_rvalid" s:attribute="ref">be_act_rd_rvalid</text>
    <s:alias val="$_outputExt_"/>
    <path d="M30,0 L30,20 L15,20 L0,10 L15,0 Z" class="cell_be_act_rd_rvalid"/>
    <g s:x="0" s:y="10" s:pid="A"/>
  </g>
  <g s:type="inputExt" transform="translate(12,152)" s:width="30" s:height="20" id="cell_be_act_wr_addr">
    <text x="15" y="-4" class="nodelabel cell_be_act_wr_addr" s:attribute="ref">be_act_wr_addr</text>
    <s:alias val="$_inputExt_"/>
    <path d="M0,0 L0,20 L15,20 L30,10 L15,0 Z" class="cell_be_act_wr_addr"/>
    <g s:x="28" s:y="10" s:pid="Y"/>
  </g>
  <g s:type="inputExt" transform="translate(12,217)" s:width="30" s:height="20" id="cell_be_act_wr_data">
    <text x="15" y="-4" class="nodelabel cell_be_act_wr_data" s:attribute="ref">be_act_wr_data</text>
    <s:alias val="$_inputExt_"/>
    <path d="M0,0 L0,20 L15,20 L30,10 L15,0 Z" class="cell_be_act_wr_data"/>
    <g s:x="28" s:y="10" s:pid="Y"/>
  </g>
  <g s:type="inputExt" transform="translate(12,282)" s:width="30" s:height="20" id="cell_be_act_wr_req">
    <text x="15" y="-4" class="nodelabel cell_be_act_wr_req" s:attribute="ref">be_act_wr_req</text>
    <s:alias val="$_inputExt_"/>
    <path d="M0,0 L0,20 L15,20 L30,10 L15,0 Z" class="cell_be_act_wr_req"/>
    <g s:x="28" s:y="10" s:pid="Y"/>
  </g>
  <g s:type="outputExt" transform="translate(519,532)" s:width="30" s:height="20" id="cell_be_act_wr_gnt">
    <text x="15" y="-4" class="nodelabel cell_be_act_wr_gnt" s:attribute="ref">be_act_wr_gnt</text>
    <s:alias val="$_outputExt_"/>
    <path d="M30,0 L30,20 L15,20 L0,10 L15,0 Z" class="cell_be_act_wr_gnt"/>
    <g s:x="0" s:y="10" s:pid="A"/>
  </g>
  <g s:type="inputExt" transform="translate(12,347)" s:width="30" s:height="20" id="cell_be_bias_addr">
    <text x="15" y="-4" class="nodelabel cell_be_bias_addr" s:attribute="ref">be_bias_addr</text>
    <s:alias val="$_inputExt_"/>
    <path d="M0,0 L0,20 L15,20 L30,10 L15,0 Z" class="cell_be_bias_addr"/>
    <g s:x="28" s:y="10" s:pid="Y"/>
  </g>
  <g s:type="inputExt" transform="translate(12,412)" s:width="30" s:height="20" id="cell_be_bias_req">
    <text x="15" y="-4" class="nodelabel cell_be_bias_req" s:attribute="ref">be_bias_req</text>
    <s:alias val="$_inputExt_"/>
    <path d="M0,0 L0,20 L15,20 L30,10 L15,0 Z" class="cell_be_bias_req"/>
    <g s:x="28" s:y="10" s:pid="Y"/>
  </g>
  <g s:type="outputExt" transform="translate(519,597)" s:width="30" s:height="20" id="cell_be_bias_gnt">
    <text x="15" y="-4" class="nodelabel cell_be_bias_gnt" s:attribute="ref">be_bias_gnt</text>
    <s:alias val="$_outputExt_"/>
    <path d="M30,0 L30,20 L15,20 L0,10 L15,0 Z" class="cell_be_bias_gnt"/>
    <g s:x="0" s:y="10" s:pid="A"/>
  </g>
  <g s:type="outputExt" transform="translate(519,662)" s:width="30" s:height="20" id="cell_be_bias_rdata">
    <text x="15" y="-4" class="nodelabel cell_be_bias_rdata" s:attribute="ref">be_bias_rdata</text>
    <s:alias val="$_outputExt_"/>
    <path d="M30,0 L30,20 L15,20 L0,10 L15,0 Z" class="cell_be_bias_rdata"/>
    <g s:x="0" s:y="10" s:pid="A"/>
  </g>
  <g s:type="outputExt" transform="translate(519,727)" s:width="30" s:height="20" id="cell_be_bias_rvalid">
    <text x="15" y="-4" class="nodelabel cell_be_bias_rvalid" s:attribute="ref">be_bias_rvalid</text>
    <s:alias val="$_outputExt_"/>
    <path d="M30,0 L30,20 L15,20 L0,10 L15,0 Z" class="cell_be_bias_rvalid"/>
    <g s:x="0" s:y="10" s:pid="A"/>
  </g>
  <line x1="40" x2="166" y1="32" y2="32" class="net_119,120,121,122,123,124,125,126,127,128,129,130,131,132,133,134"/>
  <line x1="166" x2="166" y1="32" y2="347" class="net_119,120,121,122,123,124,125,126,127,128,129,130,131,132,133,134"/>
  <line x1="166" x2="261" y1="347" y2="347" class="net_119,120,121,122,123,124,125,126,127,128,129,130,131,132,133,134"/>
  <line x1="40" x2="156" y1="97" y2="97" class="net_135"/>
  <line x1="156" x2="156" y1="97" y2="367" class="net_135"/>
  <line x1="156" x2="261" y1="367" y2="367" class="net_135"/>
  <line x1="40" x2="146" y1="162" y2="162" class="net_146,147,148,149,150,151,152,153,154,155,156,157,158,159,160,161"/>
  <line x1="146" x2="146" y1="162" y2="387" class="net_146,147,148,149,150,151,152,153,154,155,156,157,158,159,160,161"/>
  <line x1="146" x2="261" y1="387" y2="387" class="net_146,147,148,149,150,151,152,153,154,155,156,157,158,159,160,161"/>
  <line x1="40" x2="136" y1="227" y2="227" class="net_162,163,164,165,166,167,168,169"/>
  <line x1="136" x2="136" y1="227" y2="407" class="net_162,163,164,165,166,167,168,169"/>
  <line x1="136" x2="261" y1="407" y2="407" class="net_162,163,164,165,166,167,168,169"/>
  <line x1="40" x2="126" y1="292" y2="292" class="net_170"/>
  <line x1="126" x2="126" y1="292" y2="427" class="net_170"/>
  <line x1="126" x2="261" y1="427" y2="427" class="net_170"/>
  <line x1="40" x2="116" y1="357" y2="357" class="net_172,173,174,175,176,177,178,179,180,181,182,183,184,185,186,187"/>
  <line x1="116" x2="116" y1="357" y2="447" class="net_172,173,174,175,176,177,178,179,180,181,182,183,184,185,186,187"/>
  <line x1="116" x2="261" y1="447" y2="447" class="net_172,173,174,175,176,177,178,179,180,181,182,183,184,185,186,187"/>
  <line x1="40" x2="106" y1="422" y2="422" class="net_188"/>
  <line x1="106" x2="106" y1="422" y2="467" class="net_188"/>
  <line x1="106" x2="261" y1="467" y2="467" class="net_188"/>
  <line x1="40" x2="261" y1="487" y2="487" class="net_92,93,94,95,96,97,98,99,100,101,102,103,104,105,106,107"/>
  <line x1="40" x2="106" y1="552" y2="552" class="net_108"/>
  <line x1="106" x2="106" y1="552" y2="507" class="net_108"/>
  <line x1="106" x2="261" y1="507" y2="507" class="net_108"/>
  <line x1="40" x2="116" y1="617" y2="617" class="net_2"/>
  <line x1="116" x2="116" y1="617" y2="527" class="net_2"/>
  <line x1="116" x2="261" y1="527" y2="527" class="net_2"/>
  <line x1="40" x2="126" y1="682" y2="682" class="net_4,5,6,7,8,9,10,11,12,13,14,15,16,17,18,19,20,21,22,23"/>
  <line x1="126" x2="126" y1="682" y2="547" class="net_4,5,6,7,8,9,10,11,12,13,14,15,16,17,18,19,20,21,22,23"/>
  <line x1="126" x2="261" y1="547" y2="547" class="net_4,5,6,7,8,9,10,11,12,13,14,15,16,17,18,19,20,21,22,23"/>
  <line x1="40" x2="136" y1="747" y2="747" class="net_57"/>
  <line x1="136" x2="136" y1="747" y2="567" class="net_57"/>
  <line x1="136" x2="261" y1="567" y2="567" class="net_57"/>
  <line x1="40" x2="146" y1="812" y2="812" class="net_24,25,26,27,28,29,30,31,32,33,34,35,36,37,38,39,40,41,42,43,44,45,46,47,48,49,50,51,52,53,54,55"/>
  <line x1="146" x2="146" y1="812" y2="587" class="net_24,25,26,27,28,29,30,31,32,33,34,35,36,37,38,39,40,41,42,43,44,45,46,47,48,49,50,51,52,53,54,55"/>
  <line x1="146" x2="261" y1="587" y2="587" class="net_24,25,26,27,28,29,30,31,32,33,34,35,36,37,38,39,40,41,42,43,44,45,46,47,48,49,50,51,52,53,54,55"/>
  <line x1="40" x2="156" y1="877" y2="877" class="net_56"/>
  <line x1="156" x2="156" y1="877" y2="607" class="net_56"/>
  <line x1="156" x2="261" y1="607" y2="607" class="net_56"/>
  <line x1="40" x2="166" y1="942" y2="942" class="net_3"/>
  <line x1="166" x2="166" y1="942" y2="627" class="net_3"/>
  <line x1="166" x2="261" y1="627" y2="627" class="net_3"/>
  <line x1="292" x2="419" y1="547" y2="547" class="net_58"/>
  <line x1="419" x2="419" y1="547" y2="997" class="net_58"/>
  <line x1="419" x2="519" y1="997" y2="997" class="net_58"/>
  <line x1="292" x2="409" y1="567" y2="567" class="net_59,60,61,62,63,64,65,66,67,68,69,70,71,72,73,74,75,76,77,78,79,80,81,82,83,84,85,86,87,88,89,90"/>
  <line x1="409" x2="409" y1="567" y2="1062" class="net_59,60,61,62,63,64,65,66,67,68,69,70,71,72,73,74,75,76,77,78,79,80,81,82,83,84,85,86,87,88,89,90"/>
  <line x1="409" x2="519" y1="1062" y2="1062" class="net_59,60,61,62,63,64,65,66,67,68,69,70,71,72,73,74,75,76,77,78,79,80,81,82,83,84,85,86,87,88,89,90"/>
  <line x1="292" x2="399" y1="587" y2="587" class="net_91"/>
  <line x1="399" x2="399" y1="587" y2="1127" class="net_91"/>
  <line x1="399" x2="519" y1="1127" y2="1127" class="net_91"/>
  <line x1="292" x2="449" y1="487" y2="487" class="net_109"/>
  <line x1="449" x2="449" y1="487" y2="802" class="net_109"/>
  <line x1="449" x2="519" y1="802" y2="802" class="net_109"/>
  <line x1="292" x2="439" y1="507" y2="507" class="net_110,111,112,113,114,115,116,117"/>
  <line x1="439" x2="439" y1="507" y2="867" class="net_110,111,112,113,114,115,116,117"/>
  <line x1="439" x2="519" y1="867" y2="867" class="net_110,111,112,113,114,115,116,117"/>
  <line x1="292" x2="429" y1="527" y2="527" class="net_118"/>
  <line x1="429" x2="429" y1="527" y2="932" class="net_118"/>
  <line x1="429" x2="519" y1="932" y2="932" class="net_118"/>
  <line x1="292" x2="519" y1="347" y2="347" class="net_136"/>
  <line x1="292" x2="509" y1="367" y2="367" class="net_137,138,139,140,141,142,143,144"/>
  <line x1="509" x2="509" y1="367" y2="412" class="net_137,138,139,140,141,142,143,144"/>
  <line x1="509" x2="519" y1="412" y2="412" class="net_137,138,139,140,141,142,143,144"/>
  <line x1="292" x2="499" y1="387" y2="387" class="net_145"/>
  <line x1="499" x2="499" y1="387" y2="477" class="net_145"/>
  <line x1="499" x2="519" y1="477" y2="477" class="net_145"/>
  <line x1="292" x2="489" y1="407" y2="407" class="net_171"/>
  <line x1="489" x2="489" y1="407" y2="542" class="net_171"/>
  <line x1="489" x2="519" y1="542" y2="542" class="net_171"/>
  <line x1="292" x2="479" y1="427" y2="427" class="net_189"/>
  <line x1="479" x2="479" y1="427" y2="607" class="net_189"/>
  <line x1="479" x2="519" y1="607" y2="607" class="net_189"/>
  <line x1="292" x2="469" y1="447" y2="447" class="net_190,191,192,193,194,195,196,197"/>
  <line x1="469" x2="469" y1="447" y2="672" class="net_190,191,192,193,194,195,196,197"/>
  <line x1="469" x2="519" y1="672" y2="672" class="net_190,191,192,193,194,195,196,197"/>
  <line x1="292" x2="459" y1="467" y2="467" class="net_198"/>
  <line x1="459" x2="459" y1="467" y2="737" class="net_198"/>
  <line x1="459" x2="519" y1="737" y2="737" class="net_198"/>
</svg>
