<svg xmlns="http://www.w3.org/2000/svg" xmlns:xlink="http://www.w3.org/1999/xlink" xmlns:s="https://github.com/nturley/netlistsvg" width="346" height="465">
  <style>svg {
    stroke:#000;
    fill:none;
  }
  text {
    fill:#000;
    stroke:none;
    font-size:10px;
    font-weight: bold;
    font-family: "Courier New", monospace;
  }
  .nodelabel {
    text-anchor: middle;
  }
  .inputPortLabel {
    text-anchor: end;
  }
  .splitjoinBody {
    fill:#000;
  }</style>
  <g s:type="generic" transform="translate(177,150)" s:width="30" s:height="40" id="cell_u_active">
    <text x="15" y="-4" class="nodelabel cell_u_active" s:attribute="ref">$paramod\counter\WIDTH=s32'00000000000000000000000000100000</text>
    <rect width="30" height="80" s:generic="body" class="cell_u_active"/>
    <g transform="translate(0,10)" s:x="0" s:y="10" s:pid="in0" id="port_u_active~clk">
      <text x="-3" y="-4" class="inputPortLabel cell_u_active">clk</text>
    </g>
    <g transform="translate(0,30)" s:x="0" s:y="10" s:pid="in0" id="port_u_active~clr">
      <text x="-3" y="-4" class="inputPortLabel cell_u_active">clr</text>
    </g>
    <g transform="translate(0,50)" s:x="0" s:y="10" s:pid="in0" id="port_u_active~en">
      <text x="-3" y="-4" class="inputPortLabel cell_u_active">en</text>
    </g>
    <g transform="translate(0,70)" s:x="0" s:y="10" s:pid="in0" id="port_u_active~rst_n">
      <text x="-3" y="-4" class="inputPortLabel cell_u_active">rst_n</text>
    </g>
    <g transform="translate(30,10)" s:x="30" s:y="10" s:pid="out0" id="port_u_active~count">
      <text x="5" y="-4" style="fill:#000; stroke:none" class="cell_u_active">count</text>
    </g>
  </g>
  <g s:type="generic" transform="translate(177,370)" s:width="30" s:height="40" id="cell_u_cycles">
    <text x="15" y="-4" class="nodelabel cell_u_cycles" s:attribute="ref">$paramod\counter\WIDTH=s32'00000000000000000000000000100000</text>
    <rect width="30" height="80" s:generic="body" class="cell_u_cycles"/>
    <g transform="translate(0,10)" s:x="0" s:y="10" s:pid="in0" id="port_u_cycles~clk">
      <text x="-3" y="-4" class="inputPortLabel cell_u_cycles">clk</text>
    </g>
    <g transform="translate(0,30)" s:x="0" s:y="10" s:pid="in0" id="port_u_cycles~clr">
      <text x="-3" y="-4" class="inputPortLabel cell_u_cycles">clr</text>
    </g>
    <g transform="translate(0,50)" s:x="0" s:y="10" s:pid="in0" id="port_u_cycles~en">
      <text x="-3" y="-4" class="inputPortLabel cell_u_cycles">en</text>
    </g>
    <g transform="translate(0,70)" s:x="0" s:y="10" s:pid="in0" id="port_u_cycles~rst_n">
      <text x="-3" y="-4" class="inputPortLabel cell_u_cycles">rst_n</text>
    </g>
    <g transform="translate(30,10)" s:x="30" s:y="10" s:pid="out0" id="port_u_cycles~count">
      <text x="5" y="-4" style="fill:#000; stroke:none" class="cell_u_cycles">count</text>
    </g>
  </g>
  <g s:type="generic" transform="translate(177,22)" s:width="30" s:height="40" id="cell_u_stall">
    <text x="15" y="-4" class="nodelabel cell_u_stall" s:attribute="ref">$paramod\counter\WIDTH=s32'00000000000000000000000000100000</text>
    <rect width="30" height="80" s:generic="body" class="cell_u_stall"/>
    <g transform="translate(0,10)" s:x="0" s:y="10" s:pid="in0" id="port_u_stall~clk">
      <text x="-3" y="-4" class="inputPortLabel cell_u_stall">clk</text>
    </g>
    <g transform="translate(0,30)" s:x="0" s:y="10" s:pid="in0" id="port_u_stall~clr">
      <text x="-3" y="-4" class="inputPortLabel cell_u_stall">clr</text>
    </g>
    <g transform="translate(0,50)" s:x="0" s:y="10" s:pid="in0" id="port_u_stall~en">
      <text x="-3" y="-4" class="inputPortLabel cell_u_stall">en</text>
    </g>
    <g transform="translate(0,70)" s:x="0" s:y="10" s:pid="in0" id="port_u_stall~rst_n">
      <text x="-3" y="-4" class="inputPortLabel cell_u_stall">rst_n</text>
    </g>
    <g transform="translate(30,10)" s:x="30" s:y="10" s:pid="out0" id="port_u_stall~count">
      <text x="5" y="-4" style="fill:#000; stroke:none" class="cell_u_stall">count</text>
    </g>
  </g>
  <g s:type="inputExt" transform="translate(12,150.5)" s:width="30" s:height="20" id="cell_clk">
    <text x="15" y="-4" class="nodelabel cell_clk" s:attribute="ref">clk</text>
    <s:alias val="$_inputExt_"/>
    <path d="M0,0 L0,20 L15,20 L30,10 L15,0 Z" class="cell_clk"/>
    <g s:x="28" s:y="10" s:pid="Y"/>
  </g>
  <g s:type="inputExt" transform="translate(12,345.5)" s:width="30" s:height="20" id="cell_rst_n">
    <text x="15" y="-4" class="nodelabel cell_rst_n" s:attribute="ref">rst_n</text>
    <s:alias val="$_inputExt_"/>
    <path d="M0,0 L0,20 L15,20 L30,10 L15,0 Z" class="cell_rst_n"/>
    <g s:x="28" s:y="10" s:pid="Y"/>
  </g>
  <g s:type="inputExt" transform="translate(12,280.5)" s:width="30" s:height="20" id="cell_backend_active">
    <text x="15" y="-4" class="nodelabel cell_backend_active" s:attribute="ref">backend_active</text>
    <s:alias val="$_inputExt_"/>
    <path d="M0,0 L0,20 L15,20 L30,10 L15,0 Z" class="cell_backend_active"/>
    <g s:x="28" s:y="10" s:pid="Y"/>
  </g>
  <g s:type="inputExt" transform="translate(12,62.5)" s:width="30" s:height="20" id="cell_backend_stall">
    <text x="15" y="-4" class="nodelabel cell_backend_stall" s:attribute="ref">backend_stall</text>
    <s:alias val="$_inputExt_"/>
    <path d="M0,0 L0,20 L15,20 L30,10 L15,0 Z" class="cell_backend_stall"/>
    <g s:x="28" s:y="10" s:pid="Y"/>
  </g>
  <g s:type="inputExt" transform="translate(12,215.5)" s:width="30" s:height="20" id="cell_clear">
    <text x="15" y="-4" class="nodelabel cell_clear" s:attribute="ref">clear</text>
    <s:alias val="$_inputExt_"/>
    <path d="M0,0 L0,20 L15,20 L30,10 L15,0 Z" class="cell_clear"/>
    <g s:x="28" s:y="10" s:pid="Y"/>
  </g>
  <g s:type="outputExt" transform="translate(274,370.5)" s:width="30" s:height="20" id="cell_cnt_cycles">
    <text x="15" y="-4" class="nodelabel cell_cnt_cycles" s:attribute="ref">cnt_cycles</text>
    <s:alias val="$_outputExt_"/>
    <path d="M30,0 L30,20 L15,20 L0,10 L15,0 Z" class="cell_cnt_cycles"/>
    <g s:x="0" s:y="10" s:pid="A"/>
  </g>
  <g s:type="outputExt" transform="translate(274,150.5)" s:width="30" s:height="20" id="cell_cnt_active">
    <text x="15" y="-4" class="nodelabel cell_cnt_active" s:attribute="ref">cnt_active</text>
    <s:alias val="$_outputExt_"/>
    <path d="M30,0 L30,20 L15,20 L0,10 L15,0 Z" class="cell_cnt_active"/>
    <g s:x="0" s:y="10" s:pid="A"/>
  </g>
  <g s:type="outputExt" transform="translate(274,22.5)" s:width="30" s:height="20" id="cell_cnt_stall">
    <text x="15" y="-4" class="nodelabel cell_cnt_stall" s:attribute="ref">cnt_stall</text>
    <s:alias val="$_outputExt_"/>
    <path d="M30,0 L30,20 L15,20 L0,10 L15,0 Z" class="cell_cnt_stall"/>
    <g s:x="0" s:y="10" s:pid="A"/>
  </g>
  <g s:type="constant" transform="translate(12,410.5)" s:width="30" s:height="20" id="cell_1">
    <text x="15" y="-4" class="nodelabel cell_1" s:attribute="ref">1</text>
    <s:alias val="$_constant_"/>
    <rect width="30" height="20" class="cell_1"/>
    <g s:x="30" s:y="10" s:pid="Y"/>
  </g>
  <line x1="40" x2="177" y1="160.5" y2="160.5" class="net_2"/>
  <line x1="40" x2="136" y1="160.5" y2="160.5" class="net_2"/>
  <line x1="136" x2="136" y1="160.5" y2="380.5" class="net_2"/>
  <circle cx="136" cy="160.5" r="2" style="fill:#000" class="net_2"/>
  <line x1="136" x2="177" y1="380.5" y2="380.5" class="net_2"/>
  <line x1="40" x2="136" y1="160.5" y2="160.5" class="net_2"/>
  <line x1="136" x2="136" y1="160.5" y2="32.5" class="net_2"/>
  <line x1="136" x2="177" y1="32.5" y2="32.5" class="net_2"/>
  <line x1="40" x2="106" y1="225.5" y2="225.5" class="net_6"/>
  <line x1="106" x2="106" y1="225.5" y2="180.5" class="net_6"/>
  <circle cx="106" cy="225.5" r="2" style="fill:#000" class="net_6"/>
  <circle cx="106" cy="180.5" r="2" style="fill:#000" class="net_6"/>
  <line x1="106" x2="177" y1="180.5" y2="180.5" class="net_6"/>
  <line x1="40" x2="106" y1="225.5" y2="225.5" class="net_6"/>
  <line x1="106" x2="106" y1="225.5" y2="400.5" class="net_6"/>
  <line x1="106" x2="177" y1="400.5" y2="400.5" class="net_6"/>
  <line x1="40" x2="106" y1="225.5" y2="225.5" class="net_6"/>
  <line x1="106" x2="106" y1="225.5" y2="52.5" class="net_6"/>
  <line x1="106" x2="177" y1="52.5" y2="52.5" class="net_6"/>
  <line x1="40" x2="116" y1="290.5" y2="290.5" class="net_4"/>
  <line x1="116" x2="116" y1="290.5" y2="200.5" class="net_4"/>
  <line x1="116" x2="177" y1="200.5" y2="200.5" class="net_4"/>
  <line x1="40" x2="126" y1="355.5" y2="355.5" class="net_3"/>
  <line x1="126" x2="126" y1="355.5" y2="220.5" class="net_3"/>
  <circle cx="126" cy="355.5" r="2" style="fill:#000" class="net_3"/>
  <circle cx="126" cy="220.5" r="2" style="fill:#000" class="net_3"/>
  <line x1="126" x2="177" y1="220.5" y2="220.5" class="net_3"/>
  <line x1="40" x2="126" y1="355.5" y2="355.5" class="net_3"/>
  <line x1="126" x2="126" y1="355.5" y2="440.5" class="net_3"/>
  <line x1="126" x2="177" y1="440.5" y2="440.5" class="net_3"/>
  <line x1="40" x2="126" y1="355.5" y2="355.5" class="net_3"/>
  <line x1="126" x2="126" y1="355.5" y2="92.5" class="net_3"/>
  <line x1="126" x2="177" y1="92.5" y2="92.5" class="net_3"/>
  <line x1="42" x2="177" y1="420.5" y2="420.5" class="net_103"/>
  <line x1="40" x2="177" y1="72.5" y2="72.5" class="net_5"/>
  <line x1="208" x2="274" y1="380.5" y2="380.5" class="net_7,8,9,10,11,12,13,14,15,16,17,18,19,20,21,22,23,24,25,26,27,28,29,30,31,32,33,34,35,36,37,38"/>
  <line x1="208" x2="274" y1="160.5" y2="160.5" class="net_39,40,41,42,43,44,45,46,47,48,49,50,51,52,53,54,55,56,57,58,59,60,61,62,63,64,65,66,67,68,69,70"/>
  <line x1="208" x2="274" y1="32.5" y2="32.5" class="net_71,72,73,74,75,76,77,78,79,80,81,82,83,84,85,86,87,88,89,90,91,92,93,94,95,96,97,98,99,100,101,102"/>
</svg>
