<svg xmlns="http://www.w3.org/2000/svg" xmlns:xlink="http://www.w3.org/1999/xlink" xmlns:s="https://github.com/nturley/netlistsvg" width="736" height="412.5">
  <style>svg {
    stroke:#000;
    fill:none;
  }
  text {
    fill:#000;
    stroke:none;
    font-size:10px;
    font-weight: bold;
    font-family: "Courier New", monospace;
  }
  .nodelabel {
    text-anchor: middle;
  }
  .inputPortLabel {
    text-anchor: end;
  }
  .splitjoinBody {
    fill:#000;
  }</style>
  <g s:type="generic" transform="translate(155,142.5)" s:width="30" s:height="40" id="cell_u_bias">
    <text x="15" y="-4" class="nodelabel cell_u_bias" s:attribute="ref">bias_add</text>
    <rect width="30" height="120" s:generic="body" class="cell_u_bias"/>
    <g transform="translate(0,10)" s:x="0" s:y="10" s:pid="in0" id="port_u_bias~bias_val">
      <text x="-3" y="-4" class="inputPortLabel cell_u_bias">bias_val</text>
    </g>
    <g transform="translate(0,30)" s:x="0" s:y="10" s:pid="in0" id="port_u_bias~clk">
      <text x="-3" y="-4" class="inputPortLabel cell_u_bias">clk</text>
    </g>
    <g transform="translate(0,50)" s:x="0" s:y="10" s:pid="in0" id="port_u_bias~in_data">
      <text x="-3" y="-4" class="inputPortLabel cell_u_bias">in_data</text>
    </g>
    <g transform="translate(0,70)" s:x="0" s:y="10" s:pid="in0" id="port_u_bias~in_valid">
      <text x="-3" y="-4" class="inputPortLabel cell_u_bias">in_valid</text>
    </g>
    <g transform="translate(0,90)" s:x="0" s:y="10" s:pid="in0" id="port_u_bias~out_ready">
      <text x="-3" y="-4" class="inputPortLabel cell_u_bias">out_ready</text>
    </g>
    <g transform="translate(0,110)" s:x="0" s:y="10" s:pid="in0" id="port_u_bias~rst_n">
      <text x="-3" y="-4" class="inputPortLabel cell_u_bias">rst_n</text>
    </g>
    <g transform="translate(30,10)" s:x="30" s:y="10" s:pid="out0" id="port_u_bias~in_ready">
      <text x="5" y="-4" style="fill:#000; stroke:none" class="cell_u_bias">in_ready</text>
    </g>
    <g transform="translate(30,30)" s:x="30" s:y="10" s:pid="out0" id="port_u_bias~out_data">
      <text x="5" y="-4" style="fill:#000; stroke:none" class="cell_u_bias">out_data</text>
    </g>
    <g transform="translate(30,50)" s:x="30" s:y="10" s:pid="out0" id="port_u_bias~out_valid">
      <text x="5" y="-4" style="fill:#000; stroke:none" class="cell_u_bias">out_valid</text>
    </g>
  </g>
  <g s:type="generic" transform="translate(549,235)" s:width="30" s:height="40" id="cell_u_quant">
    <text x="15" y="-4" class="nodelabel cell_u_quant" s:attribute="ref">quantize</text>
    <rect width="30" height="120" s:generic="body" class="cell_u_quant"/>
    <g transform="translate(0,10)" s:x="0" s:y="10" s:pid="in0" id="port_u_quant~clk">
      <text x="-3" y="-4" class="inputPortLabel cell_u_quant">clk</text>
    </g>
    <g transform="translate(0,30)" s:x="0" s:y="10" s:pid="in0" id="port_u_quant~in_data">
      <text x="-3" y="-4" class="inputPortLabel cell_u_quant">in_data</text>
    </g>
    <g transform="translate(0,50)" s:x="0" s:y="10" s:pid="in0" id="port_u_quant~in_valid">
      <text x="-3" y="-4" class="inputPortLabel cell_u_quant">in_valid</text>
    </g>
    <g transform="translate(0,70)" s:x="0" s:y="10" s:pid="in0" id="port_u_quant~out_ready">
      <text x="-3" y="-4" class="inputPortLabel cell_u_quant">out_ready</text>
    </g>
    <g transform="translate(0,90)" s:x="0" s:y="10" s:pid="in0" id="port_u_quant~quant_shift">
      <text x="-3" y="-4" class="inputPortLabel cell_u_quant">quant_shift</text>
    </g>
    <g transform="translate(0,110)" s:x="0" s:y="10" s:pid="in0" id="port_u_quant~rst_n">
      <text x="-3" y="-4" class="inputPortLabel cell_u_quant">rst_n</text>
    </g>
    <g transform="translate(30,10)" s:x="30" s:y="10" s:pid="out0" id="port_u_quant~in_ready">
      <text x="5" y="-4" style="fill:#000; stroke:none" class="cell_u_quant">in_ready</text>
    </g>
    <g transform="translate(30,30)" s:x="30" s:y="10" s:pid="out0" id="port_u_quant~out_data">
      <text x="5" y="-4" style="fill:#000; stroke:none" class="cell_u_quant">out_data</text>
    </g>
    <g transform="translate(30,50)" s:x="30" s:y="10" s:pid="out0" id="port_u_quant~out_valid">
      <text x="5" y="-4" style="fill:#000; stroke:none" class="cell_u_quant">out_valid</text>
    </g>
  </g>
  <g s:type="generic" transform="translate(346,122.5)" s:width="30" s:height="40" id="cell_u_relu">
    <text x="15" y="-4" class="nodelabel cell_u_relu" s:attribute="ref">activation</text>
    <rect width="30" height="120" s:generic="body" class="cell_u_relu"/>
    <g transform="translate(0,10)" s:x="0" s:y="10" s:pid="in0" id="port_u_relu~act_mode">
      <text x="-3" y="-4" class="inputPortLabel cell_u_relu">act_mode</text>
    </g>
    <g transform="translate(0,30)" s:x="0" s:y="10" s:pid="in0" id="port_u_relu~clk">
      <text x="-3" y="-4" class="inputPortLabel cell_u_relu">clk</text>
    </g>
    <g transform="translate(0,50)" s:x="0" s:y="10" s:pid="in0" id="port_u_relu~in_data">
      <text x="-3" y="-4" class="inputPortLabel cell_u_relu">in_data</text>
    </g>
    <g transform="translate(0,70)" s:x="0" s:y="10" s:pid="in0" id="port_u_relu~in_valid">
      <text x="-3" y="-4" class="inputPortLabel cell_u_relu">in_valid</text>
    </g>
    <g transform="translate(0,90)" s:x="0" s:y="10" s:pid="in0" id="port_u_relu~out_ready">
      <text x="-3" y="-4" class="inputPortLabel cell_u_relu">out_ready</text>
    </g>
    <g transform="translate(0,110)" s:x="0" s:y="10" s:pid="in0" id="port_u_relu~rst_n">
      <text x="-3" y="-4" class="inputPortLabel cell_u_relu">rst_n</text>
    </g>
    <g transform="translate(30,10)" s:x="30" s:y="10" s:pid="out0" id="port_u_relu~in_ready">
      <text x="5" y="-4" style="fill:#000; stroke:none" class="cell_u_relu">in_ready</text>
    </g>
    <g transform="translate(30,30)" s:x="30" s:y="10" s:pid="out0" id="port_u_relu~out_data">
      <text x="5" y="-4" style="fill:#000; stroke:none" class="cell_u_relu">out_data</text>
    </g>
    <g transform="translate(30,50)" s:x="30" s:y="10" s:pid="out0" id="port_u_relu~out_valid">
      <text x="5" y="-4" style="fill:#000; stroke:none" class="cell_u_relu">out_valid</text>
    </g>
  </g>
  <g s:type="inputExt" transform="translate(12,53)" s:width="30" s:height="20" id="cell_clk">
    <text x="15" y="-4" class="nodelabel cell_clk" s:attribute="ref">clk</text>
    <s:alias val="$_inputExt_"/>
    <path d="M0,0 L0,20 L15,20 L30,10 L15,0 Z" class="cell_clk"/>
    <g s:x="28" s:y="10" s:pid="Y"/>
  </g>
  <g s:type="inputExt" transform="translate(12,380.5)" s:width="30" s:height="20" id="cell_rst_n">
    <text x="15" y="-4" class="nodelabel cell_rst_n" s:attribute="ref">rst_n</text>
    <s:alias val="$_inputExt_"/>
    <path d="M0,0 L0,20 L15,20 L30,10 L15,0 Z" class="cell_rst_n"/>
    <g s:x="28" s:y="10" s:pid="Y"/>
  </g>
  <g s:type="inputExt" transform="translate(12,118)" s:width="30" s:height="20" id="cell_bias_val">
    <text x="15" y="-4" class="nodelabel cell_bias_val" s:attribute="ref">bias_val</text>
    <s:alias val="$_inputExt_"/>
    <path d="M0,0 L0,20 L15,20 L30,10 L15,0 Z" class="cell_bias_val"/>
    <g s:x="28" s:y="10" s:pid="Y"/>
  </g>
  <g s:type="inputExt" transform="translate(346,360.5)" s:width="30" s:height="20" id="cell_quant_shift">
    <text x="15" y="-4" class="nodelabel cell_quant_shift" s:attribute="ref">quant_shift</text>
    <s:alias val="$_inputExt_"/>
    <path d="M0,0 L0,20 L15,20 L30,10 L15,0 Z" class="cell_quant_shift"/>
    <g s:x="28" s:y="10" s:pid="Y"/>
  </g>
  <g s:type="inputExt" transform="translate(155,33)" s:width="30" s:height="20" id="cell_act_mode">
    <text x="15" y="-4" class="nodelabel cell_act_mode" s:attribute="ref">act_mode</text>
    <s:alias val="$_inputExt_"/>
    <path d="M0,0 L0,20 L15,20 L30,10 L15,0 Z" class="cell_act_mode"/>
    <g s:x="28" s:y="10" s:pid="Y"/>
  </g>
  <g s:type="inputExt" transform="translate(12,183)" s:width="30" s:height="20" id="cell_in_data">
    <text x="15" y="-4" class="nodelabel cell_in_data" s:attribute="ref">in_data</text>
    <s:alias val="$_inputExt_"/>
    <path d="M0,0 L0,20 L15,20 L30,10 L15,0 Z" class="cell_in_data"/>
    <g s:x="28" s:y="10" s:pid="Y"/>
  </g>
  <g s:type="inputExt" transform="translate(12,248)" s:width="30" s:height="20" id="cell_in_valid">
    <text x="15" y="-4" class="nodelabel cell_in_valid" s:attribute="ref">in_valid</text>
    <s:alias val="$_inputExt_"/>
    <path d="M0,0 L0,20 L15,20 L30,10 L15,0 Z" class="cell_in_valid"/>
    <g s:x="28" s:y="10" s:pid="Y"/>
  </g>
  <g s:type="outputExt" transform="translate(670,81.5)" s:width="30" s:height="20" id="cell_in_ready">
    <text x="15" y="-4" class="nodelabel cell_in_ready" s:attribute="ref">in_ready</text>
    <s:alias val="$_outputExt_"/>
    <path d="M30,0 L30,20 L15,20 L0,10 L15,0 Z" class="cell_in_ready"/>
    <g s:x="0" s:y="10" s:pid="A"/>
  </g>
  <g s:type="outputExt" transform="translate(670,210.5)" s:width="30" s:height="20" id="cell_out_data">
    <text x="15" y="-4" class="nodelabel cell_out_data" s:attribute="ref">out_data</text>
    <s:alias val="$_outputExt_"/>
    <path d="M30,0 L30,20 L15,20 L0,10 L15,0 Z" class="cell_out_data"/>
    <g s:x="0" s:y="10" s:pid="A"/>
  </g>
  <g s:type="outputExt" transform="translate(670,275.5)" s:width="30" s:height="20" id="cell_out_valid">
    <text x="15" y="-4" class="nodelabel cell_out_valid" s:attribute="ref">out_valid</text>
    <s:alias val="$_outputExt_"/>
    <path d="M30,0 L30,20 L15,20 L0,10 L15,0 Z" class="cell_out_valid"/>
    <g s:x="0" s:y="10" s:pid="A"/>
  </g>
  <g s:type="inputExt" transform="translate(346,295.5)" s:width="30" s:height="20" id="cell_out_ready">
    <text x="15" y="-4" class="nodelabel cell_out_ready" s:attribute="ref">out_ready</text>
    <s:alias val="$_inputExt_"/>
    <path d="M0,0 L0,20 L15,20 L30,10 L15,0 Z" class="cell_out_ready"/>
    <g s:x="28" s:y="10" s:pid="Y"/>
  </g>
  <line x1="40" x2="70" y1="128" y2="128" class="net_4,5,6,7,8,9,10,11"/>
  <line x1="70" x2="70" y1="128" y2="153" class="net_4,5,6,7,8,9,10,11"/>
  <line x1="70" x2="155" y1="153" y2="153" class="net_4,5,6,7,8,9,10,11"/>
  <line x1="40" x2="80" y1="63" y2="63" class="net_2"/>
  <line x1="80" x2="80" y1="63" y2="173" class="net_2"/>
  <circle cx="80" cy="63" r="2" style="fill:#000" class="net_2"/>
  <line x1="80" x2="155" y1="173" y2="173" class="net_2"/>
  <line x1="40" x2="80" y1="63" y2="63" class="net_2"/>
  <line x1="80" x2="80" y1="63" y2="12" class="net_2"/>
  <line x1="80" x2="472" y1="12" y2="12" class="net_2"/>
  <line x1="472" x2="472" y1="12" y2="245.5" class="net_2"/>
  <line x1="472" x2="549" y1="245.5" y2="245.5" class="net_2"/>
  <line x1="40" x2="261" y1="63" y2="63" class="net_2"/>
  <line x1="261" x2="261" y1="63" y2="153" class="net_2"/>
  <line x1="261" x2="346" y1="153" y2="153" class="net_2"/>
  <line x1="40" x2="155" y1="193" y2="193" class="net_19,20,21,22,23,24,25,26,27,28,29,30,31,32,33,34,35,36,37,38,39,40,41,42,43,44,45,46,47,48,49,50"/>
  <line x1="40" x2="70" y1="258" y2="258" class="net_51"/>
  <line x1="70" x2="70" y1="258" y2="213" class="net_51"/>
  <line x1="70" x2="155" y1="213" y2="213" class="net_51"/>
  <line x1="377" x2="452" y1="133" y2="133" class="net_95"/>
  <line x1="452" x2="452" y1="133" y2="275.5" class="net_95"/>
  <line x1="452" x2="80" y1="275.5" y2="275.5" class="net_95"/>
  <line x1="80" x2="80" y1="275.5" y2="233" class="net_95"/>
  <line x1="80" x2="155" y1="233" y2="233" class="net_95"/>
  <line x1="40" x2="90" y1="390.5" y2="390.5" class="net_3"/>
  <line x1="90" x2="90" y1="390.5" y2="253" class="net_3"/>
  <circle cx="90" cy="390.5" r="2" style="fill:#000" class="net_3"/>
  <line x1="90" x2="155" y1="253" y2="253" class="net_3"/>
  <line x1="40" x2="452" y1="390.5" y2="390.5" class="net_3"/>
  <line x1="452" x2="452" y1="390.5" y2="345.5" class="net_3"/>
  <line x1="452" x2="549" y1="345.5" y2="345.5" class="net_3"/>
  <line x1="40" x2="251" y1="390.5" y2="390.5" class="net_3"/>
  <line x1="251" x2="251" y1="390.5" y2="233" class="net_3"/>
  <circle cx="251" cy="390.5" r="2" style="fill:#000" class="net_3"/>
  <line x1="251" x2="346" y1="233" y2="233" class="net_3"/>
  <line x1="377" x2="462" y1="153" y2="153" class="net_97,98,99,100,101,102,103,104,105,106,107,108,109,110,111,112,113,114,115,116,117,118,119,120,121,122,123,124,125,126,127,128"/>
  <line x1="462" x2="462" y1="153" y2="265.5" class="net_97,98,99,100,101,102,103,104,105,106,107,108,109,110,111,112,113,114,115,116,117,118,119,120,121,122,123,124,125,126,127,128"/>
  <line x1="462" x2="549" y1="265.5" y2="265.5" class="net_97,98,99,100,101,102,103,104,105,106,107,108,109,110,111,112,113,114,115,116,117,118,119,120,121,122,123,124,125,126,127,128"/>
  <line x1="377" x2="442" y1="173" y2="173" class="net_130"/>
  <line x1="442" x2="442" y1="173" y2="285.5" class="net_130"/>
  <line x1="442" x2="549" y1="285.5" y2="285.5" class="net_130"/>
  <line x1="374" x2="549" y1="305.5" y2="305.5" class="net_62"/>
  <line x1="374" x2="442" y1="370.5" y2="370.5" class="net_12,13,14,15,16"/>
  <line x1="442" x2="442" y1="370.5" y2="325.5" class="net_12,13,14,15,16"/>
  <line x1="442" x2="549" y1="325.5" y2="325.5" class="net_12,13,14,15,16"/>
  <line x1="183" x2="281" y1="43" y2="43" class="net_17,18"/>
  <line x1="281" x2="281" y1="43" y2="133" class="net_17,18"/>
  <line x1="281" x2="346" y1="133" y2="133" class="net_17,18"/>
  <line x1="186" x2="346" y1="173" y2="173" class="net_63,64,65,66,67,68,69,70,71,72,73,74,75,76,77,78,79,80,81,82,83,84,85,86,87,88,89,90,91,92,93,94"/>
  <line x1="186" x2="346" y1="193" y2="193" class="net_96"/>
  <line x1="580" x2="645" y1="245.5" y2="245.5" class="net_129"/>
  <line x1="645" x2="645" y1="245.5" y2="102.5" class="net_129"/>
  <line x1="645" x2="271" y1="102.5" y2="102.5" class="net_129"/>
  <line x1="271" x2="271" y1="102.5" y2="213" class="net_129"/>
  <line x1="271" x2="346" y1="213" y2="213" class="net_129"/>
  <line x1="186" x2="251" y1="153" y2="153" class="net_52"/>
  <line x1="251" x2="251" y1="153" y2="91.5" class="net_52"/>
  <line x1="251" x2="670" y1="91.5" y2="91.5" class="net_52"/>
  <line x1="580" x2="655" y1="265.5" y2="265.5" class="net_53,54,55,56,57,58,59,60"/>
  <line x1="655" x2="655" y1="265.5" y2="220.5" class="net_53,54,55,56,57,58,59,60"/>
  <line x1="655" x2="670" y1="220.5" y2="220.5" class="net_53,54,55,56,57,58,59,60"/>
  <line x1="580" x2="670" y1="285.5" y2="285.5" class="net_61"/>
</svg>
