<svg xmlns="http://www.w3.org/2000/svg" xmlns:xlink="http://www.w3.org/1999/xlink" xmlns:s="https://github.com/nturley/netlistsvg" width="414" height="184">
  <style>svg {
    stroke:#000;
    fill:none;
  }
  text {
    fill:#000;
    stroke:none;
    font-size:10px;
    font-weight: bold;
    font-family: "Courier New", monospace;
  }
  .nodelabel {
    text-anchor: middle;
  }
  .inputPortLabel {
    text-anchor: end;
  }
  .splitjoinBody {
    fill:#000;
  }</style>
  <g s:type="and" transform="translate(307,142)" s:width="30" s:height="25" id="cell_$and$/tmp/tmppxxo8qql.v:319$132">
    <s:alias val="$and"/>
    <s:alias val="$logic_and"/>
    <s:alias val="$_AND_"/>
    <path d="M0,0 L0,25 L15,25 A15 12.5 0 0 0 15,0 Z" class="cell_$and$/tmp/tmppxxo8qql.v:319$132"/>
    <g s:x="0" s:y="5" s:pid="A"/>
    <g s:x="0" s:y="20" s:pid="B"/>
    <g s:x="30" s:y="12.5" s:pid="Y"/>
  </g>
  <g s:type="not" transform="translate(177.5,152)" s:width="30" s:height="20" id="cell_$not$/tmp/tmppxxo8qql.v:319$131">
    <s:alias val="$_NOT_"/>
    <s:alias val="$not"/>
    <s:alias val="$logic_not"/>
    <path d="M0,0 L0,20 L20,10 Z" class="cell_$not$/tmp/tmppxxo8qql.v:319$131"/>
    <circle cx="23" cy="10" r="3" class="cell_$not$/tmp/tmppxxo8qql.v:319$131"/>
    <g s:x="0" s:y="10" s:pid="A"/>
    <g s:x="25" s:y="10" s:pid="Y"/>
  </g>
  <g s:type="generic" transform="translate(180,66.5)" s:width="30" s:height="40" id="cell_u_sync">
    <text x="15" y="-4" class="nodelabel cell_u_sync" s:attribute="ref">$paramod\reset_sync\STAGES=s32'00000000000000000000000000000010</text>
    <rect width="30" height="40" s:generic="body" class="cell_u_sync"/>
    <g transform="translate(0,10)" s:x="0" s:y="10" s:pid="in0" id="port_u_sync~clk">
      <text x="-3" y="-4" class="inputPortLabel cell_u_sync">clk</text>
    </g>
    <g transform="translate(0,30)" s:x="0" s:y="10" s:pid="in0" id="port_u_sync~rst_async_n">
      <text x="-3" y="-4" class="inputPortLabel cell_u_sync">rst_async_n</text>
    </g>
    <g transform="translate(30,10)" s:x="30" s:y="10" s:pid="out0" id="port_u_sync~rst_sync_n">
      <text x="5" y="-4" style="fill:#000; stroke:none" class="cell_u_sync">rst_sync_n</text>
    </g>
  </g>
  <g s:type="inputExt" transform="translate(12,22)" s:width="30" s:height="20" id="cell_clk">
    <text x="15" y="-4" class="nodelabel cell_clk" s:attribute="ref">clk</text>
    <s:alias val="$_inputExt_"/>
    <path d="M0,0 L0,20 L15,20 L30,10 L15,0 Z" class="cell_clk"/>
    <g s:x="28" s:y="10" s:pid="Y"/>
  </g>
  <g s:type="inputExt" transform="translate(12,87)" s:width="30" s:height="20" id="cell_rst_async_n">
    <text x="15" y="-4" class="nodelabel cell_rst_async_n" s:attribute="ref">rst_async_n</text>
    <s:alias val="$_inputExt_"/>
    <path d="M0,0 L0,20 L15,20 L30,10 L15,0 Z" class="cell_rst_async_n"/>
    <g s:x="28" s:y="10" s:pid="Y"/>
  </g>
  <g s:type="inputExt" transform="translate(12,152)" s:width="30" s:height="20" id="cell_soft_reset">
    <text x="15" y="-4" class="nodelabel cell_soft_reset" s:attribute="ref">soft_reset</text>
    <s:alias val="$_inputExt_"/>
    <path d="M0,0 L0,20 L15,20 L30,10 L15,0 Z" class="cell_soft_reset"/>
    <g s:x="28" s:y="10" s:pid="Y"/>
  </g>
  <g s:type="outputExt" transform="translate(372,144.5)" s:width="30" s:height="20" id="cell_rst_n">
    <text x="15" y="-4" class="nodelabel cell_rst_n" s:attribute="ref">rst_n</text>
    <s:alias val="$_outputExt_"/>
    <path d="M30,0 L30,20 L15,20 L0,10 L15,0 Z" class="cell_rst_n"/>
    <g s:x="0" s:y="10" s:pid="A"/>
  </g>
  <line x1="211" x2="282" y1="77" y2="77" class="net_6"/>
  <line x1="282" x2="282" y1="77" y2="147" class="net_6"/>
  <line x1="282" x2="307" y1="147" y2="147" class="net_6"/>
  <line x1="202.5" x2="307" y1="162" y2="162" class="net_7"/>
  <line x1="40" x2="177.5" y1="162" y2="162" class="net_4"/>
  <line x1="40" x2="88" y1="32" y2="32" class="net_2"/>
  <line x1="88" x2="88" y1="32" y2="77" class="net_2"/>
  <line x1="88" x2="180" y1="77" y2="77" class="net_2"/>
  <line x1="40" x2="180" y1="97" y2="97" class="net_3"/>
  <line x1="337" x2="372" y1="154.5" y2="154.5" class="net_5"/>
</svg>
