<svg xmlns="http://www.w3.org/2000/svg" xmlns:xlink="http://www.w3.org/1999/xlink" xmlns:s="https://github.com/nturley/netlistsvg" width="619" height="1032">
  <style>svg {
    stroke:#000;
    fill:none;
  }
  text {
    fill:#000;
    stroke:none;
    font-size:10px;
    font-weight: bold;
    font-family: "Courier New", monospace;
  }
  .nodelabel {
    text-anchor: middle;
  }
  .inputPortLabel {
    text-anchor: end;
  }
  .splitjoinBody {
    fill:#000;
  }</style>
  <g s:type="not" transform="translate(411.5,781)" s:width="30" s:height="20" id="cell_$eq$/tmp/tmppxxo8qql.v:4973$1336">
    <s:alias val="$_NOT_"/>
    <s:alias val="$not"/>
    <s:alias val="$logic_not"/>
    <path d="M0,0 L0,20 L20,10 Z" class="cell_$eq$/tmp/tmppxxo8qql.v:4973$1336"/>
    <circle cx="23" cy="10" r="3" class="cell_$eq$/tmp/tmppxxo8qql.v:4973$1336"/>
    <g s:x="0" s:y="10" s:pid="A"/>
    <g s:x="25" s:y="10" s:pid="Y"/>
  </g>
  <g s:type="eq" transform="translate(409.3333333333333,29.5)" s:width="25" s:height="25" id="cell_$eq$/tmp/tmppxxo8qql.v:4975$1337">
    <s:alias val="$eq"/>
    <circle r="12.5" cx="12.5" cy="12.5" class="cell_$eq$/tmp/tmppxxo8qql.v:4975$1337"/>
    <line x1="7.5" x2="17.5" y1="10" y2="10" class="cell_$eq$/tmp/tmppxxo8qql.v:4975$1337"/>
    <line x1="7.5" x2="17.5" y1="15" y2="15" class="cell_$eq$/tmp/tmppxxo8qql.v:4975$1337"/>
    <g s:x="3" s:y="5" s:pid="A"/>
    <g s:x="3" s:y="20" s:pid="B"/>
    <g s:x="25" s:y="12.5" s:pid="Y"/>
  </g>
  <g s:type="not" transform="translate(310,989)" s:width="30" s:height="20" id="cell_$eq$/tmp/tmppxxo8qql.v:5001$1343">
    <s:alias val="$_NOT_"/>
    <s:alias val="$not"/>
    <s:alias val="$logic_not"/>
    <path d="M0,0 L0,20 L20,10 Z" class="cell_$eq$/tmp/tmppxxo8qql.v:5001$1343"/>
    <circle cx="23" cy="10" r="3" class="cell_$eq$/tmp/tmppxxo8qql.v:5001$1343"/>
    <g s:x="0" s:y="10" s:pid="A"/>
    <g s:x="25" s:y="10" s:pid="Y"/>
  </g>
  <g s:type="and" transform="translate(407.6666666666667,994)" s:width="30" s:height="25" id="cell_$logic_and$/tmp/tmppxxo8qql.v:5001$1344">
    <s:alias val="$and"/>
    <s:alias val="$logic_and"/>
    <s:alias val="$_AND_"/>
    <path d="M0,0 L0,25 L15,25 A15 12.5 0 0 0 15,0 Z" class="cell_$logic_and$/tmp/tmppxxo8qql.v:5001$1344"/>
    <g s:x="0" s:y="5" s:pid="A"/>
    <g s:x="0" s:y="20" s:pid="B"/>
    <g s:x="30" s:y="12.5" s:pid="Y"/>
  </g>
  <g s:type="generic" transform="translate(400,831)" s:width="30" s:height="40" id="cell_$procdff$1416">
    <text x="15" y="-4" class="nodelabel cell_$procdff$1416" s:attribute="ref">$adff</text>
    <rect width="30" height="60" s:generic="body" class="cell_$procdff$1416"/>
    <g transform="translate(0,10)" s:x="0" s:y="10" s:pid="in0" id="port_$procdff$1416~ARST">
      <text x="-3" y="-4" class="inputPortLabel cell_$procdff$1416">ARST</text>
    </g>
    <g transform="translate(0,30)" s:x="0" s:y="10" s:pid="in0" id="port_$procdff$1416~CLK">
      <text x="-3" y="-4" class="inputPortLabel cell_$procdff$1416">CLK</text>
    </g>
    <g transform="translate(0,50)" s:x="0" s:y="10" s:pid="in0" id="port_$procdff$1416~D">
      <text x="-3" y="-4" class="inputPortLabel cell_$procdff$1416">D</text>
    </g>
    <g transform="translate(30,10)" s:x="30" s:y="10" s:pid="out0" id="port_$procdff$1416~Q">
      <text x="5" y="-4" style="fill:#000; stroke:none" class="cell_$procdff$1416">Q</text>
    </g>
  </g>
  <g s:type="generic" transform="translate(107,488)" s:width="30" s:height="40" id="cell_$procdff$1421">
    <text x="15" y="-4" class="nodelabel cell_$procdff$1421" s:attribute="ref">$adff</text>
    <rect width="30" height="60" s:generic="body" class="cell_$procdff$1421"/>
    <g transform="translate(0,10)" s:x="0" s:y="10" s:pid="in0" id="port_$procdff$1421~ARST">
      <text x="-3" y="-4" class="inputPortLabel cell_$procdff$1421">ARST</text>
    </g>
    <g transform="translate(0,30)" s:x="0" s:y="10" s:pid="in0" id="port_$procdff$1421~CLK">
      <text x="-3" y="-4" class="inputPortLabel cell_$procdff$1421">CLK</text>
    </g>
    <g transform="translate(0,50)" s:x="0" s:y="10" s:pid="in0" id="port_$procdff$1421~D">
      <text x="-3" y="-4" class="inputPortLabel cell_$procdff$1421">D</text>
    </g>
    <g transform="translate(30,10)" s:x="30" s:y="10" s:pid="out0" id="port_$procdff$1421~Q">
      <text x="5" y="-4" style="fill:#000; stroke:none" class="cell_$procdff$1421">Q</text>
    </g>
  </g>
  <g s:type="mux" transform="translate(513,919)" s:width="20" s:height="40" id="cell_$procmux$1384">
    <s:alias val="$pmux"/>
    <s:alias val="$mux"/>
    <s:alias val="$_MUX_"/>
    <path d="M0,0 L20,10 L20,30 L0,40 Z" class="cell_$procmux$1384"/>
    <g s:x="0" s:y="10" s:pid="A"/>
    <g s:x="0" s:y="30" s:pid="B"/>
    <g s:x="10" s:y="35" s:pid="S"/>
    <g s:x="20" s:y="20" s:pid="Y"/>
  </g>
  <g s:type="mux" transform="translate(248.33333333333334,118)" s:width="20" s:height="40" id="cell_$procmux$1388">
    <s:alias val="$pmux"/>
    <s:alias val="$mux"/>
    <s:alias val="$_MUX_"/>
    <path d="M0,0 L20,10 L20,30 L0,40 Z" class="cell_$procmux$1388"/>
    <g s:x="0" s:y="10" s:pid="A"/>
    <g s:x="0" s:y="30" s:pid="B"/>
    <g s:x="10" s:y="35" s:pid="S"/>
    <g s:x="20" s:y="20" s:pid="Y"/>
  </g>
  <g s:type="mux" transform="translate(313.3333333333333,108)" s:width="20" s:height="40" id="cell_$procmux$1390">
    <s:alias val="$pmux"/>
    <s:alias val="$mux"/>
    <s:alias val="$_MUX_"/>
    <path d="M0,0 L20,10 L20,30 L0,40 Z" class="cell_$procmux$1390"/>
    <g s:x="0" s:y="10" s:pid="A"/>
    <g s:x="0" s:y="30" s:pid="B"/>
    <g s:x="10" s:y="35" s:pid="S"/>
    <g s:x="20" s:y="20" s:pid="Y"/>
  </g>
  <g s:type="eq" transform="translate(246.66666666666666,178)" s:width="25" s:height="25" id="cell_$procmux$1391_CMP0">
    <s:alias val="$eq"/>
    <circle r="12.5" cx="12.5" cy="12.5" class="cell_$procmux$1391_CMP0"/>
    <line x1="7.5" x2="17.5" y1="10" y2="10" class="cell_$procmux$1391_CMP0"/>
    <line x1="7.5" x2="17.5" y1="15" y2="15" class="cell_$procmux$1391_CMP0"/>
    <g s:x="3" s:y="5" s:pid="A"/>
    <g s:x="3" s:y="20" s:pid="B"/>
    <g s:x="25" s:y="12.5" s:pid="Y"/>
  </g>
  <g s:type="mux" transform="translate(248.33333333333334,273)" s:width="20" s:height="40" id="cell_$procmux$1395">
    <s:alias val="$pmux"/>
    <s:alias val="$mux"/>
    <s:alias val="$_MUX_"/>
    <path d="M0,0 L20,10 L20,30 L0,40 Z" class="cell_$procmux$1395"/>
    <g s:x="0" s:y="10" s:pid="A"/>
    <g s:x="0" s:y="30" s:pid="B"/>
    <g s:x="10" s:y="35" s:pid="S"/>
    <g s:x="20" s:y="20" s:pid="Y"/>
  </g>
  <g s:type="mux" transform="translate(313.3333333333333,228)" s:width="20" s:height="40" id="cell_$procmux$1397">
    <s:alias val="$pmux"/>
    <s:alias val="$mux"/>
    <s:alias val="$_MUX_"/>
    <path d="M0,0 L20,10 L20,30 L0,40 Z" class="cell_$procmux$1397"/>
    <g s:x="0" s:y="10" s:pid="A"/>
    <g s:x="0" s:y="30" s:pid="B"/>
    <g s:x="10" s:y="35" s:pid="S"/>
    <g s:x="20" s:y="20" s:pid="Y"/>
  </g>
  <g s:type="eq" transform="translate(246.66666666666666,413)" s:width="25" s:height="25" id="cell_$procmux$1398_CMP0">
    <s:alias val="$eq"/>
    <circle r="12.5" cx="12.5" cy="12.5" class="cell_$procmux$1398_CMP0"/>
    <line x1="7.5" x2="17.5" y1="10" y2="10" class="cell_$procmux$1398_CMP0"/>
    <line x1="7.5" x2="17.5" y1="15" y2="15" class="cell_$procmux$1398_CMP0"/>
    <g s:x="3" s:y="5" s:pid="A"/>
    <g s:x="3" s:y="20" s:pid="B"/>
    <g s:x="25" s:y="12.5" s:pid="Y"/>
  </g>
  <g s:type="mux" transform="translate(248.33333333333334,488.5)" s:width="20" s:height="40" id="cell_$procmux$1403">
    <s:alias val="$pmux"/>
    <s:alias val="$mux"/>
    <s:alias val="$_MUX_"/>
    <path d="M0,0 L20,10 L20,30 L0,40 Z" class="cell_$procmux$1403"/>
    <g s:x="0" s:y="10" s:pid="A"/>
    <g s:x="0" s:y="30" s:pid="B"/>
    <g s:x="10" s:y="35" s:pid="S"/>
    <g s:x="20" s:y="20" s:pid="Y"/>
  </g>
  <g s:type="mux" transform="translate(313.3333333333333,478.5)" s:width="20" s:height="40" id="cell_$procmux$1405">
    <s:alias val="$pmux"/>
    <s:alias val="$mux"/>
    <s:alias val="$_MUX_"/>
    <path d="M0,0 L20,10 L20,30 L0,40 Z" class="cell_$procmux$1405"/>
    <g s:x="0" s:y="10" s:pid="A"/>
    <g s:x="0" s:y="30" s:pid="B"/>
    <g s:x="10" s:y="35" s:pid="S"/>
    <g s:x="20" s:y="20" s:pid="Y"/>
  </g>
  <g s:type="not" transform="translate(245,616)" s:width="30" s:height="20" id="cell_$procmux$1406_CMP0">
    <s:alias val="$_NOT_"/>
    <s:alias val="$not"/>
    <s:alias val="$logic_not"/>
    <path d="M0,0 L0,20 L20,10 Z" class="cell_$procmux$1406_CMP0"/>
    <circle cx="23" cy="10" r="3" class="cell_$procmux$1406_CMP0"/>
    <g s:x="0" s:y="10" s:pid="A"/>
    <g s:x="25" s:y="10" s:pid="Y"/>
  </g>
  <g s:type="mux" transform="translate(513,87)" s:width="20" s:height="40" id="cell_$procmux$1408">
    <s:alias val="$pmux"/>
    <s:alias val="$mux"/>
    <s:alias val="$_MUX_"/>
    <path d="M0,0 L20,10 L20,30 L0,40 Z" class="cell_$procmux$1408"/>
    <g s:x="0" s:y="10" s:pid="A"/>
    <g s:x="0" s:y="30" s:pid="B"/>
    <g s:x="10" s:y="35" s:pid="S"/>
    <g s:x="20" s:y="20" s:pid="Y"/>
  </g>
  <g s:type="eq" transform="translate(311.6666666666667,641)" s:width="25" s:height="25" id="cell_$procmux$1409_CMP0">
    <s:alias val="$eq"/>
    <circle r="12.5" cx="12.5" cy="12.5" class="cell_$procmux$1409_CMP0"/>
    <line x1="7.5" x2="17.5" y1="10" y2="10" class="cell_$procmux$1409_CMP0"/>
    <line x1="7.5" x2="17.5" y1="15" y2="15" class="cell_$procmux$1409_CMP0"/>
    <g s:x="3" s:y="5" s:pid="A"/>
    <g s:x="3" s:y="20" s:pid="B"/>
    <g s:x="25" s:y="12.5" s:pid="Y"/>
  </g>
  <g s:type="eq" transform="translate(311.6666666666667,701)" s:width="25" s:height="25" id="cell_$procmux$1410_CMP0">
    <s:alias val="$eq"/>
    <circle r="12.5" cx="12.5" cy="12.5" class="cell_$procmux$1410_CMP0"/>
    <line x1="7.5" x2="17.5" y1="10" y2="10" class="cell_$procmux$1410_CMP0"/>
    <line x1="7.5" x2="17.5" y1="15" y2="15" class="cell_$procmux$1410_CMP0"/>
    <g s:x="3" s:y="5" s:pid="A"/>
    <g s:x="3" s:y="20" s:pid="B"/>
    <g s:x="25" s:y="12.5" s:pid="Y"/>
  </g>
  <g s:type="not" transform="translate(310,761)" s:width="30" s:height="20" id="cell_$procmux$1411_CMP0">
    <s:alias val="$_NOT_"/>
    <s:alias val="$not"/>
    <s:alias val="$logic_not"/>
    <path d="M0,0 L0,20 L20,10 Z" class="cell_$procmux$1411_CMP0"/>
    <circle cx="23" cy="10" r="3" class="cell_$procmux$1411_CMP0"/>
    <g s:x="0" s:y="10" s:pid="A"/>
    <g s:x="25" s:y="10" s:pid="Y"/>
  </g>
  <g s:type="inputExt" transform="translate(12,851.5)" s:width="30" s:height="20" id="cell_clk">
    <text x="15" y="-4" class="nodelabel cell_clk" s:attribute="ref">clk</text>
    <s:alias val="$_inputExt_"/>
    <path d="M0,0 L0,20 L15,20 L30,10 L15,0 Z" class="cell_clk"/>
    <g s:x="28" s:y="10" s:pid="Y"/>
  </g>
  <g s:type="inputExt" transform="translate(12,488.5)" s:width="30" s:height="20" id="cell_rst_n">
    <text x="15" y="-4" class="nodelabel cell_rst_n" s:attribute="ref">rst_n</text>
    <s:alias val="$_inputExt_"/>
    <path d="M0,0 L0,20 L15,20 L30,10 L15,0 Z" class="cell_rst_n"/>
    <g s:x="28" s:y="10" s:pid="Y"/>
  </g>
  <g s:type="inputExt" transform="translate(400,939)" s:width="30" s:height="20" id="cell_queue_cmd">
    <text x="15" y="-4" class="nodelabel cell_queue_cmd" s:attribute="ref">queue_cmd</text>
    <s:alias val="$_inputExt_"/>
    <path d="M0,0 L0,20 L15,20 L30,10 L15,0 Z" class="cell_queue_cmd"/>
    <g s:x="28" s:y="10" s:pid="Y"/>
  </g>
  <g s:type="inputExt" transform="translate(101,596)" s:width="30" s:height="20" id="cell_queue_valid">
    <text x="15" y="-4" class="nodelabel cell_queue_valid" s:attribute="ref">queue_valid</text>
    <s:alias val="$_inputExt_"/>
    <path d="M0,0 L0,20 L15,20 L30,10 L15,0 Z" class="cell_queue_valid"/>
    <g s:x="28" s:y="10" s:pid="Y"/>
  </g>
  <g s:type="outputExt" transform="translate(513,781)" s:width="30" s:height="20" id="cell_queue_ready">
    <text x="15" y="-4" class="nodelabel cell_queue_ready" s:attribute="ref">queue_ready</text>
    <s:alias val="$_outputExt_"/>
    <path d="M30,0 L30,20 L15,20 L0,10 L15,0 Z" class="cell_queue_ready"/>
    <g s:x="0" s:y="10" s:pid="A"/>
  </g>
  <g s:type="outputExt" transform="translate(513,831.5)" s:width="30" s:height="20" id="cell_dispatch_cmd">
    <text x="15" y="-4" class="nodelabel cell_dispatch_cmd" s:attribute="ref">dispatch_cmd</text>
    <s:alias val="$_outputExt_"/>
    <path d="M30,0 L30,20 L15,20 L0,10 L15,0 Z" class="cell_dispatch_cmd"/>
    <g s:x="0" s:y="10" s:pid="A"/>
  </g>
  <g s:type="outputExt" transform="translate(513,32)" s:width="30" s:height="20" id="cell_dispatch_valid">
    <text x="15" y="-4" class="nodelabel cell_dispatch_valid" s:attribute="ref">dispatch_valid</text>
    <s:alias val="$_outputExt_"/>
    <path d="M30,0 L30,20 L15,20 L0,10 L15,0 Z" class="cell_dispatch_valid"/>
    <g s:x="0" s:y="10" s:pid="A"/>
  </g>
  <g s:type="inputExt" transform="translate(101,358)" s:width="30" s:height="20" id="cell_dispatch_ready">
    <text x="15" y="-4" class="nodelabel cell_dispatch_ready" s:attribute="ref">dispatch_ready</text>
    <s:alias val="$_inputExt_"/>
    <path d="M0,0 L0,20 L15,20 L30,10 L15,0 Z" class="cell_dispatch_ready"/>
    <g s:x="28" s:y="10" s:pid="Y"/>
  </g>
  <g s:type="inputExt" transform="translate(101,158)" s:width="30" s:height="20" id="cell_backend_done">
    <text x="15" y="-4" class="nodelabel cell_backend_done" s:attribute="ref">backend_done</text>
    <s:alias val="$_inputExt_"/>
    <path d="M0,0 L0,20 L15,20 L30,10 L15,0 Z" class="cell_backend_done"/>
    <g s:x="28" s:y="10" s:pid="Y"/>
  </g>
  <g s:type="constant" transform="translate(101,423)" s:width="30" s:height="20" id="cell_01">
    <text x="15" y="-4" class="nodelabel cell_01" s:attribute="ref">01</text>
    <s:alias val="$_constant_"/>
    <rect width="30" height="20" class="cell_01"/>
    <g s:x="30" s:y="10" s:pid="Y"/>
  </g>
  <g s:type="constant" transform="translate(101,87)" s:width="30" s:height="20" id="cell_00">
    <text x="15" y="-4" class="nodelabel cell_00" s:attribute="ref">00</text>
    <s:alias val="$_constant_"/>
    <rect width="30" height="20" class="cell_00"/>
    <g s:x="30" s:y="10" s:pid="Y"/>
  </g>
  <g s:type="constant" transform="translate(101,293)" s:width="30" s:height="20" id="cell_10">
    <text x="15" y="-4" class="nodelabel cell_10" s:attribute="ref">10</text>
    <s:alias val="$_constant_"/>
    <rect width="30" height="20" class="cell_10"/>
    <g s:x="30" s:y="10" s:pid="Y"/>
  </g>
  <g s:type="join" transform="translate(412.25,117.5)" s:width="4" s:height="40" id="cell_$join$,723,724,728,729,733,734,">
    <rect width="5" height="60" class="splitjoinBody" s:generic="body"/>
    <s:alias val="$_join_"/>
    <g s:x="5" s:y="20" s:pid="out"/>
    <g transform="translate(0,10)" s:x="0" s:y="10" s:pid="in0">
      <text x="-3" y="-4" class="inputPortLabel">0:1</text>
    </g>
    <g transform="translate(0,30)" s:x="0" s:y="10" s:pid="in0">
      <text x="-3" y="-4" class="inputPortLabel">2:3</text>
    </g>
    <g transform="translate(0,50)" s:x="0" s:y="10" s:pid="in0">
      <text x="-3" y="-4" class="inputPortLabel">4:5</text>
    </g>
  </g>
  <g s:type="join" transform="translate(412.25,643)" s:width="4" s:height="40" id="cell_$join$,735,736,737,">
    <rect width="5" height="60" class="splitjoinBody" s:generic="body"/>
    <s:alias val="$_join_"/>
    <g s:x="5" s:y="20" s:pid="out"/>
    <g transform="translate(0,10)" s:x="0" s:y="10" s:pid="in0">
      <text x="-3" y="-4" class="inputPortLabel">0</text>
    </g>
    <g transform="translate(0,30)" s:x="0" s:y="10" s:pid="in0">
      <text x="-3" y="-4" class="inputPortLabel">1</text>
    </g>
    <g transform="translate(0,50)" s:x="0" s:y="10" s:pid="in0">
      <text x="-3" y="-4" class="inputPortLabel">2</text>
    </g>
  </g>
  <line x1="138" x2="225" y1="498.5" y2="498.5" class="net_479,480"/>
  <line x1="225" x2="225" y1="498.5" y2="771" class="net_479,480"/>
  <line x1="225" x2="285" y1="771" y2="771" class="net_479,480"/>
  <line x1="285" x2="285" y1="771" y2="791" class="net_479,480"/>
  <circle cx="225" cy="498.5" r="2" style="fill:#000" class="net_479,480"/>
  <circle cx="225" cy="771" r="2" style="fill:#000" class="net_479,480"/>
  <circle cx="285" cy="771" r="2" style="fill:#000" class="net_479,480"/>
  <line x1="285" x2="411.5" y1="791" y2="791" class="net_479,480"/>
  <line x1="138" x2="225" y1="498.5" y2="498.5" class="net_479,480"/>
  <line x1="225" x2="225" y1="498.5" y2="34.5" class="net_479,480"/>
  <line x1="225" x2="412.3333333333333" y1="34.5" y2="34.5" class="net_479,480"/>
  <line x1="138" x2="225" y1="498.5" y2="498.5" class="net_479,480"/>
  <line x1="225" x2="225" y1="498.5" y2="999" class="net_479,480"/>
  <line x1="225" x2="310" y1="999" y2="999" class="net_479,480"/>
  <line x1="138" x2="225" y1="498.5" y2="498.5" class="net_479,480"/>
  <line x1="225" x2="225" y1="498.5" y2="128" class="net_479,480"/>
  <circle cx="225" cy="128" r="2" style="fill:#000" class="net_479,480"/>
  <line x1="225" x2="248.33333333333334" y1="128" y2="128" class="net_479,480"/>
  <line x1="138" x2="225" y1="498.5" y2="498.5" class="net_479,480"/>
  <line x1="225" x2="225" y1="498.5" y2="183" class="net_479,480"/>
  <circle cx="225" cy="183" r="2" style="fill:#000" class="net_479,480"/>
  <line x1="225" x2="249.66666666666666" y1="183" y2="183" class="net_479,480"/>
  <line x1="138" x2="225" y1="498.5" y2="498.5" class="net_479,480"/>
  <line x1="225" x2="225" y1="498.5" y2="283" class="net_479,480"/>
  <circle cx="225" cy="283" r="2" style="fill:#000" class="net_479,480"/>
  <line x1="225" x2="248.33333333333334" y1="283" y2="283" class="net_479,480"/>
  <line x1="138" x2="225" y1="498.5" y2="498.5" class="net_479,480"/>
  <line x1="225" x2="225" y1="498.5" y2="418" class="net_479,480"/>
  <circle cx="225" cy="418" r="2" style="fill:#000" class="net_479,480"/>
  <line x1="225" x2="249.66666666666666" y1="418" y2="418" class="net_479,480"/>
  <line x1="138" x2="248.33333333333334" y1="498.5" y2="498.5" class="net_479,480"/>
  <line x1="138" x2="225" y1="498.5" y2="498.5" class="net_479,480"/>
  <line x1="225" x2="225" y1="498.5" y2="626" class="net_479,480"/>
  <circle cx="225" cy="626" r="2" style="fill:#000" class="net_479,480"/>
  <line x1="225" x2="245" y1="626" y2="626" class="net_479,480"/>
  <line x1="138" x2="225" y1="498.5" y2="498.5" class="net_479,480"/>
  <line x1="225" x2="225" y1="498.5" y2="646" class="net_479,480"/>
  <circle cx="225" cy="646" r="2" style="fill:#000" class="net_479,480"/>
  <line x1="225" x2="314.6666666666667" y1="646" y2="646" class="net_479,480"/>
  <line x1="138" x2="225" y1="498.5" y2="498.5" class="net_479,480"/>
  <line x1="225" x2="225" y1="498.5" y2="706" class="net_479,480"/>
  <circle cx="225" cy="706" r="2" style="fill:#000" class="net_479,480"/>
  <line x1="225" x2="314.6666666666667" y1="706" y2="706" class="net_479,480"/>
  <line x1="138" x2="225" y1="498.5" y2="498.5" class="net_479,480"/>
  <line x1="225" x2="225" y1="498.5" y2="771" class="net_479,480"/>
  <line x1="225" x2="310" y1="771" y2="771" class="net_479,480"/>
  <line x1="131" x2="205" y1="433" y2="433" class="net_738,739"/>
  <line x1="205" x2="205" y1="433" y2="49.5" class="net_738,739"/>
  <circle cx="205" cy="433" r="2" style="fill:#000" class="net_738,739"/>
  <line x1="205" x2="412.3333333333333" y1="49.5" y2="49.5" class="net_738,739"/>
  <line x1="131" x2="249.66666666666666" y1="433" y2="433" class="net_738,739"/>
  <line x1="131" x2="205" y1="433" y2="433" class="net_738,739"/>
  <line x1="205" x2="205" y1="433" y2="518.5" class="net_738,739"/>
  <circle cx="205" cy="518.5" r="2" style="fill:#000" class="net_738,739"/>
  <line x1="205" x2="248.33333333333334" y1="518.5" y2="518.5" class="net_738,739"/>
  <line x1="131" x2="205" y1="433" y2="433" class="net_738,739"/>
  <line x1="205" x2="205" y1="433" y2="721" class="net_738,739"/>
  <line x1="205" x2="314.6666666666667" y1="721" y2="721" class="net_738,739"/>
  <line x1="335" x2="407.6666666666667" y1="999" y2="999" class="net_481"/>
  <line x1="129" x2="195" y1="606" y2="606" class="net_239"/>
  <line x1="195" x2="195" y1="606" y2="1019" class="net_239"/>
  <line x1="195" x2="350" y1="1019" y2="1019" class="net_239"/>
  <line x1="350" x2="350" y1="1019" y2="1014" class="net_239"/>
  <circle cx="195" cy="606" r="2" style="fill:#000" class="net_239"/>
  <line x1="350" x2="407.6666666666667" y1="1014" y2="1014" class="net_239"/>
  <line x1="129" x2="258.33333333333337" y1="606" y2="606" class="net_239"/>
  <line x1="258.33333333333337" x2="258.33333333333337" y1="606" y2="523.5" class="net_239"/>
  <line x1="40" x2="52" y1="498.5" y2="498.5" class="net_3"/>
  <line x1="52" x2="52" y1="498.5" y2="841.5" class="net_3"/>
  <circle cx="52" cy="498.5" r="2" style="fill:#000" class="net_3"/>
  <line x1="52" x2="400" y1="841.5" y2="841.5" class="net_3"/>
  <line x1="40" x2="107" y1="498.5" y2="498.5" class="net_3"/>
  <line x1="40" x2="400" y1="861.5" y2="861.5" class="net_2"/>
  <line x1="40" x2="72" y1="861.5" y2="861.5" class="net_2"/>
  <line x1="72" x2="72" y1="861.5" y2="518.5" class="net_2"/>
  <circle cx="72" cy="861.5" r="2" style="fill:#000" class="net_2"/>
  <line x1="72" x2="107" y1="518.5" y2="518.5" class="net_2"/>
  <line x1="533" x2="607" y1="939" y2="939" class="net_483,484,485,486,487,488,489,490,491,492,493,494,495,496,497,498,499,500,501,502,503,504,505,506,507,508,509,510,511,512,513,514,515,516,517,518,519,520,521,522,523,524,525,526,527,528,529,530,531,532,533,534,535,536,537,538,539,540,541,542,543,544,545,546,547,548,549,550,551,552,553,554,555,556,557,558,559,560,561,562,563,564,565,566,567,568,569,570,571,572,573,574,575,576,577,578,579,580,581,582,583,584,585,586,587,588,589,590,591,592,593,594,595,596,597,598,599,600,601,602,603,604,605,606,607,608,609,610,611,612,613,614,615,616,617,618,619,620,621,622,623,624,625,626,627,628,629,630,631,632,633,634,635,636,637,638,639,640,641,642,643,644,645,646,647,648,649,650,651,652,653,654,655,656,657,658,659,660,661,662,663,664,665,666,667,668,669,670,671,672,673,674,675,676,677,678,679,680,681,682,683,684,685,686,687,688,689,690,691,692,693,694,695,696,697,698,699,700,701,702,703,704,705,706,707,708,709,710,711,712,713,714,715,716,717"/>
  <line x1="607" x2="607" y1="939" y2="811" class="net_483,484,485,486,487,488,489,490,491,492,493,494,495,496,497,498,499,500,501,502,503,504,505,506,507,508,509,510,511,512,513,514,515,516,517,518,519,520,521,522,523,524,525,526,527,528,529,530,531,532,533,534,535,536,537,538,539,540,541,542,543,544,545,546,547,548,549,550,551,552,553,554,555,556,557,558,559,560,561,562,563,564,565,566,567,568,569,570,571,572,573,574,575,576,577,578,579,580,581,582,583,584,585,586,587,588,589,590,591,592,593,594,595,596,597,598,599,600,601,602,603,604,605,606,607,608,609,610,611,612,613,614,615,616,617,618,619,620,621,622,623,624,625,626,627,628,629,630,631,632,633,634,635,636,637,638,639,640,641,642,643,644,645,646,647,648,649,650,651,652,653,654,655,656,657,658,659,660,661,662,663,664,665,666,667,668,669,670,671,672,673,674,675,676,677,678,679,680,681,682,683,684,685,686,687,688,689,690,691,692,693,694,695,696,697,698,699,700,701,702,703,704,705,706,707,708,709,710,711,712,713,714,715,716,717"/>
  <line x1="607" x2="360" y1="811" y2="811" class="net_483,484,485,486,487,488,489,490,491,492,493,494,495,496,497,498,499,500,501,502,503,504,505,506,507,508,509,510,511,512,513,514,515,516,517,518,519,520,521,522,523,524,525,526,527,528,529,530,531,532,533,534,535,536,537,538,539,540,541,542,543,544,545,546,547,548,549,550,551,552,553,554,555,556,557,558,559,560,561,562,563,564,565,566,567,568,569,570,571,572,573,574,575,576,577,578,579,580,581,582,583,584,585,586,587,588,589,590,591,592,593,594,595,596,597,598,599,600,601,602,603,604,605,606,607,608,609,610,611,612,613,614,615,616,617,618,619,620,621,622,623,624,625,626,627,628,629,630,631,632,633,634,635,636,637,638,639,640,641,642,643,644,645,646,647,648,649,650,651,652,653,654,655,656,657,658,659,660,661,662,663,664,665,666,667,668,669,670,671,672,673,674,675,676,677,678,679,680,681,682,683,684,685,686,687,688,689,690,691,692,693,694,695,696,697,698,699,700,701,702,703,704,705,706,707,708,709,710,711,712,713,714,715,716,717"/>
  <line x1="360" x2="360" y1="811" y2="881.5" class="net_483,484,485,486,487,488,489,490,491,492,493,494,495,496,497,498,499,500,501,502,503,504,505,506,507,508,509,510,511,512,513,514,515,516,517,518,519,520,521,522,523,524,525,526,527,528,529,530,531,532,533,534,535,536,537,538,539,540,541,542,543,544,545,546,547,548,549,550,551,552,553,554,555,556,557,558,559,560,561,562,563,564,565,566,567,568,569,570,571,572,573,574,575,576,577,578,579,580,581,582,583,584,585,586,587,588,589,590,591,592,593,594,595,596,597,598,599,600,601,602,603,604,605,606,607,608,609,610,611,612,613,614,615,616,617,618,619,620,621,622,623,624,625,626,627,628,629,630,631,632,633,634,635,636,637,638,639,640,641,642,643,644,645,646,647,648,649,650,651,652,653,654,655,656,657,658,659,660,661,662,663,664,665,666,667,668,669,670,671,672,673,674,675,676,677,678,679,680,681,682,683,684,685,686,687,688,689,690,691,692,693,694,695,696,697,698,699,700,701,702,703,704,705,706,707,708,709,710,711,712,713,714,715,716,717"/>
  <line x1="360" x2="400" y1="881.5" y2="881.5" class="net_483,484,485,486,487,488,489,490,491,492,493,494,495,496,497,498,499,500,501,502,503,504,505,506,507,508,509,510,511,512,513,514,515,516,517,518,519,520,521,522,523,524,525,526,527,528,529,530,531,532,533,534,535,536,537,538,539,540,541,542,543,544,545,546,547,548,549,550,551,552,553,554,555,556,557,558,559,560,561,562,563,564,565,566,567,568,569,570,571,572,573,574,575,576,577,578,579,580,581,582,583,584,585,586,587,588,589,590,591,592,593,594,595,596,597,598,599,600,601,602,603,604,605,606,607,608,609,610,611,612,613,614,615,616,617,618,619,620,621,622,623,624,625,626,627,628,629,630,631,632,633,634,635,636,637,638,639,640,641,642,643,644,645,646,647,648,649,650,651,652,653,654,655,656,657,658,659,660,661,662,663,664,665,666,667,668,669,670,671,672,673,674,675,676,677,678,679,680,681,682,683,684,685,686,687,688,689,690,691,692,693,694,695,696,697,698,699,700,701,702,703,704,705,706,707,708,709,710,711,712,713,714,715,716,717"/>
  <line x1="533" x2="607" y1="107" y2="107" class="net_718,719"/>
  <line x1="607" x2="607" y1="107" y2="12" class="net_718,719"/>
  <line x1="607" x2="62" y1="12" y2="12" class="net_718,719"/>
  <line x1="62" x2="62" y1="12" y2="538.5" class="net_718,719"/>
  <line x1="62" x2="107" y1="538.5" y2="538.5" class="net_718,719"/>
  <line x1="431" x2="488" y1="841.5" y2="841.5" class="net_241,242,243,244,245,246,247,248,249,250,251,252,253,254,255,256,257,258,259,260,261,262,263,264,265,266,267,268,269,270,271,272,273,274,275,276,277,278,279,280,281,282,283,284,285,286,287,288,289,290,291,292,293,294,295,296,297,298,299,300,301,302,303,304,305,306,307,308,309,310,311,312,313,314,315,316,317,318,319,320,321,322,323,324,325,326,327,328,329,330,331,332,333,334,335,336,337,338,339,340,341,342,343,344,345,346,347,348,349,350,351,352,353,354,355,356,357,358,359,360,361,362,363,364,365,366,367,368,369,370,371,372,373,374,375,376,377,378,379,380,381,382,383,384,385,386,387,388,389,390,391,392,393,394,395,396,397,398,399,400,401,402,403,404,405,406,407,408,409,410,411,412,413,414,415,416,417,418,419,420,421,422,423,424,425,426,427,428,429,430,431,432,433,434,435,436,437,438,439,440,441,442,443,444,445,446,447,448,449,450,451,452,453,454,455,456,457,458,459,460,461,462,463,464,465,466,467,468,469,470,471,472,473,474,475"/>
  <line x1="488" x2="488" y1="841.5" y2="929" class="net_241,242,243,244,245,246,247,248,249,250,251,252,253,254,255,256,257,258,259,260,261,262,263,264,265,266,267,268,269,270,271,272,273,274,275,276,277,278,279,280,281,282,283,284,285,286,287,288,289,290,291,292,293,294,295,296,297,298,299,300,301,302,303,304,305,306,307,308,309,310,311,312,313,314,315,316,317,318,319,320,321,322,323,324,325,326,327,328,329,330,331,332,333,334,335,336,337,338,339,340,341,342,343,344,345,346,347,348,349,350,351,352,353,354,355,356,357,358,359,360,361,362,363,364,365,366,367,368,369,370,371,372,373,374,375,376,377,378,379,380,381,382,383,384,385,386,387,388,389,390,391,392,393,394,395,396,397,398,399,400,401,402,403,404,405,406,407,408,409,410,411,412,413,414,415,416,417,418,419,420,421,422,423,424,425,426,427,428,429,430,431,432,433,434,435,436,437,438,439,440,441,442,443,444,445,446,447,448,449,450,451,452,453,454,455,456,457,458,459,460,461,462,463,464,465,466,467,468,469,470,471,472,473,474,475"/>
  <circle cx="488" cy="841.5" r="2" style="fill:#000" class="net_241,242,243,244,245,246,247,248,249,250,251,252,253,254,255,256,257,258,259,260,261,262,263,264,265,266,267,268,269,270,271,272,273,274,275,276,277,278,279,280,281,282,283,284,285,286,287,288,289,290,291,292,293,294,295,296,297,298,299,300,301,302,303,304,305,306,307,308,309,310,311,312,313,314,315,316,317,318,319,320,321,322,323,324,325,326,327,328,329,330,331,332,333,334,335,336,337,338,339,340,341,342,343,344,345,346,347,348,349,350,351,352,353,354,355,356,357,358,359,360,361,362,363,364,365,366,367,368,369,370,371,372,373,374,375,376,377,378,379,380,381,382,383,384,385,386,387,388,389,390,391,392,393,394,395,396,397,398,399,400,401,402,403,404,405,406,407,408,409,410,411,412,413,414,415,416,417,418,419,420,421,422,423,424,425,426,427,428,429,430,431,432,433,434,435,436,437,438,439,440,441,442,443,444,445,446,447,448,449,450,451,452,453,454,455,456,457,458,459,460,461,462,463,464,465,466,467,468,469,470,471,472,473,474,475"/>
  <line x1="488" x2="513" y1="929" y2="929" class="net_241,242,243,244,245,246,247,248,249,250,251,252,253,254,255,256,257,258,259,260,261,262,263,264,265,266,267,268,269,270,271,272,273,274,275,276,277,278,279,280,281,282,283,284,285,286,287,288,289,290,291,292,293,294,295,296,297,298,299,300,301,302,303,304,305,306,307,308,309,310,311,312,313,314,315,316,317,318,319,320,321,322,323,324,325,326,327,328,329,330,331,332,333,334,335,336,337,338,339,340,341,342,343,344,345,346,347,348,349,350,351,352,353,354,355,356,357,358,359,360,361,362,363,364,365,366,367,368,369,370,371,372,373,374,375,376,377,378,379,380,381,382,383,384,385,386,387,388,389,390,391,392,393,394,395,396,397,398,399,400,401,402,403,404,405,406,407,408,409,410,411,412,413,414,415,416,417,418,419,420,421,422,423,424,425,426,427,428,429,430,431,432,433,434,435,436,437,438,439,440,441,442,443,444,445,446,447,448,449,450,451,452,453,454,455,456,457,458,459,460,461,462,463,464,465,466,467,468,469,470,471,472,473,474,475"/>
  <line x1="431" x2="513" y1="841.5" y2="841.5" class="net_241,242,243,244,245,246,247,248,249,250,251,252,253,254,255,256,257,258,259,260,261,262,263,264,265,266,267,268,269,270,271,272,273,274,275,276,277,278,279,280,281,282,283,284,285,286,287,288,289,290,291,292,293,294,295,296,297,298,299,300,301,302,303,304,305,306,307,308,309,310,311,312,313,314,315,316,317,318,319,320,321,322,323,324,325,326,327,328,329,330,331,332,333,334,335,336,337,338,339,340,341,342,343,344,345,346,347,348,349,350,351,352,353,354,355,356,357,358,359,360,361,362,363,364,365,366,367,368,369,370,371,372,373,374,375,376,377,378,379,380,381,382,383,384,385,386,387,388,389,390,391,392,393,394,395,396,397,398,399,400,401,402,403,404,405,406,407,408,409,410,411,412,413,414,415,416,417,418,419,420,421,422,423,424,425,426,427,428,429,430,431,432,433,434,435,436,437,438,439,440,441,442,443,444,445,446,447,448,449,450,451,452,453,454,455,456,457,458,459,460,461,462,463,464,465,466,467,468,469,470,471,472,473,474,475"/>
  <line x1="428" x2="513" y1="949" y2="949" class="net_4,5,6,7,8,9,10,11,12,13,14,15,16,17,18,19,20,21,22,23,24,25,26,27,28,29,30,31,32,33,34,35,36,37,38,39,40,41,42,43,44,45,46,47,48,49,50,51,52,53,54,55,56,57,58,59,60,61,62,63,64,65,66,67,68,69,70,71,72,73,74,75,76,77,78,79,80,81,82,83,84,85,86,87,88,89,90,91,92,93,94,95,96,97,98,99,100,101,102,103,104,105,106,107,108,109,110,111,112,113,114,115,116,117,118,119,120,121,122,123,124,125,126,127,128,129,130,131,132,133,134,135,136,137,138,139,140,141,142,143,144,145,146,147,148,149,150,151,152,153,154,155,156,157,158,159,160,161,162,163,164,165,166,167,168,169,170,171,172,173,174,175,176,177,178,179,180,181,182,183,184,185,186,187,188,189,190,191,192,193,194,195,196,197,198,199,200,201,202,203,204,205,206,207,208,209,210,211,212,213,214,215,216,217,218,219,220,221,222,223,224,225,226,227,228,229,230,231,232,233,234,235,236,237,238"/>
  <line x1="437.6666666666667" x2="523" y1="1006.5" y2="1006.5" class="net_482"/>
  <line x1="523" x2="523" y1="1006.5" y2="954" class="net_482"/>
  <line x1="131" x2="235" y1="97" y2="97" class="net_740,741"/>
  <line x1="235" x2="235" y1="97" y2="148" class="net_740,741"/>
  <circle cx="235" cy="97" r="2" style="fill:#000" class="net_740,741"/>
  <line x1="235" x2="248.33333333333334" y1="148" y2="148" class="net_740,741"/>
  <line x1="131" x2="513" y1="97" y2="97" class="net_740,741"/>
  <line x1="129" x2="258.33333333333337" y1="168" y2="168" class="net_478"/>
  <line x1="258.33333333333337" x2="258.33333333333337" y1="168" y2="153" class="net_478"/>
  <line x1="295" x2="295" y1="238" y2="118" class="net_x,x"/>
  <circle cx="295" cy="238" r="2" style="fill:#000" class="net_x,x"/>
  <line x1="295" x2="313.3333333333333" y1="118" y2="118" class="net_x,x"/>
  <line x1="295" x2="313.3333333333333" y1="238" y2="238" class="net_x,x"/>
  <line x1="295" x2="295" y1="238" y2="488.5" class="net_x,x"/>
  <line x1="295" x2="313.3333333333333" y1="488.5" y2="488.5" class="net_x,x"/>
  <line x1="268.33333333333337" x2="313.3333333333333" y1="138" y2="138" class="net_720,721"/>
  <line x1="271.66666666666663" x2="323.3333333333333" y1="190.5" y2="190.5" class="net_722"/>
  <line x1="323.3333333333333" x2="323.3333333333333" y1="190.5" y2="143" class="net_722"/>
  <line x1="131" x2="215" y1="303" y2="303" class="net_742,743"/>
  <line x1="215" x2="215" y1="303" y2="198" class="net_742,743"/>
  <circle cx="215" cy="303" r="2" style="fill:#000" class="net_742,743"/>
  <line x1="215" x2="249.66666666666666" y1="198" y2="198" class="net_742,743"/>
  <line x1="131" x2="248.33333333333334" y1="303" y2="303" class="net_742,743"/>
  <line x1="131" x2="215" y1="303" y2="303" class="net_742,743"/>
  <line x1="215" x2="215" y1="303" y2="661" class="net_742,743"/>
  <line x1="215" x2="314.6666666666667" y1="661" y2="661" class="net_742,743"/>
  <line x1="129" x2="258.33333333333337" y1="368" y2="368" class="net_477"/>
  <line x1="258.33333333333337" x2="258.33333333333337" y1="368" y2="308" class="net_477"/>
  <line x1="268.33333333333337" x2="285" y1="293" y2="293" class="net_725,726"/>
  <line x1="285" x2="285" y1="293" y2="258" class="net_725,726"/>
  <line x1="285" x2="313.3333333333333" y1="258" y2="258" class="net_725,726"/>
  <line x1="271.66666666666663" x2="323.3333333333333" y1="425.5" y2="425.5" class="net_727"/>
  <line x1="323.3333333333333" x2="323.3333333333333" y1="425.5" y2="263" class="net_727"/>
  <line x1="268.33333333333337" x2="313.3333333333333" y1="508.5" y2="508.5" class="net_730,731"/>
  <line x1="270" x2="323.3333333333333" y1="626" y2="626" class="net_732"/>
  <line x1="323.3333333333333" x2="323.3333333333333" y1="626" y2="513.5" class="net_732"/>
  <line x1="418.25" x2="488" y1="138" y2="138" class="net_723,724,728,729,733,734"/>
  <line x1="488" x2="488" y1="138" y2="117" class="net_723,724,728,729,733,734"/>
  <line x1="488" x2="513" y1="117" y2="117" class="net_723,724,728,729,733,734"/>
  <line x1="418.25" x2="523" y1="663.5" y2="663.5" class="net_735,736,737"/>
  <line x1="523" x2="523" y1="663.5" y2="122" class="net_735,736,737"/>
  <line x1="436.5" x2="513" y1="791" y2="791" class="net_240"/>
  <line x1="434.3333333333333" x2="513" y1="42" y2="42" class="net_476"/>
  <line x1="333.3333333333333" x2="412.25" y1="128" y2="128" class="net_723,724"/>
  <line x1="333.3333333333333" x2="350" y1="248" y2="248" class="net_728,729"/>
  <line x1="350" x2="350" y1="248" y2="148" class="net_728,729"/>
  <line x1="350" x2="412.25" y1="148" y2="148" class="net_728,729"/>
  <line x1="333.3333333333333" x2="360" y1="498.5" y2="498.5" class="net_733,734"/>
  <line x1="360" x2="360" y1="498.5" y2="168" class="net_733,734"/>
  <line x1="360" x2="412.25" y1="168" y2="168" class="net_733,734"/>
  <line x1="336.6666666666667" x2="412.25" y1="653.5" y2="653.5" class="net_735"/>
  <line x1="336.6666666666667" x2="350" y1="713.5" y2="713.5" class="net_736"/>
  <line x1="350" x2="350" y1="713.5" y2="673.5" class="net_736"/>
  <line x1="350" x2="412.25" y1="673.5" y2="673.5" class="net_736"/>
  <line x1="335" x2="360" y1="771" y2="771" class="net_737"/>
  <line x1="360" x2="360" y1="771" y2="693.5" class="net_737"/>
  <line x1="360" x2="412.25" y1="693.5" y2="693.5" class="net_737"/>
</svg>
