<svg xmlns="http://www.w3.org/2000/svg" xmlns:xlink="http://www.w3.org/1999/xlink" xmlns:s="https://github.com/nturley/netlistsvg" width="404" height="246">
  <style>svg {
    stroke:#000;
    fill:none;
  }
  text {
    fill:#000;
    stroke:none;
    font-size:10px;
    font-weight: bold;
    font-family: "Courier New", monospace;
  }
  .nodelabel {
    text-anchor: middle;
  }
  .inputPortLabel {
    text-anchor: end;
  }
  .splitjoinBody {
    fill:#000;
  }</style>
  <g s:type="and" transform="translate(232,69)" s:width="30" s:height="25" id="cell_$and$/tmp/tmppxxo8qql.v:4935$1333">
    <s:alias val="$and"/>
    <s:alias val="$logic_and"/>
    <s:alias val="$_AND_"/>
    <path d="M0,0 L0,25 L15,25 A15 12.5 0 0 0 15,0 Z" class="cell_$and$/tmp/tmppxxo8qql.v:4935$1333"/>
    <g s:x="0" s:y="5" s:pid="A"/>
    <g s:x="0" s:y="20" s:pid="B"/>
    <g s:x="30" s:y="12.5" s:pid="Y"/>
  </g>
  <g s:type="and" transform="translate(297,76.5)" s:width="30" s:height="25" id="cell_$and$/tmp/tmppxxo8qql.v:4935$1335">
    <s:alias val="$and"/>
    <s:alias val="$logic_and"/>
    <s:alias val="$_AND_"/>
    <path d="M0,0 L0,25 L15,25 A15 12.5 0 0 0 15,0 Z" class="cell_$and$/tmp/tmppxxo8qql.v:4935$1335"/>
    <g s:x="0" s:y="5" s:pid="A"/>
    <g s:x="0" s:y="20" s:pid="B"/>
    <g s:x="30" s:y="12.5" s:pid="Y"/>
  </g>
  <g s:type="not" transform="translate(143,64)" s:width="30" s:height="20" id="cell_$not$/tmp/tmppxxo8qql.v:4935$1332">
    <s:alias val="$_NOT_"/>
    <s:alias val="$not"/>
    <s:alias val="$logic_not"/>
    <path d="M0,0 L0,20 L20,10 Z" class="cell_$not$/tmp/tmppxxo8qql.v:4935$1332"/>
    <circle cx="23" cy="10" r="3" class="cell_$not$/tmp/tmppxxo8qql.v:4935$1332"/>
    <g s:x="0" s:y="10" s:pid="A"/>
    <g s:x="25" s:y="10" s:pid="Y"/>
  </g>
  <g s:type="not" transform="translate(232,194)" s:width="30" s:height="20" id="cell_$not$/tmp/tmppxxo8qql.v:4935$1334">
    <s:alias val="$_NOT_"/>
    <s:alias val="$not"/>
    <s:alias val="$logic_not"/>
    <path d="M0,0 L0,20 L20,10 Z" class="cell_$not$/tmp/tmppxxo8qql.v:4935$1334"/>
    <circle cx="23" cy="10" r="3" class="cell_$not$/tmp/tmppxxo8qql.v:4935$1334"/>
    <g s:x="0" s:y="10" s:pid="A"/>
    <g s:x="25" s:y="10" s:pid="Y"/>
  </g>
  <g s:type="inputExt" transform="translate(12,64)" s:width="30" s:height="20" id="cell_backend_busy">
    <text x="15" y="-4" class="nodelabel cell_backend_busy" s:attribute="ref">backend_busy</text>
    <s:alias val="$_inputExt_"/>
    <path d="M0,0 L0,20 L15,20 L30,10 L15,0 Z" class="cell_backend_busy"/>
    <g s:x="28" s:y="10" s:pid="Y"/>
  </g>
  <g s:type="inputExt" transform="translate(119,129)" s:width="30" s:height="20" id="cell_queue_empty">
    <text x="15" y="-4" class="nodelabel cell_queue_empty" s:attribute="ref">queue_empty</text>
    <s:alias val="$_inputExt_"/>
    <path d="M0,0 L0,20 L15,20 L30,10 L15,0 Z" class="cell_queue_empty"/>
    <g s:x="28" s:y="10" s:pid="Y"/>
  </g>
  <g s:type="inputExt" transform="translate(12,22)" s:width="30" s:height="20" id="cell_queue_full">
    <text x="15" y="-4" class="nodelabel cell_queue_full" s:attribute="ref">queue_full</text>
    <s:alias val="$_inputExt_"/>
    <path d="M0,0 L0,20 L15,20 L30,10 L15,0 Z" class="cell_queue_full"/>
    <g s:x="28" s:y="10" s:pid="Y"/>
  </g>
  <g s:type="inputExt" transform="translate(119,194)" s:width="30" s:height="20" id="cell_cmd_pipe_busy">
    <text x="15" y="-4" class="nodelabel cell_cmd_pipe_busy" s:attribute="ref">cmd_pipe_busy</text>
    <s:alias val="$_inputExt_"/>
    <path d="M0,0 L0,20 L15,20 L30,10 L15,0 Z" class="cell_cmd_pipe_busy"/>
    <g s:x="28" s:y="10" s:pid="Y"/>
  </g>
  <g s:type="outputExt" transform="translate(362,79)" s:width="30" s:height="20" id="cell_idle">
    <text x="15" y="-4" class="nodelabel cell_idle" s:attribute="ref">idle</text>
    <s:alias val="$_outputExt_"/>
    <path d="M30,0 L30,20 L15,20 L0,10 L15,0 Z" class="cell_idle"/>
    <g s:x="0" s:y="10" s:pid="A"/>
  </g>
  <g s:type="outputExt" transform="translate(362,214)" s:width="30" s:height="20" id="cell_busy">
    <text x="15" y="-4" class="nodelabel cell_busy" s:attribute="ref">busy</text>
    <s:alias val="$_outputExt_"/>
    <path d="M30,0 L30,20 L15,20 L0,10 L15,0 Z" class="cell_busy"/>
    <g s:x="0" s:y="10" s:pid="A"/>
  </g>
  <g s:type="outputExt" transform="translate(107,22)" s:width="30" s:height="20" id="cell_q_full">
    <text x="15" y="-4" class="nodelabel cell_q_full" s:attribute="ref">q_full</text>
    <s:alias val="$_outputExt_"/>
    <path d="M30,0 L30,20 L15,20 L0,10 L15,0 Z" class="cell_q_full"/>
    <g s:x="0" s:y="10" s:pid="A"/>
  </g>
  <line x1="168" x2="232" y1="74" y2="74" class="net_7"/>
  <line x1="147" x2="207" y1="139" y2="139" class="net_3"/>
  <line x1="207" x2="207" y1="139" y2="89" class="net_3"/>
  <line x1="207" x2="232" y1="89" y2="89" class="net_3"/>
  <line x1="262" x2="297" y1="81.5" y2="81.5" class="net_8"/>
  <line x1="257" x2="272" y1="204" y2="204" class="net_9"/>
  <line x1="272" x2="272" y1="204" y2="96.5" class="net_9"/>
  <line x1="272" x2="297" y1="96.5" y2="96.5" class="net_9"/>
  <line x1="40" x2="143" y1="74" y2="74" class="net_2"/>
  <line x1="40" x2="94" y1="74" y2="74" class="net_2"/>
  <line x1="94" x2="94" y1="74" y2="224" class="net_2"/>
  <circle cx="94" cy="74" r="2" style="fill:#000" class="net_2"/>
  <line x1="94" x2="362" y1="224" y2="224" class="net_2"/>
  <line x1="147" x2="232" y1="204" y2="204" class="net_5"/>
  <line x1="327" x2="362" y1="89" y2="89" class="net_6"/>
  <line x1="40" x2="107" y1="32" y2="32" class="net_4"/>
</svg>
