<svg xmlns="http://www.w3.org/2000/svg" xmlns:xlink="http://www.w3.org/1999/xlink" xmlns:s="https://github.com/nturley/netlistsvg" width="568" height="906">
  <style>svg {
    stroke:#000;
    fill:none;
  }
  text {
    fill:#000;
    stroke:none;
    font-size:10px;
    font-weight: bold;
    font-family: "Courier New", monospace;
  }
  .nodelabel {
    text-anchor: middle;
  }
  .inputPortLabel {
    text-anchor: end;
  }
  .splitjoinBody {
    fill:#000;
  }</style>
  <g s:type="generic" transform="translate(229,288.5)" s:width="30" s:height="40" id="cell_u_ctrl">
    <text x="15" y="-4" class="nodelabel cell_u_ctrl" s:attribute="ref">vec_ctrl</text>
    <rect width="30" height="220" s:generic="body" class="cell_u_ctrl"/>
    <g transform="translate(0,10)" s:x="0" s:y="10" s:pid="in0" id="port_u_ctrl~act_rd_gnt">
      <text x="-3" y="-4" class="inputPortLabel cell_u_ctrl">act_rd_gnt</text>
    </g>
    <g transform="translate(0,30)" s:x="0" s:y="10" s:pid="in0" id="port_u_ctrl~act_rd_rdata">
      <text x="-3" y="-4" class="inputPortLabel cell_u_ctrl">act_rd_rdata</text>
    </g>
    <g transform="translate(0,50)" s:x="0" s:y="10" s:pid="in0" id="port_u_ctrl~act_rd_rvalid">
      <text x="-3" y="-4" class="inputPortLabel cell_u_ctrl">act_rd_rvalid</text>
    </g>
    <g transform="translate(0,70)" s:x="0" s:y="10" s:pid="in0" id="port_u_ctrl~clk">
      <text x="-3" y="-4" class="inputPortLabel cell_u_ctrl">clk</text>
    </g>
    <g transform="translate(0,90)" s:x="0" s:y="10" s:pid="in0" id="port_u_ctrl~cmd">
      <text x="-3" y="-4" class="inputPortLabel cell_u_ctrl">cmd</text>
    </g>
    <g transform="translate(0,110)" s:x="0" s:y="10" s:pid="in0" id="port_u_ctrl~cmd_valid">
      <text x="-3" y="-4" class="inputPortLabel cell_u_ctrl">cmd_valid</text>
    </g>
    <g transform="translate(0,130)" s:x="0" s:y="10" s:pid="in0" id="port_u_ctrl~out_wr_gnt">
      <text x="-3" y="-4" class="inputPortLabel cell_u_ctrl">out_wr_gnt</text>
    </g>
    <g transform="translate(0,150)" s:x="0" s:y="10" s:pid="in0" id="port_u_ctrl~rst_n">
      <text x="-3" y="-4" class="inputPortLabel cell_u_ctrl">rst_n</text>
    </g>
    <g transform="translate(0,170)" s:x="0" s:y="10" s:pid="in0" id="port_u_ctrl~wt_rd_gnt">
      <text x="-3" y="-4" class="inputPortLabel cell_u_ctrl">wt_rd_gnt</text>
    </g>
    <g transform="translate(0,190)" s:x="0" s:y="10" s:pid="in0" id="port_u_ctrl~wt_rd_rdata">
      <text x="-3" y="-4" class="inputPortLabel cell_u_ctrl">wt_rd_rdata</text>
    </g>
    <g transform="translate(0,210)" s:x="0" s:y="10" s:pid="in0" id="port_u_ctrl~wt_rd_rvalid">
      <text x="-3" y="-4" class="inputPortLabel cell_u_ctrl">wt_rd_rvalid</text>
    </g>
    <g transform="translate(30,10)" s:x="30" s:y="10" s:pid="out0" id="port_u_ctrl~act_rd_addr">
      <text x="5" y="-4" style="fill:#000; stroke:none" class="cell_u_ctrl">act_rd_addr</text>
    </g>
    <g transform="translate(30,30)" s:x="30" s:y="10" s:pid="out0" id="port_u_ctrl~act_rd_req">
      <text x="5" y="-4" style="fill:#000; stroke:none" class="cell_u_ctrl">act_rd_req</text>
    </g>
    <g transform="translate(30,50)" s:x="30" s:y="10" s:pid="out0" id="port_u_ctrl~busy">
      <text x="5" y="-4" style="fill:#000; stroke:none" class="cell_u_ctrl">busy</text>
    </g>
    <g transform="translate(30,70)" s:x="30" s:y="10" s:pid="out0" id="port_u_ctrl~cmd_ready">
      <text x="5" y="-4" style="fill:#000; stroke:none" class="cell_u_ctrl">cmd_ready</text>
    </g>
    <g transform="translate(30,90)" s:x="30" s:y="10" s:pid="out0" id="port_u_ctrl~done">
      <text x="5" y="-4" style="fill:#000; stroke:none" class="cell_u_ctrl">done</text>
    </g>
    <g transform="translate(30,110)" s:x="30" s:y="10" s:pid="out0" id="port_u_ctrl~out_wr_addr">
      <text x="5" y="-4" style="fill:#000; stroke:none" class="cell_u_ctrl">out_wr_addr</text>
    </g>
    <g transform="translate(30,130)" s:x="30" s:y="10" s:pid="out0" id="port_u_ctrl~out_wr_data">
      <text x="5" y="-4" style="fill:#000; stroke:none" class="cell_u_ctrl">out_wr_data</text>
    </g>
    <g transform="translate(30,150)" s:x="30" s:y="10" s:pid="out0" id="port_u_ctrl~out_wr_req">
      <text x="5" y="-4" style="fill:#000; stroke:none" class="cell_u_ctrl">out_wr_req</text>
    </g>
    <g transform="translate(30,170)" s:x="30" s:y="10" s:pid="out0" id="port_u_ctrl~wt_rd_addr">
      <text x="5" y="-4" style="fill:#000; stroke:none" class="cell_u_ctrl">wt_rd_addr</text>
    </g>
    <g transform="translate(30,190)" s:x="30" s:y="10" s:pid="out0" id="port_u_ctrl~wt_rd_req">
      <text x="5" y="-4" style="fill:#000; stroke:none" class="cell_u_ctrl">wt_rd_req</text>
    </g>
  </g>
  <g s:type="inputExt" transform="translate(12,259)" s:width="30" s:height="20" id="cell_clk">
    <text x="15" y="-4" class="nodelabel cell_clk" s:attribute="ref">clk</text>
    <s:alias val="$_inputExt_"/>
    <path d="M0,0 L0,20 L15,20 L30,10 L15,0 Z" class="cell_clk"/>
    <g s:x="28" s:y="10" s:pid="Y"/>
  </g>
  <g s:type="inputExt" transform="translate(12,519)" s:width="30" s:height="20" id="cell_rst_n">
    <text x="15" y="-4" class="nodelabel cell_rst_n" s:attribute="ref">rst_n</text>
    <s:alias val="$_inputExt_"/>
    <path d="M0,0 L0,20 L15,20 L30,10 L15,0 Z" class="cell_rst_n"/>
    <g s:x="28" s:y="10" s:pid="Y"/>
  </g>
  <g s:type="inputExt" transform="translate(12,324)" s:width="30" s:height="20" id="cell_cmd">
    <text x="15" y="-4" class="nodelabel cell_cmd" s:attribute="ref">cmd</text>
    <s:alias val="$_inputExt_"/>
    <path d="M0,0 L0,20 L15,20 L30,10 L15,0 Z" class="cell_cmd"/>
    <g s:x="28" s:y="10" s:pid="Y"/>
  </g>
  <g s:type="inputExt" transform="translate(12,389)" s:width="30" s:height="20" id="cell_cmd_valid">
    <text x="15" y="-4" class="nodelabel cell_cmd_valid" s:attribute="ref">cmd_valid</text>
    <s:alias val="$_inputExt_"/>
    <path d="M0,0 L0,20 L15,20 L30,10 L15,0 Z" class="cell_cmd_valid"/>
    <g s:x="28" s:y="10" s:pid="Y"/>
  </g>
  <g s:type="outputExt" transform="translate(427,484)" s:width="30" s:height="20" id="cell_cmd_ready">
    <text x="15" y="-4" class="nodelabel cell_cmd_ready" s:attribute="ref">cmd_ready</text>
    <s:alias val="$_outputExt_"/>
    <path d="M30,0 L30,20 L15,20 L0,10 L15,0 Z" class="cell_cmd_ready"/>
    <g s:x="0" s:y="10" s:pid="A"/>
  </g>
  <g s:type="outputExt" transform="translate(427,289)" s:width="30" s:height="20" id="cell_act_rd_addr">
    <text x="15" y="-4" class="nodelabel cell_act_rd_addr" s:attribute="ref">act_rd_addr</text>
    <s:alias val="$_outputExt_"/>
    <path d="M30,0 L30,20 L15,20 L0,10 L15,0 Z" class="cell_act_rd_addr"/>
    <g s:x="0" s:y="10" s:pid="A"/>
  </g>
  <g s:type="outputExt" transform="translate(427,354)" s:width="30" s:height="20" id="cell_act_rd_req">
    <text x="15" y="-4" class="nodelabel cell_act_rd_req" s:attribute="ref">act_rd_req</text>
    <s:alias val="$_outputExt_"/>
    <path d="M30,0 L30,20 L15,20 L0,10 L15,0 Z" class="cell_act_rd_req"/>
    <g s:x="0" s:y="10" s:pid="A"/>
  </g>
  <g s:type="inputExt" transform="translate(12,64)" s:width="30" s:height="20" id="cell_act_rd_gnt">
    <text x="15" y="-4" class="nodelabel cell_act_rd_gnt" s:attribute="ref">act_rd_gnt</text>
    <s:alias val="$_inputExt_"/>
    <path d="M0,0 L0,20 L15,20 L30,10 L15,0 Z" class="cell_act_rd_gnt"/>
    <g s:x="28" s:y="10" s:pid="Y"/>
  </g>
  <g s:type="inputExt" transform="translate(12,129)" s:width="30" s:height="20" id="cell_act_rd_rdata">
    <text x="15" y="-4" class="nodelabel cell_act_rd_rdata" s:attribute="ref">act_rd_rdata</text>
    <s:alias val="$_inputExt_"/>
    <path d="M0,0 L0,20 L15,20 L30,10 L15,0 Z" class="cell_act_rd_rdata"/>
    <g s:x="28" s:y="10" s:pid="Y"/>
  </g>
  <g s:type="inputExt" transform="translate(12,194)" s:width="30" s:height="20" id="cell_act_rd_rvalid">
    <text x="15" y="-4" class="nodelabel cell_act_rd_rvalid" s:attribute="ref">act_rd_rvalid</text>
    <s:alias val="$_inputExt_"/>
    <path d="M0,0 L0,20 L15,20 L30,10 L15,0 Z" class="cell_act_rd_rvalid"/>
    <g s:x="28" s:y="10" s:pid="Y"/>
  </g>
  <g s:type="outputExt" transform="translate(427,809)" s:width="30" s:height="20" id="cell_wt_rd_addr">
    <text x="15" y="-4" class="nodelabel cell_wt_rd_addr" s:attribute="ref">wt_rd_addr</text>
    <s:alias val="$_outputExt_"/>
    <path d="M30,0 L30,20 L15,20 L0,10 L15,0 Z" class="cell_wt_rd_addr"/>
    <g s:x="0" s:y="10" s:pid="A"/>
  </g>
  <g s:type="outputExt" transform="translate(427,874)" s:width="30" s:height="20" id="cell_wt_rd_req">
    <text x="15" y="-4" class="nodelabel cell_wt_rd_req" s:attribute="ref">wt_rd_req</text>
    <s:alias val="$_outputExt_"/>
    <path d="M30,0 L30,20 L15,20 L0,10 L15,0 Z" class="cell_wt_rd_req"/>
    <g s:x="0" s:y="10" s:pid="A"/>
  </g>
  <g s:type="inputExt" transform="translate(12,584)" s:width="30" s:height="20" id="cell_wt_rd_gnt">
    <text x="15" y="-4" class="nodelabel cell_wt_rd_gnt" s:attribute="ref">wt_rd_gnt</text>
    <s:alias val="$_inputExt_"/>
    <path d="M0,0 L0,20 L15,20 L30,10 L15,0 Z" class="cell_wt_rd_gnt"/>
    <g s:x="28" s:y="10" s:pid="Y"/>
  </g>
  <g s:type="inputExt" transform="translate(12,649)" s:width="30" s:height="20" id="cell_wt_rd_rdata">
    <text x="15" y="-4" class="nodelabel cell_wt_rd_rdata" s:attribute="ref">wt_rd_rdata</text>
    <s:alias val="$_inputExt_"/>
    <path d="M0,0 L0,20 L15,20 L30,10 L15,0 Z" class="cell_wt_rd_rdata"/>
    <g s:x="28" s:y="10" s:pid="Y"/>
  </g>
  <g s:type="inputExt" transform="translate(12,714)" s:width="30" s:height="20" id="cell_wt_rd_rvalid">
    <text x="15" y="-4" class="nodelabel cell_wt_rd_rvalid" s:attribute="ref">wt_rd_rvalid</text>
    <s:alias val="$_inputExt_"/>
    <path d="M0,0 L0,20 L15,20 L30,10 L15,0 Z" class="cell_wt_rd_rvalid"/>
    <g s:x="28" s:y="10" s:pid="Y"/>
  </g>
  <g s:type="outputExt" transform="translate(427,614)" s:width="30" s:height="20" id="cell_out_wr_addr">
    <text x="15" y="-4" class="nodelabel cell_out_wr_addr" s:attribute="ref">out_wr_addr</text>
    <s:alias val="$_outputExt_"/>
    <path d="M30,0 L30,20 L15,20 L0,10 L15,0 Z" class="cell_out_wr_addr"/>
    <g s:x="0" s:y="10" s:pid="A"/>
  </g>
  <g s:type="outputExt" transform="translate(427,679)" s:width="30" s:height="20" id="cell_out_wr_data">
    <text x="15" y="-4" class="nodelabel cell_out_wr_data" s:attribute="ref">out_wr_data</text>
    <s:alias val="$_outputExt_"/>
    <path d="M30,0 L30,20 L15,20 L0,10 L15,0 Z" class="cell_out_wr_data"/>
    <g s:x="0" s:y="10" s:pid="A"/>
  </g>
  <g s:type="outputExt" transform="translate(427,744)" s:width="30" s:height="20" id="cell_out_wr_req">
    <text x="15" y="-4" class="nodelabel cell_out_wr_req" s:attribute="ref">out_wr_req</text>
    <s:alias val="$_outputExt_"/>
    <path d="M30,0 L30,20 L15,20 L0,10 L15,0 Z" class="cell_out_wr_req"/>
    <g s:x="0" s:y="10" s:pid="A"/>
  </g>
  <g s:type="inputExt" transform="translate(12,454)" s:width="30" s:height="20" id="cell_out_wr_gnt">
    <text x="15" y="-4" class="nodelabel cell_out_wr_gnt" s:attribute="ref">out_wr_gnt</text>
    <s:alias val="$_inputExt_"/>
    <path d="M0,0 L0,20 L15,20 L30,10 L15,0 Z" class="cell_out_wr_gnt"/>
    <g s:x="28" s:y="10" s:pid="Y"/>
  </g>
  <g s:type="outputExt" transform="translate(484,22)" s:width="30" s:height="20" id="cell_bias_rd_addr">
    <text x="15" y="-4" class="nodelabel cell_bias_rd_addr" s:attribute="ref">bias_rd_addr</text>
    <s:alias val="$_outputExt_"/>
    <path d="M30,0 L30,20 L15,20 L0,10 L15,0 Z" class="cell_bias_rd_addr"/>
    <g s:x="0" s:y="10" s:pid="A"/>
  </g>
  <g s:type="outputExt" transform="translate(341,22)" s:width="30" s:height="20" id="cell_bias_rd_req">
    <text x="15" y="-4" class="nodelabel cell_bias_rd_req" s:attribute="ref">bias_rd_req</text>
    <s:alias val="$_outputExt_"/>
    <path d="M30,0 L30,20 L15,20 L0,10 L15,0 Z" class="cell_bias_rd_req"/>
    <g s:x="0" s:y="10" s:pid="A"/>
  </g>
  <g s:type="inputExt" transform="translate(12,22)" s:width="30" s:height="20" id="cell_bias_rd_gnt">
    <text x="15" y="-4" class="nodelabel cell_bias_rd_gnt" s:attribute="ref">bias_rd_gnt</text>
    <s:alias val="$_inputExt_"/>
    <path d="M0,0 L0,20 L15,20 L30,10 L15,0 Z" class="cell_bias_rd_gnt"/>
    <g s:x="28" s:y="10" s:pid="Y"/>
  </g>
  <g s:type="inputExt" transform="translate(90,22)" s:width="30" s:height="20" id="cell_bias_rd_rdata">
    <text x="15" y="-4" class="nodelabel cell_bias_rd_rdata" s:attribute="ref">bias_rd_rdata</text>
    <s:alias val="$_inputExt_"/>
    <path d="M0,0 L0,20 L15,20 L30,10 L15,0 Z" class="cell_bias_rd_rdata"/>
    <g s:x="28" s:y="10" s:pid="Y"/>
  </g>
  <g s:type="inputExt" transform="translate(180,22)" s:width="30" s:height="20" id="cell_bias_rd_rvalid">
    <text x="15" y="-4" class="nodelabel cell_bias_rd_rvalid" s:attribute="ref">bias_rd_rvalid</text>
    <s:alias val="$_inputExt_"/>
    <path d="M0,0 L0,20 L15,20 L30,10 L15,0 Z" class="cell_bias_rd_rvalid"/>
    <g s:x="28" s:y="10" s:pid="Y"/>
  </g>
  <g s:type="outputExt" transform="translate(427,549)" s:width="30" s:height="20" id="cell_done">
    <text x="15" y="-4" class="nodelabel cell_done" s:attribute="ref">done</text>
    <s:alias val="$_outputExt_"/>
    <path d="M30,0 L30,20 L15,20 L0,10 L15,0 Z" class="cell_done"/>
    <g s:x="0" s:y="10" s:pid="A"/>
  </g>
  <g s:type="outputExt" transform="translate(427,419)" s:width="30" s:height="20" id="cell_busy">
    <text x="15" y="-4" class="nodelabel cell_busy" s:attribute="ref">busy</text>
    <s:alias val="$_outputExt_"/>
    <path d="M30,0 L30,20 L15,20 L0,10 L15,0 Z" class="cell_busy"/>
    <g s:x="0" s:y="10" s:pid="A"/>
  </g>
  <g s:type="constant" transform="translate(419,22)" s:width="30" s:height="20" id="cell_0000000000000000">
    <text x="15" y="-4" class="nodelabel cell_0000000000000000" s:attribute="ref">0x0</text>
    <s:alias val="$_constant_"/>
    <rect width="30" height="20" class="cell_0000000000000000"/>
    <g s:x="30" s:y="10" s:pid="Y"/>
  </g>
  <g s:type="constant" transform="translate(276,22)" s:width="30" s:height="20" id="cell_0">
    <text x="15" y="-4" class="nodelabel cell_0" s:attribute="ref">0</text>
    <s:alias val="$_constant_"/>
    <rect width="30" height="20" class="cell_0"/>
    <g s:x="30" s:y="10" s:pid="Y"/>
  </g>
  <line x1="40" x2="140" y1="74" y2="74" class="net_258"/>
  <line x1="140" x2="140" y1="74" y2="299" class="net_258"/>
  <line x1="140" x2="229" y1="299" y2="299" class="net_258"/>
  <line x1="40" x2="130" y1="139" y2="139" class="net_259,260,261,262,263,264,265,266"/>
  <line x1="130" x2="130" y1="139" y2="319" class="net_259,260,261,262,263,264,265,266"/>
  <line x1="130" x2="229" y1="319" y2="319" class="net_259,260,261,262,263,264,265,266"/>
  <line x1="40" x2="120" y1="204" y2="204" class="net_267"/>
  <line x1="120" x2="120" y1="204" y2="339" class="net_267"/>
  <line x1="120" x2="229" y1="339" y2="339" class="net_267"/>
  <line x1="40" x2="110" y1="269" y2="269" class="net_2"/>
  <line x1="110" x2="110" y1="269" y2="359" class="net_2"/>
  <line x1="110" x2="229" y1="359" y2="359" class="net_2"/>
  <line x1="40" x2="100" y1="334" y2="334" class="net_4,5,6,7,8,9,10,11,12,13,14,15,16,17,18,19,20,21,22,23,24,25,26,27,28,29,30,31,32,33,34,35,36,37,38,39,40,41,42,43,44,45,46,47,48,49,50,51,52,53,54,55,56,57,58,59,60,61,62,63,64,65,66,67,68,69,70,71,72,73,74,75,76,77,78,79,80,81,82,83,84,85,86,87,88,89,90,91,92,93,94,95,96,97,98,99,100,101,102,103,104,105,106,107,108,109,110,111,112,113,114,115,116,117,118,119,120,121,122,123,124,125,126,127,128,129,130,131,132,133,134,135,136,137,138,139,140,141,142,143,144,145,146,147,148,149,150,151,152,153,154,155,156,157,158,159,160,161,162,163,164,165,166,167,168,169,170,171,172,173,174,175,176,177,178,179,180,181,182,183,184,185,186,187,188,189,190,191,192,193,194,195,196,197,198,199,200,201,202,203,204,205,206,207,208,209,210,211,212,213,214,215,216,217,218,219,220,221,222,223,224,225,226,227,228,229,230,231,232,233,234,235,236,237,238"/>
  <line x1="100" x2="100" y1="334" y2="379" class="net_4,5,6,7,8,9,10,11,12,13,14,15,16,17,18,19,20,21,22,23,24,25,26,27,28,29,30,31,32,33,34,35,36,37,38,39,40,41,42,43,44,45,46,47,48,49,50,51,52,53,54,55,56,57,58,59,60,61,62,63,64,65,66,67,68,69,70,71,72,73,74,75,76,77,78,79,80,81,82,83,84,85,86,87,88,89,90,91,92,93,94,95,96,97,98,99,100,101,102,103,104,105,106,107,108,109,110,111,112,113,114,115,116,117,118,119,120,121,122,123,124,125,126,127,128,129,130,131,132,133,134,135,136,137,138,139,140,141,142,143,144,145,146,147,148,149,150,151,152,153,154,155,156,157,158,159,160,161,162,163,164,165,166,167,168,169,170,171,172,173,174,175,176,177,178,179,180,181,182,183,184,185,186,187,188,189,190,191,192,193,194,195,196,197,198,199,200,201,202,203,204,205,206,207,208,209,210,211,212,213,214,215,216,217,218,219,220,221,222,223,224,225,226,227,228,229,230,231,232,233,234,235,236,237,238"/>
  <line x1="100" x2="229" y1="379" y2="379" class="net_4,5,6,7,8,9,10,11,12,13,14,15,16,17,18,19,20,21,22,23,24,25,26,27,28,29,30,31,32,33,34,35,36,37,38,39,40,41,42,43,44,45,46,47,48,49,50,51,52,53,54,55,56,57,58,59,60,61,62,63,64,65,66,67,68,69,70,71,72,73,74,75,76,77,78,79,80,81,82,83,84,85,86,87,88,89,90,91,92,93,94,95,96,97,98,99,100,101,102,103,104,105,106,107,108,109,110,111,112,113,114,115,116,117,118,119,120,121,122,123,124,125,126,127,128,129,130,131,132,133,134,135,136,137,138,139,140,141,142,143,144,145,146,147,148,149,150,151,152,153,154,155,156,157,158,159,160,161,162,163,164,165,166,167,168,169,170,171,172,173,174,175,176,177,178,179,180,181,182,183,184,185,186,187,188,189,190,191,192,193,194,195,196,197,198,199,200,201,202,203,204,205,206,207,208,209,210,211,212,213,214,215,216,217,218,219,220,221,222,223,224,225,226,227,228,229,230,231,232,233,234,235,236,237,238"/>
  <line x1="40" x2="229" y1="399" y2="399" class="net_239"/>
  <line x1="40" x2="100" y1="464" y2="464" class="net_320"/>
  <line x1="100" x2="100" y1="464" y2="419" class="net_320"/>
  <line x1="100" x2="229" y1="419" y2="419" class="net_320"/>
  <line x1="40" x2="110" y1="529" y2="529" class="net_3"/>
  <line x1="110" x2="110" y1="529" y2="439" class="net_3"/>
  <line x1="110" x2="229" y1="439" y2="439" class="net_3"/>
  <line x1="40" x2="120" y1="594" y2="594" class="net_285"/>
  <line x1="120" x2="120" y1="594" y2="459" class="net_285"/>
  <line x1="120" x2="229" y1="459" y2="459" class="net_285"/>
  <line x1="40" x2="130" y1="659" y2="659" class="net_286,287,288,289,290,291,292,293"/>
  <line x1="130" x2="130" y1="659" y2="479" class="net_286,287,288,289,290,291,292,293"/>
  <line x1="130" x2="229" y1="479" y2="479" class="net_286,287,288,289,290,291,292,293"/>
  <line x1="40" x2="140" y1="724" y2="724" class="net_294"/>
  <line x1="140" x2="140" y1="724" y2="499" class="net_294"/>
  <line x1="140" x2="229" y1="499" y2="499" class="net_294"/>
  <line x1="260" x2="397" y1="359" y2="359" class="net_240"/>
  <line x1="397" x2="397" y1="359" y2="494" class="net_240"/>
  <line x1="397" x2="427" y1="494" y2="494" class="net_240"/>
  <line x1="260" x2="427" y1="299" y2="299" class="net_241,242,243,244,245,246,247,248,249,250,251,252,253,254,255,256"/>
  <line x1="260" x2="417" y1="319" y2="319" class="net_257"/>
  <line x1="417" x2="417" y1="319" y2="364" class="net_257"/>
  <line x1="417" x2="427" y1="364" y2="364" class="net_257"/>
  <line x1="260" x2="347" y1="459" y2="459" class="net_268,269,270,271,272,273,274,275,276,277,278,279,280,281,282,283"/>
  <line x1="347" x2="347" y1="459" y2="819" class="net_268,269,270,271,272,273,274,275,276,277,278,279,280,281,282,283"/>
  <line x1="347" x2="427" y1="819" y2="819" class="net_268,269,270,271,272,273,274,275,276,277,278,279,280,281,282,283"/>
  <line x1="260" x2="337" y1="479" y2="479" class="net_284"/>
  <line x1="337" x2="337" y1="479" y2="884" class="net_284"/>
  <line x1="337" x2="427" y1="884" y2="884" class="net_284"/>
  <line x1="260" x2="377" y1="399" y2="399" class="net_295,296,297,298,299,300,301,302,303,304,305,306,307,308,309,310"/>
  <line x1="377" x2="377" y1="399" y2="624" class="net_295,296,297,298,299,300,301,302,303,304,305,306,307,308,309,310"/>
  <line x1="377" x2="427" y1="624" y2="624" class="net_295,296,297,298,299,300,301,302,303,304,305,306,307,308,309,310"/>
  <line x1="260" x2="367" y1="419" y2="419" class="net_311,312,313,314,315,316,317,318"/>
  <line x1="367" x2="367" y1="419" y2="689" class="net_311,312,313,314,315,316,317,318"/>
  <line x1="367" x2="427" y1="689" y2="689" class="net_311,312,313,314,315,316,317,318"/>
  <line x1="260" x2="357" y1="439" y2="439" class="net_319"/>
  <line x1="357" x2="357" y1="439" y2="754" class="net_319"/>
  <line x1="357" x2="427" y1="754" y2="754" class="net_319"/>
  <line x1="449" x2="484" y1="32" y2="32" class="net_333,334,335,336,337,338,339,340,341,342,343,344,345,346,347,348"/>
  <line x1="306" x2="341" y1="32" y2="32" class="net_349"/>
  <line x1="260" x2="387" y1="379" y2="379" class="net_331"/>
  <line x1="387" x2="387" y1="379" y2="559" class="net_331"/>
  <line x1="387" x2="427" y1="559" y2="559" class="net_331"/>
  <line x1="260" x2="407" y1="339" y2="339" class="net_332"/>
  <line x1="407" x2="407" y1="339" y2="429" class="net_332"/>
  <line x1="407" x2="427" y1="429" y2="429" class="net_332"/>
</svg>
