<svg xmlns="http://www.w3.org/2000/svg" xmlns:xlink="http://www.w3.org/1999/xlink" xmlns:s="https://github.com/nturley/netlistsvg" width="689" height="532.5">
  <style>svg {
    stroke:#000;
    fill:none;
  }
  text {
    fill:#000;
    stroke:none;
    font-size:10px;
    font-weight: bold;
    font-family: "Courier New", monospace;
  }
  .nodelabel {
    text-anchor: middle;
  }
  .inputPortLabel {
    text-anchor: end;
  }
  .splitjoinBody {
    fill:#000;
  }</style>
  <g s:type="and" transform="translate(281.6666666666667,340.5)" s:width="30" s:height="25" id="cell_$and$/tmp/tmp5jmj_zu6.v:943$258">
    <s:alias val="$and"/>
    <s:alias val="$logic_and"/>
    <s:alias val="$_AND_"/>
    <path d="M0,0 L0,25 L15,25 A15 12.5 0 0 0 15,0 Z" class="cell_$and$/tmp/tmp5jmj_zu6.v:943$258"/>
    <g s:x="0" s:y="5" s:pid="A"/>
    <g s:x="0" s:y="20" s:pid="B"/>
    <g s:x="30" s:y="12.5" s:pid="Y"/>
  </g>
  <g s:type="and" transform="translate(546,324.5)" s:width="30" s:height="25" id="cell_$and$/tmp/tmp5jmj_zu6.v:945$260">
    <s:alias val="$and"/>
    <s:alias val="$logic_and"/>
    <s:alias val="$_AND_"/>
    <path d="M0,0 L0,25 L15,25 A15 12.5 0 0 0 15,0 Z" class="cell_$and$/tmp/tmp5jmj_zu6.v:945$260"/>
    <g s:x="0" s:y="5" s:pid="A"/>
    <g s:x="0" s:y="20" s:pid="B"/>
    <g s:x="30" s:y="12.5" s:pid="Y"/>
  </g>
  <g s:type="and" transform="translate(546,389.5)" s:width="30" s:height="25" id="cell_$and$/tmp/tmp5jmj_zu6.v:946$262">
    <s:alias val="$and"/>
    <s:alias val="$logic_and"/>
    <s:alias val="$_AND_"/>
    <path d="M0,0 L0,25 L15,25 A15 12.5 0 0 0 15,0 Z" class="cell_$and$/tmp/tmp5jmj_zu6.v:946$262"/>
    <g s:x="0" s:y="5" s:pid="A"/>
    <g s:x="0" s:y="20" s:pid="B"/>
    <g s:x="30" s:y="12.5" s:pid="Y"/>
  </g>
  <g s:type="and" transform="translate(168,259.5)" s:width="30" s:height="25" id="cell_$and$/tmp/tmp5jmj_zu6.v:966$265">
    <s:alias val="$and"/>
    <s:alias val="$logic_and"/>
    <s:alias val="$_AND_"/>
    <path d="M0,0 L0,25 L15,25 A15 12.5 0 0 0 15,0 Z" class="cell_$and$/tmp/tmp5jmj_zu6.v:966$265"/>
    <g s:x="0" s:y="5" s:pid="A"/>
    <g s:x="0" s:y="20" s:pid="B"/>
    <g s:x="30" s:y="12.5" s:pid="Y"/>
  </g>
  <g s:type="and" transform="translate(546,84.5)" s:width="30" s:height="25" id="cell_$and$/tmp/tmp5jmj_zu6.v:968$266">
    <s:alias val="$and"/>
    <s:alias val="$logic_and"/>
    <s:alias val="$_AND_"/>
    <path d="M0,0 L0,25 L15,25 A15 12.5 0 0 0 15,0 Z" class="cell_$and$/tmp/tmp5jmj_zu6.v:968$266"/>
    <g s:x="0" s:y="5" s:pid="A"/>
    <g s:x="0" s:y="20" s:pid="B"/>
    <g s:x="30" s:y="12.5" s:pid="Y"/>
  </g>
  <g s:type="and" transform="translate(546,19.5)" s:width="30" s:height="25" id="cell_$and$/tmp/tmp5jmj_zu6.v:970$268">
    <s:alias val="$and"/>
    <s:alias val="$logic_and"/>
    <s:alias val="$_AND_"/>
    <path d="M0,0 L0,25 L15,25 A15 12.5 0 0 0 15,0 Z" class="cell_$and$/tmp/tmp5jmj_zu6.v:970$268"/>
    <g s:x="0" s:y="5" s:pid="A"/>
    <g s:x="0" s:y="20" s:pid="B"/>
    <g s:x="30" s:y="12.5" s:pid="Y"/>
  </g>
  <g s:type="not" transform="translate(95,319.5)" s:width="30" s:height="20" id="cell_$not$/tmp/tmp5jmj_zu6.v:940$256">
    <s:alias val="$_NOT_"/>
    <s:alias val="$not"/>
    <s:alias val="$logic_not"/>
    <path d="M0,0 L0,20 L20,10 Z" class="cell_$not$/tmp/tmp5jmj_zu6.v:940$256"/>
    <circle cx="23" cy="10" r="3" class="cell_$not$/tmp/tmp5jmj_zu6.v:940$256"/>
    <g s:x="0" s:y="10" s:pid="A"/>
    <g s:x="25" s:y="10" s:pid="Y"/>
  </g>
  <g s:type="not" transform="translate(446.5,29.5)" s:width="30" s:height="20" id="cell_$not$/tmp/tmp5jmj_zu6.v:970$267">
    <s:alias val="$_NOT_"/>
    <s:alias val="$not"/>
    <s:alias val="$logic_not"/>
    <path d="M0,0 L0,20 L20,10 Z" class="cell_$not$/tmp/tmp5jmj_zu6.v:970$267"/>
    <circle cx="23" cy="10" r="3" class="cell_$not$/tmp/tmp5jmj_zu6.v:970$267"/>
    <g s:x="0" s:y="10" s:pid="A"/>
    <g s:x="25" s:y="10" s:pid="Y"/>
  </g>
  <g s:type="generic" transform="translate(274,94)" s:width="30" s:height="40" id="cell_$procdff$1437">
    <text x="15" y="-4" class="nodelabel cell_$procdff$1437" s:attribute="ref">$adff</text>
    <rect width="30" height="60" s:generic="body" class="cell_$procdff$1437"/>
    <g transform="translate(0,10)" s:x="0" s:y="10" s:pid="in0" id="port_$procdff$1437~ARST">
      <text x="-3" y="-4" class="inputPortLabel cell_$procdff$1437">ARST</text>
    </g>
    <g transform="translate(0,30)" s:x="0" s:y="10" s:pid="in0" id="port_$procdff$1437~CLK">
      <text x="-3" y="-4" class="inputPortLabel cell_$procdff$1437">CLK</text>
    </g>
    <g transform="translate(0,50)" s:x="0" s:y="10" s:pid="in0" id="port_$procdff$1437~D">
      <text x="-3" y="-4" class="inputPortLabel cell_$procdff$1437">D</text>
    </g>
    <g transform="translate(30,10)" s:x="30" s:y="10" s:pid="out0" id="port_$procdff$1437~Q">
      <text x="5" y="-4" style="fill:#000; stroke:none" class="cell_$procdff$1437">Q</text>
    </g>
  </g>
  <g s:type="mux" transform="translate(285,460.5)" s:width="20" s:height="40" id="cell_$ternary$/tmp/tmp5jmj_zu6.v:941$257">
    <s:alias val="$pmux"/>
    <s:alias val="$mux"/>
    <s:alias val="$_MUX_"/>
    <path d="M0,0 L20,10 L20,30 L0,40 Z" class="cell_$ternary$/tmp/tmp5jmj_zu6.v:941$257"/>
    <g s:x="0" s:y="10" s:pid="A"/>
    <g s:x="0" s:y="30" s:pid="B"/>
    <g s:x="10" s:y="35" s:pid="S"/>
    <g s:x="20" s:y="20" s:pid="Y"/>
  </g>
  <g s:type="mux" transform="translate(98.33333333333333,259.5)" s:width="20" s:height="40" id="cell_$ternary$/tmp/tmp5jmj_zu6.v:944$259">
    <s:alias val="$pmux"/>
    <s:alias val="$mux"/>
    <s:alias val="$_MUX_"/>
    <path d="M0,0 L20,10 L20,30 L0,40 Z" class="cell_$ternary$/tmp/tmp5jmj_zu6.v:944$259"/>
    <g s:x="0" s:y="10" s:pid="A"/>
    <g s:x="0" s:y="30" s:pid="B"/>
    <g s:x="10" s:y="35" s:pid="S"/>
    <g s:x="20" s:y="20" s:pid="Y"/>
  </g>
  <g s:type="generic" transform="translate(443,196.5)" s:width="30" s:height="40" id="cell_u_sram">
    <text x="15" y="-4" class="nodelabel cell_u_sram" s:attribute="ref">$paramod$6886fcf0cbb890dea5c1746e5e0cb61267de4fca\npu_local_mem_wrap</text>
    <rect width="30" height="120" s:generic="body" class="cell_u_sram"/>
    <g transform="translate(0,10)" s:x="0" s:y="10" s:pid="in0" id="port_u_sram~addr">
      <text x="-3" y="-4" class="inputPortLabel cell_u_sram">addr</text>
    </g>
    <g transform="translate(0,30)" s:x="0" s:y="10" s:pid="in0" id="port_u_sram~clk">
      <text x="-3" y="-4" class="inputPortLabel cell_u_sram">clk</text>
    </g>
    <g transform="translate(0,50)" s:x="0" s:y="10" s:pid="in0" id="port_u_sram~req">
      <text x="-3" y="-4" class="inputPortLabel cell_u_sram">req</text>
    </g>
    <g transform="translate(0,70)" s:x="0" s:y="10" s:pid="in0" id="port_u_sram~rst_n">
      <text x="-3" y="-4" class="inputPortLabel cell_u_sram">rst_n</text>
    </g>
    <g transform="translate(0,90)" s:x="0" s:y="10" s:pid="in0" id="port_u_sram~wdata">
      <text x="-3" y="-4" class="inputPortLabel cell_u_sram">wdata</text>
    </g>
    <g transform="translate(0,110)" s:x="0" s:y="10" s:pid="in0" id="port_u_sram~we">
      <text x="-3" y="-4" class="inputPortLabel cell_u_sram">we</text>
    </g>
    <g transform="translate(30,10)" s:x="30" s:y="10" s:pid="out0" id="port_u_sram~gnt">
      <text x="5" y="-4" style="fill:#000; stroke:none" class="cell_u_sram">gnt</text>
    </g>
    <g transform="translate(30,30)" s:x="30" s:y="10" s:pid="out0" id="port_u_sram~rdata">
      <text x="5" y="-4" style="fill:#000; stroke:none" class="cell_u_sram">rdata</text>
    </g>
    <g transform="translate(30,50)" s:x="30" s:y="10" s:pid="out0" id="port_u_sram~rvalid">
      <text x="5" y="-4" style="fill:#000; stroke:none" class="cell_u_sram">rvalid</text>
    </g>
  </g>
  <g s:type="inputExt" transform="translate(160,63)" s:width="30" s:height="20" id="cell_clk">
    <text x="15" y="-4" class="nodelabel cell_clk" s:attribute="ref">clk</text>
    <s:alias val="$_inputExt_"/>
    <path d="M0,0 L0,20 L15,20 L30,10 L15,0 Z" class="cell_clk"/>
    <g s:x="28" s:y="10" s:pid="Y"/>
  </g>
  <g s:type="inputExt" transform="translate(160,204.5)" s:width="30" s:height="20" id="cell_rst_n">
    <text x="15" y="-4" class="nodelabel cell_rst_n" s:attribute="ref">rst_n</text>
    <s:alias val="$_inputExt_"/>
    <path d="M0,0 L0,20 L15,20 L30,10 L15,0 Z" class="cell_rst_n"/>
    <g s:x="28" s:y="10" s:pid="Y"/>
  </g>
  <g s:type="inputExt" transform="translate(160,415.5)" s:width="30" s:height="20" id="cell_host_addr">
    <text x="15" y="-4" class="nodelabel cell_host_addr" s:attribute="ref">host_addr</text>
    <s:alias val="$_inputExt_"/>
    <path d="M0,0 L0,20 L15,20 L30,10 L15,0 Z" class="cell_host_addr"/>
    <g s:x="28" s:y="10" s:pid="Y"/>
  </g>
  <g s:type="inputExt" transform="translate(274,277)" s:width="30" s:height="20" id="cell_host_wdata">
    <text x="15" y="-4" class="nodelabel cell_host_wdata" s:attribute="ref">host_wdata</text>
    <s:alias val="$_inputExt_"/>
    <path d="M0,0 L0,20 L15,20 L30,10 L15,0 Z" class="cell_host_wdata"/>
    <g s:x="28" s:y="10" s:pid="Y"/>
  </g>
  <g s:type="inputExt" transform="translate(160,350.5)" s:width="30" s:height="20" id="cell_host_we">
    <text x="15" y="-4" class="nodelabel cell_host_we" s:attribute="ref">host_we</text>
    <s:alias val="$_inputExt_"/>
    <path d="M0,0 L0,20 L15,20 L30,10 L15,0 Z" class="cell_host_we"/>
    <g s:x="28" s:y="10" s:pid="Y"/>
  </g>
  <g s:type="inputExt" transform="translate(12,259.5)" s:width="30" s:height="20" id="cell_host_req">
    <text x="15" y="-4" class="nodelabel cell_host_req" s:attribute="ref">host_req</text>
    <s:alias val="$_inputExt_"/>
    <path d="M0,0 L0,20 L15,20 L30,10 L15,0 Z" class="cell_host_req"/>
    <g s:x="28" s:y="10" s:pid="Y"/>
  </g>
  <g s:type="outputExt" transform="translate(611,327)" s:width="30" s:height="20" id="cell_host_gnt">
    <text x="15" y="-4" class="nodelabel cell_host_gnt" s:attribute="ref">host_gnt</text>
    <s:alias val="$_outputExt_"/>
    <path d="M30,0 L30,20 L15,20 L0,10 L15,0 Z" class="cell_host_gnt"/>
    <g s:x="0" s:y="10" s:pid="A"/>
  </g>
  <g s:type="outputExt" transform="translate(611,217)" s:width="30" s:height="20" id="cell_host_rdata">
    <text x="15" y="-4" class="nodelabel cell_host_rdata" s:attribute="ref">host_rdata</text>
    <s:alias val="$_outputExt_"/>
    <path d="M30,0 L30,20 L15,20 L0,10 L15,0 Z" class="cell_host_rdata"/>
    <g s:x="0" s:y="10" s:pid="A"/>
  </g>
  <g s:type="outputExt" transform="translate(611,87)" s:width="30" s:height="20" id="cell_host_rvalid">
    <text x="15" y="-4" class="nodelabel cell_host_rvalid" s:attribute="ref">host_rvalid</text>
    <s:alias val="$_outputExt_"/>
    <path d="M30,0 L30,20 L15,20 L0,10 L15,0 Z" class="cell_host_rvalid"/>
    <g s:x="0" s:y="10" s:pid="A"/>
  </g>
  <g s:type="inputExt" transform="translate(160,480.5)" s:width="30" s:height="20" id="cell_be_addr">
    <text x="15" y="-4" class="nodelabel cell_be_addr" s:attribute="ref">be_addr</text>
    <s:alias val="$_inputExt_"/>
    <path d="M0,0 L0,20 L15,20 L30,10 L15,0 Z" class="cell_be_addr"/>
    <g s:x="28" s:y="10" s:pid="Y"/>
  </g>
  <g s:type="inputExt" transform="translate(12,500.5)" s:width="30" s:height="20" id="cell_be_req">
    <text x="15" y="-4" class="nodelabel cell_be_req" s:attribute="ref">be_req</text>
    <s:alias val="$_inputExt_"/>
    <path d="M0,0 L0,20 L15,20 L30,10 L15,0 Z" class="cell_be_req"/>
    <g s:x="28" s:y="10" s:pid="Y"/>
  </g>
  <g s:type="outputExt" transform="translate(611,392)" s:width="30" s:height="20" id="cell_be_gnt">
    <text x="15" y="-4" class="nodelabel cell_be_gnt" s:attribute="ref">be_gnt</text>
    <s:alias val="$_outputExt_"/>
    <path d="M30,0 L30,20 L15,20 L0,10 L15,0 Z" class="cell_be_gnt"/>
    <g s:x="0" s:y="10" s:pid="A"/>
  </g>
  <g s:type="outputExt" transform="translate(611,152)" s:width="30" s:height="20" id="cell_be_rdata">
    <text x="15" y="-4" class="nodelabel cell_be_rdata" s:attribute="ref">be_rdata</text>
    <s:alias val="$_outputExt_"/>
    <path d="M30,0 L30,20 L15,20 L0,10 L15,0 Z" class="cell_be_rdata"/>
    <g s:x="0" s:y="10" s:pid="A"/>
  </g>
  <g s:type="outputExt" transform="translate(611,22)" s:width="30" s:height="20" id="cell_be_rvalid">
    <text x="15" y="-4" class="nodelabel cell_be_rvalid" s:attribute="ref">be_rvalid</text>
    <s:alias val="$_outputExt_"/>
    <path d="M30,0 L30,20 L15,20 L0,10 L15,0 Z" class="cell_be_rvalid"/>
    <g s:x="0" s:y="10" s:pid="A"/>
  </g>
  <line x1="120" x2="224" y1="329.5" y2="329.5" class="net_51"/>
  <line x1="224" x2="224" y1="329.5" y2="345.5" class="net_51"/>
  <circle cx="224" cy="329.5" r="2" style="fill:#000" class="net_51"/>
  <line x1="224" x2="281.6666666666667" y1="345.5" y2="345.5" class="net_51"/>
  <line x1="120" x2="546" y1="329.5" y2="329.5" class="net_51"/>
  <line x1="120" x2="145" y1="329.5" y2="329.5" class="net_51"/>
  <line x1="145" x2="145" y1="329.5" y2="264.5" class="net_51"/>
  <circle cx="145" cy="329.5" r="2" style="fill:#000" class="net_51"/>
  <line x1="145" x2="168" y1="264.5" y2="264.5" class="net_51"/>
  <line x1="188" x2="281.6666666666667" y1="360.5" y2="360.5" class="net_24"/>
  <line x1="474" x2="531" y1="207" y2="207" class="net_53"/>
  <line x1="531" x2="531" y1="207" y2="344.5" class="net_53"/>
  <circle cx="531" cy="344.5" r="2" style="fill:#000" class="net_53"/>
  <line x1="531" x2="546" y1="344.5" y2="344.5" class="net_53"/>
  <line x1="474" x2="531" y1="207" y2="207" class="net_53"/>
  <line x1="531" x2="531" y1="207" y2="409.5" class="net_53"/>
  <line x1="531" x2="546" y1="409.5" y2="409.5" class="net_53"/>
  <line x1="40" x2="135" y1="510.5" y2="510.5" class="net_48"/>
  <line x1="135" x2="135" y1="510.5" y2="394.5" class="net_48"/>
  <circle cx="135" cy="510.5" r="2" style="fill:#000" class="net_48"/>
  <line x1="135" x2="546" y1="394.5" y2="394.5" class="net_48"/>
  <line x1="40" x2="70" y1="510.5" y2="510.5" class="net_48"/>
  <line x1="70" x2="70" y1="510.5" y2="329.5" class="net_48"/>
  <circle cx="70" cy="510.5" r="2" style="fill:#000" class="net_48"/>
  <circle cx="70" cy="329.5" r="2" style="fill:#000" class="net_48"/>
  <line x1="70" x2="95" y1="329.5" y2="329.5" class="net_48"/>
  <line x1="40" x2="295" y1="510.5" y2="510.5" class="net_48"/>
  <line x1="295" x2="295" y1="510.5" y2="495.5" class="net_48"/>
  <line x1="40" x2="70" y1="510.5" y2="510.5" class="net_48"/>
  <line x1="70" x2="70" y1="510.5" y2="289.5" class="net_48"/>
  <line x1="70" x2="98.33333333333333" y1="289.5" y2="289.5" class="net_48"/>
  <line x1="40" x2="70" y1="510.5" y2="510.5" class="net_48"/>
  <line x1="70" x2="70" y1="510.5" y2="309.5" class="net_48"/>
  <line x1="70" x2="108.33333333333333" y1="309.5" y2="309.5" class="net_48"/>
  <circle cx="70" cy="309.5" r="2" style="fill:#000" class="net_48"/>
  <line x1="108.33333333333333" x2="108.33333333333333" y1="309.5" y2="294.5" class="net_48"/>
  <line x1="118.33333333333333" x2="168" y1="279.5" y2="279.5" class="net_54"/>
  <line x1="118.33333333333333" x2="135" y1="279.5" y2="279.5" class="net_54"/>
  <line x1="135" x2="135" y1="279.5" y2="42" class="net_54"/>
  <line x1="135" x2="382" y1="42" y2="42" class="net_54"/>
  <line x1="382" x2="382" y1="42" y2="247" class="net_54"/>
  <circle cx="135" cy="279.5" r="2" style="fill:#000" class="net_54"/>
  <line x1="382" x2="443" y1="247" y2="247" class="net_54"/>
  <line x1="474" x2="521" y1="247" y2="247" class="net_56"/>
  <line x1="521" x2="521" y1="247" y2="89.5" class="net_56"/>
  <circle cx="521" cy="89.5" r="2" style="fill:#000" class="net_56"/>
  <line x1="521" x2="546" y1="89.5" y2="89.5" class="net_56"/>
  <line x1="474" x2="521" y1="247" y2="247" class="net_56"/>
  <line x1="521" x2="521" y1="247" y2="24.5" class="net_56"/>
  <line x1="521" x2="546" y1="24.5" y2="24.5" class="net_56"/>
  <line x1="305" x2="546" y1="104.5" y2="104.5" class="net_57"/>
  <line x1="305" x2="392" y1="104.5" y2="104.5" class="net_57"/>
  <line x1="392" x2="392" y1="104.5" y2="39.5" class="net_57"/>
  <circle cx="392" cy="104.5" r="2" style="fill:#000" class="net_57"/>
  <line x1="392" x2="446.5" y1="39.5" y2="39.5" class="net_57"/>
  <line x1="471.5" x2="546" y1="39.5" y2="39.5" class="net_58"/>
  <line x1="188" x2="224" y1="214.5" y2="214.5" class="net_3"/>
  <line x1="224" x2="224" y1="214.5" y2="104.5" class="net_3"/>
  <circle cx="224" cy="214.5" r="2" style="fill:#000" class="net_3"/>
  <line x1="224" x2="274" y1="104.5" y2="104.5" class="net_3"/>
  <line x1="188" x2="362" y1="214.5" y2="214.5" class="net_3"/>
  <line x1="362" x2="362" y1="214.5" y2="267" class="net_3"/>
  <line x1="362" x2="443" y1="267" y2="267" class="net_3"/>
  <line x1="188" x2="234" y1="73" y2="73" class="net_2"/>
  <line x1="234" x2="234" y1="73" y2="124.5" class="net_2"/>
  <circle cx="234" cy="73" r="2" style="fill:#000" class="net_2"/>
  <line x1="234" x2="274" y1="124.5" y2="124.5" class="net_2"/>
  <line x1="188" x2="372" y1="73" y2="73" class="net_2"/>
  <line x1="372" x2="372" y1="73" y2="227" class="net_2"/>
  <line x1="372" x2="443" y1="227" y2="227" class="net_2"/>
  <line x1="198" x2="234" y1="272" y2="272" class="net_55"/>
  <line x1="234" x2="234" y1="272" y2="144.5" class="net_55"/>
  <line x1="234" x2="274" y1="144.5" y2="144.5" class="net_55"/>
  <line x1="188" x2="224" y1="425.5" y2="425.5" class="net_4,5,6,7,8,9,10,11,12,13,14,15"/>
  <line x1="224" x2="224" y1="425.5" y2="470.5" class="net_4,5,6,7,8,9,10,11,12,13,14,15"/>
  <line x1="224" x2="285" y1="470.5" y2="470.5" class="net_4,5,6,7,8,9,10,11,12,13,14,15"/>
  <line x1="188" x2="285" y1="490.5" y2="490.5" class="net_36,37,38,39,40,41,42,43,44,45,46,47"/>
  <line x1="40" x2="98.33333333333333" y1="269.5" y2="269.5" class="net_25"/>
  <line x1="305" x2="392" y1="480.5" y2="480.5" class="net_59,60,61,62,63,64,65,66,67,68,69,70"/>
  <line x1="392" x2="392" y1="480.5" y2="207" class="net_59,60,61,62,63,64,65,66,67,68,69,70"/>
  <line x1="392" x2="443" y1="207" y2="207" class="net_59,60,61,62,63,64,65,66,67,68,69,70"/>
  <line x1="302" x2="443" y1="287" y2="287" class="net_16,17,18,19,20,21,22,23"/>
  <line x1="311.6666666666667" x2="402" y1="353" y2="353" class="net_52"/>
  <line x1="402" x2="402" y1="353" y2="307" class="net_52"/>
  <line x1="402" x2="443" y1="307" y2="307" class="net_52"/>
  <line x1="576" x2="611" y1="337" y2="337" class="net_26"/>
  <line x1="474" x2="611" y1="227" y2="227" class="net_27,28,29,30,31,32,33,34"/>
  <line x1="474" x2="586" y1="227" y2="227" class="net_27,28,29,30,31,32,33,34"/>
  <line x1="586" x2="586" y1="227" y2="162" class="net_27,28,29,30,31,32,33,34"/>
  <circle cx="586" cy="227" r="2" style="fill:#000" class="net_27,28,29,30,31,32,33,34"/>
  <line x1="586" x2="611" y1="162" y2="162" class="net_27,28,29,30,31,32,33,34"/>
  <line x1="576" x2="611" y1="97" y2="97" class="net_35"/>
  <line x1="576" x2="611" y1="402" y2="402" class="net_49"/>
  <line x1="576" x2="611" y1="32" y2="32" class="net_50"/>
</svg>
